<svg width="96" height="82" viewBox="0 0 96 82" fill="none" xmlns="http://www.w3.org/2000/svg">
<path d="M29.7994 11.2195L39.1949 9.59402L43.5891 0.888672L47.9834 9.59402L57.3788 11.2195L50.7105 18.2162L52.1323 27.936L43.5891 23.5417L35.0459 27.936L36.4719 18.2162L29.7994 11.2195ZM31.6286 15.2853L32.5224 21.3051L27.1138 18.5405L21.7467 21.3051L22.6406 15.2022L18.4126 10.7705L24.3908 9.752L27.1554 4.21866L29.5126 8.93717L29.9615 9.79357L30.8138 9.63144L27.5171 3.12529L27.1928 2.47675L23.9002 8.98291L16.8661 10.201L21.8257 15.4475L20.7698 22.6853L27.1554 19.3886L33.5825 22.6437L32.6472 16.3413L31.6286 15.2853ZM54.7306 16.3829L53.7952 22.6853L60.2224 19.4302L66.608 22.7227L65.5479 15.4807L70.5117 10.2342L63.4734 9.01616L60.1808 2.51001L59.8566 3.15855L56.5598 9.6647L57.4121 9.82683L57.8611 8.97459L60.2183 4.25607L62.9828 9.78942L68.961 10.808L64.7289 15.2022L65.6643 21.3425L60.2972 18.5779L54.8886 21.3425L55.7824 15.3228L54.7265 16.3829H54.7306ZM14.6669 14.8364L18.4916 16.7487L17.9221 12.924L17.0657 12.0302L17.5936 15.568L14.6669 14.0631L11.7402 15.568L12.2266 12.2339L9.90681 9.83515L13.162 9.2656L14.6669 6.25572L15.9266 8.7792L16.2134 9.34875L16.9035 9.22818L14.9537 5.36607L14.6711 4.79652L12.7171 8.65863L8.56816 9.39032L11.4949 12.4833L10.8838 16.7944L14.6669 14.8405V14.8364ZM76.4899 16.7903L75.8787 12.4792L78.8055 9.38616L74.6607 8.65448L72.7067 4.79236L72.424 5.36191L70.4701 9.22402L71.1602 9.34459L71.4429 8.77504L72.7026 6.25157L74.2075 9.26144L77.4627 9.83099L75.1429 12.2297L75.6293 15.5639L72.6984 14.0589L69.7717 15.5639L70.2997 12.026L69.4433 12.9199L68.8737 16.7446L72.6943 14.8322L76.4774 16.7861L76.4899 16.7903Z" fill="black"/>
<path d="M92.828 63.2355C94.5616 63.2355 96 64.7238 96 66.4574C96 68.1909 94.5616 69.6792 92.7781 69.6792C90.9946 69.6792 89.5562 68.2408 89.5562 66.4574C89.6061 64.6739 91.0445 63.2355 92.828 63.2355ZM92.828 69.1346C94.2664 69.1346 95.4554 67.8958 95.4554 66.4574C95.4554 65.0189 94.2664 63.7302 92.8779 63.7302C91.3896 63.7302 90.2006 64.9192 90.2006 66.4574C90.1507 67.9457 91.3397 69.1346 92.828 69.1346ZM91.2898 64.5741H93.0234C93.9172 64.5741 94.4119 64.969 94.4119 65.6633C94.4119 66.1081 94.2124 66.4574 93.7176 66.6527L94.4119 68.2866H93.568L92.9735 66.7982H92.0797V68.2866H91.2856V64.5699L91.2898 64.5741ZM92.9236 66.2079C93.3684 66.2079 93.6179 66.0084 93.6179 65.6633C93.6179 65.364 93.3684 65.1686 92.9735 65.1686H92.0797V66.2079H92.9236Z" fill="black"/>
<path d="M6.09458 37.4062H0V56.4882H6.09458C12.1892 56.4882 16.1053 52.7716 16.1053 46.9223C16.1053 41.073 12.1892 37.4062 6.09458 37.4062ZM6.24424 53.2663H4.16144C3.81639 53.2663 3.61684 53.3162 3.46717 53.3661L3.41729 53.3162C3.46718 53.2164 3.51706 52.9212 3.51706 52.5221V41.1727C3.51706 40.8277 3.46718 40.5783 3.41729 40.3787L3.46717 40.3288C3.61684 40.4286 3.81223 40.4286 4.16144 40.4286H6.24424C10.0606 40.4286 12.3388 42.8066 12.3388 46.7726C12.3887 50.9341 10.1105 53.2663 6.24424 53.2663ZM23.6924 56.4882H20.221V37.4062H23.7381V56.4882H23.6882H23.6924ZM40.1968 40.4535H33.0587C32.7137 40.4535 32.5141 40.4036 32.3645 40.3538L32.3146 40.4037C32.3645 40.5034 32.4143 40.7986 32.4143 41.1977V43.875C32.4143 44.22 32.3645 44.4695 32.3146 44.669L32.3645 44.7189C32.5141 44.6191 32.7095 44.6191 33.0587 44.6191H39.4027V47.7911H33.0587C32.7137 47.7911 32.5141 47.7413 32.3645 47.6914L32.3146 47.7413C32.3645 47.841 32.4143 48.1362 32.4143 48.5353V52.6011C32.4143 52.9462 32.3645 53.1956 32.3146 53.3952L32.3645 53.445C32.5141 53.3453 32.7095 53.3453 33.0587 53.3453H40.2966V56.5173H28.8973V37.4354H40.1968V40.4577V40.4535ZM57.1003 56.4882H53.7287V45.1887C53.7287 44.1494 53.7786 43.7004 53.9782 43.0061L53.8784 42.9562C53.629 43.3013 53.3837 43.5008 52.889 43.7503L50.3613 45.039V41.6675L53.9283 39.1398L54.4729 37.4561H57.1003V56.4882ZM69.543 37.0072C64.9326 37.0072 62.3052 40.5741 62.3052 46.9181C62.3052 53.2621 64.9825 56.879 69.543 56.879C74.1036 56.879 76.7809 53.2621 76.7809 46.9181C76.8308 40.624 74.1535 37.0072 69.543 37.0072ZM69.543 53.7111C67.1651 53.7111 65.7765 51.2334 65.7765 46.9722C65.7765 42.7109 67.1152 40.2789 69.543 40.2789C71.9709 40.2789 73.2597 42.7068 73.2597 46.9722C73.2597 51.2375 71.921 53.7111 69.543 53.7111ZM87.0909 56.4882H83.7194V45.1887C83.7194 44.1494 83.7693 43.7004 83.9688 43.0061L83.869 42.9562C83.6196 43.3013 83.3743 43.5008 82.8796 43.7503L80.352 45.039V41.6675L83.9189 39.1398L84.4635 37.4561H87.0909V56.4882ZM9.22501 72.1362C8.68041 72.0364 8.43097 71.9865 7.88637 71.9865V71.8868C8.38108 71.8369 8.7303 71.787 9.17513 71.5874C10.6634 71.0927 11.5032 69.8538 11.5032 68.1161C11.5032 65.5386 9.61995 63.8549 6.6475 63.8549H0.00415659V80.854H7.14221C10.414 80.854 12.5467 79.0207 12.5467 76.1438C12.4968 73.9613 11.3577 72.5769 9.22501 72.1279V72.1362ZM3.67504 66.9437H6.00312C7.54131 66.9437 8.38108 67.638 8.38108 68.9268C8.38108 70.2155 7.48727 71.1094 5.90334 71.1094H3.72077C3.37571 71.1094 3.22605 71.1592 3.12628 71.2091L3.07639 71.1592C3.12628 71.0595 3.17616 70.8142 3.17616 70.5149V67.5424C3.12628 67.1973 3.07639 66.9479 3.0265 66.8481C3.22605 66.898 3.37156 66.9479 3.67088 66.9479L3.67504 66.9437ZM6.55188 78.3929H3.77481C3.42976 78.3929 3.23021 78.4927 3.13043 78.4927L3.08055 78.4428C3.13043 78.343 3.18032 78.0977 3.18032 77.7485V74.2772C3.18032 73.9321 3.13043 73.7326 3.08055 73.6328L3.13043 73.5829C3.2801 73.6827 3.47549 73.6827 3.72493 73.6827H6.35233C8.28547 73.6827 9.2749 74.4767 9.2749 76.0607C9.2749 77.6446 8.3312 78.3888 6.54772 78.3888L6.55188 78.3929ZM26.5276 66.7317H20.1836C19.8386 66.7317 19.6889 66.6818 19.5891 66.632L19.5392 66.6818C19.5891 66.7816 19.639 67.0269 19.639 67.3761V69.804C19.639 70.149 19.5891 70.3985 19.5392 70.4982L19.5891 70.5481C19.7388 70.4483 19.8884 70.4483 20.1836 70.4483H25.8334V73.2753H20.1836C19.8386 73.2753 19.6889 73.2254 19.5891 73.1755L19.5392 73.2254C19.5891 73.3252 19.639 73.5705 19.639 73.9197V77.5365C19.639 77.8816 19.5891 78.131 19.5392 78.2308L19.5891 78.2807C19.7388 78.1809 19.8884 78.1809 20.1836 78.1809H26.6274V81.0577H16.467V64.0586H26.5276V66.7359V66.7317ZM40.4046 64.7487L39.0161 67.5757C37.8271 66.9313 36.6381 66.5363 35.4492 66.5363C34.2602 66.5363 33.6657 66.9812 33.6657 67.7752C33.6657 68.4196 34.0107 68.8644 34.9544 69.5088L37.877 71.5916C39.86 72.9801 40.7539 74.3188 40.7539 76.3018C40.7539 79.4738 38.5713 81.2074 34.9544 81.2074C32.7719 81.2074 30.6932 80.563 29.1051 79.5736L30.5436 76.6967C31.8323 77.4908 33.4661 78.185 35.0542 78.185C36.6423 78.185 37.4821 77.4409 37.4821 76.4515C37.4821 75.6574 36.9874 75.013 35.7485 74.1733L32.9714 72.1902C31.2378 70.9514 30.2941 69.6127 30.2941 67.7794C30.2941 65.152 32.1774 63.5181 35.3494 63.5181C37.2825 63.568 38.9662 64.0628 40.4046 64.757V64.7487ZM55.4706 66.7816H51.4048C51.0598 66.7816 50.9101 66.7317 50.8103 66.6818L50.7604 66.7317C50.8103 66.8315 50.8602 67.0768 50.8602 67.3761V80.8582H47.7381V67.3761C47.7381 67.0311 47.788 66.8315 47.8379 66.7317L47.788 66.6818C47.6383 66.7816 47.4429 66.7816 47.1935 66.7816H43.032V63.859H55.5205L55.4706 66.7816ZM68.7532 66.7317H62.3593C62.0142 66.7317 61.8645 66.6818 61.7648 66.632L61.7149 66.6818C61.7648 66.7816 61.8147 67.0269 61.8147 67.3761V69.804C61.8147 70.149 61.7648 70.3985 61.7149 70.4982L61.7648 70.5481C61.9144 70.4483 62.0641 70.4483 62.3593 70.4483H68.009V73.2753H62.3593C62.0142 73.2753 61.8645 73.2254 61.7648 73.1755L61.7149 73.2254C61.7648 73.3252 61.8147 73.5705 61.8147 73.9197V77.5365C61.8147 77.8816 61.7648 78.131 61.7149 78.2308L61.7648 78.2807C61.9144 78.1809 62.0641 78.1809 62.3593 78.1809H68.803V81.0577H58.6426V64.0586H68.7033V66.7359H68.7532V66.7317ZM82.9794 73.2753C83.524 73.8698 83.9688 74.4643 84.2183 75.0089L84.318 74.959C84.1684 74.3645 84.0187 73.4208 84.0187 71.9366V63.859H87.0909V81.1076H86.5463L76.9305 71.4918C76.336 70.8973 75.9411 70.3028 75.6917 69.7582L75.5919 69.8081C75.7415 70.4026 75.8912 71.3463 75.8912 72.8305V80.9081H72.7691V63.6595H73.2638L82.9794 73.2753Z" fill="black"/>
</svg>
