<svg width="53" height="34" viewBox="0 0 53 34" fill="none" xmlns="http://www.w3.org/2000/svg">
<path d="M6.93322 33.5628C6.13322 33.7228 5.81322 33.0828 6.45322 32.6028C11.7332 30.8428 17.6532 27.1628 17.6532 22.8428C17.6532 19.1628 14.1332 18.6828 9.17322 17.5628C3.25322 16.2828 0.21322 13.8828 0.21322 9.24281C0.21322 4.28282 3.73322 0.282814 9.97322 0.282814C17.4932 0.282814 22.6132 6.36281 22.6132 14.6828C22.6132 25.8828 14.1332 31.0028 6.93322 33.5628ZM37.1732 33.5628C36.3732 33.7228 36.0532 33.0828 36.6932 32.6028C41.9732 30.8428 47.8932 27.1628 47.8932 22.8428C47.8932 19.1628 44.3732 18.6828 39.4132 17.5628C33.4932 16.2828 30.4532 13.8828 30.4532 9.24281C30.4532 4.28282 33.9732 0.282814 40.2132 0.282814C47.7332 0.282814 52.8532 5.88282 52.8532 14.2028C52.8532 25.4028 44.3732 31.0028 37.1732 33.5628Z" fill="url(#paint0_linear_10925_4059)"/>
<defs>
<linearGradient id="paint0_linear_10925_4059" x1="64.0532" y1="-24.1172" x2="-9.94678" y2="-24.1172" gradientUnits="userSpaceOnUse">
<stop offset="0.00212756" stop-color="#B65033"/>
<stop offset="1" stop-color="#F49E6E"/>
</linearGradient>
</defs>
</svg>
