<svg width="230" height="109" viewBox="0 0 230 109" fill="none" xmlns="http://www.w3.org/2000/svg">
<g clip-path="url(#clip0_10864_6795)">
<path d="M81.8926 89.7337V87.7662H87.2015V41.5085H82.1983V39.543H97.7336V44.9919C97.7667 45.0017 97.8008 45.0105 97.8339 45.0203C97.9692 44.8107 98.1065 44.6021 98.2409 44.3916C100.488 40.8582 103.728 39.0494 107.862 38.7987C110.221 38.6558 112.53 38.8859 114.724 39.828C117.798 41.1491 119.823 43.5004 121.133 46.5324C122.312 49.2617 122.798 52.1487 122.949 55.0945C123.119 58.4114 123.001 61.7146 122.214 64.963C121.711 67.0381 120.95 69.0036 119.733 70.7683C117.863 73.4791 115.283 75.1468 112.118 75.9097C109.597 76.5169 107.043 76.5923 104.485 76.1976C101.802 75.7824 99.5165 74.6454 97.865 72.2187V87.7506H107.599V89.7366H81.8916L81.8926 89.7337ZM97.7647 58.6376H97.7482C97.7482 60.7098 97.7297 62.7811 97.7579 64.8533C97.7686 65.6152 97.8202 66.3908 97.977 67.1331C98.4834 69.5285 99.573 71.5763 101.708 72.9081C105.34 75.1723 109.299 73.7356 110.641 69.6862C111.193 68.0194 111.445 66.2929 111.569 64.5526C111.917 59.6179 111.952 54.6802 111.485 49.7504C111.326 48.0777 111.036 46.4207 110.318 44.8793C109.587 43.3065 108.41 42.335 106.653 42.1049C104.71 41.8503 103.021 42.43 101.552 43.6581C99.0481 45.7509 97.9497 48.5634 97.7871 51.7393C97.6693 54.0329 97.7638 56.3382 97.7638 58.6386L97.7647 58.6376Z" fill="black"/>
<path d="M0 46.8412C0.0973751 45.9892 0.185986 45.1362 0.292125 44.2862C0.921169 39.2672 2.44898 34.59 5.57473 30.5484C8.96241 26.1679 13.4524 23.5502 18.7983 22.3663C24.1627 21.1784 29.4618 21.5838 34.7123 23.087C35.8642 23.4171 37.0337 23.6893 38.2022 23.9537C38.5596 24.035 38.9452 24.0311 39.3152 24.0135C39.9043 23.986 40.3532 23.6717 40.5382 23.1203C40.7271 22.5582 41.0767 22.4152 41.6006 22.5043C41.7097 22.5229 41.8216 22.5278 41.9745 22.5425C42.1761 27.8935 42.3767 33.2297 42.5802 38.6297C42.0476 38.6297 41.5636 38.6571 41.0874 38.6111C40.9677 38.5993 40.8226 38.3682 40.77 38.2115C40.0338 35.9973 39.1838 33.834 38.023 31.8048C36.7046 29.4995 35.0843 27.4636 32.829 26.0122C30.4054 24.4522 27.7315 23.9322 24.8862 24.0957C22.1227 24.2553 19.6406 25.0985 17.6074 27.0464C15.8634 28.7181 14.7952 30.8099 14.0181 33.0691C13.1067 35.7191 12.5945 38.4583 12.3803 41.2434C12.1836 43.8102 12.0219 46.3868 12.0141 48.9594C12.0015 53.4172 12.2936 57.8574 13.4309 62.1977C14.1593 64.98 15.2032 67.6172 17.0484 69.8638C19.0592 72.313 21.6572 73.6674 24.7937 73.9681C30.3109 74.4979 34.4114 72.1074 37.5079 67.6829C39.2587 65.1807 40.4623 62.4083 41.3971 59.5134C41.5227 59.1247 41.6843 58.9464 42.104 58.9954C42.437 59.0336 42.7779 59.0032 43.182 59.0032C43.0047 64.5442 42.8295 70.041 42.6532 75.5859C42.3309 75.5859 42.0544 75.6153 41.7876 75.5741C41.6454 75.5526 41.4643 75.441 41.3971 75.3176C40.7875 74.1953 40.2432 73.8819 38.9812 74.1277C37.7105 74.3745 36.4465 74.6732 35.1953 75.0071C30.865 76.1627 26.4763 76.6798 22 76.3125C17.6444 75.9541 13.4981 74.9151 9.79886 72.459C5.83374 69.8266 3.30296 66.1111 1.77807 61.6483C0.775106 58.7143 0.28044 55.6824 0.0895851 52.5936C0.0798476 52.4379 0.03116 52.2852 0.000973751 52.1314C0.000973751 50.3686 0.000973751 48.6059 0.000973751 46.8431L0 46.8412Z" fill="black"/>
<path d="M230 75.6323C227.535 75.6382 225.07 75.645 222.605 75.648C220.076 75.6509 217.545 75.648 215.015 75.648H214.438V20.7185H209.356V18.7344H225.034V73.6737H230V75.6323Z" fill="black"/>
<path d="M66.3007 57.4975C66.3007 55.1756 66.3192 52.9251 66.2949 50.6756C66.2744 48.7826 66.1683 46.8945 65.733 45.0417C65.6775 44.8037 65.6103 44.5687 65.5393 44.3346C64.6366 41.3712 62.7923 40.5339 60.1194 40.6083C59.3988 40.6279 58.6616 40.7523 57.9674 40.954C55.9575 41.5397 55.2418 43.0174 55.9556 45.0613C56.5028 45.0613 57.0686 45.0495 57.6334 45.0701C57.7677 45.075 57.9829 45.1563 58.017 45.2532C58.6237 47.0052 58.8788 48.7826 58.0725 50.5366C57.276 52.27 55.8017 53.0955 53.9857 53.2806C53.16 53.3648 52.2904 53.3227 51.4754 53.1611C49.4607 52.7626 48.1724 51.2152 47.9066 49.0402C47.4411 45.2297 49.1082 42.2859 52.7013 40.5643C54.8854 39.5184 57.2117 39.0405 59.6023 38.8671C62.6862 38.6438 65.7632 38.6879 68.7926 39.4067C72.0166 40.1716 74.4559 41.9187 75.7072 45.1132C76.27 46.5508 76.604 48.0452 76.7189 49.5778C76.8309 51.0723 76.8932 52.5736 76.901 54.0719C76.9273 59.0164 76.9058 63.962 76.9429 68.9065C76.9477 69.5763 77.1249 70.2628 77.3246 70.9092C77.5826 71.7406 78.1795 72.2381 79.0773 72.2988C79.9829 72.3605 80.5925 71.912 80.9878 71.1344C81.6032 69.923 81.796 68.596 81.984 67.273C82.0735 66.6443 82.1339 66.0107 82.1904 65.3771C82.2118 65.142 82.2771 65.0127 82.5409 65.0411C83.0054 65.0911 83.4719 65.1254 84.0201 65.1734C83.9256 66.1752 83.9061 67.1574 83.725 68.1093C83.4767 69.4157 83.2138 70.7378 82.7659 71.9845C81.8866 74.4308 80.0803 75.84 77.5203 76.2347C75.2456 76.5853 72.9894 76.5118 70.7917 75.7715C68.7098 75.0693 67.328 73.662 66.7233 71.5173C66.698 71.4272 66.6688 71.3391 66.6191 71.1775C66.5451 71.2735 66.5042 71.3117 66.4809 71.3587C65.0709 74.1194 62.7777 75.6696 59.7854 76.1779C57.0121 76.6489 54.2525 76.5255 51.5698 75.6148C48.2376 74.4837 46.3427 71.8346 46.1713 68.1377C46.0866 66.3211 46.2736 64.5486 47.1305 62.9102C48.223 60.8223 50.0478 59.6432 52.1852 58.8735C54.42 58.0685 56.7473 57.7326 59.1008 57.6278C61.32 57.5289 63.5431 57.5387 65.7652 57.5005C65.9249 57.4975 66.0836 57.5005 66.2978 57.5005L66.3007 57.4975ZM66.4078 59.3553C64.992 59.4356 63.7232 59.4268 62.4788 59.5952C59.6714 59.9762 57.9216 61.6606 57.4649 64.4751C57.2624 65.7198 57.2692 67.0047 57.2526 68.2719C57.238 69.3354 57.4114 70.3852 57.8456 71.3714C58.2653 72.3233 58.9869 72.9031 60.0093 73.0686C61.0327 73.235 62.0182 73.0881 62.9247 72.5672C64.7963 71.4909 65.8752 69.7781 66.0807 67.7108C66.3504 64.9941 66.3105 62.2462 66.4088 59.3553H66.4078Z" fill="black"/>
<path d="M208.802 65.0165C209.39 65.0684 209.936 65.1164 210.564 65.1712C210.485 66.0507 210.465 66.9154 210.318 67.7576C210.098 69.0219 209.887 70.3018 209.499 71.5191C208.614 74.2964 206.682 75.9055 203.792 76.2874C201.862 76.542 199.935 76.4862 198.045 75.9936C195.523 75.3355 193.8 73.8234 193.173 71.1166C192.987 71.4437 192.845 71.7062 192.692 71.9628C191.416 74.1114 189.526 75.4422 187.133 76.0005C184.119 76.7036 181.105 76.6017 178.158 75.6215C174.89 74.5334 172.973 71.9765 172.749 68.5195C172.646 66.9301 172.71 65.3553 173.265 63.8404C174.175 61.3588 176.048 59.8996 178.417 58.9879C180.745 58.0928 183.183 57.7393 185.65 57.6257C187.837 57.5248 190.027 57.5356 192.216 57.4983C192.407 57.4954 192.598 57.4983 192.803 57.4983C192.823 57.3338 192.85 57.2232 192.848 57.1135C192.802 53.9993 192.819 50.8811 192.671 47.7709C192.609 46.4703 192.297 45.1551 191.915 43.9036C191.3 41.8969 189.874 40.804 187.762 40.6376C186.499 40.5377 185.259 40.6141 184.083 41.1008C182.112 41.9175 182.059 43.315 182.412 44.8016C182.438 44.9113 182.656 45.0386 182.791 45.0474C183.26 45.0777 183.733 45.0405 184.201 45.0709C184.34 45.0797 184.549 45.1992 184.59 45.3157C185.105 46.7886 185.317 48.2948 184.897 49.8294C184.377 51.7263 182.657 53.1277 180.562 53.2805C179.7 53.3431 178.798 53.3216 177.958 53.1384C175.829 52.6733 174.56 50.9967 174.401 48.6297C174.152 44.9573 175.807 42.1986 179.223 40.571C181.408 39.53 183.73 39.0403 186.122 38.867C189.206 38.6437 192.282 38.6809 195.312 39.3997C198.023 40.0431 200.279 41.3603 201.677 43.8928C202.565 45.5008 203.021 47.2508 203.204 49.0606C203.348 50.4855 203.417 51.9231 203.423 53.3559C203.449 58.2348 203.414 63.1147 203.451 67.9936C203.457 68.9269 203.631 69.8709 203.828 70.7876C203.97 71.4427 204.396 71.9608 205.07 72.1899C206.05 72.5229 206.953 72.1753 207.472 71.2439C208.094 70.1275 208.29 68.8818 208.477 67.6411C208.605 66.7891 208.691 65.9302 208.803 65.0155L208.802 65.0165ZM192.883 59.4335C191.299 59.4266 189.816 59.3639 188.35 59.7233C185.979 60.305 184.575 61.8191 184.045 64.187C183.714 65.6638 183.651 67.1641 183.816 68.6605C183.911 69.5282 184.081 70.4017 184.347 71.2312C184.674 72.2497 185.438 72.8706 186.501 73.0596C187.47 73.2319 188.413 73.1193 189.291 72.66C191.174 71.6758 192.188 70.0218 192.593 68.0083C193.158 65.2016 192.708 62.3498 192.883 59.4335Z" fill="black"/>
<path d="M167.342 64.9991C167.915 65.0471 168.459 65.0931 169.098 65.146C169.015 66.0764 169.007 66.993 168.837 67.8793C168.57 69.265 168.312 70.6723 167.838 71.9943C167.012 74.2986 165.321 75.7059 162.905 76.1554C160.573 76.5893 158.251 76.5119 155.983 75.7823C153.514 74.9881 152.04 73.2616 151.645 70.6967C151.417 69.2199 151.265 67.7167 151.259 66.2242C151.222 58.2125 151.241 50.2008 151.241 42.189V41.5074H146.381V39.5273H151.241C151.241 39.303 151.241 39.1159 151.241 38.9289C151.241 36.0086 151.248 33.0873 151.232 30.167C151.23 29.8184 151.345 29.6891 151.665 29.6088C154.965 28.7783 158.261 27.9352 161.559 27.0978C161.667 27.0704 161.779 27.0597 161.96 27.0293V39.4949H172.074V41.482H162.019C162.006 41.7062 161.987 41.8776 161.987 42.049C161.986 50.7786 161.973 59.5081 162.006 68.2377C162.01 69.1651 162.185 70.1258 162.469 71.0101C162.805 72.055 163.783 72.4713 164.826 72.2117C165.466 72.0521 165.907 71.6124 166.099 71.0307C166.453 69.9534 166.752 68.8527 166.987 67.7422C167.171 66.8696 167.223 65.9686 167.344 65.0001L167.342 64.9991Z" fill="black"/>
<path d="M126.143 75.6169V73.6896H131.019V41.5183H126.017V39.5371H141.679V73.669H146.667V75.6169H126.142H126.143Z" fill="black"/>
<path d="M135.949 21.3203C136.621 21.4173 137.304 21.4633 137.961 21.62C140.096 22.1292 141.472 23.607 141.739 25.8163C141.856 26.7868 141.84 27.8122 141.666 28.7729C141.265 30.989 139.85 32.315 137.689 32.8155C136.328 33.1308 134.954 33.1044 133.599 32.7459C131.401 32.1652 130.152 30.7011 129.801 28.4761C129.443 26.2041 129.841 24.1407 131.735 22.6208C132.957 21.6405 134.419 21.384 135.949 21.3203Z" fill="black"/>
</g>
<defs>
<clipPath id="clip0_10864_6795">
<rect width="230" height="71" fill="white" transform="translate(0 18.7344)"/>
</clipPath>
</defs>
</svg>
