<svg width="230" height="109" viewBox="0 0 230 109" fill="none" xmlns="http://www.w3.org/2000/svg">
<path fill-rule="evenodd" clip-rule="evenodd" d="M181.02 25.3493C178.945 23.2872 176.415 22.2441 173.502 22.2441C171.994 22.2441 170.588 22.5242 169.297 23.0796C169.292 23.0772 169.292 26.7811 169.297 26.769C170.529 25.8877 171.888 25.4555 173.502 25.4555C175.565 25.4555 177.279 26.1654 178.744 27.6238C180.216 29.0846 180.933 30.7989 180.933 32.8633V46.1337H184.138V32.8633C184.138 29.949 183.09 27.4209 181.02 25.3493Z" fill="#2E5998"/>
<path fill-rule="evenodd" clip-rule="evenodd" d="M165.217 46.134H161.809V27.0446H158.794V23.8984H165.217V46.134Z" fill="#181D19"/>
<path fill-rule="evenodd" clip-rule="evenodd" d="M39.7416 40.8968L30.2099 22.8722H26.5638L39.7416 47.8869L52.9194 22.8722H49.2733L39.7416 40.8968ZM209.15 25.3471C206.772 23.1595 203.928 22.0488 200.693 22.0488C197.255 22.0488 194.275 23.2851 191.832 25.7189C189.399 28.1456 188.164 31.1155 188.164 34.5441C188.164 37.9728 189.399 40.9379 191.832 43.3645C194.275 45.8008 197.255 47.0346 200.693 47.0346C203.344 47.0346 205.777 46.2523 207.93 44.7142C209.399 43.6639 210.578 42.3769 211.46 40.8727C211.489 40.8195 211.52 40.7688 211.549 40.7157C211.581 40.6578 211.619 40.5733 211.646 40.5105H207.78C207.225 41.1672 206.574 41.7467 205.833 42.2417C204.281 43.2751 202.553 43.8015 200.693 43.8015C198.209 43.8015 196.122 42.9733 194.314 41.2759C192.728 39.7668 191.808 38.0066 191.52 35.9156H213.15L213.191 35.1767L213.222 34.5441C213.222 34.2157 213.198 33.827 213.157 33.39C212.864 30.2197 211.518 27.513 209.15 25.3471ZM194.466 27.6723C196.248 26.0642 198.287 25.2843 200.693 25.2843C203.092 25.2843 205.129 26.0666 206.92 27.6699C208.462 29.0703 209.407 30.7147 209.792 32.6801H191.592C191.97 30.7147 192.914 29.0703 194.466 27.6723ZM75.4134 25.3471C73.0359 23.1595 70.1887 22.0488 66.9566 22.0488C63.5187 22.0488 60.5384 23.2851 58.0956 25.7189C55.6624 28.1456 54.4301 31.1155 54.4301 34.5441C54.4301 37.9728 55.6624 40.9379 58.0956 43.3645C60.5384 45.8008 63.5187 47.0346 66.9566 47.0346C69.6077 47.0346 72.0409 46.2523 74.1932 44.7142C75.6603 43.6639 76.8418 42.3769 77.7231 40.8727C77.7521 40.8195 77.7836 40.7688 77.8126 40.7157C77.8441 40.6578 77.8804 40.5733 77.9095 40.5105H74.0406C73.4862 41.1672 72.8374 41.7467 72.099 42.2417C70.5471 43.2751 68.816 43.8015 66.9566 43.8015C64.4726 43.8015 62.3857 42.9733 60.5772 41.2759C58.989 39.7668 58.0714 38.0066 57.7809 35.9156H79.413L79.4517 35.1767L79.4832 34.5441C79.4832 34.2157 79.4638 33.827 79.4202 33.39C79.1273 30.2197 77.7787 27.513 75.4134 25.3471ZM60.7297 27.6723C62.5116 26.0642 64.5477 25.2843 66.9566 25.2843C69.3559 25.2843 71.392 26.0666 73.1812 27.6699C74.7258 29.0703 75.67 30.7147 76.0525 32.6801H57.8583C58.2336 30.7147 59.1802 29.0703 60.7297 27.6723ZM20.9857 25.3471C18.6058 23.1595 15.7611 22.0488 12.5289 22.0488C9.09105 22.0488 6.10832 23.2851 3.66547 25.7189C1.23474 28.1456 0 31.1155 0 34.5441C0 37.9728 1.23474 40.9379 3.66547 43.3645C6.10832 45.8008 9.08863 47.0346 12.5289 47.0346C15.1776 47.0346 17.6132 46.2523 19.7631 44.7142C21.2326 43.6639 22.4141 42.3769 23.2929 40.8727C23.3244 40.8195 23.3535 40.7688 23.3825 40.7157C23.4164 40.6578 23.4503 40.5733 23.4794 40.5105H19.6129C19.0585 41.1672 18.4073 41.7467 17.6688 42.2417C16.117 43.2751 14.3859 43.8015 12.5289 43.8015C10.0425 43.8015 7.95558 42.9733 6.14705 41.2759C4.56126 39.7668 3.64126 38.0066 3.35316 35.9156H24.9853L25.024 35.1767L25.0555 34.5441C25.0555 34.2157 25.0337 33.827 24.9901 33.39C24.6972 30.2197 23.3511 27.513 20.9857 25.3471ZM6.29958 27.6723C8.0839 26.0642 10.12 25.2843 12.5289 25.2843C14.9258 25.2843 16.9643 26.0666 18.7535 27.6699C20.2957 29.0703 21.2399 30.7147 21.6248 32.6801H3.42821C3.8059 30.7147 4.75011 29.0703 6.29958 27.6723Z" fill="#2E5998"/>
<path fill-rule="evenodd" clip-rule="evenodd" d="M95.0117 22.0332C92.0387 22.0332 89.4627 23.098 87.3563 25.1987C85.2476 27.3042 84.1799 29.8708 84.1799 32.8359V46.1811H87.4241V32.8359C87.4241 30.7256 88.1529 28.9726 89.6564 27.4756C91.1453 25.9786 92.8957 25.2518 95.0117 25.2518C95.801 25.2518 96.5878 25.3774 97.3505 25.6236L98.3746 25.9568V22.5475L97.7935 22.393C96.8856 22.1539 95.9511 22.0332 95.0117 22.0332Z" fill="#2E5998"/>
<path fill-rule="evenodd" clip-rule="evenodd" d="M123.445 35.2577C123.445 37.6433 122.617 39.6232 120.91 41.3158C119.215 43.006 117.232 43.8294 114.85 43.8294C112.448 43.8294 110.456 43.0036 108.758 41.3014C107.061 39.6088 106.238 37.6288 106.238 35.2433V22.8711H102.994V35.2433C102.994 38.4788 104.158 41.2893 106.461 43.5952C108.773 45.889 111.593 47.0504 114.85 47.0504C116.922 47.0504 118.881 46.5337 120.675 45.5148C121.682 44.9377 122.583 44.235 123.367 43.4165C123.115 45.3626 122.244 47.0601 120.731 48.5788C118.9 50.3849 116.75 51.2638 114.162 51.2638C111.572 51.2638 109.424 50.3849 107.608 48.5957C107.19 48.1563 106.822 47.7192 106.521 47.2967L106.044 46.6279L103.483 48.6488L103.921 49.2549C104.311 49.7982 104.778 50.3342 105.299 50.8437C107.732 53.2775 110.712 54.5138 114.162 54.5138C117.6 54.5138 120.578 53.2775 123.006 50.8461C125.408 48.4605 126.645 45.5727 126.689 42.2479V22.8711H123.445V35.2577Z" fill="#2E5998"/>
<path fill-rule="evenodd" clip-rule="evenodd" d="M143.912 22.0488C140.474 22.0488 137.491 23.2851 135.051 25.7189C132.618 28.1456 131.383 31.1155 131.383 34.5441C131.383 37.9728 132.618 40.9379 135.051 43.3645C137.491 45.8008 140.474 47.0346 143.912 47.0346C147.35 47.0346 150.328 45.8008 152.759 43.3669C155.201 40.9403 156.441 37.9728 156.441 34.5441C156.441 31.1131 155.201 28.1432 152.759 25.7189C150.328 23.2851 147.35 22.0488 143.912 22.0488ZM143.912 43.8015C141.324 43.8015 139.176 42.913 137.346 41.09C135.518 39.2646 134.63 37.1229 134.63 34.5441C134.63 31.9606 135.518 29.8213 137.346 27.9959C139.176 26.1705 141.324 25.2843 143.912 25.2843C146.5 25.2843 148.648 26.1705 150.478 27.9959C152.306 29.8213 153.194 31.9606 153.194 34.5441C153.194 37.1229 152.306 39.2646 150.478 41.09C148.648 42.913 146.5 43.8015 143.912 43.8015Z" fill="#2E5998"/>
<path fill-rule="evenodd" clip-rule="evenodd" d="M225.059 62.5388C225.059 61.7999 225.008 61.3243 224.904 61.1214C224.802 60.9162 224.649 60.81 224.444 60.81C223.647 60.81 222.773 61.2398 221.824 62.0993C220.873 62.9565 219.974 64.1082 219.129 65.5546C218.282 67.0033 217.58 68.5969 217.028 70.3378C216.946 70.5961 216.914 70.8593 216.844 71.1177C217.699 70.811 218.519 70.5044 219.263 70.2026C220.432 69.7293 221.362 69.2247 222.056 68.6862C222.979 67.945 223.71 67.0468 224.25 65.9964C224.79 64.9461 225.059 63.7944 225.059 62.5388ZM228.141 62.6185C228.141 63.6398 227.838 64.596 227.235 65.4773C226.632 66.361 225.836 67.1675 224.848 67.8991C223.86 68.6283 222.785 69.2754 221.633 69.838C220.475 70.4006 219.345 70.8883 218.241 71.2988C217.684 71.504 217.161 71.6899 216.667 71.8614C216.391 73.1 216.202 74.3459 216.202 75.5991C216.202 76.9078 216.444 77.847 216.931 78.4217C217.42 79.0012 218.062 79.2885 218.858 79.2885C219.783 79.2885 220.756 79.006 221.785 78.4434C222.812 77.8808 223.814 76.8812 224.79 75.447L225.405 75.7536C224.916 76.6011 224.277 77.4197 223.48 78.2141C222.683 79.006 221.793 79.6507 220.802 80.1505C219.815 80.6503 218.769 80.9014 217.665 80.9014C216.098 80.9014 214.859 80.4451 213.946 79.5372C213.036 78.6294 212.58 77.2796 212.58 75.4856C212.58 74.3846 212.786 73.1483 213.195 71.7769C213.607 70.4078 214.19 69.0388 214.951 67.6673C215.706 66.2982 216.611 65.0354 217.665 63.8837C218.718 62.7319 219.885 61.812 221.168 61.1214C222.453 60.4261 223.829 60.0808 225.289 60.0808C226.087 60.0808 226.761 60.2933 227.31 60.7158C227.865 61.1383 228.141 61.771 228.141 62.6185ZM208.806 75.6377C208.239 77.2265 207.671 78.2648 207.092 78.7501C206.513 79.2354 205.942 79.4793 205.378 79.4793C204.811 79.4793 204.359 79.2934 204.01 78.9239C203.664 78.5521 203.606 77.9436 203.838 77.0985L208.312 61.387H213.505L213.621 60.6192H208.53L210.348 54.2448C209.859 54.4235 209.312 54.5514 208.709 54.6263C208.106 54.7036 207.496 54.7567 206.881 54.7832L205.199 60.6192H201.72L201.526 61.387H204.978L200.909 75.5242C200.449 77.113 200.453 78.4048 200.928 79.4044C201.405 80.4016 202.424 80.9014 203.993 80.9014C205.172 80.9014 206.206 80.5948 207.092 79.9791C207.978 79.3634 208.702 78.2237 209.266 76.5601L210.077 74.1407H209.346L208.806 75.6377ZM192.302 66.6049L192.675 65.1393C192.815 63.8837 192.737 62.843 192.399 62.0583C192.038 61.2277 191.447 60.81 190.626 60.81C189.779 60.81 188.9 61.3122 187.987 62.3118C187.077 63.309 186.222 64.6081 185.426 66.2089C184.632 67.8097 183.99 69.5386 183.501 71.3929C183.015 73.2521 182.77 75.0244 182.77 76.7146C182.77 77.8132 182.891 78.5835 183.136 79.0181C183.38 79.4551 183.707 79.6724 184.119 79.6724C184.733 79.6724 185.438 79.2813 186.235 78.5014C187.031 77.7191 187.842 76.6639 188.663 75.3311C189.484 73.9982 190.241 72.4892 190.936 70.799C191.491 69.4468 191.929 68.0415 192.302 66.6049ZM192.34 77.9629C192.251 78.3324 192.251 78.6728 192.34 78.9819C192.43 79.2885 192.694 79.4406 193.13 79.4406C193.643 79.4406 194.144 79.1581 194.633 78.598C195.12 78.033 195.606 77.0068 196.095 75.5218L196.558 74.0997H197.289L196.328 76.9078C195.761 78.441 195.069 79.4938 194.246 80.0564C193.425 80.6189 192.643 80.9014 191.897 80.9014C190.895 80.9014 190.191 80.5658 189.779 79.9018C189.445 79.3151 189.355 78.6269 189.51 77.847C189.665 77.0671 189.842 76.28 190.048 75.4856L190.75 72.7209C189.677 75.2393 188.605 77.1299 187.525 78.3662C186.048 80.0564 184.54 80.9014 183 80.9014C181.794 80.9014 180.889 80.4644 180.284 79.5952C179.681 78.7235 179.381 77.6104 179.381 76.2534C179.381 75.0244 179.586 73.6868 179.995 72.238C180.407 70.7917 180.978 69.3526 181.71 67.9184C182.441 66.4842 183.283 65.1779 184.232 63.9996C185.184 62.8237 186.218 61.8748 187.334 61.1577C188.45 60.4405 189.588 60.0832 190.743 60.0832C191.641 60.0832 192.328 60.5226 192.803 61.4064C193.035 61.841 193.176 62.3625 193.227 62.9686L193.822 60.6192C194.439 60.5951 195.054 60.542 195.672 60.4647C196.289 60.3898 196.853 60.2619 197.367 60.0832L192.553 77.0599C192.5 77.2917 192.43 77.5935 192.34 77.9629ZM175.875 75.5629C175.337 77.0985 174.829 78.1344 174.354 78.6752C173.88 79.2113 173.398 79.4817 172.909 79.4817C172.396 79.4817 172.1 79.2813 172.023 78.8853C171.945 78.4869 172.037 77.8929 172.294 77.0985L176.03 65.8805C176.313 65.0113 176.485 64.1372 176.55 63.2511C176.613 62.3673 176.453 61.6164 176.066 61.0055C175.684 60.3898 174.95 60.0832 173.873 60.0832C172.846 60.0832 171.895 60.344 171.023 60.8703C170.149 61.3943 169.302 62.2321 168.481 63.3863C167.658 64.538 166.825 66.0423 165.978 67.8991C165.537 68.8649 165.075 69.9418 164.593 71.1249L166.016 65.8805C166.246 65.062 166.413 64.2048 166.517 63.309C166.619 62.4132 166.503 61.6502 166.171 61.0224C165.835 60.3971 165.116 60.0832 164.012 60.0832C162.833 60.0832 161.721 60.4647 160.68 61.2349C159.642 62.0028 158.608 63.2825 157.581 65.0741C156.79 66.4576 155.947 68.2347 155.063 70.3788L156.31 65.458C156.54 64.7191 156.719 63.9272 156.848 63.0965C156.976 62.2635 156.901 61.5536 156.618 60.9645C156.337 60.3753 155.681 60.0832 154.654 60.0832C153.858 60.0832 153.023 60.3367 152.151 60.8486C151.277 61.3629 150.558 62.4253 149.994 64.0382L149.03 66.8439H149.761L150.263 65.4218C150.776 63.9875 151.265 62.9758 151.727 62.3867C152.19 61.7975 152.703 61.5029 153.267 61.5029C153.676 61.5029 153.921 61.6551 153.998 61.9641C154.076 62.2708 154.081 62.6112 154.018 62.9831C153.955 63.3525 153.884 63.6543 153.807 63.8837L149.185 80.363H152.536L153.027 78.4169C153.662 76.0748 154.383 73.8727 155.194 71.8155C156.015 69.7293 156.87 67.8991 157.756 66.3248C158.639 64.7481 159.513 63.5215 160.373 62.6354C161.232 61.7516 162.024 61.3122 162.741 61.3122C163.46 61.3122 163.82 61.6502 163.82 62.3287C163.82 63.0072 163.692 63.7436 163.435 64.538L158.62 80.363H162.087L162.365 79.332L162.319 79.5952C163.423 76.0603 164.571 72.9165 165.767 70.1664C166.958 67.4138 168.147 65.2479 169.328 63.6736C170.51 62.0993 171.602 61.3122 172.602 61.3122C173.166 61.3122 173.449 61.6502 173.449 62.3287C173.449 63.0072 173.321 63.7436 173.064 64.538L169.403 75.5218C169.096 76.4707 168.893 77.311 168.788 78.0378C168.687 78.7694 168.788 79.3779 169.096 79.8632C169.302 80.1698 169.592 80.4209 169.963 80.6141C170.335 80.8049 170.844 80.9014 171.485 80.9014C172.28 80.9014 173.115 80.6431 173.989 80.1336C174.86 79.6217 175.579 78.5569 176.146 76.944L177.11 74.1407H176.376L175.875 75.5629ZM144.68 75.5629C144.113 77.0454 143.6 78.0716 143.137 78.6342C142.675 79.1992 142.188 79.4793 141.675 79.4793C141.186 79.4793 140.898 79.2668 140.808 78.8467C140.716 78.4217 140.801 77.8398 141.058 77.0985L145.178 65.458C145.462 64.666 145.66 63.8523 145.776 63.0217C145.893 62.1887 145.776 61.4909 145.43 60.9259C145.084 60.3633 144.358 60.0808 143.254 60.0808C142.457 60.0808 141.61 60.3367 140.711 60.8486C139.813 61.3629 139.068 62.4253 138.477 64.0382L137.477 66.8439H138.208L138.746 65.4218C139.261 64.0889 139.748 63.1038 140.21 62.4615C140.673 61.8241 141.201 61.5029 141.789 61.5029C142.689 61.5029 142.869 62.2973 142.329 63.8837L138.208 75.5218C137.874 76.4442 137.656 77.3158 137.552 78.1344C137.45 78.9553 137.591 79.6217 137.978 80.1336C138.363 80.6431 139.106 80.9014 140.21 80.9014C141.109 80.9014 141.987 80.6141 142.849 80.0346C143.709 79.46 144.408 78.4289 144.948 76.944L145.951 74.1407H145.217L144.68 75.5629ZM146.336 51.1687C145.694 51.1687 145.096 51.4125 144.544 51.9003C143.992 52.3856 143.651 52.9627 143.525 53.6291C143.394 54.2931 143.517 54.8726 143.888 55.3579C144.261 55.8432 144.767 56.0895 145.411 56.0895C146.079 56.0895 146.687 55.8432 147.241 55.3579C147.793 54.8726 148.132 54.2931 148.26 53.6291C148.389 52.9627 148.268 52.3856 147.895 51.9003C147.522 51.4125 147.004 51.1687 146.336 51.1687ZM133.046 75.5629C132.533 77.0213 132.051 78.0378 131.601 78.6173C131.153 79.1919 130.671 79.4793 130.158 79.4793C129.669 79.4793 129.388 79.2692 129.311 78.8442C129.236 78.4217 129.299 77.8398 129.504 77.0985L137.554 49.8262C136.552 50.3139 135.511 50.6882 134.434 50.9562C133.356 51.229 132.109 51.3739 130.698 51.4005L130.429 52.2069C131.686 52.2069 132.47 52.4122 132.778 52.8226C133.088 53.2331 133.112 53.873 132.855 54.7422L126.577 75.5242C126.345 76.3428 126.18 77.1686 126.076 78.0016C125.975 78.8322 126.108 79.5227 126.481 80.0757C126.853 80.6262 127.589 80.9014 128.696 80.9014C129.362 80.9014 129.979 80.7735 130.543 80.5175C131.11 80.2616 131.628 79.8439 132.102 79.2692C132.579 78.6921 132.983 77.9195 133.318 76.944L134.281 74.1407H133.548L133.046 75.5629ZM124.188 60.9452C123.367 60.3705 122.391 60.0832 121.261 60.0832C119.464 60.0832 117.847 60.5806 116.409 61.5802C114.971 62.5798 113.751 63.8644 112.751 65.4387C111.748 67.0154 110.979 68.6717 110.439 70.4151C109.899 72.1584 109.63 73.7713 109.63 75.2562C109.63 77.1227 110.092 78.5328 111.015 79.4793C111.942 80.4282 113.174 80.9014 114.714 80.9014C115.818 80.9014 116.864 80.6503 117.852 80.1505C118.842 79.6507 119.733 79.0084 120.532 78.2141C121.326 77.4197 121.968 76.6011 122.454 75.7536L121.687 75.447C120.709 76.8812 119.733 77.8784 118.76 78.441C117.782 79.0084 116.833 79.2885 115.908 79.2885C115.111 79.2885 114.465 79.0012 113.964 78.4217C113.463 77.847 113.213 76.9078 113.213 75.5991C113.213 73.6554 113.448 71.7962 113.925 70.0311C114.399 68.2613 115.034 66.6894 115.83 65.3059C116.627 63.9247 117.506 62.8334 118.469 62.039C119.433 61.247 120.401 60.8486 121.377 60.8486C122.045 60.8486 122.585 60.9597 122.997 61.177C123.406 61.3943 123.74 61.6816 123.997 62.039C123.251 62.1694 122.585 62.4953 121.994 63.0217C121.404 63.5432 121.108 64.1783 121.108 64.9219C121.108 65.3324 121.234 65.6849 121.493 65.9771C121.75 66.2717 122.147 66.4214 122.687 66.4214C123.251 66.4214 123.74 66.2644 124.151 65.9578C124.561 65.6511 124.875 65.26 125.093 64.7867C125.314 64.3135 125.423 63.833 125.423 63.3452C125.423 62.3239 125.011 61.5223 124.188 60.9452ZM97.9968 60.0832C97.1519 60.0832 96.3481 60.3174 95.5903 60.7931C94.835 61.2663 94.0965 62.0341 93.3775 63.0965C92.656 64.1589 91.9321 65.5497 91.201 67.2641C90.8112 68.1768 90.4044 69.2126 89.9807 70.3523L91.2203 65.458C91.4261 64.666 91.5907 63.8571 91.7215 63.0386C91.8474 62.2201 91.7796 61.5198 91.5084 60.9452C91.2373 60.3705 90.5909 60.0832 89.5619 60.0832C88.7678 60.0832 87.9325 60.3367 87.061 60.8486C86.187 61.3629 85.4679 62.4253 84.9038 64.0382L83.9402 66.8439H84.6714L85.1725 65.4218C85.6858 63.9875 86.1748 62.9758 86.6373 62.3867C87.0997 61.7975 87.613 61.5029 88.1771 61.5029C88.6128 61.5029 88.8767 61.684 88.9663 62.0414C89.0559 62.4012 88.9736 63.0145 88.717 63.8837L84.0952 80.363H87.4459L88.1286 77.6635C88.6395 75.9444 89.16 74.3073 89.6999 72.7958C90.327 71.0283 90.9685 69.4227 91.6246 67.9739C92.2807 66.53 92.9344 65.2865 93.5881 64.2483C94.2442 63.2124 94.8858 62.4205 95.5153 61.8675C96.1447 61.3194 96.7524 61.0418 97.3432 61.0418C97.4449 61.0418 97.5296 61.0538 97.5925 61.0804C97.6579 61.107 97.716 61.1432 97.7693 61.1963C97.2802 61.4015 96.8686 61.7082 96.5345 62.1162C96.2004 62.5291 96.0334 63.0386 96.0334 63.6543C96.0334 64.0889 96.1811 64.4294 96.4764 64.6732C96.7718 64.9171 97.1374 65.0354 97.5756 65.0354C98.2946 65.0354 98.9217 64.7674 99.4616 64.2314C100.001 63.6929 100.273 63.0386 100.273 62.2708C100.273 61.6309 100.072 61.107 99.6746 60.6965C99.2752 60.2884 98.7159 60.0832 97.9968 60.0832ZM77.8948 64.1928C77.8948 63.0145 77.7133 62.1621 77.3525 61.6357C76.9966 61.1118 76.4422 60.8486 75.699 60.8486C74.8758 60.8486 74.0865 61.177 73.3287 61.8289C72.571 62.4832 71.8785 63.3646 71.2491 64.4801C70.6196 65.5932 70.0676 66.8439 69.5931 68.2251C69.1185 69.6062 68.753 71.0428 68.4963 72.5278C68.2373 74.0127 68.1114 75.4325 68.1114 76.7919C68.1114 77.9436 68.2978 78.7887 68.6706 79.3272C69.0411 79.8632 69.5858 80.1336 70.3073 80.1336C71.128 80.1336 71.9173 79.8077 72.6751 79.1533C73.4304 78.5014 74.1325 77.6177 74.7741 76.5045C75.4157 75.389 75.9677 74.1407 76.4301 72.7572C76.8925 71.3736 77.2533 69.949 77.5075 68.4737C77.7641 67.0033 77.8948 65.5739 77.8948 64.1928ZM79.7615 61.5609C80.7251 62.546 81.2068 64.0648 81.2068 66.1123C81.2068 67.52 80.9623 69.075 80.4757 70.7796C79.9866 72.4819 79.2724 74.1021 78.3379 75.6377C77.3985 77.1758 76.2388 78.4362 74.8492 79.4213C73.4643 80.4089 71.8713 80.9014 70.0748 80.9014C68.4818 80.9014 67.2059 80.4016 66.2423 79.4044C65.2787 78.4048 64.7969 76.8933 64.7969 74.8699C64.7969 73.4622 65.0415 71.9048 65.5305 70.2026C66.0172 68.5003 66.7314 66.8801 67.6683 65.3445C68.6053 63.8064 69.7674 62.546 71.1522 61.5609C72.5395 60.5758 74.1325 60.0832 75.929 60.0832C77.522 60.0832 78.8003 60.5758 79.7615 61.5609ZM61.0395 61.3895L54.1298 87.0489C53.5124 87.073 52.9096 87.1237 52.3213 87.1986C51.7281 87.2759 51.1785 87.4038 50.6628 87.5849L57.6887 61.3895H54.2073L54.4373 60.6168H57.8945L57.9042 60.5806C58.4441 58.533 59.0155 56.8429 59.6183 55.51C60.2212 54.1796 60.9596 53.0906 61.8336 52.248C62.4219 51.6564 63.1482 51.188 64.0077 50.8427C64.8696 50.4974 65.7484 50.326 66.6466 50.326C67.8281 50.326 68.7312 50.5868 69.3631 51.1107C69.9925 51.6395 70.3048 52.2818 70.3048 53.0544C70.3048 53.6919 70.0627 54.2931 69.5761 54.8581C69.0871 55.4207 68.4697 55.7008 67.7264 55.7008C67.2374 55.7008 66.8524 55.5873 66.5716 55.3579C66.2883 55.1261 66.16 54.8074 66.1842 54.3969C66.1842 53.7571 66.39 53.2114 66.8016 52.7647C67.2107 52.318 67.7385 52.0017 68.3801 51.823C68.3801 51.5912 68.2131 51.3787 67.8789 51.188C67.5473 50.9972 67.1212 50.9006 66.6079 50.9006C66.1213 50.9006 65.6976 51.0045 65.3393 51.2097C64.9785 51.4125 64.6565 51.6443 64.3757 51.9003C63.6808 52.5401 63.1167 53.675 62.6785 55.2975C62.2452 56.925 61.7682 58.6876 61.2549 60.5806L61.2453 60.6168H65.7993L65.5693 61.3895H61.0395Z" fill="#181D19"/>
</svg>
