<svg width="230" height="109" viewBox="0 0 230 109" fill="none" xmlns="http://www.w3.org/2000/svg">
<path d="M109.672 53.7621C109.672 52.7548 109.35 51.9351 108.703 51.2987C108.057 50.656 107.276 50.3378 106.358 50.3378C105.409 50.3378 104.621 50.6623 103.988 51.3156C103.354 51.9604 103.036 52.7758 103.036 53.7621C103.036 54.7041 103.354 55.4815 103.988 56.0948C104.621 56.7058 105.409 57.0136 106.358 57.0136C107.297 57.0136 108.084 56.7186 108.72 56.1285C109.354 55.5363 109.672 54.7483 109.672 53.7621ZM114.4 58.849C114.4 61.7359 113.59 63.9359 111.956 65.4572C110.432 66.9239 108.322 67.6384 105.634 67.5962C102.394 67.5582 99.9373 66.5825 98.2448 64.6755C98.1858 64.587 98.0173 64.4332 98.0173 64.4332C98.0173 64.4332 98.2616 64.2857 98.3648 64.2246L102.045 62.1468C102.12 62.0878 102.291 62.0183 102.291 62.0183C102.291 62.0183 102.363 62.1026 102.405 62.1763C102.727 62.5178 103.205 62.8337 103.836 63.1266C104.47 63.4153 105.055 63.5818 105.607 63.6219C107.209 63.723 108.314 63.1203 108.916 61.816C109.177 61.2533 109.358 60.2861 109.457 58.9374C108.655 60.1238 107.24 60.7139 105.207 60.7139C103.139 60.7139 101.491 60.1027 100.268 58.8784C98.9562 57.5951 98.3058 55.7682 98.3058 53.3997C98.3058 51.1132 98.9479 49.299 100.238 47.9734C101.523 46.6481 103.19 45.9863 105.236 45.9863C106.026 45.9863 106.838 46.136 107.68 46.4352C108.525 46.7344 109.097 47.1242 109.398 47.6047V46.0917H114.4V58.849Z" fill="#00A9EC"/>
<path d="M220.661 53.7621C220.661 52.7548 220.339 51.9351 219.695 51.2987C219.049 50.656 218.267 50.3378 217.35 50.3378C216.409 50.3378 215.621 50.6623 214.99 51.3156C214.354 51.9604 214.036 52.7758 214.036 53.7621C214.036 54.7041 214.354 55.4815 214.99 56.0948C215.621 56.7058 216.409 57.0136 217.35 57.0136C218.291 57.0136 219.078 56.7186 219.712 56.1285C220.345 55.5363 220.661 54.7483 220.661 53.7621ZM225.4 58.849C225.4 61.7359 224.587 63.9359 222.945 65.4572C221.421 66.9239 219.314 67.6384 216.628 67.5962C213.396 67.5582 210.925 66.5825 209.238 64.6755C209.179 64.587 209.013 64.4332 209.013 64.4332C209.013 64.4332 209.257 64.2857 209.358 64.2246L213.047 62.1468C213.122 62.0878 213.293 62.0183 213.293 62.0183C213.293 62.0183 213.367 62.1026 213.407 62.1763C213.729 62.5178 214.204 62.8337 214.838 63.1266C215.47 63.4153 216.055 63.5818 216.598 63.6219C218.202 63.723 219.305 63.1203 219.908 61.816C220.169 61.2533 220.348 60.2861 220.449 58.9374C219.646 60.1238 218.232 60.7139 216.206 60.7139C214.139 60.7139 212.495 60.1027 211.253 58.8784C209.95 57.5951 209.299 55.7682 209.299 53.3997C209.299 51.1132 209.941 49.299 211.224 47.9734C212.525 46.6481 214.19 45.9863 216.236 45.9863C217.019 45.9863 217.832 46.136 218.674 46.4352C219.516 46.7344 220.086 47.1242 220.39 47.6047V46.0917H225.4V58.849Z" fill="#00A9EC"/>
<path d="M9.30948 54.5915C9.86527 55.445 10.3326 56.1613 12.0105 56.7113C12.8083 56.9875 13.7999 57.1518 14.7346 57.1518C15.2294 57.1518 17.6588 57.097 17.6588 55.6936C17.6588 55.5544 17.6588 54.8401 16.5851 54.4819C15.8988 54.2333 12.3136 53.6011 11.5158 53.4072C9.72631 52.9394 6.22535 51.8394 6.22535 47.7261C6.22535 46.8726 6.41694 45.9898 6.77691 45.2205C8.04217 42.3484 11.3242 41.2168 14.8167 41.2168C17.0546 41.2168 19.0903 41.6572 20.6861 42.458C22.1471 43.1744 22.8692 43.9436 23.5555 44.66L19.6966 47.8904C19.3935 47.5048 19.063 47.0643 18.2104 46.624C17.0799 46.074 15.5872 45.9076 14.5978 45.9076C13.5515 45.9076 12.3957 46.1836 12.3957 47.1761C12.3957 48.1116 13.3873 48.3604 15.0652 48.6638C19.3935 49.4056 23.6924 50.1768 23.6924 55.0044C23.6924 57.0422 22.8398 58.4729 21.9535 59.3833C19.503 61.9057 15.5873 61.9057 14.5136 61.9057C13.0568 61.9057 11.5158 61.7667 10.0021 61.3284C6.91375 60.4306 5.48008 58.6943 4.6001 57.6196L9.30948 54.5915Z" fill="#00A9EC"/>
<path d="M48.3485 50.0069C47.138 50.0069 46.5064 50.639 46.1443 51.4609V61.327H41.0203V46.0895H45.9949V47.5583C46.1254 47.356 47.5043 45.6406 50.3316 45.6406C51.9464 45.6406 55.3715 45.9336 55.3715 50.6096V61.327H50.2453V52.0025C50.2453 50.639 49.3716 50.0069 48.3485 50.0069Z" fill="#00A9EC"/>
<path d="M63.8757 50.0069C62.6715 50.0069 62.0399 50.639 61.6778 51.4609V61.327H56.5537V46.0895H61.5284V47.5583C61.661 47.356 63.0399 45.6406 65.8566 45.6406C67.4777 45.6406 70.8966 45.9336 70.8966 50.6096V61.327H65.7704V52.0025C65.7704 50.639 64.8988 50.0069 63.8757 50.0069Z" fill="#00A9EC"/>
<path d="M201.546 50.0069C200.344 50.0069 199.712 50.639 199.35 51.4609V61.327H194.222V46.0895H199.201V47.5583C199.333 47.356 200.712 45.6406 203.531 45.6406C205.146 45.6406 208.563 45.9336 208.563 50.6096V61.327H203.445V52.0025C203.445 50.639 202.569 50.0069 201.546 50.0069Z" fill="#00A9EC"/>
<path d="M185.666 57.3912C186.885 57.3912 187.519 56.7591 187.879 55.9457V46.0859H192.999V61.3234H188.028V59.8378C187.896 60.0422 186.519 61.7722 183.685 61.7722C182.073 61.7722 178.654 61.4793 178.654 56.7865V46.0859H183.772V55.4021C183.772 56.7591 184.643 57.3912 185.666 57.3912Z" fill="#00A9EC"/>
<path d="M85.9715 53.8465C85.9715 55.8421 87.4894 57.2181 89.3251 57.2181C91.1293 57.2181 92.605 55.8421 92.605 53.7812C92.605 51.6212 91.1293 50.3358 89.3251 50.3358C87.2578 50.3358 85.9715 51.8172 85.9715 53.8465ZM92.603 59.8142C92.2977 60.4064 90.1945 61.4431 88.3609 61.4431C84.319 61.4431 81.2495 58.63 81.2495 53.6907C81.2495 49.1347 83.5609 45.9844 88.1673 45.9844C89.7525 45.9844 91.9882 46.7431 92.3314 47.6661V46.0919H97.4259V61.3272H92.603V59.8142Z" fill="#00A9EC"/>
<path d="M137.533 45.3936H130.154V40.8715H145.825L137.099 56.7326H144.979V61.3264H128.76L137.533 45.3936ZM167.22 61.326H162.104V46.0865H167.22V61.326ZM167.22 45.0371H162.104V40.8711H167.22V45.0371Z" fill="#00A9EC"/>
<path d="M118.499 56.0935C118.929 56.7594 119.293 57.3178 120.605 57.7476C121.23 57.9627 122.019 58.0912 122.75 58.0912C123.135 58.0912 125.026 58.049 125.026 56.9512C125.026 56.8458 125.026 56.2853 124.188 56.0071C123.653 55.8133 120.842 55.3202 120.217 55.1663C118.822 54.8018 116.093 53.942 116.093 50.7306C116.093 50.0646 116.245 49.3757 116.523 48.775C117.512 46.5351 120.066 45.6543 122.813 45.6543C124.552 45.6543 126.141 45.9999 127.388 46.6215C128.529 47.182 129.087 47.7847 129.625 48.3452L126.615 50.8591C126.377 50.5578 126.12 50.2144 125.455 49.8708C124.575 49.441 123.415 49.3124 122.643 49.3124C121.826 49.3124 120.906 49.5273 120.906 50.3007C120.906 51.032 121.695 51.2342 123.007 51.4703C126.377 52.0497 129.731 52.6524 129.731 56.4138C129.731 58.0048 129.066 59.1237 128.379 59.834C126.464 61.8063 123.415 61.8063 122.577 61.8063C121.424 61.8063 120.217 61.6988 119.036 61.3554C116.632 60.6516 115.514 59.2966 114.828 58.4579L118.499 56.0935Z" fill="#00A9EC"/>
<path d="M160.326 57.3374C159.377 59.3393 156.697 61.8068 153.124 61.8068C147.596 61.8068 145.078 57.1562 145.078 53.7382C145.078 48.86 149.099 45.6465 153.124 45.6465C158.385 45.6465 161.149 50.0927 161.149 53.7382C161.149 54.0901 161.135 54.442 161.118 54.7898H150.118C150.147 55.4514 150.893 57.6367 153.194 57.6367C154.107 57.6367 155.347 57.1773 155.956 55.6537L160.326 57.3374ZM156.04 51.6479C156.04 51.4392 155.385 49.3425 153.143 49.3425C151.169 49.3425 150.339 50.9778 150.194 51.6479H156.04Z" fill="#00A9EC"/>
<path d="M40.3847 53.7347C40.3847 58.202 36.789 61.8391 32.3428 61.8391C27.8966 61.8391 24.2966 58.202 24.2966 53.7347C24.2966 49.2611 27.8966 45.6387 32.3428 45.6387C36.789 45.6387 40.3847 49.2611 40.3847 53.7347ZM29.0292 53.703C29.0292 55.7577 30.5702 57.2917 32.4081 57.2917C34.2122 57.2917 35.6627 55.823 35.6627 53.703C35.6627 51.5473 34.1785 50.1692 32.3744 50.1692C30.5365 50.1692 29.0292 51.6126 29.0292 53.703Z" fill="#00A9EC"/>
<path d="M174.69 55.5081C174.69 56.8315 175.075 57.2002 175.946 57.2002C176.812 57.2002 177.094 56.9811 177.094 56.9811L178.287 60.8226C178.287 60.8226 176.795 61.695 174.869 61.695C169.772 61.695 169.559 58.2475 169.559 55.2068V49.9303H167.997V46.0761H169.559V41.8848H174.69V46.0761H177.544V49.9303H174.69V55.5081Z" fill="#00A9EC"/>
<path d="M78.2422 55.5081C78.2422 56.8315 78.6297 57.2002 79.5012 57.2002C80.3728 57.2002 80.6569 56.9811 80.6569 56.9811L81.8506 60.8226C81.8506 60.8226 80.3559 61.695 78.4233 61.695C73.3287 61.695 73.1181 58.2475 73.1181 55.2068V49.9303H71.554V46.0761H73.1181V41.8848H78.2422V46.0761H81.1075V49.9303H78.2422V55.5081Z" fill="#00A9EC"/>
</svg>
