<svg width="230" height="109" viewBox="0 0 230 109" fill="none" xmlns="http://www.w3.org/2000/svg">
<g clip-path="url(#clip0_10866_4264)">
<path d="M0.955811 31.1948H229.044V77.2734H0.955811V31.1948Z" fill="#ED1C24" stroke="white" stroke-width="6.15935" stroke-miterlimit="10"/>
<path d="M21.868 45.4308C21.868 40.4122 22.2918 40.2717 24.5032 39.9862L25.3057 39.8457C25.6348 39.6078 25.5874 38.6607 25.211 38.4727C23.3738 38.5678 21.2549 38.6131 19.1833 38.6131C17.017 38.6131 14.8981 38.5678 12.9662 38.4727C12.5898 38.6607 12.5424 39.5126 12.8715 39.8457L13.7664 39.9862C15.9801 40.2717 16.4039 40.4122 16.4039 45.4308V63.038C16.4039 68.0566 15.9801 68.1971 13.7664 68.5302L13.1082 68.6253C12.7791 68.861 12.8264 69.808 13.2029 69.9961C14.8981 69.9032 17.1117 69.8556 19.1833 69.8556C21.2549 69.8556 23.3738 69.9032 25.5874 69.9961C25.9639 69.808 26.0112 68.861 25.6821 68.6253L24.5032 68.4826C22.2918 68.1971 21.868 68.0566 21.868 63.038V57.0269C21.868 55.6539 21.7733 54.5187 22.95 54.5187C23.3738 54.5187 23.7503 54.8971 24.0794 55.2279C25.8219 57.0269 31.4258 64.6965 33.405 67.1571C33.9235 67.8187 33.8288 68.2922 33.0759 68.435L31.8023 68.6253C31.3785 68.861 31.3785 69.808 31.8969 69.9961C33.9685 69.9032 36.0897 69.8556 38.3958 69.8556C40.8912 69.8556 42.7757 69.9032 44.4235 69.9961C44.7999 69.8556 44.8473 68.861 44.5182 68.6253L43.3888 68.4826C41.9754 68.2923 40.8912 67.8663 39.9038 66.6836C36.5135 62.7072 32.039 57.0745 28.3195 52.151C27.8011 51.4418 27.8957 51.1586 28.4593 50.5899C30.2965 48.7433 32.181 46.8038 34.2052 44.7669C37.4535 41.5971 38.7249 40.4597 43.1048 39.8457C43.5759 39.6078 43.4812 38.6131 42.965 38.4727C41.2676 38.5202 39.8092 38.6131 37.7849 38.6131C36.0424 38.6131 34.487 38.5678 32.5101 38.4727C32.1336 38.851 32.039 39.5126 32.4154 39.8457L33.9911 40.061C34.6065 40.4212 34.3923 40.7905 33.5448 41.8804C32.9812 42.6371 31.6152 44.2005 31.002 44.8145L26.1983 50.0212C24.6452 51.7251 23.5632 52.8149 22.6683 52.8149C21.9131 52.8149 21.868 51.963 21.868 50.6851V45.4308Z" fill="white"/>
<path d="M55.0091 57.4518C55.0091 62.2326 55.9987 65.5474 58.1177 67.582C60.2839 69.6642 63.3925 70.6113 67.8197 70.6113C71.068 70.6113 74.6003 69.7118 77.0484 67.0609C79.4987 64.4099 80.1569 60.4336 80.1569 56.1264V50.4937C80.1569 46.7552 80.1569 42.5885 80.8174 41.1701C81.1465 40.4111 81.9941 40.223 82.889 40.0327L83.9237 39.7971C84.3024 39.4663 84.2077 38.7072 83.8313 38.4716C82.0888 38.5668 80.8174 38.6121 78.8382 38.6121C77.001 38.6121 75.2135 38.5668 73.6107 38.4716C73.1396 38.6121 73.0945 39.4663 73.5183 39.7971L74.4583 39.9375C75.6373 40.1279 76.3902 40.4587 76.814 41.1701C77.6615 42.5409 77.7089 46.9432 77.7089 50.4937V56.4118C77.7089 63.6056 75.1661 68.2912 68.9964 68.2912C62.4502 68.2912 60.4733 62.8013 60.4733 56.2691V45.4297C60.4733 40.4111 60.8971 40.2706 63.1107 39.9375L64.1454 39.7971C64.4767 39.4663 64.4294 38.6597 64.0507 38.4716C61.9791 38.5668 59.8602 38.6121 57.7412 38.6121C55.6696 38.6121 53.5507 38.5668 51.6662 38.4716C51.2897 38.6597 51.2424 39.4663 51.5715 39.7971L52.374 39.9375C54.5853 40.2706 55.0091 40.4111 55.0091 45.4297V57.4518Z" fill="white"/>
<path fill-rule="evenodd" clip-rule="evenodd" d="M97.0678 63.0383C97.0678 68.057 96.644 68.1975 94.4304 68.483L93.3935 68.6257C92.9697 68.9565 93.1117 69.8084 93.4881 69.9965C95.6544 69.9036 97.7734 69.856 99.845 69.856C101.919 69.856 104.038 69.9036 106.109 69.9965C106.486 69.8084 106.533 68.9565 106.204 68.6257L105.167 68.483C102.954 68.1975 102.53 68.057 102.53 63.0383V56.9797C102.53 55.9873 102.577 55.9397 103.99 55.9397C105.544 55.9397 106.062 56.1278 106.91 57.5484C108.039 59.395 109.358 61.9984 110.629 63.9854C113.503 68.3878 115.951 70.2344 120.473 70.2344C122.121 70.2344 123.016 70.0916 123.579 69.9489C123.721 69.7133 123.721 69.1921 123.487 69.0041C122.921 68.9565 121.555 68.671 120.236 67.5359C118.023 65.6893 115.669 61.6676 111.9 55.2759C111.713 54.9927 111.619 54.6143 111.9 54.4715C114.209 53.5244 117.552 51.347 117.552 46.9923C117.552 43.5846 115.809 41.3596 113.408 40.0817C111.337 38.9466 108.134 38.473 104.462 38.473C100.6 38.473 96.5967 38.6135 93.6302 38.899C93.2537 39.1346 93.2537 39.8937 93.5828 40.2245L94.8068 40.3649C97.0205 40.6029 97.0678 41.1716 97.0678 45.7144V63.0383ZM102.53 42.6851C102.53 40.5077 102.577 40.3649 105.025 40.3649C109.123 40.3649 111.524 43.6322 111.524 47.3707C111.524 51.8682 109.405 54.1407 104.791 54.1407C102.53 54.1407 102.53 54.0456 102.53 52.5298V42.6851Z" fill="white"/>
<path d="M140.137 45.4308C140.137 40.4122 140.56 40.2717 142.774 39.9862L143.811 39.8457C144.14 39.5126 144.093 38.6607 143.716 38.4727C141.645 38.5678 139.526 38.6131 137.454 38.6131C135.288 38.6131 133.169 38.5678 131.095 38.4727C130.719 38.6607 130.671 39.5126 131.003 39.8457L132.037 39.9862C134.251 40.2717 134.675 40.4122 134.675 45.4308V63.038C134.675 68.0566 134.251 68.1971 132.037 68.4826L131.003 68.6253C130.671 68.9561 130.719 69.808 131.095 69.9961C133.169 69.9032 135.38 69.8556 137.454 69.8556C139.526 69.8556 141.645 69.9032 143.716 69.9961C144.093 69.808 144.14 68.9561 143.811 68.6253L142.774 68.4826C140.56 68.1971 140.137 68.0566 140.137 63.038V45.4308Z" fill="white"/>
<path d="M158.127 63.038C158.127 68.0566 157.703 68.1971 155.49 68.435L153.747 68.6253C153.418 68.9561 153.465 69.808 153.842 69.9961C155.961 69.9032 158.833 69.8556 160.904 69.8556H166.274C171.783 69.8556 175.834 69.9032 177.905 69.9961C178.564 68.7182 179.601 65.1225 179.882 63.1331C179.601 62.6596 178.8 62.5191 178.377 62.8499C176.729 66.6836 175.692 68.0566 169.711 67.9615C165.755 67.9615 164.955 67.5831 164.389 66.9192C163.684 66.1149 163.589 64.411 163.589 61.998V55.9869C163.589 54.802 163.636 54.7068 164.721 54.7068H166.979C171.078 54.7068 171.878 54.802 172.207 56.7913L172.536 58.6832C172.912 58.9687 173.807 58.9687 174.044 58.6356C173.997 57.1221 173.902 55.4658 173.902 53.6668C173.902 51.9154 173.997 50.2115 174.044 48.9337C173.807 48.5553 172.912 48.5553 172.536 48.8861L172.207 50.4947C171.878 52.5294 171.078 52.577 166.979 52.577H164.721C163.636 52.577 163.589 52.5294 163.589 51.2991V43.301C163.589 40.6025 163.589 40.5073 165.613 40.5073H168.769C170.041 40.5073 171.454 40.6025 172.536 40.9333C174.044 41.3117 174.75 42.4966 175.503 45.2405C175.881 45.526 176.821 45.4308 177.011 45.0524C176.729 43.0155 176.445 39.277 176.258 38.4727C175.645 38.5678 172.912 38.6131 169.899 38.6131H160.904C158.833 38.6131 156.619 38.5678 154.829 38.4727C154.453 38.6607 154.405 39.5126 154.737 39.8457L155.49 39.9386C157.703 40.2717 158.127 40.4122 158.127 45.4308V63.038Z" fill="white"/>
<path fill-rule="evenodd" clip-rule="evenodd" d="M192.134 63.0383C192.134 68.057 191.71 68.1975 189.497 68.483L188.462 68.6257C188.038 68.9565 188.178 69.8084 188.557 69.9965C190.723 69.9036 192.842 69.856 194.914 69.856C196.985 69.856 199.104 69.9036 201.176 69.9965C201.554 69.8084 201.599 68.9565 201.27 68.6257L200.233 68.483C198.022 68.1975 197.598 68.057 197.598 63.0383V56.9797C197.598 55.9873 197.643 55.9397 199.057 55.9397C200.612 55.9397 201.128 56.1278 201.976 57.5484C203.108 59.395 204.426 61.9984 205.698 63.9854C208.569 68.3878 211.018 70.2344 215.539 70.2344C217.187 70.2344 218.082 70.0916 218.648 69.9489C218.788 69.7133 218.788 69.1921 218.553 69.0041C217.987 68.9565 216.624 68.671 215.303 67.5359C213.091 65.6893 210.736 61.6676 206.969 55.2759C206.78 54.9927 206.687 54.6143 206.969 54.4715C209.277 53.5244 212.62 51.347 212.62 46.9923C212.62 43.5846 210.878 41.3596 208.475 40.0817C206.403 38.9466 203.202 38.473 199.528 38.473C195.666 38.473 191.663 38.6135 188.696 38.899C188.32 39.1346 188.32 39.8937 188.649 40.2245L189.875 40.3649C192.087 40.6029 192.134 41.1716 192.134 45.7144V63.0383ZM197.598 42.6851C197.598 40.5077 197.643 40.3649 200.094 40.3649C204.19 40.3649 206.593 43.6322 206.593 47.3707C206.593 51.8682 204.474 54.1407 199.857 54.1407C197.598 54.1407 197.598 54.0456 197.598 52.5298V42.6851Z" fill="white"/>
</g>
<defs>
<clipPath id="clip0_10866_4264">
<rect width="230" height="48" fill="white" transform="translate(0 30.2344)"/>
</clipPath>
</defs>
</svg>
