<svg width="230" height="108" viewBox="0 0 230 108" fill="none" xmlns="http://www.w3.org/2000/svg">
<g clip-path="url(#clip0_10866_4392)">
<mask id="mask0_10866_4392" style="mask-type:luminance" maskUnits="userSpaceOnUse" x="0" y="14" width="230" height="80">
<path d="M229.818 14H0V94H229.818V14Z" fill="white"/>
</mask>
<g mask="url(#mask0_10866_4392)">
<path d="M97.3095 38.6055V50.2176H95.8062V38.6055H97.3095Z" fill="#0C0F12"/>
<path d="M100.728 50.1942V38.582H102.352L106.061 44.4487C106.934 45.8063 107.588 47.0184 108.146 48.2063H108.17C108.024 46.6305 108 45.2244 108 43.4305V38.582H109.406V50.1942H107.903L104.218 44.3032C103.418 43.0184 102.643 41.685 102.061 40.4244H102.012C102.11 41.9032 102.134 43.3093 102.134 45.2244V50.1699H100.728V50.1942Z" fill="#0C0F12"/>
<path d="M115.055 39.8669H111.516V38.582H120.097V39.8669H116.558V50.1942H115.055V39.8669Z" fill="#0C0F12"/>
<path d="M128.194 44.763H123.685V48.957H128.703V50.2176H122.182V38.6055H128.437V39.8661H123.661V43.5267H128.17V44.763H128.194Z" fill="#0C0F12"/>
<path d="M131.443 38.7522C132.194 38.6067 133.285 38.5098 134.328 38.5098C135.928 38.5098 136.97 38.8006 137.673 39.4552C138.255 39.9643 138.594 40.7643 138.594 41.6612C138.594 43.1886 137.624 44.2067 136.412 44.6188V44.6673C137.31 44.9825 137.843 45.8067 138.11 47.0188C138.497 48.6431 138.764 49.7582 139.006 50.1946H137.455C137.261 49.8794 137.018 48.8612 136.679 47.431C136.34 45.831 135.71 45.2249 134.352 45.1764H132.946V50.1946H131.443V38.7522ZM132.946 44.037H134.473C136.073 44.037 137.091 43.1643 137.091 41.831C137.091 40.4976 136 39.6734 134.424 39.6734C132.849 39.6734 133.188 39.7461 132.946 39.8188V44.0612V44.037Z" fill="#0C0F12"/>
<path d="M141.503 50.1942V38.582H143.127L146.836 44.4487C147.685 45.8063 148.363 47.0184 148.921 48.2063C148.775 46.6305 148.751 45.2244 148.751 43.4305V38.582H150.157V50.1942H148.655L144.969 44.3032C144.169 43.0184 143.394 41.685 142.812 40.4244H142.763C142.861 41.9032 142.885 43.3093 142.885 45.2244V50.1699H141.479L141.503 50.1942Z" fill="#0C0F12"/>
<path d="M155.491 46.557L154.279 50.2176H152.728L156.679 38.6055H158.497L162.449 50.2176H160.849L159.612 46.557H155.491ZM159.297 45.3691L158.158 42.0237C157.891 41.2721 157.722 40.5691 157.552 39.9145C157.382 40.5933 157.188 41.3206 156.97 42.0237L155.83 45.3691H159.322H159.297Z" fill="#0C0F12"/>
<path d="M165.818 39.8669H162.279V38.582H170.861V39.8669H167.321V50.1942H165.818V39.8669Z" fill="#0C0F12"/>
<path d="M174.473 38.6055V50.2176H172.969V38.6055H174.473Z" fill="#0C0F12"/>
<path d="M187.782 44.2788C187.782 48.2788 185.357 50.3878 182.4 50.3878C179.443 50.3878 177.188 48.0121 177.188 44.4969C177.188 40.9818 179.467 38.4121 182.569 38.4121C185.673 38.4121 187.782 40.8363 187.782 44.2788ZM178.788 44.4727C178.788 46.9454 180.121 49.1757 182.497 49.1757C184.873 49.1757 186.206 46.9939 186.206 44.3515C186.206 41.709 184.994 39.6242 182.497 39.6242C180 39.6242 178.788 41.903 178.788 44.4727Z" fill="#0C0F12"/>
<path d="M190.521 50.1942V38.582H192.145L195.855 44.4487C196.703 45.8063 197.382 47.0184 197.939 48.2063C197.794 46.6305 197.769 45.2244 197.769 43.4305V38.582H199.176V50.1942H197.673L193.988 44.3032C193.188 43.0184 192.412 41.685 191.83 40.4244H191.782C191.879 41.9032 191.903 43.3093 191.903 45.2244V50.1699H190.497L190.521 50.1942Z" fill="#0C0F12"/>
<path d="M204.51 46.557L203.297 50.2176H201.746L205.697 38.6055H207.516L211.467 50.2176H209.867L208.63 46.557H204.51ZM208.316 45.3691L207.176 42.0237C206.91 41.2721 206.74 40.5691 206.57 39.9145C206.4 40.5933 206.206 41.3206 205.988 42.0237L204.849 45.3691H208.34H208.316Z" fill="#0C0F12"/>
<path d="M213.963 38.6055H215.467V48.957H220.412V50.2176H213.963V38.6055Z" fill="#0C0F12"/>
<path d="M228.897 44.763H224.388V48.957H229.406V50.2176H222.885V38.6055H229.139V39.8661H224.363V43.5267H228.873V44.763H228.897Z" fill="#0C0F12"/>
<path d="M97.3095 59.9395V64.7879H102.909V59.9395H104.412V71.5516H102.909V66.1213H97.3095V71.5516H95.8062V59.9395H97.3095Z" fill="#0C0F12"/>
<path d="M117.745 65.6128C117.745 69.6128 115.321 71.7218 112.363 71.7218C109.406 71.7218 107.151 69.3461 107.151 65.8309C107.151 62.3158 109.43 59.7461 112.533 59.7461C115.636 59.7461 117.745 62.1703 117.745 65.6128ZM108.751 65.8067C108.751 68.2794 110.085 70.5097 112.461 70.5097C114.836 70.5097 116.169 68.3279 116.169 65.6855C116.169 63.043 114.957 60.9582 112.461 60.9582C109.963 60.9582 108.751 63.237 108.751 65.8067Z" fill="#0C0F12"/>
<path d="M128.582 71.1635C128.024 71.4302 126.933 71.7211 125.527 71.7211C122.255 71.7211 119.806 69.6605 119.806 65.8544C119.806 62.0483 122.279 59.7695 125.867 59.7695C127.782 59.7695 128.218 60.0847 128.63 60.2787L128.267 61.4908C127.709 61.2241 126.885 61.0059 125.915 61.0059C123.2 61.0059 121.382 62.7514 121.382 65.7817C121.382 68.812 123.006 70.4362 125.843 70.4362C127.421 70.4362 127.685 70.2423 128.291 69.9514L128.606 71.1393H128.582V71.1635Z" fill="#0C0F12"/>
<path d="M132.752 59.9395V64.7879H138.352V59.9395H139.855V71.5516H138.352V66.1213H132.752V71.5516H131.249V59.9395H132.752Z" fill="#0C0F12"/>
<path d="M143.079 69.7086C143.757 70.1207 144.727 70.4601 145.769 70.4601C147.297 70.4601 148.194 69.6601 148.194 68.4722C148.194 67.2843 147.563 66.7752 146.012 66.1692C144.121 65.4904 142.957 64.5207 142.957 62.8722C142.957 61.2237 144.461 59.7207 146.715 59.7207C148.969 59.7207 148.751 59.9874 149.285 60.2782L148.873 61.4904C148.485 61.2722 147.709 60.9328 146.667 60.9328C145.091 60.9328 144.485 61.8782 144.485 62.6782C144.485 63.4782 145.188 64.3025 146.788 64.9086C148.751 65.6601 149.745 66.6056 149.745 68.3268C149.745 70.048 148.412 71.6722 145.673 71.6722C144.47 71.6722 143.321 71.357 142.715 70.9207L143.103 69.6601V69.7086H143.079Z" fill="#0C0F12"/>
<path d="M160.655 71.1635C160.097 71.4302 159.006 71.7211 157.6 71.7211C154.328 71.7211 151.879 69.6605 151.879 65.8544C151.879 62.0483 154.352 59.7695 157.94 59.7695C159.818 59.7695 160.291 60.0847 160.703 60.2787L160.34 61.4908C159.782 61.2241 158.958 61.0059 157.988 61.0059C155.273 61.0059 153.455 62.7514 153.455 65.7817C153.455 68.812 155.079 70.4362 157.916 70.4362C158.943 70.4362 159.758 70.2423 160.364 69.9514L160.679 71.1393H160.655V71.1635Z" fill="#0C0F12"/>
<path d="M164.824 59.9395V64.7879H170.424V59.9395H171.927V71.5516H170.424V66.1213H164.824V71.5516H163.321V59.9395H164.824Z" fill="#0C0F12"/>
<path d="M176.849 59.9395V66.8001C176.849 69.394 178.012 70.5091 179.54 70.5091C181.067 70.5091 182.352 69.3697 182.352 66.8001V59.9395H183.855V66.7031C183.855 70.2667 181.988 71.7213 179.467 71.7213C176.946 71.7213 175.297 70.3636 175.297 66.7758V59.9395H176.849Z" fill="#0C0F12"/>
<path d="M187.273 59.9395H188.776V70.291H193.722V71.5516H187.273V59.9395Z" fill="#0C0F12"/>
<path d="M202.182 66.097H197.673V70.291H202.691V71.5516H196.169V59.9395H202.424V61.2001H197.649V64.8607H202.157V66.097H202.182Z" fill="#0C0F12"/>
<path d="M-0.0969238 22.3637C-0.0969238 17.4667 3.78186 14 9.16368 14C14.5455 14 18.4243 17.4667 18.4243 22.3637C18.4243 27.2606 14.5213 30.7273 9.16368 30.7273C3.80611 30.7273 -0.0969238 27.2363 -0.0969238 22.3637ZM1.13944 38.6545H17.1637V92.6907H1.13944V38.6545Z" fill="#0C0F12"/>
<path d="M31.0547 72.2058V38.6543H47.0789V70.1452C47.0789 77.927 49.1638 80.3513 53.7941 80.3513C58.4244 80.3513 60.2668 78.6543 63.3941 74.4119V38.6543H79.4182V92.6904H66.3516L65.188 85.1997H64.8002C60.291 90.5817 55.2002 93.9997 47.8304 93.9997C36.0729 93.9997 31.0547 85.709 31.0547 72.2058Z" fill="#0C0F12"/>
</g>
</g>
<defs>
<clipPath id="clip0_10866_4392">
<rect width="230" height="80" fill="white" transform="translate(0 14)"/>
</clipPath>
</defs>
</svg>
