<svg width="230" height="109" viewBox="0 0 230 109" fill="none" xmlns="http://www.w3.org/2000/svg">
<g clip-path="url(#clip0_10866_4282)">
<path fill-rule="evenodd" clip-rule="evenodd" d="M36 5H195V104H36V5Z" fill="#DC0028"/>
<path d="M90.4721 35.3179H60.4873V80.1206H74.5262V48.8127H84.096C86.0606 48.8127 87.0716 49.7774 87.0716 51.7988V80.1206H101.11V45.9759C101.11 39.6707 96.7793 35.3179 90.4721 35.3179ZM161.781 35.295L152.452 62.1008L143.147 35.295H122.249V18.125L108.21 20.9044C108.21 20.9044 108.21 53.5904 108.21 69.7497C108.21 76.5143 112.415 80.7293 119.216 80.7293C120.629 80.7293 130.647 80.7293 130.647 80.7293V67.5905C130.647 67.5905 125.765 67.5905 125.259 67.5905C123.455 67.5905 122.261 66.9244 122.261 64.4666C122.261 60.0909 122.261 48.8242 122.261 48.8242H133.209L145.433 80.1665H159.529L177.026 35.295H161.781Z" fill="white"/>
</g>
<defs>
<clipPath id="clip0_10866_4282">
<rect width="159" height="99" fill="white" transform="translate(35.5 4.73438)"/>
</clipPath>
</defs>
</svg>
