<svg width="37" height="36" viewBox="0 0 37 36" fill="none" xmlns="http://www.w3.org/2000/svg">
<path d="M6.83317 19.8327C6.83317 18.452 7.95246 17.3327 9.33317 17.3327H10.9998C12.3805 17.3327 13.4998 18.452 13.4998 19.8327C13.4998 21.2134 12.3805 22.3327 10.9998 22.3327H9.33317C7.95246 22.3327 6.83317 21.2134 6.83317 19.8327Z" fill="white"/>
<path d="M9.33317 23.9993C7.95246 23.9993 6.83317 25.1186 6.83317 26.4993C6.83317 27.8801 7.95246 28.9993 9.33317 28.9993H10.9998C12.3805 28.9993 13.4998 27.8801 13.4998 26.4993C13.4998 25.1186 12.3805 23.9993 10.9998 23.9993H9.33317Z" fill="white"/>
<path d="M15.1665 13.166C15.1665 11.7853 16.2858 10.666 17.6665 10.666H19.3332C20.7139 10.666 21.8332 11.7853 21.8332 13.166C21.8332 14.5467 20.7139 15.666 19.3332 15.666H17.6665C16.2858 15.666 15.1665 14.5467 15.1665 13.166Z" fill="white"/>
<path d="M17.6665 17.3327C16.2858 17.3327 15.1665 18.452 15.1665 19.8327C15.1665 21.2134 16.2858 22.3327 17.6665 22.3327H19.3332C20.7139 22.3327 21.8332 21.2134 21.8332 19.8327C21.8332 18.452 20.7139 17.3327 19.3332 17.3327H17.6665Z" fill="white"/>
<path d="M15.1665 26.4993C15.1665 25.1186 16.2858 23.9993 17.6665 23.9993H19.3332C20.7139 23.9993 21.8332 25.1186 21.8332 26.4993C21.8332 27.8801 20.7139 28.9993 19.3332 28.9993H17.6665C16.2858 28.9993 15.1665 27.8801 15.1665 26.4993Z" fill="white"/>
<path d="M25.9998 10.666C24.6191 10.666 23.4998 11.7853 23.4998 13.166C23.4998 14.5467 24.6191 15.666 25.9998 15.666H27.6665C29.0472 15.666 30.1665 14.5467 30.1665 13.166C30.1665 11.7853 29.0472 10.666 27.6665 10.666H25.9998Z" fill="white"/>
<path d="M23.4998 19.8327C23.4998 18.452 24.6191 17.3327 25.9998 17.3327H27.6665C29.0472 17.3327 30.1665 18.452 30.1665 19.8327C30.1665 21.2134 29.0472 22.3327 27.6665 22.3327H25.9998C24.6191 22.3327 23.4998 21.2134 23.4998 19.8327Z" fill="white"/>
<path fill-rule="evenodd" clip-rule="evenodd" d="M9.33317 0.666016C7.95246 0.666016 6.83317 1.7853 6.83317 3.16602V3.99935L5.1665 3.99935C2.40508 3.99935 0.166504 6.23793 0.166504 8.99935L0.166504 30.666C0.166504 33.4274 2.40508 35.666 5.1665 35.666L31.8332 35.666C34.5946 35.666 36.8332 33.4274 36.8332 30.666L36.8332 8.99935C36.8332 6.23793 34.5946 3.99935 31.8332 3.99935L30.1665 3.99935V3.16602C30.1665 1.7853 29.0472 0.666016 27.6665 0.666016C26.2858 0.666016 25.1665 1.7853 25.1665 3.16602V3.99935L11.8332 3.99935V3.16602C11.8332 1.7853 10.7139 0.666016 9.33317 0.666016ZM5.1665 7.33268C4.24603 7.33268 3.49984 8.07887 3.49984 8.99935L3.49984 30.666C3.49984 31.5865 4.24603 32.3327 5.1665 32.3327H31.8332C32.7536 32.3327 33.4998 31.5865 33.4998 30.666L33.4998 8.99935C33.4998 8.07888 32.7536 7.33268 31.8332 7.33268L5.1665 7.33268Z" fill="white"/>
</svg>
