<svg width="53" height="34" viewBox="0 0 53 34" fill="none" xmlns="http://www.w3.org/2000/svg">
<path d="M45.9464 0.0250606C46.7464 -0.134947 47.0664 0.505054 46.4264 0.985058C41.1464 2.74505 35.2264 6.42505 35.2264 10.7451C35.2264 14.4251 38.7464 14.9051 43.7064 16.0251C49.6264 17.3051 52.6664 19.7051 52.6664 24.3451C52.6664 29.3051 49.1464 33.3051 42.9064 33.3051C35.3864 33.3051 30.2664 27.2251 30.2664 18.9051C30.2664 7.70506 38.7464 2.58506 45.9464 0.0250606ZM15.7064 0.0250606C16.5064 -0.134947 16.8264 0.505054 16.1864 0.985058C10.9064 2.74505 4.98637 6.42505 4.98637 10.7451C4.98637 14.4251 8.50637 14.9051 13.4664 16.0251C19.3864 17.3051 22.4264 19.7051 22.4264 24.3451C22.4264 29.3051 18.9064 33.3051 12.6664 33.3051C5.14637 33.3051 0.0263672 27.7051 0.0263672 19.3851C0.0263672 8.18506 8.50637 2.58506 15.7064 0.0250606Z" fill="url(#paint0_linear_11001_15146)"/>
<defs>
<linearGradient id="paint0_linear_11001_15146" x1="-12.3111" y1="4.16313" x2="40.5221" y2="49.06" gradientUnits="userSpaceOnUse">
<stop offset="0.00212756" stop-color="#866A41"/>
<stop offset="1" stop-color="#BCA679"/>
</linearGradient>
</defs>
</svg>
