<svg width="53" height="34" viewBox="0 0 53 34" fill="none" xmlns="http://www.w3.org/2000/svg">
<path d="M6.74637 33.28C5.94637 33.44 5.62637 32.8 6.26637 32.32C11.5464 30.56 17.4664 26.88 17.4664 22.56C17.4664 18.88 13.9464 18.4 8.98637 17.28C3.06637 16 0.0263672 13.6 0.0263672 8.96C0.0263672 4.00001 3.54637 0 9.78637 0C17.3064 0 22.4264 6.08 22.4264 14.4C22.4264 25.6 13.9464 30.72 6.74637 33.28ZM36.9864 33.28C36.1864 33.44 35.8664 32.8 36.5064 32.32C41.7864 30.56 47.7064 26.88 47.7064 22.56C47.7064 18.88 44.1864 18.4 39.2264 17.28C33.3064 16 30.2664 13.6 30.2664 8.96C30.2664 4.00001 33.7864 0 40.0264 0C47.5464 0 52.6664 5.6 52.6664 13.92C52.6664 25.12 44.1864 30.72 36.9864 33.28Z" fill="url(#paint0_linear_11001_15147)"/>
<defs>
<linearGradient id="paint0_linear_11001_15147" x1="-12.3111" y1="4.16313" x2="40.5221" y2="49.06" gradientUnits="userSpaceOnUse">
<stop offset="0.00212756" stop-color="#866A41"/>
<stop offset="1" stop-color="#BCA679"/>
</linearGradient>
</defs>
</svg>
