<svg width="20" height="20" viewBox="0 0 20 20" fill="none" xmlns="http://www.w3.org/2000/svg">
<path fill-rule="evenodd" clip-rule="evenodd" d="M12.8293 2C12.4175 0.834808 11.3062 0 10 0C8.69378 0 7.58254 0.834808 7.17071 2L1 2C0.447715 2 0 2.44772 0 3C0 3.55228 0.447715 4 1 4L7.17071 4C7.58254 5.16519 8.69378 6 10 6C11.3062 6 12.4175 5.16519 12.8293 4L19 4C19.5523 4 20 3.55228 20 3C20 2.44772 19.5523 2 19 2L12.8293 2ZM11 3C11 3.55228 10.5523 4 10 4C9.44772 4 9 3.55228 9 3C9 2.44772 9.44772 2 10 2C10.5523 2 11 2.44772 11 3Z" fill="black"/>
<path fill-rule="evenodd" clip-rule="evenodd" d="M7.82929 11H19C19.5523 11 20 10.5523 20 10C20 9.44772 19.5523 9 19 9H7.82929C7.41746 7.83481 6.30622 7 5 7C3.69378 7 2.58254 7.83481 2.17071 9H1C0.447715 9 0 9.44772 0 10C0 10.5523 0.447715 11 1 11H2.17071C2.58254 12.1652 3.69378 13 5 13C6.30622 13 7.41746 12.1652 7.82929 11ZM6 10C6 10.5523 5.55228 11 5 11C4.44772 11 4 10.5523 4 10C4 9.44772 4.44772 9 5 9C5.55228 9 6 9.44772 6 10Z" fill="black"/>
<path fill-rule="evenodd" clip-rule="evenodd" d="M12.1707 16H1C0.447715 16 0 16.4477 0 17C0 17.5523 0.447715 18 1 18H12.1707C12.5825 19.1652 13.6938 20 15 20C16.3062 20 17.4175 19.1652 17.8293 18H19C19.5523 18 20 17.5523 20 17C20 16.4477 19.5523 16 19 16H17.8293C17.4175 14.8348 16.3062 14 15 14C13.6938 14 12.5825 14.8348 12.1707 16ZM15 18C15.5523 18 16 17.5523 16 17C16 16.4477 15.5523 16 15 16C14.4477 16 14 16.4477 14 17C14 17.5523 14.4477 18 15 18Z" fill="black"/>
</svg>
