<svg width="193" height="25" viewBox="0 0 193 25" fill="none" xmlns="http://www.w3.org/2000/svg">
<path d="M91.7667 12.0922C91.7667 11.2233 91.4866 10.5162 90.9246 9.96725C90.3626 9.41287 89.6834 9.1384 88.8853 9.1384C88.0596 9.1384 87.375 9.41831 86.824 9.9818C86.273 10.5381 85.9966 11.2415 85.9966 12.0922C85.9966 12.9048 86.273 13.5754 86.824 14.1044C87.375 14.6315 88.0596 14.897 88.8853 14.897C89.7018 14.897 90.3864 14.6425 90.9392 14.1335C91.4903 13.6227 91.7667 12.9429 91.7667 12.0922ZM95.8782 16.4802C95.8782 18.9705 95.1735 20.8682 93.753 22.1805C92.4276 23.4457 90.5933 24.062 88.2555 24.0256C85.4383 23.9929 83.3018 23.1512 81.8301 21.5062C81.7788 21.4299 81.6323 21.2972 81.6323 21.2972C81.6323 21.2972 81.8447 21.1699 81.9344 21.1172L85.1344 19.3249C85.2003 19.274 85.3486 19.2141 85.3486 19.2141C85.3486 19.2141 85.4108 19.2868 85.4473 19.3504C85.7274 19.6449 86.143 19.9175 86.6922 20.1701C87.2432 20.4192 87.7521 20.5627 88.2317 20.5974C89.6249 20.6846 90.5859 20.1647 91.1095 19.0396C91.3365 18.5542 91.494 17.7199 91.58 16.5565C90.8826 17.5799 89.6523 18.0889 87.884 18.0889C86.0862 18.0889 84.6529 17.5617 83.5893 16.5056C82.4488 15.3986 81.8832 13.8227 81.8832 11.7796C81.8832 9.80728 82.4415 8.24228 83.5636 7.09887C84.6804 5.95558 86.1302 5.38477 87.9096 5.38477C88.596 5.38477 89.3026 5.51383 90.0349 5.77201C90.769 6.03005 91.2669 6.36631 91.5287 6.78081V5.47565H95.8782V16.4802Z" fill="#989898"/>
<path d="M188.279 12.0922C188.279 11.2233 187.999 10.5162 187.439 9.96725C186.877 9.41287 186.198 9.1384 185.4 9.1384C184.581 9.1384 183.897 9.41831 183.348 9.9818C182.795 10.5381 182.518 11.2415 182.518 12.0922C182.518 12.9048 182.795 13.5754 183.348 14.1044C183.897 14.6315 184.581 14.897 185.4 14.897C186.218 14.897 186.903 14.6425 187.454 14.1335C188.005 13.6227 188.279 12.9429 188.279 12.0922ZM192.4 16.4802C192.4 18.9705 191.693 20.8682 190.266 22.1805C188.94 23.4457 187.108 24.062 184.772 24.0256C181.962 23.9929 179.813 23.1512 178.346 21.5062C178.295 21.4299 178.15 21.2972 178.15 21.2972C178.15 21.2972 178.363 21.1699 178.451 21.1172L181.658 19.3249C181.724 19.274 181.872 19.2141 181.872 19.2141C181.872 19.2141 181.936 19.2868 181.971 19.3504C182.251 19.6449 182.665 19.9175 183.216 20.1701C183.765 20.4192 184.274 20.5627 184.746 20.5974C186.141 20.6846 187.1 20.1647 187.624 19.0396C187.851 18.5542 188.007 17.7199 188.094 16.5565C187.397 17.5799 186.167 18.0889 184.406 18.0889C182.608 18.0889 181.178 17.5617 180.098 16.5056C178.965 15.3986 178.399 13.8227 178.399 11.7796C178.399 9.80728 178.958 8.24228 180.073 7.09887C181.204 5.95558 182.652 5.38477 184.431 5.38477C185.112 5.38477 185.819 5.51383 186.551 5.77201C187.283 6.03005 187.779 6.36631 188.043 6.78081V5.47565H192.4V16.4802Z" fill="#989898"/>
<path d="M4.49501 12.8086C4.97831 13.5448 5.38469 14.1628 6.8437 14.6372C7.53751 14.8754 8.39974 15.0172 9.21254 15.0172C9.64276 15.0172 11.7553 14.9699 11.7553 13.7593C11.7553 13.6393 11.7553 13.0231 10.8217 12.7141C10.2249 12.4996 7.10732 11.9543 6.41353 11.787C4.85748 11.3835 1.81316 10.4346 1.81316 6.88647C1.81316 6.15023 1.97976 5.38868 2.29279 4.72512C3.39301 2.24762 6.24693 1.27148 9.28394 1.27148C11.2299 1.27148 13.0001 1.65139 14.3877 2.34215C15.6582 2.96011 16.2861 3.62367 16.8829 4.24162L13.5273 7.02821C13.2637 6.6956 12.9763 6.31563 12.2349 5.93576C11.2519 5.46136 9.95394 5.31779 9.09355 5.31779C8.18376 5.31779 7.17872 5.55586 7.17872 6.41202C7.17872 7.21904 8.04095 7.43361 9.49996 7.69535C13.2637 8.33517 17.0019 9.00048 17.0019 13.1648C17.0019 14.9226 16.2605 16.1568 15.4898 16.9421C13.3589 19.1179 9.95395 19.1179 9.02032 19.1179C7.75354 19.1179 6.41354 18.998 5.09732 18.6199C2.41178 17.8455 1.1651 16.3477 0.399902 15.4207L4.49501 12.8086Z" fill="#989898"/>
<path d="M38.4417 8.85426C37.3891 8.85426 36.8399 9.39955 36.5251 10.1085V18.6191H32.0693V5.47509H36.3951V6.74208C36.5086 6.56758 37.7076 5.08789 40.1662 5.08789C41.5703 5.08789 44.5487 5.34064 44.5487 9.37415V18.6191H40.0911V10.5757C40.0911 9.39956 39.3314 8.85426 38.4417 8.85426Z" fill="#989898"/>
<path d="M51.9441 8.85426C50.897 8.85426 50.3477 9.39955 50.0329 10.1085V18.6191H45.5771V5.47509H49.9029V6.74208C50.0182 6.56758 51.2173 5.08789 53.6667 5.08789C55.0763 5.08789 58.0493 5.34064 58.0493 9.37415V18.6191H53.5916V10.5757C53.5916 9.39956 52.8337 8.85426 51.9441 8.85426Z" fill="#989898"/>
<path d="M171.657 8.85426C170.612 8.85426 170.063 9.39955 169.748 10.1085V18.6191H165.289V5.47509H169.618V6.74208C169.733 6.56758 170.932 5.08789 173.384 5.08789C174.788 5.08789 177.759 5.34064 177.759 9.37415V18.6191H173.309V10.5757C173.309 9.39956 172.547 8.85426 171.657 8.85426Z" fill="#989898"/>
<path d="M157.849 15.2227C158.909 15.2227 159.46 14.6775 159.773 13.9759V5.4707H164.225V18.6147H159.903V17.3332C159.787 17.5095 158.59 19.0018 156.126 19.0018C154.724 19.0018 151.751 18.7492 151.751 14.7011V5.4707H156.201V13.5069C156.201 14.6775 156.959 15.2227 157.849 15.2227Z" fill="#989898"/>
<path d="M71.1578 12.1648C71.1578 13.8862 72.4777 15.0731 74.074 15.0731C75.6429 15.0731 76.9261 13.8862 76.9261 12.1084C76.9261 10.2452 75.6429 9.1364 74.074 9.1364C72.2764 9.1364 71.1578 10.4143 71.1578 12.1648ZM76.9244 17.3125C76.6589 17.8233 74.83 18.7177 73.2356 18.7177C69.7208 18.7177 67.0518 16.2911 67.0518 12.0303C67.0518 8.10033 69.0617 5.38281 73.0672 5.38281C74.4457 5.38281 76.3897 6.03729 76.6882 6.83344V5.47556H81.1182V18.6177H76.9244V17.3125Z" fill="#989898"/>
<path d="M115.993 4.8738H109.577V0.972967H123.204L115.616 14.655H122.468V18.6176H108.365L115.993 4.8738ZM141.808 18.6173H137.36V5.47149H141.808V18.6173ZM141.808 4.56626H137.36V0.972656H141.808V4.56626Z" fill="#989898"/>
<path d="M99.4427 14.1026C99.8161 14.677 100.133 15.1587 101.273 15.5295C101.817 15.715 102.503 15.8258 103.139 15.8258C103.474 15.8258 105.118 15.7894 105.118 14.8424C105.118 14.7515 105.118 14.2681 104.389 14.0281C103.924 13.8609 101.48 13.4355 100.936 13.3028C99.7228 12.9884 97.3503 12.2467 97.3503 9.47653C97.3503 8.90206 97.4821 8.30776 97.7237 7.78963C98.5841 5.85742 100.805 5.09766 103.194 5.09766C104.706 5.09766 106.088 5.39576 107.172 5.93196C108.164 6.41545 108.649 6.93534 109.117 7.41885L106.5 9.58739C106.293 9.32744 106.07 9.03123 105.491 8.73489C104.726 8.36411 103.717 8.25316 103.045 8.25316C102.335 8.25316 101.535 8.43856 101.535 9.10566C101.535 9.7365 102.222 9.91091 103.362 10.1146C106.293 10.6144 109.209 11.1343 109.209 14.3789C109.209 15.7513 108.631 16.7165 108.034 17.3291C106.368 19.0305 103.717 19.0305 102.989 19.0305C101.985 19.0305 100.936 18.9378 99.9095 18.6415C97.8189 18.0344 96.8468 16.8656 96.25 16.1422L99.4427 14.1026Z" fill="#989898"/>
<path d="M135.814 15.1765C134.988 16.9034 132.658 19.0318 129.551 19.0318C124.744 19.0318 122.555 15.0202 122.555 12.0718C122.555 7.86377 126.051 5.0918 129.551 5.0918C134.126 5.0918 136.53 8.92717 136.53 12.0718C136.53 12.3753 136.517 12.6789 136.502 12.9789H126.937C126.963 13.5496 127.611 15.4347 129.612 15.4347C130.406 15.4347 131.484 15.0384 132.014 13.7241L135.814 15.1765ZM132.087 10.2686C132.087 10.0887 131.517 8.28001 129.568 8.28001C127.851 8.28001 127.129 9.6906 127.003 10.2686H132.087Z" fill="#989898"/>
<path d="M31.517 12.0696C31.517 15.9232 28.3903 19.0606 24.524 19.0606C20.6577 19.0606 17.5273 15.9232 17.5273 12.0696C17.5273 8.21064 20.6577 5.08594 24.524 5.08594C28.3903 5.08594 31.517 8.21064 31.517 12.0696ZM21.6426 12.0423C21.6426 13.8147 22.9826 15.1379 24.5808 15.1379C26.1496 15.1379 27.4109 13.871 27.4109 12.0423C27.4109 10.1828 26.1203 8.99401 24.5515 8.99401C22.9533 8.99401 21.6426 10.2391 21.6426 12.0423Z" fill="#989898"/>
<path d="M148.304 13.5973C148.304 14.7389 148.639 15.0569 149.397 15.0569C150.149 15.0569 150.395 14.8679 150.395 14.8679L151.432 18.1816C151.432 18.1816 150.135 18.9342 148.46 18.9342C144.028 18.9342 143.843 15.9604 143.843 13.3374V8.78586H142.484V5.46119H143.843V1.8457H148.304V5.46119H150.786V8.78586H148.304V13.5973Z" fill="#989898"/>
<path d="M64.4365 13.5973C64.4365 14.7389 64.7734 15.0569 65.5313 15.0569C66.2891 15.0569 66.5362 14.8679 66.5362 14.8679L67.5742 18.1816C67.5742 18.1816 66.2745 18.9342 64.5939 18.9342C60.1639 18.9342 59.9807 15.9604 59.9807 13.3374V8.78586H58.6206V5.46119H59.9807V1.8457H64.4365V5.46119H66.928V8.78586H64.4365V13.5973Z" fill="#989898"/>
</svg>
