<svg width="145" height="69" viewBox="0 0 145 69" fill="none" xmlns="http://www.w3.org/2000/svg">
<g clip-path="url(#clip0_10866_4899)">
<path d="M37.2319 24.3701V36.4974C37.2319 38.1223 37.6205 39.3025 38.3976 40.0379C39.1748 40.7733 40.1794 41.1413 41.4115 41.142C42.6617 41.142 43.6706 40.7597 44.4382 39.995C45.2058 39.2303 45.5896 38.0644 45.5896 36.4974V24.3701H49.3105V36.7819C49.3105 38.885 48.5953 40.6433 47.165 42.0569C45.7347 43.4704 43.7975 44.1772 41.3533 44.1772C38.9463 44.1772 37.0373 43.4704 35.6264 42.0569C34.2154 40.6433 33.5102 38.8857 33.5105 36.7839V24.3701H37.2319Z" fill="#0E2A42"/>
<path d="M66.2733 44.0759H53.5122V24.3701H57.1779V41.1487H65.7042L66.2733 44.0759Z" fill="#0E2A42"/>
<path d="M123.529 24.3701V44.0738H119.835L110.882 30.8863V44.0738H107.216V24.3701H110.882L119.835 37.525V24.3701H123.529Z" fill="#0E2A42"/>
<path d="M144.914 24.3516V44.0552H141.219L132.266 30.8677V44.0552H128.6V24.3516H132.266L141.219 37.5075V24.3516H144.914Z" fill="#0E2A42"/>
<path d="M23.6276 24.6641L21.8728 29.5403L24.4372 36.3399H19.4255L18.3323 39.3772H25.5743L27.3239 44.0662H31.1245L23.6276 24.6641Z" fill="#0E2A42"/>
<path d="M7.33042 24.3701C9.20619 24.3701 10.7314 24.7902 11.9059 25.6304C13.0805 26.4706 13.668 27.8856 13.6683 29.8753C13.6683 30.6096 13.5025 31.2712 13.1708 31.8601C12.8414 32.4472 12.4024 32.964 11.8784 33.3816C12.7306 33.8289 13.4659 34.4746 14.0238 35.2656C14.582 36.0585 14.8614 37.0627 14.8621 38.278C14.8621 40.0946 14.2415 41.5145 13.0001 42.5378C11.7588 43.5611 10.1056 44.0729 8.04047 44.0733H0.11084V24.3701H7.33042ZM6.79047 27.4994H3.78014V32.3969H6.50849C7.53015 32.3969 8.33046 32.1988 8.9094 31.8027C9.48834 31.4066 9.77781 30.7835 9.77781 29.9337C9.77781 29.0066 9.51269 28.3688 8.98245 28.0202C8.4522 27.6716 7.72155 27.4981 6.79047 27.4994ZM8.01289 35.4388H3.78014V40.9724H7.7585C8.74372 40.9724 9.53483 40.7409 10.1318 40.2779C10.7288 39.8148 11.0273 39.1579 11.0273 38.307C11.0273 37.3795 10.7526 36.6697 10.2033 36.1773C9.65402 35.685 8.92387 35.4388 8.01289 35.4388Z" fill="#0E2A42"/>
<path d="M96.3868 24.6641L94.6321 29.5429L97.1965 36.3456H92.1847L91.0916 39.3849H98.3336L100.083 44.0761H103.884L96.3868 24.6641Z" fill="#0E2A42"/>
<path d="M77.1303 37.7749L73.3553 32.697V44.0744H69.6926V24.377H72.0205L78.1949 33.3941L84.4812 24.377H86.7243V44.0734H83.0054V32.7197L79.2763 37.7749H77.1303Z" fill="#0E2A42"/>
</g>
<defs>
<clipPath id="clip0_10866_4899">
<rect width="145" height="20" fill="white" transform="translate(0 24.2344)"/>
</clipPath>
</defs>
</svg>
