<svg width="230" height="109" viewBox="0 0 230 109" fill="none" xmlns="http://www.w3.org/2000/svg">
<g clip-path="url(#clip0_10866_4701)">
<path d="M101.294 46.3111L102.729 49.3129L106.012 49.7452L103.612 52.0456L104.212 55.3248L101.294 53.7423L98.3834 55.3329L98.9833 52.0537L96.5837 49.7616L99.867 49.3211L101.294 46.3111ZM94.5814 43.5376L96.9891 44.3696L96.1216 41.9633L97.6457 39.9158L95.1002 40.0055L93.6329 37.9091L92.9276 40.3726L90.4956 41.1231L92.6033 42.5587L92.5628 45.1201L94.5814 43.5376ZM84.7722 39.1082L86.6287 39.2306L85.5586 37.697L86.2558 35.9596L84.4723 36.5061L83.0455 35.2988L83.0131 37.175L81.4322 38.1702L83.1914 38.782L83.6454 40.601L84.7722 39.1082ZM75.9197 39.7282L77.2654 39.4019L76.1629 38.5536L76.2682 37.1587L75.1252 37.9499L73.8443 37.4197L74.2335 38.7575L73.3336 39.8179L74.7199 39.8587L75.4495 41.0497L75.9197 39.7282ZM68.7209 43.3337L68.2588 44.182L69.2073 44.0107L69.872 44.7122L70.0017 43.7497L70.8692 43.3337L70.0017 42.9095L69.8801 41.947L69.2154 42.6485L68.2669 42.469L68.7209 43.3337Z" fill="#C6A558"/>
<path d="M13.7896 54.304C12.8735 53.5454 10.9684 52.0037 8.25266 52.0037C4.8073 52.0037 2.79682 54.4345 2.79682 56.7104C2.79682 58.7905 4.5722 61.254 8.57693 61.254C11.0495 61.254 13.2545 60.1691 14.4138 59.2799L15.6784 61.8739C13.7166 63.3341 10.7009 64.0682 8.55261 64.0682C3.87502 64.0682 0 61.4987 0 56.6288C0 51.6774 4.51545 49.1895 8.39047 49.1895C11.9899 49.1895 13.9598 50.7883 15.4352 51.8405L13.7896 54.304Z" fill="#005192"/>
<path d="M25.4306 49.623V54.9252H32.905V49.623H35.7019V63.6371H32.905V57.7395H25.4306V63.6371H22.6338V49.623H25.4306Z" fill="#005192"/>
<path d="M56.4554 49.623V52.4373H46.8813V54.9823H51.9399V57.7966H46.8813V60.8229H56.7796V63.6371H44.0845V49.623H56.4554Z" fill="#005192"/>
<path d="M66.5073 63.6371H63.7104V49.623H76.0813V52.4373H66.5073V54.9823H71.5659V57.7966H66.5073V63.6371Z" fill="#005192"/>
<path d="M81.1567 59.1171C83.5725 60.6833 85.891 61.2543 88.3392 61.2543C89.7336 61.2543 92.1007 60.9035 92.1007 59.3292C92.1007 58.1953 90.8604 57.8935 90.0011 57.8691L85.8342 57.7304C82.4213 57.6488 80.7513 55.6503 80.7513 53.4805C80.7513 51.4004 82.2835 49.1816 87.2853 49.1816C90.9415 49.1816 93.1708 50.5847 94.0058 51.017L92.7412 53.505C91.6387 52.9339 89.6201 51.9877 86.8557 51.9877C85.3803 51.9877 83.5481 52.314 83.5481 53.5539C83.5481 54.6388 85.0803 54.908 86.0207 54.908L89.6525 55.0467C92.8547 55.1282 94.8976 56.5068 94.8976 59.4597C94.8976 61.9721 92.9357 64.0604 88.3392 64.0604C84.5777 64.0604 81.8052 63.1142 79.8677 61.6214L81.1567 59.1171Z" fill="#005192"/>
<path d="M121.774 54.1149C120.858 53.3563 118.953 51.8146 116.237 51.8146C112.8 51.8146 110.781 54.2454 110.781 56.5213C110.781 58.6014 112.557 61.0649 116.561 61.0649C119.034 61.0649 121.239 59.98 122.398 59.0908L123.663 61.6848C121.701 63.145 118.694 63.8709 116.537 63.8709C111.86 63.8709 107.993 61.3014 107.993 56.4316C107.993 51.4801 112.508 48.9922 116.383 48.9922C119.983 48.9922 121.944 50.591 123.428 51.6433L121.774 54.1149Z" fill="#005192"/>
<path d="M132.548 49.4336V57.9579C132.548 59.6301 132.977 61.0658 136.471 61.0658C140.184 61.0658 140.395 59.467 140.395 57.9579V49.4336H143.192V57.9579C143.192 60.9026 141.789 63.88 136.447 63.88C131.607 63.88 129.751 61.286 129.751 57.9579V49.4336H132.548Z" fill="#005192"/>
<path d="M152.839 49.4336V60.6334H160.849V63.4477H150.042V49.4336H152.839Z" fill="#005192"/>
<path d="M169.206 49.4336V63.4477H166.41V49.4336H169.206Z" fill="#005192"/>
<path d="M177.135 49.4336H179.932L187.568 58.9041H187.625V49.4336H190.414V63.4477H187.617L179.981 53.9853H179.924V63.4477H177.127V49.4336H177.135Z" fill="#005192"/>
<path d="M201.755 49.4336H205.468L212.294 63.4477H209.124L207.73 60.5029H199.574L198.18 63.4477H195.01L201.755 49.4336ZM200.944 57.6805H206.319L203.628 52.1663L200.944 57.6805Z" fill="#005192"/>
<path d="M225.078 49.432C227.656 49.432 230.104 50.4027 230.104 53.5677C230.104 56.2432 228.305 57.214 226.983 57.7034L230.502 63.4379H226.983L223.465 57.7279H219.006V63.4379H216.209V49.4238H225.078V49.432ZM219.006 52.2462V54.9218H225.078C225.913 54.9218 227.308 54.8157 227.308 53.5677C227.308 52.2707 226.043 52.2381 225.078 52.2381H219.006V52.2462Z" fill="#005192"/>
<path d="M108.706 69.041H109.598L110.481 72.1H110.49L111.462 69.041H112.322L113.303 72.1H113.311L114.211 69.041H115.07L113.748 72.9891H112.857L111.884 69.9628H111.876L110.895 72.9891H110.003L108.706 69.041Z" fill="#005192"/>
<path d="M117.405 69.041H118.232V72.9891H117.405V69.041Z" fill="#005192"/>
<path d="M120.972 69.041H123.452C123.704 69.041 123.915 69.0655 124.085 69.1226C124.255 69.1797 124.393 69.2531 124.49 69.3428C124.595 69.4407 124.668 69.5549 124.709 69.6854C124.758 69.816 124.774 69.9546 124.774 70.1178C124.774 70.3788 124.709 70.5827 124.587 70.7377C124.466 70.8927 124.312 71.0069 124.125 71.064V71.0722C124.239 71.0966 124.336 71.1456 124.409 71.2027C124.482 71.2598 124.547 71.3414 124.587 71.4311C124.628 71.5208 124.66 71.6269 124.677 71.7492C124.693 71.8716 124.701 72.0021 124.701 72.1408C124.701 72.1897 124.701 72.2468 124.701 72.3202C124.701 72.3936 124.709 72.467 124.717 72.5486C124.725 72.6302 124.741 72.7036 124.766 72.7852C124.79 72.8668 124.814 72.932 124.855 72.981H123.963C123.931 72.9239 123.915 72.8504 123.89 72.7525C123.874 72.6547 123.866 72.5323 123.866 72.3855C123.866 72.2468 123.858 72.1163 123.842 72.0021C123.825 71.8797 123.793 71.7818 123.744 71.7003C123.696 71.6187 123.631 71.5453 123.542 71.5045C123.452 71.4556 123.331 71.4311 123.185 71.4311H121.782V72.9891H120.956V69.041H120.972ZM123.217 70.8111C123.452 70.8111 123.623 70.7703 123.744 70.6888C123.866 70.6072 123.923 70.4522 123.923 70.232C123.923 70.0199 123.858 69.873 123.736 69.7915C123.615 69.7099 123.436 69.661 123.217 69.661H121.799V70.8111H123.217Z" fill="#005192"/>
<path d="M131.081 69.041H131.907V72.3365H134.291V72.9891H131.081V69.041Z" fill="#005192"/>
<path d="M136.658 69.041H140.063V69.661H137.485V70.6562H139.966V71.2761H137.485V72.3692H140.112V72.9891H136.666V69.041H136.658Z" fill="#005192"/>
<path d="M142.682 69.041H145.276C145.503 69.041 145.681 69.0655 145.827 69.1226C145.973 69.1797 146.086 69.2531 146.176 69.3428C146.257 69.4326 146.322 69.5386 146.354 69.661C146.386 69.7752 146.403 69.8975 146.403 70.028C146.403 70.1667 146.386 70.2891 146.346 70.3788C146.305 70.4767 146.265 70.5501 146.208 70.6154C146.151 70.6725 146.095 70.7214 146.038 70.7622C145.973 70.7948 145.916 70.8275 145.868 70.8601C145.941 70.8846 146.022 70.9172 146.103 70.958C146.184 70.9988 146.265 71.0559 146.33 71.1374C146.403 71.2108 146.459 71.3087 146.508 71.4229C146.557 71.5371 146.581 71.6758 146.581 71.8389C146.581 71.945 146.557 72.0755 146.524 72.206C146.484 72.3365 146.411 72.4671 146.313 72.5813C146.216 72.6955 146.078 72.7933 145.908 72.8749C145.738 72.9565 145.519 72.9973 145.251 72.9973H142.69V69.041H142.682ZM143.509 70.648H145.049C145.106 70.648 145.17 70.6398 145.227 70.6317C145.292 70.6235 145.349 70.599 145.397 70.5583C145.446 70.5256 145.495 70.4767 145.527 70.4033C145.56 70.338 145.576 70.2483 145.576 70.1341C145.576 69.9709 145.527 69.8486 145.422 69.767C145.316 69.6854 145.146 69.6528 144.903 69.6528H143.509V70.648ZM143.509 72.3692H144.984C145.073 72.3692 145.162 72.361 145.251 72.3529C145.341 72.3447 145.422 72.3121 145.495 72.2713C145.568 72.2305 145.616 72.1734 145.665 72.1C145.705 72.0266 145.73 71.9205 145.73 71.7982C145.73 71.6105 145.673 71.4719 145.56 71.374C145.446 71.2842 145.3 71.2353 145.114 71.2353H143.517V72.3692H143.509Z" fill="#005192"/>
<path d="M149.167 69.041H152.571V69.661H149.993V70.6562H152.466V71.2761H149.993V72.3692H152.62V72.9891H149.175V69.041H149.167Z" fill="#005192"/>
<path d="M155.19 69.041H156.13L158.465 72.0021H158.473V69.041H159.268V72.9891H158.335L155.984 70.028H155.976V72.9891H155.19V69.041Z" fill="#005192"/>
<path d="M165.842 69.041H169.101V69.661H166.661V70.6562H168.971V71.2761H166.661V72.9891H165.842V69.041Z" fill="#005192"/>
<path d="M173.625 73.0964C173.211 73.0964 172.855 73.0393 172.563 72.9251C172.271 72.8109 172.028 72.6641 171.85 72.4683C171.663 72.2807 171.533 72.0523 171.444 71.7994C171.363 71.5465 171.314 71.2855 171.314 71.0082C171.314 70.7308 171.355 70.4698 171.444 70.2169C171.525 69.964 171.663 69.7438 171.85 69.548C172.036 69.3604 172.271 69.2054 172.563 69.0912C172.855 68.977 173.211 68.9199 173.625 68.9199C174.038 68.9199 174.395 68.977 174.687 69.0912C174.979 69.2054 175.214 69.3523 175.4 69.548C175.587 69.7356 175.716 69.964 175.806 70.2169C175.887 70.4698 175.935 70.7308 175.935 71.0082C175.935 71.2855 175.895 71.5465 175.806 71.7994C175.725 72.0523 175.587 72.2725 175.4 72.4683C175.214 72.6641 174.979 72.8109 174.687 72.9251C174.395 73.0393 174.038 73.0964 173.625 73.0964ZM173.625 72.4765C173.852 72.4765 174.063 72.4438 174.241 72.3704C174.419 72.297 174.573 72.1991 174.695 72.0686C174.817 71.9381 174.914 71.7913 174.979 71.6118C175.044 71.4323 175.076 71.2366 175.076 71.0163C175.076 70.8042 175.044 70.6085 174.979 70.4208C174.914 70.2414 174.825 70.0864 174.695 69.9559C174.573 69.8254 174.419 69.7275 174.241 69.6541C174.063 69.5807 173.86 69.548 173.625 69.548C173.398 69.548 173.187 69.5807 173.009 69.6541C172.83 69.7275 172.676 69.8254 172.555 69.9559C172.433 70.0864 172.336 70.2414 172.271 70.4208C172.206 70.6003 172.174 70.7961 172.174 71.0163C172.174 71.2366 172.206 71.4323 172.271 71.6118C172.336 71.7913 172.433 71.9462 172.555 72.0686C172.676 72.1991 172.83 72.297 173.009 72.3704C173.187 72.4438 173.398 72.4765 173.625 72.4765Z" fill="#005192"/>
<path d="M180.564 73.0964C180.151 73.0964 179.794 73.0393 179.502 72.9251C179.21 72.8109 178.967 72.6641 178.789 72.4683C178.602 72.2807 178.473 72.0523 178.384 71.7994C178.303 71.5465 178.254 71.2855 178.254 71.0082C178.254 70.7308 178.294 70.4698 178.384 70.2169C178.465 69.964 178.602 69.7438 178.789 69.548C178.975 69.3604 179.21 69.2054 179.502 69.0912C179.794 68.977 180.151 68.9199 180.564 68.9199C180.978 68.9199 181.334 68.977 181.626 69.0912C181.918 69.2054 182.161 69.3523 182.34 69.548C182.526 69.7356 182.656 69.964 182.745 70.2169C182.826 70.4698 182.867 70.7308 182.867 71.0082C182.867 71.2855 182.826 71.5465 182.745 71.7994C182.664 72.0523 182.526 72.2725 182.34 72.4683C182.153 72.6641 181.918 72.8109 181.626 72.9251C181.326 73.0393 180.978 73.0964 180.564 73.0964ZM180.564 72.4765C180.791 72.4765 181.002 72.4438 181.18 72.3704C181.359 72.297 181.513 72.1991 181.634 72.0686C181.756 71.9381 181.853 71.7913 181.918 71.6118C181.983 71.4323 182.015 71.2366 182.015 71.0163C182.015 70.8042 181.983 70.6085 181.918 70.4208C181.853 70.2414 181.756 70.0864 181.634 69.9559C181.513 69.8254 181.359 69.7275 181.18 69.6541C181.002 69.5807 180.799 69.548 180.564 69.548C180.329 69.548 180.127 69.5807 179.948 69.6541C179.77 69.7275 179.616 69.8254 179.494 69.9559C179.373 70.0864 179.275 70.2414 179.21 70.4208C179.146 70.6003 179.113 70.7961 179.113 71.0163C179.113 71.2366 179.146 71.4323 179.21 71.6118C179.275 71.7913 179.373 71.9462 179.494 72.0686C179.616 72.1991 179.77 72.297 179.948 72.3704C180.127 72.4438 180.329 72.4765 180.564 72.4765Z" fill="#005192"/>
<path d="M185.404 69.041H187.52C187.901 69.041 188.217 69.09 188.468 69.196C188.711 69.302 188.914 69.4407 189.06 69.6283C189.206 69.8078 189.303 70.028 189.36 70.2728C189.417 70.5175 189.441 70.7785 189.441 71.0558C189.441 71.2679 189.417 71.4882 189.36 71.7166C189.311 71.945 189.214 72.1571 189.084 72.3447C188.955 72.5323 188.776 72.6873 188.557 72.8097C188.338 72.932 188.063 72.9891 187.722 72.9891H185.412V69.041H185.404ZM186.231 72.3692H187.39C187.536 72.3692 187.682 72.3528 187.828 72.3202C187.974 72.2876 188.103 72.2223 188.225 72.1244C188.338 72.0266 188.436 71.8879 188.509 71.7084C188.582 71.529 188.614 71.3006 188.614 71.0069C188.614 70.6888 188.565 70.4359 188.476 70.2564C188.387 70.077 188.282 69.9383 188.152 69.8486C188.022 69.7589 187.884 69.7018 187.739 69.6854C187.593 69.661 187.463 69.6528 187.349 69.6528H186.239V72.3692H186.231Z" fill="#005192"/>
<path d="M191.833 70.151C191.833 69.9307 191.873 69.7431 191.971 69.5881C192.06 69.4331 192.181 69.3108 192.344 69.2129C192.498 69.115 192.684 69.0416 192.895 69.0008C193.106 68.96 193.333 68.9355 193.568 68.9355C193.665 68.9355 193.778 68.9437 193.908 68.9519C194.038 68.96 194.168 68.9845 194.305 69.009C194.443 69.0416 194.573 69.0824 194.703 69.1395C194.832 69.1966 194.954 69.27 195.067 69.3597C195.173 69.4494 195.27 69.5637 195.343 69.7023C195.416 69.841 195.465 70.0041 195.481 70.1918H194.589C194.581 70.1183 194.557 70.0368 194.524 69.9634C194.484 69.8899 194.427 69.8165 194.346 69.7594C194.265 69.7023 194.168 69.6534 194.046 69.6126C193.924 69.58 193.778 69.5555 193.608 69.5555C193.333 69.5555 193.114 69.5963 192.943 69.686C192.773 69.7757 192.692 69.9063 192.692 70.0939C192.692 70.2081 192.733 70.306 192.822 70.3712C192.903 70.4365 193.016 70.4854 193.154 70.518C193.292 70.5588 193.446 70.5833 193.624 70.5996C193.795 70.6241 193.973 70.6404 194.159 70.673C194.346 70.6975 194.516 70.7301 194.695 70.7791C194.865 70.8199 195.027 70.8851 195.165 70.9667C195.303 71.0483 195.416 71.1625 195.497 71.3011C195.578 71.4398 195.627 71.6111 195.627 71.8232C195.627 72.0761 195.57 72.2882 195.448 72.4513C195.335 72.6144 195.181 72.745 194.994 72.8428C194.808 72.9407 194.605 73.006 194.386 73.0468C194.168 73.0876 193.949 73.1039 193.738 73.1039C193.389 73.1039 193.081 73.0712 192.83 73.006C192.579 72.9407 192.376 72.8428 192.214 72.7286C192.052 72.6063 191.938 72.4595 191.865 72.2882C191.792 72.1169 191.752 71.9292 191.744 71.7253H192.635C192.644 71.9945 192.749 72.1821 192.952 72.3045C193.146 72.4268 193.422 72.4921 193.762 72.4921C193.884 72.4921 194.005 72.4839 194.127 72.4595C194.241 72.4431 194.346 72.4024 194.435 72.3616C194.524 72.3126 194.597 72.2555 194.646 72.1821C194.703 72.1087 194.727 72.019 194.727 71.9129C194.727 71.7906 194.686 71.6927 194.605 71.6193C194.524 71.5458 194.411 71.4888 194.281 71.448C194.143 71.4072 193.989 71.3745 193.819 71.3501C193.649 71.3256 193.47 71.3011 193.292 71.2685C193.114 71.244 192.935 71.2032 192.765 71.1625C192.595 71.1217 192.441 71.0564 192.303 70.9748C192.165 70.8933 192.06 70.7872 191.979 70.6567C191.873 70.518 191.833 70.3549 191.833 70.151Z" fill="#005192"/>
<path d="M198.091 69.041H201.496V69.661H198.918V70.6562H201.39V71.2761H198.918V72.3692H201.544V72.9891H198.099V69.041H198.091Z" fill="#005192"/>
<path d="M204.114 69.041H206.595C206.846 69.041 207.057 69.0655 207.219 69.1226C207.389 69.1797 207.527 69.2531 207.624 69.3428C207.729 69.4407 207.802 69.5549 207.843 69.6854C207.883 69.816 207.908 69.9546 207.908 70.1178C207.908 70.3788 207.843 70.5827 207.721 70.7377C207.6 70.8927 207.446 71.0069 207.259 71.064V71.0722C207.373 71.0966 207.47 71.1456 207.543 71.2027C207.616 71.2598 207.681 71.3414 207.721 71.4311C207.762 71.5208 207.794 71.6269 207.811 71.7492C207.827 71.8716 207.835 72.0021 207.835 72.1408C207.835 72.1897 207.835 72.2468 207.835 72.3202C207.835 72.3936 207.843 72.467 207.851 72.5486C207.859 72.6302 207.875 72.7036 207.9 72.7852C207.924 72.8668 207.948 72.932 207.989 72.981H207.097C207.065 72.9239 207.04 72.8504 207.024 72.7525C207.008 72.6547 207 72.5323 207 72.3855C207 72.2468 206.992 72.1163 206.976 72.0021C206.959 71.8797 206.927 71.7818 206.886 71.7003C206.838 71.6187 206.773 71.5453 206.684 71.5045C206.595 71.4556 206.473 71.4311 206.327 71.4311H204.925V72.9891H204.098V69.041H204.114ZM206.359 70.8111C206.586 70.8111 206.765 70.7703 206.886 70.6888C207.008 70.6072 207.065 70.4522 207.065 70.232C207.065 70.0199 207 69.873 206.878 69.7915C206.757 69.7099 206.578 69.661 206.359 69.661H204.941V70.8111H206.359Z" fill="#005192"/>
<path d="M210.008 69.041H210.932L212.213 72.1979L213.461 69.041H214.353L212.626 72.9891H211.751L210.008 69.041Z" fill="#005192"/>
<path d="M216.655 69.041H217.482V72.9891H216.655V69.041Z" fill="#005192"/>
<path d="M223.465 70.5017C223.424 70.2081 223.287 69.9715 223.068 69.8002C222.841 69.6371 222.557 69.5473 222.208 69.5473C222.022 69.5473 221.844 69.58 221.681 69.6452C221.519 69.7105 221.381 69.8084 221.26 69.9307C221.138 70.0612 221.049 70.2162 220.984 70.412C220.919 70.5996 220.887 70.828 220.887 71.0891C220.887 71.293 220.919 71.4806 220.992 71.6519C221.057 71.8232 221.154 71.97 221.276 72.0924C221.398 72.2147 221.544 72.3126 221.706 72.3779C221.876 72.4431 222.062 72.4839 222.265 72.4839C222.476 72.4839 222.654 72.4513 222.8 72.386C222.946 72.3208 223.068 72.2392 223.157 72.1413C223.254 72.0434 223.319 71.9374 223.368 71.815C223.416 71.7008 223.449 71.5866 223.465 71.4806H224.357C224.324 71.6764 224.267 71.8721 224.186 72.0679C224.097 72.2637 223.968 72.435 223.797 72.59C223.627 72.745 223.4 72.8673 223.133 72.9652C222.857 73.0631 222.525 73.112 222.119 73.112C221.762 73.112 221.454 73.0549 221.195 72.9407C220.936 72.8265 220.717 72.6797 220.538 72.4839C220.36 72.2963 220.238 72.0679 220.149 71.815C220.068 71.5622 220.02 71.3011 220.02 71.0238C220.02 70.7464 220.06 70.4854 220.149 70.2325C220.238 69.9797 220.36 69.7594 220.538 69.5636C220.717 69.376 220.944 69.221 221.219 69.1068C221.495 68.9926 221.827 68.9355 222.208 68.9355C222.549 68.9355 222.841 68.9763 223.1 69.0579C223.36 69.1395 223.578 69.2537 223.757 69.4005C223.935 69.5392 224.073 69.7105 224.17 69.8981C224.267 70.0857 224.332 70.2896 224.349 70.5017H223.465Z" fill="#005192"/>
<path d="M226.918 69.041H230.323V69.661H227.745V70.6562H230.218V71.2761H227.745V72.3692H230.372V72.9891H226.927V69.041H226.918Z" fill="#005192"/>
</g>
<defs>
<clipPath id="clip0_10866_4701">
<rect width="230" height="37.6364" fill="white" transform="translate(0 35.416)"/>
</clipPath>
</defs>
</svg>
