<svg width="145" height="69" viewBox="0 0 145 69" fill="none" xmlns="http://www.w3.org/2000/svg">
<path d="M80.9526 61.847V64.3037H81.2865V62.6608C81.2865 62.4555 81.2827 62.4063 81.2688 62.235C81.3419 62.3257 81.3696 62.361 81.4603 62.4605L83.2015 64.3024H83.5417V61.8457H83.2078V63.5402C83.2116 63.6977 83.2116 63.7292 83.2292 63.9031C83.1108 63.7569 83.0856 63.7292 82.9672 63.6045L81.3104 61.847H80.9526ZM78.463 64.3037H78.8208V61.847H78.463V64.3037ZM74.7563 64.3037H76.7331V64.0051H75.1028V61.847H74.7551V64.3037H74.7563ZM71.793 62.1418C71.953 62.1456 72.1307 62.1456 72.2415 62.3219C72.2907 62.395 72.3146 62.4895 72.3146 62.584C72.3146 62.6709 72.2945 62.7654 72.2315 62.8448C72.0929 63.03 71.8485 63.0338 71.6569 63.0338H70.4411V62.1418H71.793ZM70.0984 64.3037H70.4462V63.3223H71.633L72.4658 64.3037H72.9219L72.0173 63.2668C72.1811 63.2391 72.6787 63.1585 72.6787 62.5701C72.6787 62.2741 72.5401 62.1141 72.4595 62.0448C72.2478 61.8545 71.987 61.8495 71.7703 61.847H70.0997V64.3037H70.0984ZM65.8021 64.3037H68.1582V64.0013H66.1499V63.1723H68.0196V62.8838H66.1499V62.1493H68.0712V61.847H65.8021V64.3037ZM62.8262 63.1698C62.9686 63.1698 63.1324 63.1736 63.2584 63.2706C63.2861 63.2945 63.4045 63.3853 63.4045 63.5906C63.4045 63.6423 63.4007 63.7884 63.2722 63.9005C63.1399 64.0127 62.9736 64.019 62.8262 64.019H61.4932V63.1698H62.8262ZM62.7191 62.1317C62.8476 62.1317 63.0014 62.1317 63.1223 62.2085C63.2092 62.2678 63.2823 62.3648 63.2823 62.5122C63.2823 62.6306 63.2307 62.7667 63.1084 62.8322C63.0114 62.8876 62.8854 62.8876 62.7771 62.8876H61.4932V62.1317H62.7191ZM61.1455 64.3037H62.7229C62.9875 64.3037 63.3252 64.3037 63.5482 64.116C63.6943 63.9938 63.7674 63.8098 63.7674 63.6171C63.7674 63.1471 63.4096 63.0262 63.3012 62.9909C63.3075 62.9909 63.3982 62.9493 63.4234 62.9355C63.5343 62.8662 63.6452 62.7263 63.6452 62.4857C63.6452 62.3849 63.6275 62.2426 63.523 62.1065C63.3252 61.8558 62.9875 61.8457 62.7229 61.8457H61.1455V64.3037Z" fill="#9E864E"/>
<path d="M100.223 54.2476C100.437 54.2476 100.683 54.2527 100.871 54.3988C100.912 54.4353 101.09 54.5714 101.09 54.8788C101.09 54.9569 101.085 55.1774 100.891 55.3437C100.692 55.5113 100.442 55.5214 100.223 55.5214H98.2223V54.2476H100.223ZM100.062 52.6917C100.256 52.6917 100.485 52.6917 100.668 52.8063C100.799 52.8945 100.908 53.0407 100.908 53.2612C100.908 53.4388 100.83 53.6416 100.648 53.7412C100.501 53.8243 100.314 53.8243 100.151 53.8243H98.2248V52.6904H100.062V52.6917ZM97.7019 55.9497H100.067C100.464 55.9497 100.971 55.9497 101.305 55.6675C101.524 55.4848 101.634 55.2089 101.634 54.9217C101.634 54.2161 101.097 54.0334 100.935 53.9818C100.945 53.9818 101.081 53.9188 101.118 53.8986C101.284 53.7941 101.451 53.5849 101.451 53.2246C101.451 53.0734 101.425 52.8593 101.269 52.6552C100.971 52.2797 100.465 52.2646 100.068 52.2646H97.7032V55.9497H97.7019ZM90.7094 52.2646V54.4316C90.7094 54.8498 90.7245 55.3248 91.2474 55.6851C91.6443 55.9623 92.1306 56.0392 92.6106 56.0392C93.2582 56.0392 93.6702 55.888 93.926 55.7204C94.4891 55.3551 94.4891 54.8486 94.4891 54.4782V52.2646H93.9625V54.5198C93.9625 54.8284 93.9625 55.2089 93.4875 55.4231C93.2847 55.5176 92.9709 55.5856 92.6157 55.5856C92.0311 55.5856 91.7388 55.4231 91.6027 55.3349C91.2839 55.1308 91.2423 54.8813 91.2373 54.453V52.2646H90.7094ZM85.3586 55.9497H88.3231V55.5012H85.8789V52.2646H85.3573V55.9497H85.3586ZM82.0059 54.8221C81.9543 54.9317 81.8333 55.1195 81.6355 55.2656C81.4113 55.4432 81.0295 55.5894 80.4613 55.5843C79.7986 55.5843 79.3702 55.3702 79.1195 55.1144C78.8423 54.8057 78.739 54.4303 78.739 54.0649C78.739 53.0256 79.5529 52.6136 80.431 52.6136C80.901 52.6136 81.2979 52.7446 81.5221 52.8908C81.7527 53.0419 81.8409 53.1994 81.924 53.3456L82.4885 53.2208C82.389 53.0533 82.2063 52.7459 81.8157 52.5002C81.3193 52.1915 80.6767 52.1562 80.4109 52.1562C79.466 52.1562 79.0275 52.4952 78.87 52.6199C78.6193 52.8089 78.1871 53.2108 78.1871 54.0826C78.1871 55.1799 78.928 56.0404 80.426 56.0404C80.8695 56.0404 81.4541 55.9573 81.9089 55.67C82.2743 55.4407 82.4205 55.19 82.5616 54.9393L82.0059 54.8221ZM70.5181 54.6142H68.6962L69.4736 53.0886C69.5051 53.0218 69.5366 52.9588 69.5631 52.8908C69.5832 52.8391 69.5996 52.7862 69.6147 52.7396C69.6248 52.7862 69.6399 52.8341 69.6563 52.8807C69.6827 52.9424 69.713 53.0054 69.7394 53.0684L70.5181 54.6142ZM67.4426 55.9497H68.0272L68.4758 55.0413H70.7411L71.1896 55.9497H71.7906L69.9007 52.2646H69.3476L67.4426 55.9497ZM61.0108 52.2646V55.9497H61.511V53.4854C61.511 53.1767 61.5059 53.1037 61.4845 52.8479C61.5941 52.984 61.6357 53.0356 61.7718 53.1868L64.3836 55.9484H64.8938V52.2633H64.3936V54.8057C64.3987 55.0413 64.3987 55.088 64.4251 55.35C64.2475 55.1308 64.211 55.0892 64.0333 54.9015L61.5475 52.2646H61.0108ZM57.2777 55.9497H57.8144V52.2646H57.2777V55.9497ZM50.1919 55.9497H50.7186V54.2061H53.5445V55.9497H54.0712V52.2646H53.5445V53.7689H50.7186V52.2646H50.1919V55.9497ZM46.8393 54.8221C46.7876 54.9317 46.6667 55.1195 46.4689 55.2656C46.2446 55.4432 45.8629 55.5894 45.2946 55.5843C44.6319 55.5843 44.2036 55.3702 43.9528 55.1144C43.6757 54.8057 43.5723 54.4303 43.5723 54.0649C43.5723 53.0256 44.3875 52.6136 45.2644 52.6136C45.7344 52.6136 46.1312 52.7446 46.3555 52.8908C46.5848 53.0419 46.6743 53.1994 46.7574 53.3456L47.3218 53.2208C47.2223 53.0533 47.0396 52.7459 46.6491 52.5002C46.1526 52.1915 45.5101 52.1562 45.2443 52.1562C44.2993 52.1562 43.8609 52.4952 43.7034 52.6199C43.4527 52.8089 43.0205 53.2108 43.0205 54.0826C43.0205 55.1799 43.7613 56.0404 45.2606 56.0404C45.7041 56.0404 46.2887 55.9573 46.7435 55.67C47.1089 55.4407 47.2551 55.19 47.3962 54.9393L46.8393 54.8221Z" fill="#9E864E"/>
<path d="M72.8755 37.5566H71.8486V37.8011H72.8755V37.5566Z" fill="#9E864E"/>
<path d="M72.8755 37.9316H71.8486V38.195H72.8755V37.9316Z" fill="#9E864E"/>
<path d="M67.7426 21.9183C67.7376 21.8755 67.8371 21.7759 67.9102 21.7495C66.2824 20.4241 64.5929 19.1 62.9071 17.7696C62.8202 17.7015 62.5808 17.5793 62.7206 17.4697C62.7811 17.4218 62.8164 17.4609 62.9071 17.5252C63.2838 17.7935 63.7197 18.1866 64.065 18.4638C65.3954 19.5296 66.7713 20.574 68.0778 21.6361C68.2126 21.5529 68.3739 21.4962 68.525 21.4295C67.3609 20.2087 66.0506 18.8845 64.8108 17.6373C64.7579 17.5844 64.5777 17.5063 64.6798 17.3929C64.8058 17.3286 64.8776 17.4974 64.9419 17.5617C66.1753 18.8027 67.4869 20.1091 68.7304 21.3539C68.8577 21.3123 68.966 21.2518 69.1033 21.2229C67.8321 19.5674 66.4853 17.9182 65.1649 16.2476C65.146 16.2237 65.0351 16.0826 65.0338 16.0788C65.0099 16.002 65.0187 15.9465 65.0893 15.9289C65.151 15.9138 65.1712 15.9629 65.2392 16.041C65.5454 16.3963 65.883 16.8436 66.1539 17.1862C67.1933 18.5015 68.2416 19.8458 69.2898 21.1284C69.4511 21.078 69.5922 21.0062 69.7383 20.9406C68.8451 19.488 67.9808 17.9711 67.0698 16.4732C67.0295 16.4064 66.8746 16.2539 67.0144 16.2098C67.0824 16.1884 67.0925 16.2136 67.1454 16.2854C67.2236 16.39 67.3307 16.6105 67.4062 16.7365C68.2252 18.0971 69.063 19.5271 69.8895 20.8663C70.0344 20.8361 70.1239 20.7529 70.2625 20.7164C69.4662 18.8921 68.6473 17.0552 67.817 15.1969C67.7792 15.1112 67.6255 14.9097 67.7981 14.8782C67.8812 14.8631 67.8611 14.9021 67.9102 14.9903C67.9921 15.1402 68.0816 15.3758 68.1521 15.5346C68.9093 17.2077 69.6804 18.9387 70.4111 20.6219C70.59 20.545 70.74 20.4392 70.8962 20.341C70.4893 18.8455 69.9878 17.2744 69.5897 15.7223C69.5708 15.6492 69.4725 15.5005 69.6275 15.4779C69.7157 15.459 69.6879 15.5673 69.7018 15.6089C70.1944 17.0779 70.5497 18.6993 71.0083 20.2087C71.1835 20.1759 71.3271 19.9542 71.4569 19.8143C71.2087 18.1299 70.9189 16.361 70.6732 14.6703C70.6644 14.6149 70.6606 14.5443 70.6543 14.4826C70.6518 14.4586 70.5989 14.3604 70.6732 14.3515C70.8319 14.2583 70.8294 14.4725 70.8408 14.5393C70.905 14.8782 70.9416 15.236 70.9894 15.5535C71.1898 16.8788 71.3939 18.2924 71.5866 19.609C71.627 19.6367 71.6824 19.5183 71.7542 19.5145C71.7643 19.328 71.7328 19.1882 71.8285 19.0634C72.0125 18.8253 72.5416 18.8883 72.6689 19.0823C72.7357 19.1857 72.7344 19.3331 72.7067 19.4956C72.7848 19.5787 72.8528 19.6732 72.931 19.7576C73.1565 18.1979 73.3669 16.4958 73.5836 14.8769C73.5949 14.7912 73.6012 14.6338 73.6214 14.5204C73.634 14.4435 73.6264 14.2445 73.789 14.3327C73.8431 14.3604 73.8116 14.4486 73.8079 14.4826C73.7348 15.3292 73.5622 16.1985 73.4538 17.0918C73.3707 17.7658 73.2863 18.4978 73.1918 19.2134C73.164 19.4326 73.067 19.7375 73.0985 19.9076C73.1338 20.0953 73.4664 20.2389 73.5836 20.3762C74.0409 18.8644 74.4567 17.287 74.909 15.7021C74.9317 15.6253 74.9443 15.464 75.059 15.4955C75.1824 15.5295 75.0892 15.653 75.059 15.7576C74.6192 17.3085 74.172 18.911 73.7335 20.4506C73.8053 20.5841 73.9679 20.6269 74.0876 20.7126C74.8889 18.882 75.6902 16.9695 76.4952 15.081C76.5217 15.018 76.5759 14.7144 76.7183 14.8555C76.785 14.921 76.7346 14.95 76.6994 15.0432C76.5482 15.4565 76.3226 15.9478 76.1589 16.3384C75.539 17.8162 74.8674 19.323 74.2551 20.7869C74.3635 20.8966 74.5386 20.9406 74.6835 21.0125C75.5843 19.5006 76.5255 17.9699 77.4465 16.4127C77.4931 16.3346 77.5674 16.1229 77.6707 16.225C77.7589 16.3119 77.4276 16.734 77.3721 16.8259C76.5356 18.2244 75.6763 19.6707 74.8523 21.0679C74.9355 21.141 75.0778 21.1548 75.1698 21.2178C75.3941 21.0314 75.5352 20.7668 75.7103 20.5425C76.8493 19.0786 77.992 17.5894 79.1448 16.0738C79.194 16.0095 79.3401 15.7513 79.4434 15.8861C79.5165 15.9806 79.3212 16.1393 79.257 16.225C77.9819 17.9006 76.6653 19.6102 75.3928 21.2745C75.5012 21.3602 75.6687 21.3854 75.8036 21.4433C75.9232 21.4207 75.9875 21.2947 76.0656 21.2178C77.2701 20.0058 78.4733 18.7775 79.7055 17.5377C79.7496 17.4937 79.9046 17.3059 79.9852 17.3878C80.0772 17.4798 79.897 17.5894 79.8176 17.67C78.5565 18.9387 77.2613 20.2528 76.0102 21.5177C76.1148 21.5882 76.2559 21.621 76.3655 21.6865C78.0638 20.3258 79.7572 18.9223 81.4795 17.5189C81.5475 17.4634 81.734 17.2392 81.8159 17.3878C81.8549 17.4584 81.8222 17.4823 81.7415 17.5566C81.5802 17.7028 81.3472 17.8452 81.2187 17.951C79.6753 19.2197 78.0953 20.5425 76.5343 21.781C76.5683 21.8339 76.6401 21.849 76.6653 21.912C76.7157 21.946 76.6225 21.907 76.6275 21.8742C74.9418 21.1296 71.9911 21.0137 69.7396 21.3299C68.9786 21.4433 68.2479 21.5781 67.7426 21.9183Z" fill="#9E864E"/>
<path d="M72.4837 7.80149C72.9284 7.38448 73.7902 7.18164 74.686 7.18164C75.3084 7.18164 76.0391 7.26227 76.4587 7.51928C76.6099 7.61251 76.7585 7.79897 76.9059 7.93252C77.0798 8.08874 77.2789 8.17693 77.391 8.30796C77.5359 8.47552 77.6191 8.74639 77.8194 8.77663C77.9844 8.80183 78.0827 8.75017 78.1558 8.6456C78.2314 8.46292 78.0512 8.21347 78.2112 8.10134C78.4645 8.1404 78.8235 8.43395 78.8273 8.73883C78.8311 9.09286 78.4405 9.22136 78.0802 9.15207C77.8912 9.11553 77.7362 8.99333 77.5951 8.90766C77.1919 8.66324 76.7283 8.28906 76.2886 8.08244C75.6964 7.80275 74.5348 7.80401 73.8431 8.08244C73.5621 8.19583 73.2711 8.43647 72.7986 8.45788C72.5794 8.46796 72.3929 8.46292 72.2014 8.45788C71.8008 8.44781 71.4984 8.25127 71.1935 8.12024C70.6215 7.87205 69.6539 7.74228 68.879 8.00811C68.3448 8.19205 67.885 8.59899 67.4226 8.89002C67.2727 8.98451 67.1026 9.1105 66.9186 9.15207C66.707 9.20121 66.3668 9.14829 66.2471 9.02104C66.0606 8.82451 66.169 8.53096 66.3592 8.32686C66.4714 8.20591 66.644 8.06985 66.7511 8.12024C66.9111 8.18323 66.7498 8.47426 66.8065 8.62671C66.8531 8.75269 66.9539 8.80435 67.1429 8.77663C67.3823 8.74135 67.4415 8.43773 67.628 8.25127C67.7476 8.13158 67.9329 8.03835 68.0765 7.91362C68.2201 7.78764 68.3474 7.63015 68.4872 7.53818C68.8765 7.28243 69.4007 7.23078 70.0558 7.20054C70.9705 7.1577 71.9091 7.28747 72.4837 7.80149Z" fill="#9E864E"/>
<path d="M61.8814 12.5891C61.6307 13.2821 61.4392 14.2005 60.6115 14.2975C60.2763 14.3366 60.178 14.1766 60.0143 13.9788C59.9273 13.8742 59.7761 13.7205 59.7346 13.6033C59.5645 13.1258 59.9009 12.763 60.2385 12.6269C60.367 12.5753 60.5396 12.5148 60.7047 12.5148C60.803 12.8373 60.2927 13.0906 60.425 13.3967C60.5207 13.6197 60.8445 13.3753 60.9479 13.2279C61.065 13.0603 61.1305 12.8814 61.2099 12.7592C61.4216 12.4279 61.6761 12.1356 61.826 11.8949C61.4569 11.8849 61.0461 11.9164 60.7059 11.876C60.7689 11.5964 60.9567 11.4225 61.0789 11.1806C61.2439 10.8568 61.2301 10.4121 61.4518 10.1488C61.7403 9.80609 62.7155 9.49742 63.3001 9.45458C63.702 9.42435 63.9792 9.55285 64.3269 9.56671C64.6507 9.57931 64.9707 9.43065 65.0741 9.21017C65.1597 9.02623 65.0715 8.60921 65.2605 8.51598C65.3412 8.47693 65.5478 8.49457 65.6335 8.53488C66.019 8.71756 65.9207 9.5327 65.6524 9.79349C65.3034 10.1311 64.3962 9.98877 63.7864 10.0933C63.1779 10.1979 62.6563 10.4675 62.1435 10.7699C61.9394 10.8896 61.5022 11.1126 61.5274 11.3141C61.5652 11.6216 62.0931 11.3582 62.2745 11.4263C62.6084 11.5523 62.4938 12.5085 62.2002 12.608C62.1019 12.6408 61.9999 12.6345 61.8814 12.5891Z" fill="#9E864E"/>
<path d="M79.7067 8.59154C79.8214 8.76162 79.7596 8.99973 79.8189 9.17359C79.9096 9.44069 80.1742 9.59061 80.4904 9.60573C80.8507 9.62211 81.1506 9.4621 81.6105 9.4936C81.9418 9.51628 82.321 9.62211 82.6562 9.73802C83.0266 9.86652 83.4172 10.0454 83.5709 10.3579C83.6792 10.5796 83.6755 10.8505 83.7762 11.0899C83.906 11.3998 84.1328 11.6177 84.2235 11.9151C83.8821 11.9541 83.4751 11.9251 83.1035 11.934C83.1475 12.0801 83.2874 12.1885 83.4021 12.3472C83.5419 12.5412 83.6918 12.7856 83.8317 13.0225C83.9426 13.2102 84.2311 13.7305 84.5032 13.4357C84.5347 13.0212 84.1605 12.9192 84.2046 12.5538C84.3079 12.5059 84.4188 12.5916 84.5221 12.6281C84.7363 12.7063 84.9555 12.7793 85.0815 12.9469C85.2151 13.1233 85.2743 13.4055 85.1747 13.66C85.1357 13.7595 84.9971 13.8943 84.895 14.0165C84.7464 14.1942 84.6657 14.3693 84.3167 14.3353C83.523 14.2584 83.2471 13.3198 83.0468 12.6269C82.3777 12.9104 82.3084 11.7752 82.6171 11.4628C82.8326 11.4023 83.3239 11.6379 83.3819 11.3683C83.4298 11.1491 82.9787 10.9286 82.7658 10.8051C82.2555 10.5091 81.7465 10.2344 81.1052 10.1298C80.5736 10.0429 79.776 10.1613 79.388 9.92322C79.068 9.72668 78.8752 9.13706 79.1083 8.7402C79.2015 8.5865 79.4497 8.44791 79.7067 8.59154Z" fill="#9E864E"/>
<path d="M72.1282 11.5192C71.8825 11.2281 71.7011 10.8716 71.4378 10.5995C70.9313 10.704 70.3618 10.7444 69.8692 10.8628C70.61 11.0933 71.3672 11.31 72.0904 11.557C71.7338 11.6678 71.3722 11.7737 71.0258 11.8946C70.9565 12.4263 70.8091 12.9781 70.7826 13.4896C71.2173 12.8546 71.6923 12.1579 72.1269 11.5935V12.7765C72.4658 12.9491 72.84 13.128 73.1727 13.3019C73.2848 13.3611 73.3843 13.4468 73.5078 13.4518C73.0719 12.8332 72.5666 12.1831 72.1824 11.5746C72.52 11.7107 72.8741 11.8304 73.2092 11.9689C73.5217 11.6439 73.9349 11.2974 74.2549 10.9925C74.2952 10.9535 74.4212 10.8792 74.3482 10.8615C73.6212 11.082 72.9068 11.3151 72.1647 11.5179C72.3865 11.2155 72.6259 10.9296 72.8363 10.6171C72.5843 10.1573 72.389 9.64071 72.1269 9.19094V11.5192H72.1282ZM72.1282 9.04102C72.394 9.5311 72.6322 10.0489 72.8753 10.5617C73.4183 10.641 73.9727 10.7103 74.4993 10.8061C74.5548 10.8288 74.4477 10.9144 74.4061 10.956C74.0861 11.2861 73.664 11.6489 73.3427 11.9891C73.4347 12.5397 73.5317 13.0877 73.6224 13.6408C73.121 13.3939 72.646 13.1205 72.1484 12.871C71.6318 13.1091 71.1656 13.3976 70.6554 13.6408C70.7284 13.2376 70.7889 12.8294 70.8607 12.4011C70.8796 12.2852 70.954 12.0949 70.9351 12.0067C70.9187 11.9299 70.7158 11.7674 70.6365 11.688C70.3341 11.3844 69.9914 11.0959 69.7583 10.8061C70.29 10.7154 70.8431 10.6461 71.3823 10.5617C71.6482 10.0728 71.885 9.55378 72.1282 9.04102Z" fill="#9E864E"/>
<path d="M64.439 15.8359C64.4012 15.6116 64.352 15.3975 64.3268 15.1593C64.1605 15.0951 63.998 15.0271 63.8229 14.9716C64.0131 15.2752 64.221 15.56 64.439 15.8359ZM63.3 15.6482C63.2559 15.7112 63.1828 15.7754 63.1891 15.8548C63.3781 15.7376 63.5822 15.6368 63.7863 15.536C63.7737 15.3546 63.8115 15.1228 63.7674 14.9729C63.6238 15.2022 63.4449 15.4453 63.3 15.6482ZM63.2635 15.1228C63.4134 15.0623 63.5709 15.0069 63.7485 14.9729C63.7007 14.896 63.5973 14.9011 63.5243 14.8784C63.2723 14.8003 63.0304 14.707 62.7771 14.6529C62.7771 14.6428 62.762 14.6315 62.7582 14.6529C62.9397 14.7965 63.0657 14.9956 63.2635 15.1228ZM64.1026 14.5218C64.0219 14.6781 63.901 14.794 63.804 14.9338C64.1479 14.8356 64.5045 14.7486 64.8119 14.6151C64.5662 14.5937 64.3483 14.5445 64.1026 14.5218ZM63.4676 14.5029C63.5784 14.6415 63.6704 14.799 63.7851 14.9351C63.7725 14.5911 63.8103 14.1968 63.7662 13.8844C63.6792 14.1036 63.5658 14.2951 63.4676 14.5029ZM63.7851 13.6777C63.9249 13.9184 64.0371 14.188 64.158 14.4475C64.4427 14.4803 64.6985 14.542 64.9984 14.5596C64.8258 14.7927 64.604 14.9767 64.4012 15.1795C64.4579 15.4541 64.4906 15.754 64.5511 16.0236C64.2991 15.8951 64.0534 15.7616 63.804 15.6293C63.5268 15.7326 63.3139 15.9001 63.0392 16.0047C63.0669 15.8598 63.0707 15.7338 63.0946 15.5915C63.1161 15.4617 63.1904 15.3042 63.169 15.1971C63.1463 15.0825 62.9561 14.9565 62.8704 14.8784C62.7507 14.7663 62.6386 14.6806 62.5718 14.5596C62.8616 14.537 63.1236 14.4891 63.3932 14.4475C63.5356 14.2031 63.6528 13.9322 63.7851 13.6777Z" fill="#9E864E"/>
<path d="M58.3157 16.2884C58.3384 16.335 58.3434 16.3992 58.3535 16.4572C58.6219 16.4962 58.9268 16.4093 59.2304 16.4194C59.141 16.98 58.4669 16.9523 57.8307 16.9636C57.7148 17.1879 58.0196 17.2169 58.1482 17.3202C58.2754 17.4235 58.4694 17.6364 58.5035 17.8267C58.5602 18.1492 58.3787 18.3722 58.317 18.672C58.1343 18.5725 57.9012 18.599 57.7941 18.4465C57.6064 18.1756 57.8672 17.7687 57.9252 17.489C57.4023 17.4374 57.013 17.7359 56.7497 18.1089C56.4901 18.4742 56.2898 19.0311 56.3011 19.4972C56.3037 19.5892 56.3251 19.7076 56.3566 19.7983C56.4019 19.9256 56.5229 20.0226 56.6186 20.1738C56.6791 20.2683 56.7018 20.3917 56.7686 20.4749C56.9651 20.718 57.4842 20.936 57.7022 20.6248C57.8407 20.427 57.8143 20.0188 58.1129 19.9873C58.3938 19.9571 58.5135 20.2456 58.5236 20.4938C58.5476 21.1225 58.2086 21.4866 57.6089 21.5458C57.4149 21.5647 57.178 21.6126 57.0294 21.5836C56.8933 21.5559 56.7345 21.3946 56.6186 21.2825C56.1953 20.8781 55.806 20.3527 55.8715 19.4809C55.9093 18.9719 56.1247 18.5788 56.3188 18.1668C56.6841 17.3933 57.1554 16.6096 57.8672 16.1951C58.0511 16.088 58.2553 15.9948 58.4644 15.9142C58.6534 15.8411 58.8991 15.8046 59.0805 15.6698C59.3577 15.4644 59.3804 15.0083 59.5845 14.6946C59.393 14.7236 58.991 14.8244 58.8373 14.6568C58.7 14.5069 58.7693 14.1907 58.8928 14.0559C59.0427 13.8921 59.4194 13.8568 59.621 13.9992C59.9952 14.2638 59.9284 15.1583 59.6764 15.482C59.3741 15.8726 58.8096 16.0679 58.3157 16.2884Z" fill="#9E864E"/>
<path d="M85.3436 14.7105C85.3776 14.8529 85.4369 14.9928 85.5112 15.1616C85.5729 15.3014 85.6322 15.4854 85.7166 15.5937C85.8363 15.7474 86.1172 15.8343 86.3327 15.9125C87.0621 16.1783 87.5082 16.4769 87.9567 17.0942C88.3334 17.6158 88.6774 18.2608 88.9092 18.9525C88.986 19.1831 89.0591 19.4413 89.0591 19.7412C89.0591 20.4354 88.7139 20.9255 88.312 21.2996C88.1986 21.4055 88.0449 21.5869 87.8824 21.6184C87.6971 21.6562 87.4439 21.5894 87.2297 21.563C87.0181 21.5365 86.819 21.4697 86.7069 21.3752C86.4977 21.1989 86.2344 20.4984 86.5015 20.1544C86.5569 20.0826 86.6804 20.0045 86.819 20.0234C87.1919 20.0751 87.0584 20.7705 87.454 20.831C87.6908 20.8675 88.0121 20.6647 88.1255 20.5311C88.1898 20.4555 88.2263 20.3384 88.2931 20.23C88.4707 19.9465 88.6244 19.905 88.6106 19.4791C88.5791 18.5418 88.0197 17.4974 86.9866 17.5074C87.0231 17.7493 87.3217 18.1979 87.1176 18.4838C87.008 18.6363 86.7799 18.6098 86.5947 18.7094C86.5153 18.3616 86.3075 18.0555 86.465 17.7141C86.5897 17.4394 86.8744 17.3033 87.1176 17.1509C87.1012 17.098 87.0962 17.035 87.0798 16.9821C86.4536 17.0211 85.7846 16.9934 85.68 16.4567C85.9912 16.4567 86.2571 16.5021 86.5569 16.5122C86.5683 16.4618 86.5645 16.395 86.5935 16.3622C86.4964 16.2665 86.3591 16.2287 86.2394 16.1745C85.9156 16.0284 85.4747 15.823 85.2504 15.5358C84.972 15.1805 84.9102 14.3427 85.2693 14.0529C85.4369 13.9168 85.7695 13.8992 85.9597 14.034C86.1097 14.1398 86.2319 14.485 86.0908 14.6727C85.9635 14.8416 85.5566 14.8025 85.3436 14.7105Z" fill="#9E864E"/>
<path d="M72.4092 15.2539C72.3991 15.846 72.4217 16.4772 72.4092 17.0933C72.4079 17.1601 72.4431 17.2697 72.3714 17.3188C72.238 17.3201 72.2732 17.242 72.2594 17.15C72.1763 16.6032 72.321 15.8637 72.2594 15.3106C72.2581 15.2841 72.2569 15.2577 72.2782 15.2552H72.4092V15.2539Z" fill="#9E864E"/>
<path d="M54.4529 16.8325C54.5915 16.801 54.5864 16.8879 54.5461 17.0945C54.3861 17.9122 53.5835 18.4652 52.5302 18.3896C52.1245 18.3607 51.8083 18.1918 51.4656 18.0709C51.1015 17.9411 50.726 17.9008 50.2901 17.8832C49.9537 17.8693 49.6627 17.9046 49.3754 17.7698C49.1675 17.6728 48.9193 17.3112 49.3376 17.2444C49.7584 17.1764 50.0873 17.3414 50.4199 17.451C50.6416 17.5241 50.8709 17.606 51.1103 17.6577C51.5853 17.761 52.1246 17.8844 52.6965 17.8265C53.2131 17.7748 53.7322 17.5203 54.0585 17.2444C54.1631 17.1562 54.2626 17.0277 54.4138 16.869C54.4289 16.8551 54.4277 16.8375 54.4529 16.8325Z" fill="#9E864E"/>
<path d="M90.4777 16.8125C90.6024 16.8163 90.6742 16.9864 90.7385 17.0569C91.0749 17.4198 91.633 17.7524 92.2693 17.8267C92.8526 17.896 93.3919 17.7675 93.8744 17.6579C94.11 17.6037 94.3418 17.5218 94.5649 17.4513C94.7954 17.3782 95.0298 17.2711 95.2553 17.2446C95.5274 17.2119 95.821 17.2509 95.8714 17.3757C95.9369 17.5394 95.7517 17.707 95.666 17.7511C95.5262 17.8242 95.2477 17.896 95.0877 17.901C94.5447 17.9224 94.1075 17.8783 93.688 18.0132C93.2911 18.1417 92.9509 18.3458 92.5125 18.3886C91.6078 18.478 90.9313 18.0812 90.6087 17.5067C90.518 17.3442 90.4147 17.13 90.4223 16.8692C90.4311 16.8415 90.45 16.8226 90.4777 16.8125Z" fill="#9E864E"/>
<path d="M72.4456 18.2382C72.5439 18.2886 72.7115 18.3994 72.5767 18.5204C72.4771 18.5393 72.4469 18.4876 72.3902 18.4637C72.4028 18.5519 72.3663 18.6879 72.4091 18.7459C72.3486 18.7849 72.1924 18.7094 72.1105 18.7648C72.1319 18.6615 72.1319 18.567 72.1105 18.4637C72.021 18.4612 72.0236 18.5506 71.9051 18.5204C71.7854 18.4145 71.9089 18.2596 72.0551 18.2571C72.0324 18.0605 71.9177 17.8804 71.9618 17.6939C72.0387 17.36 72.5376 17.3966 72.559 17.7884C72.5678 17.9698 72.4796 18.063 72.4456 18.2382Z" fill="#9E864E"/>
<path d="M62.7031 19.0094C62.7359 18.9791 62.7586 18.9388 62.7775 18.8972C62.7938 18.8934 62.7951 18.9048 62.7964 18.9161C64.3133 19.895 65.8693 20.8588 67.4253 21.8642C67.4971 21.9108 67.6999 22.0141 67.5928 22.1263C67.5437 22.1767 67.5928 22.1527 67.5374 22.1263C67.3661 22.0469 67.1216 21.868 66.9956 21.7886C65.7634 20.9987 64.5363 20.2138 63.3003 19.4238C63.095 19.2916 62.8833 19.1744 62.7031 19.0094Z" fill="#9E864E"/>
<path d="M75.6197 23.5333C75.5101 23.1592 75.5277 22.7799 75.3589 22.5192C75.1775 22.2407 74.7138 22.1714 74.351 22.087C73.9402 21.9925 73.5119 21.9258 73.12 21.8993V21.3928C72.5657 21.3487 71.9319 21.3865 71.3473 21.3739C71.3058 21.5138 71.3398 21.7292 71.3284 21.8993C70.948 21.956 70.4944 22.0064 70.0774 22.1059C69.7221 22.1903 69.2471 22.2886 69.0694 22.538C68.8981 22.7787 68.9145 23.1226 68.8263 23.4955C68.4609 23.3897 68.1686 23.134 67.8372 22.9702C66.823 22.4675 65.8315 21.9837 64.7958 21.4684C63.5271 20.8372 62.3024 20.2514 60.9884 19.5912C60.9014 19.5484 60.8044 19.5245 60.8573 19.4224C60.9115 19.3191 60.9203 19.3455 61.0627 19.4035C61.2441 19.4766 61.5591 19.653 61.6977 19.7222C63.6531 20.7112 65.6891 21.7191 67.652 22.688C67.6407 22.5985 67.5424 22.436 67.5777 22.2369C67.584 22.145 67.5966 22.2659 67.6331 22.2558C67.6495 22.2231 67.6986 22.2218 67.7264 22.2004C67.7982 22.2105 67.7427 22.0921 67.8007 22.0883C68.2102 21.7355 69.1526 21.6032 69.8733 21.5062C71.7001 21.2618 73.7954 21.3084 75.4912 21.675C75.8339 21.7481 76.193 21.8388 76.4248 21.9573C76.4928 21.9913 76.6503 22.1941 76.7423 22.2017C76.804 22.2067 76.9086 22.082 77.0409 21.995C78.5843 20.9859 80.0672 20.0864 81.632 19.0671C81.6698 19.0419 81.8726 18.8353 81.9306 18.955C81.9873 19.0709 81.7731 19.1629 81.6887 19.217C80.1 20.2426 78.457 21.2794 76.8733 22.2962C76.8784 22.5267 76.7776 22.6502 76.6868 22.7837C77.8611 22.1689 79.0189 21.5931 80.2335 20.9632C81.2578 20.4316 82.267 19.8974 83.3316 19.367C83.4916 19.2876 83.6907 19.1263 83.7235 19.2926C83.7449 19.3985 83.6542 19.4035 83.537 19.4615C80.8962 20.7717 78.2378 22.2092 75.6197 23.5333Z" fill="#9E864E"/>
<path d="M56.8609 21.7128C56.4338 21.7884 56.1881 22.063 55.984 22.407C55.8139 22.693 55.6653 23.0432 55.7598 23.5711C55.2823 23.7954 54.7304 23.9503 54.2668 24.2099C54.1219 24.2905 53.9997 24.3988 53.856 24.4543C53.6217 23.3393 53.3155 22.2936 52.7549 21.5062C53.0774 21.0627 53.7137 21.0753 54.2302 20.8876C54.7481 20.6974 55.2873 20.4315 55.7043 20.1921C55.7207 20.1884 55.722 20.1997 55.7232 20.211C55.9299 20.8851 56.3343 21.36 56.8609 21.7128Z" fill="#9E864E"/>
<path d="M61.322 20.7734H61.3598C63.668 21.6742 66.0328 22.6091 68.3964 23.5149C68.4746 23.5451 68.8273 23.6056 68.7883 23.7593C68.758 23.879 68.4191 23.6774 68.3397 23.6472C66.0391 22.7552 63.7448 21.8897 61.4531 20.9813C61.3964 20.9586 61.2943 20.9649 61.2666 20.8868C61.2805 20.844 61.2767 20.7848 61.322 20.7734Z" fill="#9E864E"/>
<path d="M83.3279 20.7746C83.3972 20.762 83.3607 20.8552 83.4023 20.8691C83.3783 20.956 83.2548 20.9724 83.178 21.0001C80.8472 21.8845 78.4584 22.8244 76.1225 23.7416C75.965 23.8033 75.8063 23.8751 75.6374 23.8915C75.582 23.7353 75.7118 23.7416 75.7861 23.7038C76.0091 23.5904 76.2749 23.5148 76.5143 23.4216C78.1043 22.808 79.7321 22.163 81.3486 21.5444C82.0151 21.2899 82.6715 21.0203 83.3279 20.7746Z" fill="#9E864E"/>
<path d="M71.6433 21.6369C71.5992 22.1937 71.637 22.8325 71.6244 23.4196H72.8377C72.8251 22.8312 72.8616 22.1937 72.8188 21.6369H71.6433ZM71.4757 21.5059H72.9876V23.5708H71.4568C71.4694 22.8892 71.4316 22.1572 71.4757 21.5059Z" fill="#9E864E"/>
<path d="M59.605 21.5433C62.4814 22.3232 65.3653 23.103 68.2846 23.9081C68.34 23.9232 68.5 23.9799 68.5643 24.0026C68.6827 24.0429 68.7973 24.0265 68.7318 24.1525C68.6915 24.2306 68.7029 24.2016 68.6197 24.1903C68.5202 24.1764 68.2694 24.1046 68.1724 24.0782C65.5077 23.3399 62.7712 22.5978 60.109 21.8444C59.92 21.7915 59.7222 21.7701 59.5483 21.6756C59.5496 21.6239 59.5811 21.5093 59.605 21.5433Z" fill="#9E864E"/>
<path d="M72.7077 21.7695V23.3091H71.7376C71.7502 22.8026 71.7124 22.2458 71.7565 21.7695H72.7077Z" fill="#9E864E"/>
<path d="M60.09 25.0352H66.3984C66.2409 25.2178 65.9801 25.1851 65.7268 25.1851H60.4264C60.3571 25.1851 60.2903 25.1889 60.221 25.1851C60.1845 25.1838 60.0912 25.2191 60.0711 25.1473V25.0906C60.0698 25.0654 60.0673 25.0389 60.09 25.0352Z" fill="#9E864E"/>
<path d="M77.2246 27.4382C77.1251 27.413 77.0533 27.3614 76.9449 27.3437C76.9625 27.0615 76.8617 26.6697 76.795 26.3485C76.7673 26.2111 76.7798 26.0952 76.6828 26.0864C76.4737 26.065 76.6463 26.5362 76.6652 26.6307C76.7143 26.8839 76.7269 27.054 76.7584 27.2694C76.669 27.2341 76.5757 27.2026 76.4787 27.1749C76.4712 26.9985 76.4875 26.8423 76.4787 26.6307C76.4712 26.4555 76.4812 26.1406 76.3666 26.1242C76.1814 26.0952 76.2696 26.3762 76.2734 26.4429C76.2847 26.676 76.2923 26.9091 76.2923 27.1182C76.2255 27.1107 76.1675 27.0943 76.1058 27.0804C76.1423 26.8058 76.1033 26.5437 76.0869 26.1796C76.0819 26.0499 76.1146 25.8143 75.9937 25.8042C75.8223 25.7891 75.8992 26.0599 75.9004 26.1053C75.9118 26.4014 75.9256 26.7529 75.9193 27.0439C75.8664 27.0288 75.8047 27.0225 75.7518 27.0061C75.7215 26.7693 75.8173 25.9655 75.6031 25.9743C75.4494 25.9806 75.5414 26.2741 75.5477 26.3863C75.5577 26.6193 75.5388 26.7856 75.5477 26.9683C75.4658 26.9809 75.4418 26.9368 75.3612 26.9494C75.375 26.8385 75.3851 26.6937 75.3801 26.5551C75.3713 26.3585 75.3889 26.1255 75.2491 26.0675C75.0349 26.1645 75.2604 26.647 75.1558 26.8927C75.0916 26.9393 75.0135 26.87 74.9127 26.8927C74.9051 26.7579 74.9908 26.0398 74.7816 26.0473C74.5914 26.0562 74.7854 26.5702 74.7262 26.7982C74.6216 26.8826 74.4868 26.8285 74.3709 26.8171C72.951 26.671 71.1783 26.6407 69.7231 26.7982C69.6677 26.5828 69.9121 26.0776 69.7042 26.0662C69.5051 26.0549 69.5706 26.5778 69.5177 26.8171C69.4232 26.8159 69.3628 26.8499 69.2557 26.836C69.2683 26.705 69.2746 26.545 69.2935 26.4039C69.3098 26.2792 69.3905 26.1305 69.2557 26.0662C69.0982 26.0889 69.1259 26.2817 69.107 26.4228C69.0868 26.5689 69.0541 26.7315 69.0692 26.8738C68.986 26.8587 68.9571 26.899 68.8827 26.8927C68.8726 26.7327 68.918 26.5526 68.9382 26.3863C68.9583 26.2187 69.0201 26.0284 68.9004 25.9352C68.7278 25.9755 68.7555 26.2099 68.7328 26.3863C68.7101 26.5677 68.6925 26.7705 68.6774 26.9318C68.6005 26.9167 68.5816 26.9607 68.5098 26.9507C68.5262 26.7315 68.5363 26.5589 68.5652 26.293C68.5791 26.1746 68.7076 25.7588 68.5274 25.7488C68.4002 25.7412 68.3977 26.0247 68.3775 26.1809C68.3397 26.4984 68.3246 26.6811 68.3221 26.9885C68.2603 27.0011 68.2024 27.0187 68.1356 27.0263C68.1381 26.8625 68.1684 26.6785 68.191 26.5009C68.2125 26.3384 68.2843 26.1267 68.1532 26.031C68.0096 26.0448 68.0235 26.2363 68.0046 26.3686C67.9756 26.579 67.9428 26.802 67.9491 27.0641C67.8509 27.0905 67.7639 27.1283 67.6505 27.1384C67.6997 26.8562 67.8143 26.5412 67.8748 26.2376C67.8924 26.1481 67.958 26.0272 67.837 25.9755C67.6543 26.0423 67.648 26.3472 67.5938 26.5576C67.5371 26.7793 67.4729 27.0011 67.4439 27.2152C67.3545 27.2442 67.2562 27.2644 67.1831 27.3097C67.2474 26.899 67.3822 26.3963 67.556 26.0335C68.3649 25.5699 69.718 25.4199 71.0838 25.3582C72.9094 25.275 74.7665 25.3418 76.1978 25.847C76.4686 25.9415 76.7798 26.0562 76.8882 26.1847C77.1074 26.4379 77.1125 27.0653 77.2246 27.4382Z" fill="#9E864E"/>
<path d="M77.3181 26.9695C77.3345 26.9657 77.3357 26.9771 77.337 26.9884C79.247 27.7128 81.1558 28.4486 83.1049 29.2032C83.1326 29.2146 83.2498 29.2561 83.2913 29.2788C83.3644 29.3191 83.4211 29.3305 83.3846 29.4099C83.3417 29.5006 83.2838 29.4288 83.217 29.4099C82.7395 29.275 82.2985 29.0609 81.8916 28.9034C80.866 28.5065 79.8581 28.1185 78.8489 27.7204C78.3411 27.5201 77.8195 27.3613 77.337 27.1194C77.3408 27.0589 77.3042 27.04 77.3181 26.9695Z" fill="#9E864E"/>
<path d="M67.0143 27.082C67.0924 27.0846 66.9891 27.1828 67.0143 27.2509C65.2567 27.9614 63.4261 28.6468 61.6017 29.3536C61.5564 29.3712 61.4934 29.4115 61.4342 29.4279C61.3409 29.4531 61.3384 29.4871 61.2842 29.409C61.2011 29.2881 61.4342 29.2566 61.5274 29.2213C62.8541 28.7186 64.2085 28.1806 65.5226 27.6628C66.0202 27.4676 66.5456 27.2987 67.0143 27.082Z" fill="#9E864E"/>
<path d="M79.2958 28.7341C79.171 29.1032 78.715 29.1385 78.3622 29.2784C78.279 29.2809 78.2841 29.1574 78.2312 29.0906C77.9981 28.7883 77.3354 28.6875 76.776 28.5842C74.5106 28.1634 71.6204 28.1634 69.0666 28.3398C68.5802 28.3738 68.0637 28.4141 67.5736 28.4897C67.0041 28.5766 66.3426 28.6396 66.0806 28.9773C66.0302 29.0415 66.0062 29.1335 65.9306 29.1839C65.7908 29.1574 65.5665 29.0768 65.3712 28.9773C65.2276 28.9042 64.9655 28.7732 64.9605 28.6207C64.9555 28.4708 65.2755 28.2743 65.4645 28.1886C65.7064 28.0802 65.9596 28.0248 66.1738 27.982C66.7584 27.8648 67.2498 27.8131 67.7978 27.7564C68.3635 27.6985 68.9317 27.633 69.4962 27.6065C70.0833 27.5788 70.6717 27.5775 71.2701 27.5498C73.5392 27.444 75.7857 27.6935 77.6718 28.0752C78.143 28.1709 78.652 28.2302 79.0148 28.4506C79.0766 28.4884 79.1395 28.5149 79.1824 28.564C79.2315 28.6169 79.2277 28.6875 79.2958 28.7341Z" fill="#9E864E"/>
<path d="M69.1421 33.4462C69.0728 33.6704 68.9607 33.8519 68.899 34.0849C71.0623 33.9552 73.4082 33.935 75.545 34.1038C75.4845 33.8758 75.3863 33.6868 75.3019 33.484C73.354 33.3114 71.1391 33.3252 69.1421 33.4462ZM69.4029 32.8074C69.3437 32.9926 69.2165 33.2068 69.1976 33.3706C71.1555 33.2484 73.3553 33.2345 75.2641 33.4084C75.1973 33.1942 75.1091 33.0002 75.0209 32.8074C73.2091 32.7041 71.2185 32.7104 69.4029 32.8074ZM69.6096 32.2821C69.5655 32.4433 69.4899 32.5744 69.442 32.7331C71.226 32.6348 73.2028 32.6273 74.9856 32.7331C74.9415 32.558 74.8659 32.4156 74.7991 32.2632C73.092 32.2166 71.2916 32.2052 69.6096 32.2821ZM69.8326 31.7756C69.7658 31.9079 69.7015 32.0439 69.665 32.2077C71.3105 32.1271 73.0894 32.1422 74.7601 32.1888C74.7311 32.0301 74.6467 31.9268 74.6114 31.7756C73.0781 31.6723 71.3684 31.6786 69.8326 31.7756ZM74.3128 31.3057C72.9735 31.2049 71.478 31.22 70.1123 31.2868C70.0581 31.3271 70.0102 31.4153 69.9623 31.4934C69.9271 31.5539 69.825 31.6824 69.888 31.7C71.3772 31.6017 73.0655 31.5954 74.5535 31.7C74.5018 31.5413 74.4212 31.4102 74.3128 31.3057ZM74.1075 30.968C72.8891 30.8483 71.5221 30.8597 70.3 30.968C70.2572 31.0499 70.1891 31.1066 70.169 31.2124C71.4957 31.1331 72.9257 31.1507 74.2574 31.2124C74.2511 31.1608 74.1654 31.0285 74.1075 30.968ZM74.8722 29.0908C74.7588 29.6149 74.7488 30.2423 74.7047 30.8357H74.8911C74.9529 30.328 74.9466 29.7523 75.041 29.2773C75.2893 29.2722 75.5299 29.2735 75.6937 29.3529C75.8827 29.8442 76.0137 30.396 76.1422 30.9479C76.2254 30.934 76.2543 30.9731 76.3287 30.9668C76.2203 30.3242 76.0528 29.7422 75.8436 29.2017C75.6093 29.0845 75.2149 29.0392 74.8722 29.0908ZM68.5638 29.203C68.3547 29.7371 68.196 30.3217 68.0788 30.9479C68.1682 30.963 68.1997 30.9189 68.2841 30.929C68.395 30.3582 68.5298 29.8115 68.7327 29.334C68.9166 29.2811 69.1396 29.2685 69.3853 29.2773C69.4407 29.785 69.4697 30.3179 69.5163 30.8357H69.7028C69.6738 30.2335 69.626 29.6489 69.5529 29.0908C69.2039 29.0404 68.802 29.0807 68.5638 29.203ZM71.5133 28.9585C71.313 29.4902 71.2399 30.1491 71.1215 30.7614H71.3268C71.4339 30.2058 71.4793 29.5885 71.6821 29.1286C72.016 29.0959 72.3688 29.1135 72.709 29.1286C72.8601 29.6452 72.9635 30.2108 73.0819 30.7614C73.1449 30.7488 73.2545 30.7853 73.2873 30.7425C73.1222 30.1516 73.0642 29.4524 72.8198 28.9396C72.4066 28.9233 71.8951 28.893 71.5133 28.9585ZM78.6986 31.2313C79.166 31.3246 79.675 31.3762 80.1538 31.4569C79.8375 31.1734 79.3991 30.8383 78.9972 30.5183C78.7968 30.3595 78.5789 30.2688 78.5486 29.974C78.5575 29.8997 78.6318 30.008 78.6608 30.0294C79.2013 30.4389 79.7632 30.8698 80.3213 31.3246C80.4108 31.3964 80.4864 31.5009 80.5645 31.5312C80.693 31.5791 80.945 31.5791 81.1063 31.6055C82.2981 31.8071 83.5077 32.0452 84.6529 32.3186C84.6655 32.3879 84.6202 32.3992 84.634 32.4685C84.5786 32.5353 84.4727 32.4811 84.4098 32.4685C84.3291 32.4534 84.2422 32.4345 84.1666 32.4131C84.057 32.3803 83.9612 32.3148 83.868 32.301C83.8012 32.2909 83.7055 32.3085 83.6261 32.301C83.2733 32.2682 82.9054 32.146 82.5438 32.0754C80.0089 31.5778 77.3366 31.2376 74.5182 31.0235C74.5245 31.1444 74.6228 31.2414 74.6858 31.3422C74.871 31.6395 75.0524 31.9936 75.2275 32.3186C77.4891 32.4307 79.6611 32.6676 81.7413 32.9763C82.0336 33.0191 82.3221 33.0405 82.5993 33.1262C82.6068 33.1942 82.6232 33.2522 82.6371 33.3139C80.2911 32.9637 77.8922 32.6663 75.3384 32.5252C75.4682 32.883 75.6735 33.3265 75.8046 33.746C77.9363 33.8443 80.0429 34.0043 82.094 34.2525C82.2112 34.2664 82.4216 34.2563 82.4115 34.3835C82.3977 34.5763 81.8068 34.4163 81.6833 34.4024C79.8186 34.1895 77.8444 34.0635 75.8965 33.9514C75.9331 34.226 76.0943 34.5397 76.1586 34.8522C76.0628 34.8232 75.9507 34.8106 75.8411 34.7955C75.7592 34.5838 75.6786 34.3709 75.579 34.1769C73.417 34.0106 71.066 34.0282 68.8788 34.158C68.7478 34.3508 68.6873 34.6166 68.5802 34.8333C68.4681 34.8459 68.3686 34.8698 68.2627 34.89C68.3421 34.5637 68.4555 34.2714 68.5424 33.9514C66.4686 34.0434 64.3671 34.216 62.4016 34.439C62.297 34.4516 62.1408 34.4956 62.0665 34.3823C62.064 34.2059 62.2618 34.2449 62.3651 34.2323C64.3205 33.9829 66.5014 33.8481 68.5991 33.7448C68.7692 33.353 68.9015 32.9233 69.0842 32.5429C66.7546 32.621 64.415 32.9523 62.2907 33.237C62.2807 33.164 62.3248 33.1451 62.3096 33.0682C62.3437 32.9977 62.4432 33.0203 62.4961 33.0115C64.58 32.6373 66.8617 32.4698 69.1787 32.3173C69.437 31.889 69.6587 31.4241 69.9434 31.0222C67.3417 31.1709 64.8925 31.4871 62.5339 31.9041C61.7641 32.0402 61.0069 32.214 60.2573 32.3362C60.1275 32.0868 60.4815 32.0855 60.7234 32.0351C61.812 31.8121 62.83 31.6282 63.9526 31.4531C64.1441 31.4228 64.3532 31.4291 64.4931 31.3775C64.6594 31.317 64.8534 31.099 64.997 30.9831C65.1293 30.8761 65.2314 30.7866 65.37 30.682C65.3851 30.672 65.467 30.5699 65.4632 30.6442C65.4204 31.0134 65.0764 31.0814 64.9038 31.3195C65.0827 31.2868 65.2667 31.2591 65.4632 31.2439C65.6119 30.7274 65.7883 30.0193 66.005 29.4789C66.078 29.2962 66.1637 29.0782 66.2658 28.9913C66.4585 28.8275 66.9751 28.7544 67.3669 28.6902C68.2073 28.5529 69.0099 28.4974 69.9246 28.4458C72.1823 28.3185 74.6379 28.3525 76.6437 28.7267C76.8843 28.7721 77.1665 28.8048 77.4273 28.8766C77.6818 28.9472 77.988 29.0505 78.0812 29.1576C78.1707 29.2609 78.2097 29.4688 78.2677 29.6464C78.4252 30.1252 78.599 30.7299 78.6986 31.2313Z" fill="#9E864E"/>
<path d="M79.4268 28.5457C79.4431 28.5419 79.4444 28.5532 79.4457 28.5646C80.8139 29.2512 82.2149 29.9164 83.6273 30.6295C83.6777 30.6547 83.7218 30.6824 83.7571 30.7051C83.8201 30.7441 83.844 30.7303 83.8314 30.7983C83.7974 30.986 83.4156 30.7404 83.3085 30.6862C82.0499 30.0499 80.7282 29.3885 79.4633 28.7712C79.4671 28.6805 79.4394 28.62 79.4268 28.5457Z" fill="#9E864E"/>
<path d="M65.0173 28.9788C63.6717 29.6654 62.3388 30.3647 60.9856 31.0437C60.9781 30.9958 60.9592 30.9581 60.9302 30.9316C60.9579 30.8421 61.0662 30.798 61.1355 30.7628C61.6962 30.468 62.2632 30.1858 62.8528 29.8809C63.3316 29.6327 63.8343 29.4046 64.3458 29.13C64.5134 29.0405 64.691 28.9108 64.8309 28.8856C64.8472 28.8831 64.8636 28.8453 64.8863 28.8478C64.9405 28.8541 64.9594 28.9145 65.0173 28.9788Z" fill="#9E864E"/>
<path d="M81.9469 31.2123C81.9406 31.2564 81.928 31.293 81.8914 31.3068C81.865 31.3673 81.7692 31.2728 81.705 31.2312C80.8684 30.7033 79.989 30.1263 79.1473 29.5795C79.0201 29.4964 78.8626 29.446 78.7744 29.3175C78.8324 29.3175 78.9155 29.2482 78.942 29.2797C79.9386 29.9021 81.0045 30.5748 81.9469 31.2123Z" fill="#9E864E"/>
<path d="M65.8577 29.3354C65.7556 29.4526 65.617 29.5307 65.4847 29.6176C64.6607 30.1543 63.7901 30.6986 62.946 31.2315C62.8906 31.2668 62.8364 31.3398 62.7595 31.326C62.7583 31.2781 62.7255 31.2605 62.7041 31.2315C62.8036 31.1206 62.9334 31.0476 63.0594 30.9694C63.9136 30.4264 64.8107 29.8545 65.6725 29.2989C65.7455 29.2976 65.7821 29.3354 65.8577 29.3354Z" fill="#9E864E"/>
<path d="M60.202 33.2018C60.2675 33.2144 60.2751 33.2346 60.333 33.2207C60.4074 33.2018 60.3885 33.1565 60.4263 33.0708C60.5586 32.7747 60.74 32.4724 61.1734 32.4509C61.5955 32.4308 62.1599 32.655 62.107 33.1451C62.0931 33.2736 62.0074 33.3984 61.976 33.5395C61.9445 33.6806 61.9634 33.8267 61.8827 33.9527C61.637 33.8557 61.2805 33.7272 61.2855 33.4639C61.288 33.3417 61.4065 33.2484 61.4909 33.164C61.5677 33.0872 61.7139 33.0204 61.5652 32.8818C61.4317 32.8881 61.2704 32.9826 61.1368 33.0695C60.9353 33.2006 60.522 33.4891 60.5774 33.8393C60.6089 34.0422 60.9164 34.124 61.1003 34.2337C61.6572 34.565 62.0931 35.0979 62.3514 35.6233C62.6059 35.5414 62.9814 35.3701 63.2472 35.5112C63.3656 35.5729 63.44 35.8047 63.5458 35.9244C63.7197 36.1197 63.9389 36.223 64.0498 36.3754C63.6277 36.5833 63.2447 36.829 62.8743 37.0885C62.4509 36.9764 61.6181 36.8139 61.3435 36.5065C61.2628 36.4157 61.1545 36.2053 61.1935 36.0554C61.2339 35.9042 61.4493 35.9042 61.5488 35.7732C61.1822 34.9341 60.5749 34.4226 59.3465 34.3848C58.9232 34.371 58.3411 34.3773 58.4129 34.817C58.4419 34.9946 58.6069 35.0488 58.7859 35.0979C58.9459 35.142 59.1815 35.1534 59.252 35.2667C59.3465 35.4192 59.2457 35.8274 59.1588 35.8853C58.9433 36.0315 58.4457 35.7657 58.3008 35.6598C58.137 35.5401 58.0072 35.389 57.9833 35.1912C57.9304 34.7565 58.2857 33.9867 58.6561 33.8771C58.9207 33.799 59.2583 33.8481 59.6086 33.8771C59.7799 33.5269 59.8039 33.2207 59.7761 32.8453C59.7472 32.4572 59.5342 32.0957 59.2722 31.8122C59.0139 31.5325 58.6838 31.2793 58.3197 31.2301C57.8787 31.1709 57.6935 31.4418 57.8346 31.8122C57.8812 31.9357 57.9694 32.0654 58.0589 32.1876C58.1471 32.3073 58.2567 32.4094 58.2643 32.5631C58.2743 32.771 58.1609 32.8642 58.0589 32.9952C57.8951 33.0128 57.7527 32.9839 57.6116 32.9398C57.4869 32.9007 57.3269 32.8579 57.2387 32.7898C57.0598 32.6525 56.9703 32.3476 56.9401 32.1146C56.8595 31.501 57.1429 30.8257 57.4995 30.5372C58.04 30.1 59.053 30.5196 59.441 30.856C59.9954 31.3423 60.0533 32.3061 60.202 33.2018Z" fill="#9E864E"/>
<path d="M86.8745 33.0331C86.7674 32.9286 86.6528 32.8064 86.6502 32.6388C86.6439 32.2193 87.2134 32.0605 87.1353 31.5503C87.1025 31.3386 86.8858 31.2303 86.6124 31.2693C85.9207 31.3663 85.1976 32.1336 85.1383 32.9021C85.1119 33.2486 85.161 33.5598 85.2883 33.9163C85.7444 33.8647 86.2395 33.8306 86.4827 34.0473C86.6805 34.225 87.0345 34.9355 86.911 35.3425C86.838 35.5844 86.528 35.7847 86.2584 35.8867C86.1135 35.9409 85.8779 36.0102 85.7544 35.9245C85.6322 35.8401 85.6284 35.5554 85.6612 35.3425C85.8565 35.0452 86.5255 35.2392 86.5205 34.7793C86.5154 34.351 85.694 34.3963 85.2328 34.4417C84.8234 34.482 84.5361 34.5651 84.2627 34.7226C83.7587 35.0137 83.6189 35.4143 83.3669 35.7746C83.4412 35.9182 83.6277 35.9497 83.7222 36.0745C83.7146 36.7321 82.96 36.9123 82.3779 37.0509C82.2204 37.0887 82.01 37.1579 81.9104 37.1453C81.8323 37.1353 81.7126 37.0408 81.6118 36.9765C81.341 36.8052 81.0335 36.6023 80.7715 36.4701C80.9302 36.3151 81.2162 36.1526 81.4065 35.9258C81.5035 35.8099 81.5564 35.6096 81.6685 35.5504C81.9356 35.408 82.3111 35.5806 82.5643 35.6625C82.9209 35.0666 83.188 34.637 83.7953 34.2729C83.9742 34.1658 84.2942 34.0927 84.337 33.9163C84.4139 33.6013 84.1077 33.3494 83.9452 33.2221C83.857 33.1528 83.7499 33.0936 83.6088 33.0155C83.4803 32.9437 83.3392 32.8542 83.2913 32.9966C83.2283 33.1843 83.6416 33.2801 83.6453 33.5031C83.6504 33.7525 83.2396 33.905 83.0481 33.9906C82.9473 33.8621 82.965 33.682 82.9171 33.5031C82.8755 33.3418 82.7836 33.2196 82.805 33.0344C82.8491 32.669 83.5068 32.3679 83.9628 32.5279C84.109 32.5796 84.2967 32.7459 84.3925 32.9034C84.4895 33.0621 84.487 33.2763 84.6344 33.2599C84.783 33.2435 84.7415 33.0344 84.7654 32.8467C84.8561 32.1286 85.0149 31.3563 85.4193 30.9506C85.5528 30.817 85.7607 30.6923 85.9976 30.594C86.3214 30.4592 86.7523 30.2614 87.1731 30.4252C87.575 30.5814 88.0021 31.224 87.9946 31.927C87.9908 32.2306 87.8887 32.698 87.6393 32.8467C87.4478 32.9613 87.2311 33.0117 86.8745 33.0331Z" fill="#9E864E"/>
<path d="M52.7169 33.0508C53.0974 33.3418 53.5611 33.4413 53.9869 33.6139C54.404 33.7828 54.792 34.0259 55.1246 34.3081C55.7899 34.8713 56.2623 35.6096 56.3568 36.7485C55.4497 36.7233 54.7542 36.9979 54.0613 37.3116C53.4893 37.5699 53.0105 37.9038 52.6048 38.2502C51.7191 39.0062 51.0501 39.9649 50.72 41.1794C50.6116 40.8796 50.7011 40.5482 50.7578 40.2219C50.812 39.907 50.8485 39.5756 50.8888 39.2455C50.972 38.5677 51.0954 37.8874 51.0942 37.2562C51.0929 36.7031 50.822 36.431 50.4781 36.1488C50.2841 35.99 49.8721 35.7683 49.9187 35.4735C49.9514 35.2606 50.4604 35.0149 50.628 34.8914C51.3777 34.3346 52.0996 33.6618 52.7169 33.0508Z" fill="#9E864E"/>
<path d="M93.9109 41.5934C93.5657 40.2529 92.9383 39.2147 92.045 38.421C91.1681 37.6424 90.0455 37.0327 88.6294 36.8071C88.7226 35.6254 89.1812 34.9274 89.8238 34.3479C90.1463 34.0556 90.547 33.8024 90.9439 33.6348C91.3899 33.4458 91.8787 33.3677 92.2693 33.0527C92.2844 33.0565 92.2882 33.0716 92.3071 33.0716C93.0164 33.883 93.8215 34.5306 94.7891 35.1743C94.9403 35.2751 95.0789 35.3696 95.0877 35.512C95.1028 35.7337 94.8672 35.8648 94.7148 35.9807C94.4073 36.2137 93.9702 36.5476 93.9122 37.0138C93.8719 37.3363 93.9311 37.718 93.9676 38.1023C94.0344 38.804 94.1075 39.4478 94.2297 40.1294C94.3431 40.7719 94.4464 41.388 93.9109 41.5934Z" fill="#9E864E"/>
<path d="M67.2765 35.0977C67.027 35.1443 66.7133 35.3156 66.3618 35.3421C65.6437 35.3937 64.6408 35.4038 63.8609 35.4542C63.6354 35.4693 63.4754 35.5185 63.3758 35.3799C63.3607 35.332 63.2309 35.3433 63.2826 35.2854C64.5891 35.1984 65.9208 35.1367 67.2765 35.0977Z" fill="#9E864E"/>
<path d="M77.3555 35.1172C78.4529 35.1386 79.6863 35.1978 80.8656 35.2671C80.921 35.2709 81.2688 35.2495 81.2574 35.3994C81.2436 35.5808 80.6703 35.4624 80.5481 35.4548C79.9559 35.4246 79.5515 35.412 78.9606 35.3805C78.6847 35.3654 78.3974 35.3792 78.1769 35.3427C77.9023 35.2973 77.6503 35.1462 77.3555 35.1172Z" fill="#9E864E"/>
<path d="M67.425 36.4297C67.5723 36.5065 67.6377 36.6665 67.7422 36.7862C67.7145 36.8706 67.6277 36.8958 67.537 36.9173C67.4867 36.7774 67.4212 36.6741 67.4993 36.5418C67.4779 36.47 67.3356 36.5191 67.2563 36.504C67.2941 36.4612 67.3873 36.4738 67.425 36.4297Z" fill="#9E864E"/>
<path d="M71.6812 36.5801C71.7806 36.5373 71.9606 36.5738 72.0915 36.5612V36.8422C72.0311 36.6784 71.8788 36.6066 71.6812 36.5801Z" fill="#9E864E"/>
<path d="M72.5581 36.5605H72.7256C72.6891 36.7243 72.6148 36.8491 72.5758 37.0116C72.533 36.8995 72.5707 36.7054 72.5581 36.5605Z" fill="#9E864E"/>
<path d="M72.8198 36.5805C72.8513 36.5377 72.9621 36.5729 73.025 36.5616V36.7115C72.9545 36.6699 72.8953 36.617 72.8198 36.5805Z" fill="#9E864E"/>
<path d="M67.1264 37.0683C66.8203 37.1489 66.5658 37.2799 66.2495 37.3505C66.2155 37.1905 66.1613 37.0506 66.0996 36.9184C66.3377 36.776 66.6716 36.7294 66.9211 36.5996C67.0458 36.6979 67.0571 36.9121 67.1264 37.0683Z" fill="#9E864E"/>
<path d="M71.6621 36.7305C71.7804 36.8061 71.6822 37.0984 71.8673 37.1059C71.8346 37.1487 71.725 37.1135 71.6621 37.1248V36.7305Z" fill="#9E864E"/>
<path d="M68.1718 37.051C68.0434 37.1039 67.8962 37.017 67.7439 37.0321C67.73 37.1518 67.7854 37.3647 67.7804 37.5386C67.6885 37.3937 67.6293 37.2148 67.5752 37.0321C67.759 36.9855 67.91 36.9074 68.0976 36.8633C68.1303 36.9175 68.1303 37.0044 68.1718 37.051Z" fill="#9E864E"/>
<path d="M73.006 36.8633C73.0488 36.9137 73.0123 37.0447 73.0249 37.1253H72.7266C72.821 37.0397 72.9317 36.9691 73.006 36.8633Z" fill="#9E864E"/>
<path d="M55.8151 42.2678C55.7546 42.4202 55.6148 42.5021 55.5165 42.6243C54.8563 43.4394 54.4506 44.5683 54.2289 45.8533C54.0525 45.6631 53.9555 45.4136 53.8371 45.178C53.4956 44.4952 53.1428 43.7405 52.8846 42.9443C52.3655 43.1295 51.859 43.3361 51.3916 43.5831C50.9241 43.8287 50.5159 44.145 50.1216 44.4095C50.264 43.4848 50.5008 42.5827 50.7566 41.7247C51.0086 40.8806 51.2744 40.0705 51.7645 39.4154C52.2357 38.7867 52.8216 38.2589 53.5007 37.8381C54.1772 37.4198 55 37.0607 55.9084 36.9562C56.3266 36.9083 56.9868 37.0141 57.0473 37.3694C57.0927 37.6352 56.8722 37.8582 56.692 37.988C56.4022 38.1984 55.8605 38.3609 55.349 38.3634C54.7732 38.3672 54.2024 38.3458 53.856 38.5322C53.5385 38.7023 53.4944 39.0501 53.706 39.3776C53.8623 39.6183 54.1306 39.7934 54.3221 40.0164C54.8992 40.6854 55.3716 41.4262 55.8151 42.2678Z" fill="#9E864E"/>
<path d="M72.0728 36.9375C72.1156 36.9627 72.0791 37.0685 72.0917 37.1252H71.9243C71.9923 37.0824 72.0716 37.0484 72.0728 36.9375Z" fill="#9E864E"/>
<path d="M94.3971 44.445C94.3681 44.5244 94.3063 44.3996 94.266 44.3707C93.5403 43.8176 92.6118 43.3262 91.6341 42.9999C91.2586 44.0418 90.834 45.0371 90.3086 45.9291C90.0441 44.5244 89.5829 43.3174 88.7968 42.4368C89.302 41.4402 89.8286 40.5306 90.5329 39.7142C90.698 39.5227 90.8164 39.4282 90.8869 39.1888C91.0281 38.7126 90.6224 38.5047 90.1587 38.438C89.7807 38.3825 89.2932 38.4279 88.9089 38.4002C88.4843 38.3699 88.0118 38.2024 87.751 37.9882C87.6439 37.9 87.4071 37.6594 87.4713 37.3872C87.5431 37.0798 88.1189 36.9627 88.5725 36.9929C89.0235 37.0231 89.4645 37.1894 89.879 37.3494C91.1062 37.8244 91.9994 38.4808 92.7352 39.471C93.6953 40.7637 93.9977 42.627 94.3971 44.445Z" fill="#9E864E"/>
<path d="M67.2385 37.3687C67.0608 37.2465 66.9285 37.2956 66.8832 37.5186C66.7572 37.5791 66.5569 37.5337 66.3981 37.5186C66.5203 37.8537 66.5909 38.2392 66.7711 38.5139C66.9222 38.4522 67.0747 38.3362 67.0508 38.1573C67.1188 38.1082 67.0835 38.2909 67.1629 38.2884C67.3103 38.2569 67.4413 38.1888 67.4615 38.0818C67.4917 37.9154 67.2712 37.7063 67.2939 37.5186C67.3733 37.6194 67.3972 37.7567 67.4615 37.8751C67.5169 37.9759 67.6417 38.0729 67.6114 38.1939C67.6165 38.2921 67.5585 38.175 67.556 38.175C67.5094 38.1762 67.4313 38.2632 67.3506 38.306C67.1516 38.4131 66.8819 38.5353 66.6791 38.6071C66.5733 38.2065 66.4145 37.86 66.3062 37.4619C66.3276 37.4783 66.3565 37.4871 66.3994 37.4808C66.5997 37.3384 66.8971 37.2931 67.1276 37.1797C67.2133 37.1935 67.2032 37.3044 67.2385 37.3687Z" fill="#9E864E"/>
<path d="M76.945 37.2188C77.0608 37.2654 77.1817 37.3057 77.2987 37.3498C77.2484 37.5551 77.1653 37.7277 77.1124 37.9318C77.047 37.7857 76.974 37.6446 76.833 37.5753C76.8645 37.4506 76.9136 37.3435 76.945 37.2188Z" fill="#9E864E"/>
<path d="M72.9686 37.2376C73.0367 37.264 72.8893 37.3774 72.8565 37.4253C72.4558 37.39 71.8939 37.5173 71.6621 37.3132V37.2741C71.6583 37.2527 71.6659 37.2414 71.681 37.2363H72.9686V37.2376Z" fill="#9E864E"/>
<path d="M78.3814 37.5764C78.3209 37.8536 78.2025 38.0728 78.1382 38.3462C77.9454 38.2718 77.7476 38.2013 77.541 38.1396C77.6405 37.9014 77.7111 37.6343 77.8031 37.3887C78.0122 37.434 78.1861 37.5159 78.3814 37.5764Z" fill="#9E864E"/>
<path d="M77.5046 38.25C77.6999 38.3105 77.8737 38.3924 78.0829 38.4377C78.0073 38.7376 77.904 39.0084 77.8032 39.2818C77.6142 39.2088 77.4164 39.1445 77.2236 39.0752C77.3169 38.7993 77.4177 38.5335 77.5046 38.25Z" fill="#9E864E"/>
<path d="M64.0475 39.5471C63.8925 39.6794 63.7136 39.7864 63.5435 39.9036C63.347 39.6882 63.2033 39.4186 63.0396 39.1716C63.2197 39.0708 63.3885 38.9587 63.5435 38.834C63.7413 39.0406 63.8673 39.3203 64.0475 39.5471Z" fill="#9E864E"/>
<path d="M63.1141 40.2027C62.9415 40.2921 62.8143 40.4257 62.629 40.5038C62.4665 40.2795 62.3191 40.0402 62.1616 39.8083C62.2725 39.6572 62.4741 39.5967 62.6101 39.4707C62.8067 39.6849 62.9579 39.9457 63.1141 40.2027Z" fill="#9E864E"/>
<path d="M56.4689 43.9581C55.9889 44.006 55.4547 44.0715 54.957 43.9959C55.2027 43.429 55.4988 42.9149 55.8906 42.4941C56.135 42.9301 56.3152 43.4302 56.4689 43.9581Z" fill="#9E864E"/>
<path d="M88.6853 42.6426C89.0758 43.0016 89.3114 43.5144 89.5622 44.0133C89.1099 44.0549 88.6399 43.9528 88.2002 43.9188C88.3413 43.4728 88.5177 43.0621 88.6853 42.6426Z" fill="#9E864E"/>
<path d="M88.0513 28.5272C88.1004 28.628 88.0374 28.8409 88.0891 28.9404C88.2819 28.8283 88.4419 28.6822 88.5553 28.4894C88.3738 28.4894 88.1848 28.4806 88.0513 28.5272ZM56.842 28.9026C56.8446 28.7678 56.8307 28.6154 56.8609 28.5083C56.7274 28.4806 56.5548 28.4907 56.3948 28.4894C56.4905 28.6796 56.6531 28.8044 56.842 28.9026ZM66.2309 26.3124C65.2141 26.4862 63.798 26.7647 62.7409 26.97C62.5608 27.0053 62.3718 27.0028 62.2181 27.0456C62.1337 27.0683 62.0744 27.1262 61.9938 27.1401C61.8577 27.1628 61.7582 27.1048 61.6385 27.1779C61.6902 27.3883 61.9283 27.353 61.9371 27.5722C61.9422 27.7146 61.8514 27.7952 61.7507 27.8166C61.5717 27.8532 61.35 27.6642 61.2101 27.741C61.1774 27.8771 61.3261 27.9754 61.3777 28.0598C61.4004 28.0976 61.3979 28.1618 61.4521 28.1719C62.7737 27.7914 64.1294 27.3845 65.4283 27.0078C65.8731 26.8793 66.3292 26.7924 66.7538 26.6135C66.5761 26.5858 66.4161 26.2809 66.2309 26.3124ZM78.2517 26.2935C78.2505 26.2821 78.2479 26.272 78.2328 26.2746C78.1837 26.3502 78.127 26.3993 78.0652 26.4623C78.0312 26.4963 77.9178 26.553 77.9909 26.5744C79.8379 27.101 81.7076 27.6037 83.5723 28.114C83.6378 27.9968 83.8155 27.8985 83.7777 27.7385C83.6353 27.6617 83.4035 27.8658 83.217 27.8141C83.1187 27.7864 83.0444 27.6844 83.0671 27.5319C83.0935 27.3643 83.2674 27.3769 83.3292 27.2132C81.627 26.9146 79.9602 26.5832 78.2517 26.2935ZM65.858 25.8235C64.8059 25.9319 63.323 26.0805 62.2181 26.1801C62.1425 26.3111 61.9434 26.3174 61.8817 26.4623C61.9737 26.6324 62.2861 26.582 62.237 26.8944C63.546 26.6588 64.84 26.4081 66.1566 26.1813C66.0747 26.1209 65.9688 25.8122 65.858 25.8235ZM78.326 26.1435C79.8102 26.4094 81.2755 26.6941 82.7685 26.9511C82.6614 26.6261 82.9991 26.616 83.1225 26.4635C83.0759 26.3476 82.9323 26.33 82.8428 26.2569C82.7849 26.2217 82.8088 26.1032 82.7307 26.0881C81.2805 25.9571 79.8115 25.8449 78.3626 25.7127C78.3638 25.8135 78.3664 26.0251 78.326 26.1435ZM94.9014 15.4989C94.88 15.6879 94.6822 15.7459 94.6961 15.9122C94.7024 15.9941 94.8158 16.1037 94.8825 16.1188C94.9921 16.144 95.1244 16.0545 95.2744 16.0621C95.4319 16.0709 95.5465 16.1944 95.6473 16.0999C95.6271 15.9361 95.4583 15.8819 95.3676 15.7811C95.1912 15.5833 95.0589 15.3603 94.9392 15.1059C94.9153 15.1046 94.9128 15.0819 94.8838 15.087C94.8158 15.2822 94.9203 15.3326 94.9014 15.4989ZM50.0486 15.1235C49.9453 15.349 49.8029 15.572 49.6568 15.7433C49.5585 15.858 49.3985 15.9285 49.3393 16.081C49.4249 16.2095 49.5623 16.0684 49.7311 16.0621C49.8823 16.0571 50.0196 16.1452 50.1229 16.1188C50.2149 16.0948 50.2955 15.9777 50.2905 15.8744C50.2842 15.7446 50.1343 15.7005 50.104 15.5367C50.0776 15.3918 50.1343 15.3125 50.1406 15.1235C50.1141 15.1197 50.1091 15.0933 50.0851 15.0857C50.0851 15.1109 50.0524 15.1033 50.0486 15.1235ZM99.4737 14.7103C99.2204 14.8047 98.7064 15.0013 98.6711 15.2923C98.8588 15.4788 99.0969 15.2898 99.2305 15.1802C99.3023 15.1197 99.3766 15.0529 99.4548 14.9925C99.5316 14.932 99.6601 14.8766 99.6223 14.7481C99.5807 14.7027 99.5026 14.7002 99.4737 14.7103ZM45.6981 15.1046C45.8518 15.2281 45.9476 15.3566 46.09 15.3666C46.2033 15.3755 46.284 15.354 46.3142 15.2722C46.3583 15.155 46.1567 15.0101 45.9778 14.9156C45.8065 14.8249 45.5167 14.6662 45.4184 14.7279C45.2244 14.8514 45.6074 15.0303 45.6981 15.1046ZM41.3124 40.1092C41.4547 39.7312 41.9713 39.4439 42.246 39.1517C42.7625 38.6024 43.2652 37.8905 43.3106 36.8801C43.332 36.3976 43.1556 35.9302 43.1607 35.3595C43.1796 33.2744 44.2379 31.8684 45.2143 30.7232C44.9586 29.8513 44.7129 28.9077 44.374 28.0573C44.258 27.765 44.1648 27.4626 44.1119 27.1565C44.0527 26.8087 44.0262 26.4724 43.962 26.1423C43.7818 25.2012 43.4693 24.3029 43.2526 23.3643C43.109 22.7394 42.983 22.0754 42.8797 21.3926C42.7726 20.6795 42.7902 20.0042 42.8986 19.271C43.0977 17.9254 43.2715 16.6227 44.1119 15.8353C43.9078 15.5216 43.8057 15.0126 43.962 14.6334C44.1484 14.1824 44.6826 14.069 45.2874 14.108C45.4184 13.589 45.7825 13.3093 46.4818 13.3572C47.0361 13.395 47.4406 13.6318 47.7694 13.977C47.9408 14.1572 48.0428 14.2718 48.349 14.2958C48.6589 14.321 49.0381 14.2895 49.4123 14.3336C49.5799 14.3537 49.7513 14.3827 49.9163 14.3714C50.0927 14.36 50.2615 14.2895 50.4014 14.3159C50.6546 14.3638 50.7982 14.7934 51.0364 14.9345C51.34 15.1159 51.8175 15.1071 52.2862 15.16C52.4689 15.1814 52.673 15.2306 52.8834 15.2923C53.1581 15.3717 53.3962 15.3402 53.5549 15.4233C53.812 15.8441 53.4693 16.0722 53.3874 16.343C53.2941 16.6517 53.376 16.9364 53.2374 17.1884C53.0837 17.4681 52.6528 17.6861 52.1917 17.6949C51.6865 17.705 51.2669 17.5361 50.8486 17.3761C50.4455 17.2212 50.0158 17.0145 49.5421 17.0196C49.2158 17.0234 48.8958 17.2199 48.8895 17.4328C48.8819 17.6697 49.1793 17.8788 49.3934 17.9771C49.939 18.2278 50.6496 17.9733 51.2972 18.1459C51.5202 18.2064 51.8603 18.4243 51.8389 18.6347C51.8213 18.7998 51.6134 18.8048 51.5403 18.9535C51.4471 19.2987 51.2783 19.5481 50.9053 19.591C50.2804 19.664 49.5749 19.2949 49.0759 19.179C49.0306 19.2483 49.1402 19.3201 49.1692 19.3478C49.3254 19.5003 49.5409 19.6414 49.7664 19.7422C50.0814 19.8833 50.4568 19.9286 50.7743 20.0609C51.6651 20.4313 52.4235 21.0688 52.8834 21.9192C53.0396 22.2065 53.1971 22.5202 53.2941 22.82C53.4529 23.3114 53.5436 23.8808 53.686 24.415C53.7389 24.6115 53.7842 24.8484 53.8913 24.9404C54.011 25.0449 54.2038 25.0689 54.3953 25.1281C54.8766 25.2768 55.4813 25.5123 55.9072 25.6535C56.0029 25.5716 56.037 25.4557 56.1126 25.3347C56.1768 25.2327 56.3078 25.1193 56.3179 25.016C56.333 24.8711 56.207 24.6821 56.168 24.546C56.1176 24.3696 56.0899 24.1844 56.0559 24.0396C55.979 23.7007 55.8555 23.14 55.9815 22.781C56.0181 22.6776 56.1151 22.5605 56.1869 22.4433C56.3986 22.0956 56.6896 21.8802 57.2326 21.8802C57.6055 21.8802 58.0566 21.9809 58.2783 22.2178C58.4749 22.4282 58.9788 23.2799 58.5769 23.6074C58.3451 23.7964 57.9797 23.6137 57.9041 23.4386C57.8462 23.3025 57.8638 23.1413 57.8298 23.0065C57.758 22.723 57.5829 22.3488 57.1948 22.4244C56.8332 22.495 56.6543 22.8906 56.7286 23.3441C56.774 23.6276 56.8849 23.9552 56.9517 24.2827C57.0235 24.6304 57.0802 24.9593 57.1381 25.2402C56.8874 25.4254 56.6241 25.598 56.4288 25.8412C56.6493 25.8928 56.8244 26.0705 57.0638 26.0667C57.2553 26.0629 57.4594 25.9117 57.661 25.8046C58.0642 25.5892 58.4434 25.4745 59.004 25.4292C59.2573 25.409 59.5345 25.3889 59.8255 25.4103C60.2627 25.4443 60.6356 25.632 60.9834 25.8046C61.1056 25.8651 61.2416 25.952 61.3387 25.9546C61.5188 25.9596 61.7267 25.8046 61.9737 25.8424C62.0959 25.8613 62.1576 25.9306 62.2357 26.0113C63.4314 25.8865 64.6484 25.7857 65.8378 25.6547C65.9121 25.6371 65.8869 25.5174 65.9121 25.4481C65.9575 25.4166 66.0129 25.4997 66.0797 25.5048C66.4577 25.0575 67.1481 24.9416 67.8902 24.7917C70.2147 24.323 73.4804 24.2197 75.8793 24.7174C76.6541 24.8774 77.5121 25.0916 78.0627 25.5816C78.1358 25.6459 78.1912 25.7996 78.2857 25.6749C78.3638 25.5716 78.0627 25.3788 77.9128 25.2805C76.7297 24.5007 74.9419 24.323 73.0785 24.2487C70.8346 24.158 68.6751 24.3986 67.0309 24.793C67.0662 24.7904 67.0939 24.7804 67.1053 24.7552C64.714 24.5712 62.3012 24.3545 59.8633 24.1542C59.7008 24.1416 59.3014 24.1114 59.0985 24.0786C59.0003 24.0635 58.897 24.1252 58.9121 23.9841C58.9196 23.9073 58.9209 23.9073 59.1363 23.9098C59.2976 23.9111 59.8066 23.974 59.9389 23.9841C62.2962 24.1807 64.5993 24.3948 66.9755 24.5851C67.162 24.6002 67.3598 24.638 67.516 24.6229C67.7226 24.6015 67.8915 24.4654 68.0943 24.4352C65.7156 23.9615 63.2411 23.5394 60.778 23.0833C60.7339 23.0745 60.5172 23.0506 60.424 23.0077C60.3622 22.98 60.3647 23.0065 60.3685 22.9334C60.3736 22.791 60.7024 22.912 60.8158 22.9334C63.1958 23.3706 65.5014 23.8014 67.8902 24.2285C68.0666 24.26 68.2543 24.3243 68.3942 24.323C68.5806 24.3205 68.7154 24.2021 68.8981 24.192C68.951 23.7611 68.9939 23.3227 69.1035 22.9347C69.1375 22.8137 69.1703 22.6663 69.2345 22.597C69.3971 22.4194 69.9199 22.3249 70.2047 22.2594C70.5726 22.1737 70.943 22.1082 71.3247 22.0905V23.6855C71.8791 23.7296 72.5128 23.6918 73.0974 23.7044C73.1415 23.198 73.1037 22.6096 73.1163 22.0717C73.8899 22.151 74.6446 22.248 75.1889 22.5592C75.3602 22.8805 75.427 23.4071 75.4686 23.8922C75.4812 24.0295 75.4509 24.2449 75.6361 24.2487C75.7319 24.2487 75.5971 24.1 75.6739 24.061C78.6902 23.2206 81.7303 22.2934 84.7831 21.4329C84.8196 21.4228 84.8889 21.3989 84.9318 21.3951C85.0036 21.3901 85.0011 21.3775 85.025 21.4505C85.0703 21.5891 84.9406 21.5652 84.8196 21.6005C81.7996 22.4987 78.6902 23.3618 75.6739 24.2474C76.0078 24.4604 76.61 24.2525 77.0561 24.1718C79.1425 23.7926 81.1785 23.4071 83.309 23.0266C83.5433 22.9851 83.8319 22.8956 84.0927 22.8767C84.109 22.8754 84.2942 22.8099 84.298 22.9334C84.3005 23.0342 84.293 22.9813 84.0927 23.0266C82.8516 23.3151 81.5703 23.4764 80.3041 23.7221C78.9384 23.9854 77.6205 24.226 76.2913 24.473C76.3807 24.5448 76.537 24.5511 76.6264 24.6229C79.4637 24.3495 82.3678 24.0484 85.2682 23.7775C85.3097 23.7737 85.4458 23.7511 85.5668 23.7586C85.6209 23.7624 85.7696 23.7082 85.7343 23.8531C85.7142 23.935 85.6172 23.9136 85.4924 23.9287C82.7042 24.2374 79.8102 24.4515 77.0372 24.7539C77.1367 24.8156 77.2438 24.8371 77.3547 24.8849C77.4542 24.9278 77.5575 25.016 77.6533 25.0349C77.904 25.084 78.2341 25.0349 78.5302 25.0349H84.2413C84.298 25.0349 84.3976 25.026 84.4656 25.0349C84.5021 25.0386 84.6294 25.0021 84.5966 25.1092C84.6256 25.2226 84.482 25.1823 84.4467 25.1848C84.0007 25.2226 83.469 25.1848 82.9902 25.1848H77.9506C77.9569 25.2579 78.0514 25.2868 78.1182 25.3536C78.1849 25.4191 78.2227 25.5111 78.3046 25.5413C78.4382 25.5905 78.6813 25.5615 78.8829 25.5791C79.9866 25.6736 81.0991 25.7757 82.2242 25.879C82.4195 25.8966 82.6387 25.9319 82.7849 25.9168C82.8705 25.9079 82.9461 25.8525 83.0268 25.8412C83.2838 25.8072 83.4501 25.9571 83.6429 25.9533C83.818 25.9495 84.1897 25.7026 84.3522 25.6346C84.5815 25.5388 84.8927 25.4317 85.1548 25.409C85.4571 25.3838 85.7431 25.4078 85.9951 25.4279C86.2395 25.4481 86.4877 25.4796 86.7234 25.5401C86.9249 25.5917 87.1202 25.7001 87.3205 25.8034C87.5083 25.8991 87.7073 26.0541 87.8988 26.0654C88.147 26.0818 88.2516 25.9382 88.4582 25.8777C88.3323 25.6547 88.0097 25.4657 87.7867 25.2768C87.8346 25.0172 87.8762 24.6481 87.9543 24.2626C88.0223 23.9312 88.166 23.6024 88.1974 23.3429C88.2529 22.888 88.0362 22.4282 87.6003 22.4421C87.2953 22.4521 87.1656 22.7658 87.0963 23.0241C87.0182 23.3151 87.0283 23.6503 86.7422 23.7196C86.2862 23.8279 86.1211 23.3794 86.2194 23.0065C86.3151 22.6424 86.6226 22.2115 86.8544 22.0868C87.1631 21.9205 87.827 21.8713 88.1609 21.9746C88.496 22.078 88.8438 22.5214 88.9446 22.8754C89.0454 23.2269 88.9433 23.6742 88.8702 24.0207C88.7896 24.3986 88.7178 24.6708 88.5905 25.0349C88.7039 25.2717 88.8639 25.4607 88.9824 25.6925C89.4511 25.5224 90.0218 25.3183 90.5686 25.1482C90.7916 25.079 91.0537 25.0349 91.1658 24.866C91.2452 24.7463 91.2716 24.5284 91.3157 24.3596C91.4468 23.8531 91.5387 23.2811 91.7076 22.7822C91.8071 22.4887 91.9633 22.1661 92.1183 21.8814C92.5719 21.0499 93.3202 20.4502 94.2274 20.0609C94.5436 19.9248 94.904 19.8858 95.2164 19.7422C95.4974 19.6124 95.767 19.4637 95.9446 19.179C95.4167 19.2836 94.7301 19.664 94.0964 19.591C93.7587 19.5532 93.5281 19.3226 93.4614 18.9535C93.3732 18.8023 93.1728 18.8086 93.1628 18.6158C93.1552 18.4596 93.3467 18.2971 93.4992 18.2215C93.9754 17.9846 95.1093 18.2265 95.6271 17.9771C95.801 17.8927 96.0895 17.6798 96.0933 17.4517C96.0971 17.2123 95.7708 17.0309 95.4772 17.0196C95.0463 17.0045 94.5776 17.1922 94.1518 17.3572C93.7322 17.521 93.3013 17.6936 92.8453 17.6949C92.4182 17.6961 91.8877 17.5084 91.7252 17.1317C91.6194 16.886 91.6836 16.6643 91.6131 16.3808C91.545 16.1011 91.1356 15.7761 91.482 15.3868C91.831 15.3969 92.1422 15.2583 92.4522 15.1991C92.9498 15.1033 93.6251 15.1625 93.983 14.9169C94.1883 14.7758 94.3383 14.3638 94.5802 14.3159C94.7565 14.2819 95.035 14.3789 95.2706 14.3714C95.5024 14.3651 95.7305 14.3071 95.9232 14.297C96.2848 14.2756 96.6263 14.355 96.9135 14.2403C97.1416 14.1496 97.3809 13.7843 97.5661 13.6583C98.2402 13.2035 99.5417 13.1531 99.6941 14.1093C100.153 14.0879 100.533 14.1206 100.814 14.3348C101.22 14.6435 101.171 15.4246 100.87 15.8366C101.695 16.6101 101.912 17.9078 102.102 19.2521C102.205 19.9803 102.227 20.6959 102.121 21.4115C101.917 22.7772 101.597 23.969 101.263 25.2037C101.18 25.5123 101.083 25.8109 101.02 26.1234C100.954 26.4497 100.925 26.7924 100.87 27.1376C100.769 27.765 100.495 28.3118 100.31 28.9026C100.117 29.5137 99.9537 30.1109 99.7874 30.7043C99.771 30.7685 99.8479 30.8139 99.8806 30.8542C100.761 31.9339 101.714 33.1522 101.822 35.0218C101.842 35.3658 101.828 35.7047 101.767 36.036C101.707 36.3497 101.67 36.6571 101.691 37.0124C101.739 37.7948 102.079 38.3453 102.438 38.7951C102.596 38.9942 102.806 39.2197 103.054 39.4339C103.243 39.5976 103.623 39.8358 103.67 40.0726C103.769 40.5514 103.211 40.7303 103.018 40.9356C102.804 41.1624 102.768 41.5643 102.681 41.9309C102.535 42.5495 102.136 43.0812 101.786 43.5637C101.565 43.8686 101.295 44.2163 100.964 44.428C100.644 44.6321 100.203 44.8236 99.7332 44.8601C99.4384 44.8828 99.1713 44.7959 98.9306 44.879C98.6509 44.976 98.6686 45.5001 98.4078 45.6299C98.307 45.6803 98.1507 45.6941 98.0525 45.6299C97.9189 45.5417 97.9983 45.2985 97.9214 45.1234C97.8093 45.267 97.8471 45.4674 97.6606 45.5367C97.5284 45.5858 97.3545 45.5543 97.2877 45.4989C97.1416 45.3779 97.2537 44.9357 97.0823 44.8979C96.9211 44.8626 96.8379 45.1839 96.654 45.199C96.3781 45.2217 96.3125 45.0075 96.3365 44.7303C96.247 44.6585 96.208 44.7984 96.15 44.8425C95.985 44.9672 95.6271 44.9886 95.6095 44.6736C95.5906 44.3562 95.927 44.2906 96.0013 44.0916C96.0467 43.9719 96.0253 43.8258 96.0391 43.7162C96.082 43.3659 96.1979 43.1316 96.3566 42.8519C96.5444 42.5205 96.7195 42.2887 97.1038 42.0254C97.4099 41.8163 97.7955 41.6361 98.1684 41.5C98.5527 41.3589 98.9332 41.2191 99.0642 40.8248C97.4263 40.8323 96.3818 40.2062 95.7607 39.192C95.2971 38.4335 95.2 37.6171 95.2 36.3951C95.2 36.2489 95.1988 36.0335 95.2 35.8319C95.2013 35.6555 95.2391 35.4615 95.2 35.3254C95.1635 35.1969 94.9997 35.0974 94.846 35.0067C94.4302 34.7572 94.0182 34.4486 93.6705 34.1613C93.1804 33.7582 92.7117 33.3323 92.3451 32.8095C92.1725 32.5638 91.9784 32.2627 91.8965 31.9087C91.729 31.1792 91.7643 30.2721 91.6168 29.4872C91.5828 29.302 91.5463 29.1773 91.4858 28.943C91.443 28.7754 91.3976 28.5297 91.3182 28.4554C91.162 28.3092 90.6996 28.3319 90.4036 28.3231C90.1037 28.3143 89.6501 28.2463 89.4334 28.342C89.2734 28.4126 89.1663 28.7741 89.0605 28.9606C88.6926 29.6132 88.2491 30.1411 87.6607 30.5191C87.4768 30.4044 87.3294 30.252 87.0824 30.2003C87.0194 30.165 87.1479 30.097 87.1946 30.0504C87.3331 29.9118 87.5461 29.7153 87.6431 29.5061C87.7603 29.2478 87.7325 28.8787 87.6607 28.5486C86.4739 28.5965 85.1699 28.6028 84.4127 28.1543C84.3509 28.2047 84.2653 28.2311 84.2262 28.3042C84.4001 28.3622 84.7377 28.4151 84.9733 28.5108C85.0691 28.5499 85.1674 28.536 85.1044 28.6608C85.0703 28.7288 85.0011 28.6985 84.8612 28.6608C84.6168 28.5952 84.3094 28.4579 84.0586 28.4365C84.0171 28.4327 83.8949 28.4705 83.7966 28.4554C83.6844 28.4365 83.5963 28.3042 83.4791 28.2677C83.0192 28.124 82.5379 28.0094 82.0415 27.8733C80.798 27.5307 79.4196 27.1514 78.1219 26.8037C77.9796 26.7647 77.8296 26.7042 77.7666 26.7092C77.6079 26.7231 77.4265 26.936 77.3194 26.9536C77.2274 26.7256 77.1909 26.2998 77.0208 26.0894C76.8545 25.8865 76.4223 25.7303 76.0683 25.6207C74.986 25.2818 73.6669 25.1697 72.2608 25.1697C70.914 25.1697 69.5142 25.2175 68.3601 25.5262C68.0049 25.6207 67.5311 25.7757 67.39 25.9772C67.2565 26.1675 67.2098 26.5505 67.128 26.8037C67.0385 26.8075 67.0171 26.7584 66.9226 26.7659C66.8268 26.7735 66.6933 26.8415 66.5673 26.878C65.0252 27.3341 63.4604 27.7738 61.9195 28.211C61.6864 28.2778 61.4458 28.3218 61.2479 28.4554C60.7339 28.4919 60.2955 28.7212 59.7915 28.8308C59.7235 28.846 59.7134 28.851 59.6794 28.8497C59.6176 28.8472 59.6831 28.8699 59.6416 28.8119C59.5508 28.6822 59.702 28.6809 59.828 28.6431C60.1443 28.5474 60.4933 28.4302 60.8171 28.3622C60.8221 28.2765 60.6533 28.2173 60.5739 28.1555C60.4429 28.2034 60.3282 28.2929 60.1821 28.3433C59.3959 28.6154 58.2708 28.5776 57.2515 28.5499C56.9794 29.3549 57.5438 29.8324 57.8487 30.165C57.5904 30.2116 57.4443 30.3717 57.2515 30.4838C56.4767 29.9861 55.9639 29.2252 55.572 28.3433C55.1235 28.3067 54.1609 28.2601 53.7427 28.4176C53.5537 28.4894 53.439 29.1975 53.3874 29.4696C53.2425 30.2394 53.2551 31.1074 53.0888 31.8721C53.0044 32.2627 52.8393 32.5109 52.6604 32.773C52.0493 33.6662 51.1309 34.4083 50.1784 34.9878C50.0385 35.0722 49.8369 35.1894 49.8054 35.2687C49.7538 35.3985 49.7865 35.6391 49.7865 35.813C49.7865 36.3736 49.7853 36.9733 49.7487 37.4647C49.6971 38.174 49.5459 38.6779 49.2259 39.192C48.5972 40.2011 47.6283 40.8399 45.94 40.8059C46.0635 41.3262 46.638 41.4106 47.1344 41.6134C47.9534 41.9473 48.7207 42.5495 48.926 43.5473C48.9588 43.7023 48.9273 43.8787 48.9815 44.0538C49.0495 44.273 49.4086 44.3524 49.3922 44.6724C49.3846 44.8274 49.2498 44.9256 49.1314 44.9357C48.887 44.9571 48.8479 44.7833 48.6829 44.6913C48.6325 44.9181 48.6614 45.2003 48.3654 45.1978C48.155 45.1965 48.0668 44.8714 47.9181 44.8966C47.7518 44.9256 47.8198 45.3086 47.7316 45.4409C47.6472 45.5682 47.4532 45.6022 47.3033 45.5354C47.1407 45.4623 47.1634 45.2192 47.079 45.1222C46.9971 45.2595 47.0664 45.5165 46.9669 45.611C46.9177 45.6576 46.7653 45.6715 46.6683 45.6488C46.4931 45.6059 46.4377 45.4573 46.3697 45.3111C46.3067 45.1751 46.2348 44.9382 46.1076 44.8979C45.8178 44.8047 45.5331 44.8803 45.2672 44.8601C44.7645 44.8236 44.3639 44.6233 44.035 44.4091C43.681 44.1785 43.463 43.8787 43.2136 43.5448C42.8343 43.0383 42.4614 42.6049 42.2989 41.9309C42.2485 41.7243 42.2636 41.4774 42.1679 41.2355C42.0923 41.0427 41.931 40.9117 41.776 40.7844C41.5959 40.6383 41.3691 40.5048 41.3086 40.2402V40.1092H41.3124Z" fill="#9E864E"/>
<path d="M67.0522 12.4003C66.8897 12.2202 66.7876 11.9783 66.6049 11.8183C66.2812 11.88 65.9158 11.9001 65.6159 11.9871C66.0758 12.1433 66.5734 12.263 67.0157 12.4381C66.7826 12.4986 66.5609 12.5679 66.3441 12.6447C66.3101 12.9924 66.1942 13.3578 66.1942 13.6766C66.3177 13.4699 66.4777 13.2608 66.6238 13.058C66.7713 12.8513 66.8985 12.6246 67.0522 12.4759V13.2079C67.3508 13.3389 67.6557 13.5644 67.948 13.64C67.662 13.2646 67.337 12.8274 67.1077 12.457C67.3256 12.5263 67.5133 12.6246 67.7426 12.6825C67.948 12.4935 68.234 12.2642 68.4142 12.0639C68.418 12.0601 68.5288 12.0098 68.452 11.9883C68.0009 12.1294 67.5499 12.2705 67.0888 12.4016C67.2135 12.195 67.3937 12.0438 67.4995 11.8195C67.347 11.5222 67.2236 11.1959 67.051 10.9174V12.4003H67.0522ZM66.2862 12.7392C66.0859 12.4406 65.7167 12.2113 65.5391 11.9505C65.8679 11.8926 66.2043 11.8435 66.547 11.8006C66.7549 11.5159 66.8809 11.148 67.051 10.8242C67.2236 11.1392 67.3848 11.4642 67.536 11.8006C67.8888 11.8397 68.2328 11.8875 68.5629 11.9505C68.6258 11.9694 68.5351 12.035 68.5251 12.045C68.3172 12.2441 68.0236 12.4898 67.8346 12.7203C67.8863 13.063 67.9505 13.3918 68.0022 13.7345C67.9909 13.795 67.9253 13.7232 67.909 13.7156C67.6482 13.5909 67.3206 13.4107 67.0686 13.2646C66.7498 13.4321 66.4286 13.5959 66.1161 13.771C66.1451 13.4725 66.2295 13.068 66.2862 12.7392Z" fill="#9E864E"/>
<path d="M76.2725 13.6023C76.585 13.4788 76.8408 13.2974 77.1494 13.1701V12.4004C77.4506 12.7972 77.7189 13.2281 78.0263 13.6212C77.9797 13.2672 77.9054 12.9421 77.8588 12.5881C77.6345 12.5138 77.385 12.4646 77.1872 12.3626C77.5526 12.2719 77.9218 12.1459 78.2519 12.0438C78.3716 12.006 78.5076 11.9947 78.587 11.9128C78.2367 11.8775 77.9079 11.8208 77.5791 11.7629C77.4342 11.9355 77.2943 12.2152 77.1507 12.326C77.1381 11.8448 77.1759 11.3118 77.1318 10.8621C77.0033 11.1884 76.8282 11.4706 76.7022 11.8007C76.8219 11.9808 77.0197 12.1824 77.094 12.3449C76.6203 12.2328 76.144 12.0237 75.6942 11.9506C75.9739 12.1635 76.1995 12.4319 76.4792 12.6448C76.6782 12.5515 76.905 12.4848 77.1142 12.4004C76.8458 12.8136 76.5384 13.1878 76.2725 13.6023ZM77.1318 10.7676C77.3044 11.0825 77.4657 11.4076 77.6169 11.744C77.9621 11.7906 78.301 11.8448 78.6437 11.8939C78.7067 11.9115 78.6147 11.9796 78.6059 11.9884C78.4131 12.2013 78.1171 12.447 77.9155 12.6637C77.9822 13.0038 78.0251 13.3679 78.1019 13.6968C77.9369 13.6779 77.7958 13.5544 77.6345 13.4713C77.4732 13.3881 77.3032 13.3087 77.1494 13.2268C76.8181 13.3755 76.5245 13.562 76.197 13.7157C76.231 13.5355 76.241 13.3705 76.2713 13.1903C76.299 13.024 76.3935 12.8212 76.3645 12.6838C76.3456 12.5944 76.0684 12.3412 75.9916 12.2719C75.8467 12.1396 75.6854 12.0363 75.6187 11.8964C75.9626 11.8473 76.3103 11.8032 76.6455 11.7465C76.8319 11.4429 76.9857 11.109 77.1318 10.7676Z" fill="#9E864E"/>
<path d="M80.7528 14.4097C80.6571 14.5697 80.5475 14.7159 80.4353 14.8607V13.6966C80.3408 13.7911 80.2892 13.9284 80.23 14.0532C80.1695 14.1804 80.104 14.3102 80.0624 14.4475C80.1518 14.5899 80.327 14.7436 80.361 14.8796C80.0032 14.7763 79.5962 14.6226 79.2598 14.5609C79.4778 14.7423 79.6643 14.9565 79.8948 15.1241C80.041 15.0459 80.2123 14.9918 80.3799 14.9363C80.1657 15.2652 79.9225 15.565 79.7084 15.8938C79.9553 15.7855 80.1745 15.6494 80.4177 15.5373C80.4177 15.3307 80.4101 15.1165 80.4555 14.9552C80.6734 15.274 80.8826 15.6015 81.127 15.8938C81.088 15.6217 81.0262 15.3697 80.9972 15.0863C80.8322 15.0081 80.6218 14.9754 80.4555 14.8985C80.8322 14.7826 81.2228 14.6818 81.5755 14.542C81.3047 14.4916 81.0199 14.4601 80.7528 14.4097ZM81.6297 14.5218C81.442 14.7398 81.2202 14.9237 81.0325 15.1417C81.0703 15.4214 81.1358 15.6759 81.1623 15.9669C80.9103 15.8397 80.6621 15.7061 80.4152 15.5726C80.1594 15.7011 79.9213 15.851 79.6504 15.9669C79.7172 15.7149 79.7373 15.4151 79.8003 15.1593C79.6441 14.9149 79.3392 14.7222 79.2031 14.5206C79.469 14.4815 79.731 14.4387 80.0057 14.4085C80.1191 14.2321 80.2237 14.0204 80.3232 13.8264C80.3559 13.7634 80.3585 13.6676 80.4353 13.6387C80.5563 13.8995 80.6697 14.1666 80.8083 14.4085C81.0943 14.4349 81.3563 14.484 81.6297 14.5218Z" fill="#9E864E"/>
<path d="M66.3052 27.7946C66.6743 27.6283 67.0775 27.5111 67.4807 27.3814C67.8826 27.2529 68.3059 27.1155 68.7683 27.1193C68.9119 27.0336 69.0959 27.05 69.2723 27.0248C69.3983 27.0072 69.5343 26.9517 69.683 27.0248C69.8443 26.9177 70.1353 26.9341 70.4301 26.9127C71.7178 26.8195 73.1919 26.8787 74.4051 27.0072C75.146 27.0853 75.8402 27.1634 76.4588 27.3448C77.09 27.5313 77.6393 27.787 78.1383 28.0025H78.1005C74.7378 27.1823 69.9161 27.1987 66.3052 27.7946Z" fill="#9E864E"/>
<path d="M72.4097 36.1301H71.9057C72.0191 36.0281 72.1552 35.9336 72.2976 35.8114C72.3165 35.795 72.4034 35.6992 72.4097 35.6992C72.4425 35.698 72.7171 35.9462 72.765 35.9814C72.9036 36.0847 73.0069 36.178 73.1379 36.2435C73.0951 36.314 73.0434 36.3733 73.0069 36.4501H71.6815C71.6563 36.4073 71.6046 36.3896 71.5693 36.3556C71.6172 36.2788 71.6991 36.2939 71.7936 36.28C72.0683 36.241 72.5798 36.2485 72.9326 36.2246C72.8696 36.0696 72.7335 35.9865 72.5962 35.9058C72.513 35.9588 72.4891 36.0721 72.4097 36.1301Z" fill="#9E864E"/>
<path d="M63.5421 38.3629C63.4804 38.4574 63.4842 38.6174 63.4678 38.7572C63.2801 38.8441 63.1465 38.9852 62.9638 39.0759C62.8731 38.9235 62.7572 38.7963 62.6841 38.6249C62.6791 38.5468 62.7761 38.5052 62.7219 38.4372C62.5128 38.4347 62.2822 38.5707 62.0504 38.606C62.0378 38.6791 62.1197 38.7219 62.1625 38.7748C62.3087 38.9563 62.446 39.1692 62.5544 39.3758C62.3818 39.4249 62.2785 39.6114 62.0882 39.6769C61.9106 39.7374 61.7014 39.6983 61.5099 39.789C61.7884 40.1065 62.0353 40.4933 62.257 40.841C62.3364 40.967 62.3931 41.1144 62.5191 41.1976C62.703 41.093 62.9311 40.8108 62.7056 40.6155C62.8782 40.5198 63.0168 40.39 63.1906 40.2968C63.3191 40.4782 63.4225 40.6369 63.5636 40.8599C63.6177 40.9443 63.8559 41.3954 63.9554 41.4042C64.0776 41.4143 64.2767 41.1333 64.2729 41.0287C64.2704 40.9758 64.1746 40.8398 64.123 40.7667C63.9541 40.5235 63.7274 40.2413 63.6001 40.0158C63.7702 39.8923 63.9478 39.7764 64.123 39.6593C64.2212 39.9037 64.3649 39.8873 64.4959 39.7147C64.7189 39.4224 64.4959 39.3229 64.3094 39.0583C64.1923 38.8933 64.0952 38.7093 64.0474 38.6073C64.0423 38.5329 64.0902 38.5128 64.0852 38.4385C63.973 38.3528 63.6933 38.3452 63.5421 38.3629ZM81.6861 38.5871C81.739 38.5468 81.8852 38.5997 81.8726 38.4926C81.7277 38.3326 81.5841 38.1701 81.4052 38.0416C81.2754 38.3364 81.1103 38.5959 80.939 38.8492C80.7765 38.7433 80.6139 38.6388 80.435 38.5481C80.4199 38.6312 80.4602 38.6602 80.4539 38.7358C80.6064 38.7698 80.7223 38.8404 80.8269 38.9235C80.5132 39.3178 80.0684 39.5925 79.6136 39.8243C79.5581 39.8533 79.4359 39.881 79.446 39.9742C79.5632 40.0511 79.7459 39.9956 79.8945 39.9742C80.0621 39.9503 80.2183 39.9112 80.3242 39.8986C80.2234 40.07 80.1276 40.2363 80.0256 40.4051C79.9248 40.5714 79.7874 40.7289 79.727 40.9305C79.8063 41.0502 80.0041 41.0527 80.1755 41.0804C80.4602 40.6722 80.6795 40.1985 80.9592 39.7853C80.9554 39.9251 80.8924 40.0057 80.8848 40.1418C80.9516 40.2363 81.1066 40.2275 81.1834 40.1985C81.4896 40.0838 81.3926 39.5837 81.1469 39.4476C81.2174 39.3821 81.2401 39.2662 81.3145 39.2032C81.4367 39.3178 81.6609 39.3304 81.7063 39.5219C81.7844 39.5434 81.8953 39.532 81.9305 39.5975C81.642 39.9377 81.2767 40.2048 80.8848 40.4227C80.7513 40.4971 80.595 40.5475 80.493 40.6672C80.5157 40.6709 80.5132 40.6974 80.5119 40.7239C80.8344 40.7591 81.1834 40.6621 81.4455 40.5739C81.3308 40.7453 81.2527 40.9292 81.1469 41.0993C81.0423 41.2681 80.8823 41.4143 80.8294 41.6247C80.9188 41.7406 81.0965 41.7683 81.2767 41.7935C81.5475 41.4029 81.7554 40.9481 82.0238 40.555C81.9054 40.8524 81.8424 41.2517 81.8928 41.6624C81.9709 41.6851 82.0276 41.602 82.1359 41.5869C82.3362 41.5604 82.4408 41.6801 82.5278 41.6247C82.5328 41.5138 82.4673 41.4067 82.4345 41.287C82.3186 40.8624 82.3224 40.2942 82.4345 39.8785C82.5529 39.9553 82.6777 40.0246 82.8075 40.104C82.9297 40.1783 83.0582 40.2955 83.1993 40.2917C83.2106 40.1279 83.1161 39.9125 83.0494 39.7664C82.8377 39.8004 82.6348 39.9642 82.49 39.7664C82.6084 39.6038 82.6777 39.3922 82.8263 39.2599C82.8692 39.2473 82.9712 39.2939 82.9574 39.2221C82.9523 39.1213 82.8301 39.057 82.752 38.9777C82.6701 38.8958 82.6046 38.7849 82.5088 38.7333C82.398 39.0344 82.2229 39.2712 82.0616 39.5219C81.9784 39.4489 81.8562 39.4148 81.7819 39.3342C81.7315 39.2284 81.7831 39.0205 81.6698 38.9777C81.5727 38.9424 81.4694 39.0633 81.3711 39.0898C81.4732 38.9248 81.5639 38.7396 81.6861 38.5871ZM68.0035 35.828C67.8863 35.8986 67.8737 36.0724 67.7981 36.1846C67.3748 36.3206 66.9326 36.4731 66.5281 36.6154C66.3921 36.6646 66.2258 36.7565 66.0998 36.7654C65.9209 36.7792 65.7357 36.6898 65.5391 36.6898C65.844 37.6132 66.1943 38.5367 66.4727 39.4678C66.5105 39.5938 66.5508 39.7689 66.6403 39.8432C66.7524 39.8293 66.9943 39.7172 67.0132 39.561C67.0258 39.4627 66.9464 39.4161 66.9389 39.2989C67.5512 39.1137 68.1144 38.8781 68.7305 38.698C68.7809 38.8164 68.772 38.9941 68.8804 39.0545C69.0593 39.0092 69.1739 38.8996 69.2533 38.7534C68.9446 37.932 68.6738 37.0715 68.3764 36.2375C68.3915 36.1455 68.4823 36.1316 68.4697 36.012C68.3462 35.9225 68.1673 35.8834 68.0035 35.828ZM72.1851 35.1716C71.9911 35.479 71.7416 35.789 71.4758 36.0359C71.2805 36.2173 71.055 36.3874 70.8408 36.5247C70.7816 36.5625 70.6367 36.5827 70.6543 36.6935C70.8446 36.7288 71.0134 36.5789 71.1948 36.5436C71.2188 36.8699 71.1533 37.1987 71.1948 37.4822C71.2188 37.5276 71.3423 37.4721 71.3624 37.52C71.37 37.9093 71.3561 38.2772 71.3435 38.6463C71.5338 38.6992 71.7039 38.5871 71.8286 38.5153C71.8626 38.475 71.8248 38.3616 71.8664 38.3276C72.1952 38.3402 72.5757 38.3024 72.8743 38.3465C72.8781 38.4561 72.8567 38.5896 72.9121 38.6476C73.1099 38.6085 73.2976 38.5959 73.3606 38.441C73.4387 38.2482 73.3039 37.9005 73.3606 37.6158C73.377 37.5565 73.4677 37.5742 73.4728 37.5024C73.4778 37.4293 73.3934 37.4457 73.3984 37.3713C73.6189 37.2844 73.4425 36.914 73.4917 36.6583C73.5799 36.6104 73.6303 36.5285 73.7348 36.5461C73.7726 36.4315 73.8054 36.3143 73.8835 36.245C73.944 36.1934 74.0422 36.2224 74.07 36.1329C73.5269 35.9855 72.9499 35.8696 72.577 35.5508C72.6551 35.5597 72.6916 35.5282 72.708 35.4753C72.5467 35.3581 72.3792 35.251 72.1851 35.1716ZM76.9816 38.2873C76.8581 38.7257 76.6729 39.1024 76.552 39.5446C76.7057 39.6303 76.9942 39.653 77.0938 39.5068C77.1668 39.401 77.095 39.2662 77.2059 39.1881C77.3672 39.2889 77.6128 39.304 77.7653 39.4136C77.7187 39.5799 77.6355 39.7084 77.5977 39.8823C77.6922 39.9692 77.9984 39.9553 78.1206 39.9012C78.3436 39.2246 78.5716 38.5531 78.7921 37.874C78.8639 37.8022 79.0013 37.7959 79.0353 37.6863C78.9597 37.5313 78.8564 37.4028 78.7556 37.2731C78.617 37.2844 78.5212 37.4369 78.3826 37.4419C78.2617 37.4469 78.1496 37.3512 78.0286 37.3109C78.1848 37.1924 78.3259 37.0589 78.4759 36.9354C78.554 36.9392 78.6321 36.9417 78.6623 36.8976C78.6296 36.7792 78.5049 36.72 78.4192 36.6532C78.3272 36.5801 78.2302 36.497 78.1206 36.4466C78.0324 36.7276 77.9379 37.0009 77.7842 37.2164C77.6443 37.1433 77.5826 36.9946 77.4301 36.9342C77.3999 37.0173 77.4024 37.132 77.3369 37.1786C77.3193 37.0702 77.2827 36.982 77.2437 36.8964C77.1064 36.8775 77.0774 37.0677 77.0005 37.0463C77.0774 36.885 77.1189 36.6898 77.187 36.5209C77.2689 36.5222 77.352 36.5247 77.3546 36.4453C77.2122 36.2816 77.0219 36.1669 76.8317 36.051C76.7586 36.3773 76.6654 36.6847 76.5331 36.9531C76.3239 36.8762 76.1098 36.8031 75.8981 36.7276C75.8968 36.8233 75.9649 36.8485 75.9724 36.9342C76.1715 36.9354 76.3189 36.9871 76.4399 37.0665C76.2118 37.5187 75.8603 37.9093 75.5252 38.2306C75.4848 38.2684 75.3689 38.2923 75.413 38.3805C75.7079 38.3956 75.98 38.1247 76.1778 38.0416C76.0606 38.4624 75.8792 38.8177 75.7671 39.2435C75.8679 39.3166 76.0833 39.3355 76.2345 39.3002C76.421 38.8618 76.5306 38.3465 76.7196 37.9106C76.707 38.0038 76.6944 38.097 76.7007 38.2117C76.7435 38.2369 76.7725 38.2759 76.8128 38.3062C76.9148 38.3553 77.0232 38.2041 76.9816 38.2873ZM90.2901 39.658C90.343 39.6882 90.2611 39.7412 90.2523 39.7525C89.3867 40.9494 88.4695 42.2634 88.0121 43.9012C87.42 44.2238 86.7359 44.4392 85.9396 44.4644C84.6368 44.506 83.6289 44.1116 82.7671 43.6757C81.9154 43.2461 81.0562 42.7044 80.304 42.2118C79.2066 41.4936 78.2025 40.8158 76.906 40.3345C75.6285 39.8608 74.1506 39.6404 72.3514 39.6404C70.5825 39.6404 68.995 39.8344 67.7036 40.2602C65.0994 41.1182 63.5182 43.105 60.9467 44.0335C60.3369 44.2527 59.5029 44.448 58.689 44.409C57.9066 44.3712 57.2237 44.1658 56.6353 43.8458C56.1742 42.3932 55.5052 41.1207 54.6195 40.0725C54.4985 39.9289 54.3498 39.8079 54.2642 39.6404C56.2032 39.6857 57.8952 39.6101 59.2849 39.1515C60.6796 38.6929 61.8249 38.034 62.9059 37.2743C63.9995 36.5071 65.2455 35.9175 66.6201 35.4916C67.3244 35.2737 68.069 35.1061 68.8602 34.9852C69.6527 34.8642 70.4855 34.8214 71.399 34.7785C73.3569 34.6866 75.4596 34.8554 77.0169 35.2296C78.646 35.6201 80.0319 36.2312 81.2729 36.9946C82.5 37.7506 83.7473 38.5392 85.1925 39.1163C85.9182 39.406 86.6918 39.6504 87.5447 39.7739C88.4027 39.8936 89.2922 39.8293 90.2901 39.658Z" fill="#9E864E"/>
<path d="M67.686 36.3549C67.749 36.3171 67.8245 36.2932 67.9101 36.2793C67.9353 36.404 67.973 36.5162 68.0221 36.6169C68.0171 36.6648 67.9894 36.5917 67.9478 36.6169C67.9541 36.4355 67.8383 36.3788 67.686 36.3549Z" fill="#9E864E"/>
<path d="M68.2843 37.6313C68.1798 37.7245 68.3271 37.9702 68.2465 38.1C68.1622 38.0912 68.1357 38.0231 68.0791 37.9878C68.1433 37.7648 68.1571 37.4915 68.21 37.2559C68.3837 37.5935 68.4769 38.013 68.6204 38.3822C68.6166 38.4036 68.6015 38.3923 68.6015 38.3822C68.5348 38.2814 68.4592 38.1642 68.4152 38.0256C68.3711 37.8908 68.3875 37.722 68.2843 37.6313Z" fill="#9E864E"/>
<path d="M66.7539 38.8144C66.8131 38.8182 66.9227 38.9329 66.9782 39.0021C67.0928 39.011 67.0916 38.8736 67.1281 38.8144C67.2415 38.6267 67.4267 38.4743 67.5565 38.2891C67.5162 38.5423 67.2919 38.7741 67.1646 39.0021C67.2654 39.0551 67.3965 38.9278 67.4821 38.8522C67.6295 38.7225 67.7681 38.5599 67.874 38.3836C68.0163 38.4869 68.5644 38.8421 68.6387 38.4591C68.6677 38.4856 68.6778 38.5322 68.6765 38.5902C68.0655 38.7766 67.5023 39.011 66.8849 39.1911C66.8434 39.0626 66.8106 38.9266 66.7539 38.8144Z" fill="#9E864E"/>
<path d="M89.1891 20.1921C89.2055 20.1884 89.2068 20.1997 89.208 20.211C89.6578 20.4366 90.1681 20.6747 90.701 20.8687C91.2289 21.0615 91.8828 21.0501 92.2318 21.4697C92.0151 21.8955 91.7392 22.3163 91.5779 22.8215C91.4166 23.328 91.3234 23.8785 91.1861 24.4354C91.1659 24.4908 91.1067 24.4253 91.0928 24.4165C90.8421 24.2653 90.5498 24.0914 90.2348 23.9654C89.8745 23.8231 89.4751 23.7223 89.1526 23.5535C89.2357 22.945 89.0833 22.5884 88.7985 22.2205C88.6234 21.9963 88.413 21.8186 88.0703 21.7695C88.1207 21.6788 88.2366 21.6473 88.3135 21.5818C88.6537 21.292 89.0908 20.7414 89.1891 20.1921Z" fill="#9E864E"/>
<path d="M57.197 37.6504C57.5158 38.1619 57.7842 38.7251 58.0928 39.2454C57.1643 39.4709 55.7809 39.4331 54.5462 39.4331C54.3685 39.4331 54.1355 39.4696 54.0233 39.4331C53.8898 39.3903 53.7348 39.0917 53.7625 38.9266C53.8419 38.4479 54.962 38.5877 55.5541 38.5512C56.1954 38.5109 56.7825 38.2614 57.066 37.9137C57.0975 37.8734 57.1832 37.7398 57.197 37.6504Z" fill="#9E864E"/>
<path d="M87.304 37.7246C87.435 37.9199 87.4401 37.9652 87.5661 38.0812C87.8634 38.3558 88.4266 38.5725 89.0213 38.6065C89.4232 38.6292 89.8175 38.5612 90.2346 38.6443C90.4361 38.6846 90.6881 38.798 90.7196 38.9265C90.7776 39.1583 90.6087 39.2553 90.5521 39.4141C89.2921 39.69 87.5661 39.7366 86.4082 39.3385C86.7106 38.8043 86.9991 38.2563 87.304 37.7246Z" fill="#9E864E"/>
</svg>
