<svg width="230" height="109" viewBox="0 0 230 109" fill="none" xmlns="http://www.w3.org/2000/svg">
<g clip-path="url(#clip0_10866_4759)">
<path d="M158.237 35.776L172.618 72.4941H166.409L163.979 66.3152H151.438L148.78 72.4941H139.29L131.228 60.2838V72.4941H125.17V39.0595L136.327 39.0719C140.086 39.0719 146.056 41.8995 146.001 49.3562C145.947 57.4394 139.846 59.4754 137.776 59.904C139.792 62.7654 141.883 65.8136 143.931 68.708L158.03 35.7734L158.237 35.776ZM131.228 54.0619L136.196 54.0632C139.29 54.0632 139.922 51.5828 139.922 49.3581C139.922 46.9708 138.952 45.133 136.25 45.133L131.228 45.1317V54.0619ZM154.02 60.2782H161.625L157.986 51.0141L154.02 60.2782Z" fill="#21499D"/>
<path d="M32.5304 72.2933L23.912 81.4385L16.6124 54.5062L0.0632324 36.1445L23.9667 38.6453L41.8015 50.7904L49.3627 62.5773L21.9731 43.8606L13.1259 42.7174L38.4463 70.2928L40.6579 63.5059C43.6542 66.5071 48.1533 67.9364 52.3587 66.5074C55.998 65.3639 59.2117 61.6496 59.9307 57.935C60.7806 53.5766 59.288 49.5042 55.9322 46.6472C53.4374 44.4324 50.0816 43.3603 46.6499 44.2178C44.2969 44.8607 42.0847 46.0037 40.3089 47.9333L35.0254 44.4324C39.6662 38.7171 46.9439 36.3585 54.0038 38.3593C60.2145 40.288 65.7815 46.6472 66.348 53.148C67.0561 61.2924 63.4934 68.2933 55.9977 71.6513C52.5116 73.294 47.7283 74.0795 43.8716 72.5806L40.8864 81.4384L32.5304 72.2933ZM25.8843 71.7036L28.7607 67.9844L23.2477 61.8633L25.8843 71.7036Z" fill="#21499D"/>
<path d="M19.5327 47.0619C19.5327 46.1268 20.2838 45.3691 21.21 45.3691C22.1365 45.3691 22.8879 46.1274 22.8879 47.0622C22.8879 47.9974 22.1362 48.7556 21.21 48.7556C20.2841 48.755 19.5324 47.9974 19.5327 47.0619Z" fill="#21499D"/>
<path d="M179.863 76.6367L159.882 27.0293L166.223 27.0358L179.896 60.9902L188.852 39.059H195.28L179.863 76.6367Z" fill="#21499D"/>
<path d="M204.226 72.4939H198.231V39.0586H204.226V72.4939Z" fill="#21499D"/>
<path d="M229.937 45.1308H221.591V72.4932H215.632V45.132L207.395 45.1308V39.0586H229.937V45.1308Z" fill="#21499D"/>
<path d="M103.555 55.0016C103.555 60.2716 102.846 66.3441 109.361 66.3441C115.714 66.3435 115.092 60.3461 115.092 54.992L115.093 39.0597H121.074V60.3023C121.074 64.7643 117.936 72.4946 109.362 72.4946C100.809 72.4943 97.573 64.7646 97.573 60.3026L97.5733 39.0598L103.555 39.0586C103.555 39.0586 103.554 54.1453 103.555 55.0016Z" fill="#21499D"/>
<path d="M79.7598 66.4072C78.5618 66.6329 77.1884 66.6246 76.1316 66.6268L76.1319 45.0132C77.1995 45.0132 78.5504 45.0166 79.7706 45.2405C86.7218 46.5121 88.5084 52.554 88.5193 56.0787C88.5304 59.5718 86.7107 65.1313 79.7598 66.4072ZM75.8706 39.0587C73.3647 39.0587 71.2072 39.059 69.8999 39.059V72.4932C71.8394 72.4932 73.2662 72.4935 75.4345 72.4935C85.0003 72.4932 94.2938 67.3892 94.2938 55.7544C94.2941 45.8334 88.1817 39.059 75.8706 39.0587Z" fill="#21499D"/>
</g>
<defs>
<clipPath id="clip0_10866_4759">
<rect width="230" height="54.4086" fill="white" transform="translate(0 27.0293)"/>
</clipPath>
</defs>
</svg>
