<svg width="145" height="69" viewBox="0 0 145 69" fill="none" xmlns="http://www.w3.org/2000/svg">
<path d="M2.30094 31.9531H12.9732C13.0818 33.0693 13.2082 34.1567 13.2829 35.2476C13.3323 36.0086 12.7475 35.641 12.4074 35.7488C12.3424 35.5267 12.2901 35.3524 12.2378 35.1775C11.7116 33.4404 11.3622 33.1488 9.56518 33.0664C8.19702 33.0028 6.82796 32.9626 5.45848 32.9456C5.27921 32.9456 4.94491 33.1642 4.94201 33.2849C4.9047 35.2476 4.9047 37.2132 4.9047 39.3254C6.54379 39.2459 8.11507 39.1982 9.68004 39.0869C10.2615 39.0462 10.4621 38.4819 10.493 38.009C10.5425 37.2957 10.8705 37.1943 11.4737 37.3468V42.3088C10.9136 42.4479 10.5676 42.4196 10.5119 41.6745C10.4465 40.8122 10.1064 40.4823 9.21876 40.4411C7.80883 40.378 6.39217 40.4252 4.92941 40.4252C4.92941 42.1663 4.87127 43.8721 4.95121 45.5744C4.99772 46.5257 5.5389 46.8998 6.66781 47.0016C6.97695 47.0265 7.25844 47.0016 7.59517 47.0016V47.8193H0V47.017H0.64343C1.84647 46.9346 2.29803 46.4468 2.29803 45.1815V36.6618L2.30094 31.9531ZM61.023 42.3754C61.023 43.6849 60.983 44.9118 61.0388 46.1582C61.0662 46.792 61.5397 47.1094 62.1643 47.163C62.5076 47.1978 62.9532 47.2013 62.733 47.8322H57.2038L57.0737 47.6544C57.2407 47.5088 57.3829 47.2803 57.5714 47.2326C58.9944 46.865 59.0623 46.7955 59.0623 45.3052V35.184C61.0478 35.3171 62.9774 35.3618 64.8828 35.6092C66.1199 35.7677 67.0194 36.5157 67.2021 37.9111C67.4059 39.4774 66.8493 40.6566 65.5042 41.437C65.2477 41.5826 64.9781 41.7063 64.6321 41.8871C65.0371 42.4733 65.4142 43.0192 65.7886 43.5711C66.4069 44.4742 67.0257 45.3718 67.6103 46.2883C67.7556 46.5404 67.9589 46.752 68.2027 46.9045C68.4466 47.0571 68.7231 47.1459 69.008 47.163C69.4688 47.2013 69.4688 47.2266 69.4967 47.8635C68.4945 47.8635 67.4955 47.8828 66.4964 47.8446C66.33 47.8446 66.132 47.6072 66.0177 47.4323C65.1214 46.0503 64.2118 44.6738 63.3734 43.2537C62.9895 42.6034 62.5787 42.2169 61.8056 42.3694C61.5455 42.3956 61.2837 42.3977 61.023 42.3754ZM61.023 41.6427C62.5134 41.6427 64.0259 41.8812 64.8607 40.3144C65.4268 39.2524 65.4579 38.0949 64.6911 37.0771C63.9949 36.1447 62.3344 35.7518 61.023 36.1671V41.6427Z" fill="#868889"/>
<path d="M107.184 48.2337C104.78 48.1741 102.78 47.3336 101.385 45.288C99.0348 41.8356 100.679 36.8383 104.688 35.4812C107.498 34.5304 110.233 34.7301 112.419 37.0509C115.728 40.561 113.966 46.6516 109.327 47.8567C108.624 48.0405 107.888 48.1096 107.184 48.2337ZM111.909 42.0417C111.841 41.3692 111.794 40.6906 111.698 40.022C111.637 39.6531 111.545 39.2902 111.423 38.9376C111.164 38.0679 110.643 37.3042 109.936 36.7554C109.228 36.2067 108.37 35.9007 107.483 35.8811C104.994 35.8334 103.667 36.6228 102.937 38.7538C102.529 39.8415 102.394 41.0168 102.543 42.1721C102.692 43.3274 103.121 44.426 103.791 45.3675C105.322 47.587 108.395 48.0281 110.31 46.3028C111.55 45.1867 111.943 43.6969 111.909 42.0417ZM127.254 42.1779C128.244 42.1779 129.156 42.162 130.065 42.1968C130.214 42.1968 130.356 42.4282 130.589 42.6279C129.193 43.0502 129.193 43.0502 129.19 44.4162V47.3967C127.517 47.7931 125.789 48.2814 123.998 48.1389C121.412 47.9327 119.13 47.0102 117.834 44.5782C116.238 41.5724 117.24 37.574 120.877 35.8364C122.752 34.9363 124.718 34.9234 126.71 35.1042C127.319 35.1752 127.923 35.291 128.516 35.4499C128.662 35.4812 128.875 35.6367 128.89 35.7668C129.008 36.7181 129.082 37.6694 129.168 38.6202C128.711 38.8516 128.513 38.6808 128.356 38.2402C127.768 36.5944 126.809 35.9 125.086 35.9064C124.362 35.8925 123.637 35.9433 122.922 36.0584C122.191 36.1662 121.507 36.4867 120.949 36.9819C120.392 37.4771 119.985 38.1261 119.776 38.8516C119.455 39.7775 119.319 40.7603 119.378 41.7411C119.436 42.722 119.688 43.6806 120.117 44.5593C120.459 45.3136 120.992 45.9606 121.659 46.4338C122.327 46.9069 123.105 47.1891 123.914 47.2512C124.778 47.3009 125.645 47.2646 126.503 47.1434C127.032 47.0927 127.27 46.7281 127.26 46.1603C127.239 45.0823 127.26 44.001 127.26 42.92L127.254 42.1779ZM85.0435 47.7807V47.2512C85.0967 47.2134 85.1551 47.1836 85.2168 47.1623C85.5075 47.1086 85.8077 47.0798 86.092 47.0068C86.7103 46.8548 87.1185 46.5503 87.1216 45.818C87.1401 42.1371 87.1801 38.4523 87.2085 34.7714V33.2305H91.6465L91.7081 33.8643C91.4949 33.8866 91.3184 33.915 91.1452 33.9214C89.8896 33.988 89.4683 34.4068 89.4657 35.6998C89.4536 38.871 89.4536 42.0417 89.4657 45.2125C89.4657 46.3476 89.67 46.6486 90.805 46.7276C92.0526 46.8006 93.3033 46.7947 94.5499 46.7087C95.6016 46.6486 96.0961 45.8369 96.4764 44.9428C96.5301 44.7403 96.618 44.5492 96.7365 44.3785C96.8908 44.2207 97.0973 44.1289 97.3148 44.1217C97.4106 44.1217 97.5813 44.4862 97.5497 44.6482C97.3437 45.6052 97.1136 46.5566 96.8603 47.5015C96.776 47.6963 96.6017 47.8344 96.3968 47.8691C92.6635 47.885 88.9306 47.8691 85.1983 47.8691C85.1546 47.8502 85.1151 47.8125 85.0435 47.7807Z" fill="#FC9628"/>
<path d="M71.6396 47.6287C71.8002 47.5051 71.9492 47.2894 72.1314 47.2711C73.4117 47.1345 73.5976 47.0833 73.6408 45.7296C73.7272 42.9901 73.7519 40.2446 73.6408 37.505C73.5818 35.9954 73.4333 36.0019 71.6954 35.818C71.9455 35.5771 72.0877 35.3233 72.2305 35.3203C75.0138 35.298 77.8186 35.3044 80.6114 35.3203C80.7447 35.3203 80.8779 35.3203 81.0501 35.3451C81.1375 36.3253 81.2176 37.27 81.304 38.2531H80.6209C80.4908 37.8632 80.3855 37.4856 80.2402 37.121C80.1427 36.8539 79.97 36.6228 79.7435 36.4573C79.5171 36.2918 79.2474 36.1994 78.9694 36.1921C77.8745 36.1509 76.7791 36.1921 75.6289 36.1921V40.8277C76.6253 40.8277 77.6054 40.8466 78.5828 40.8277C79.09 40.8277 79.3464 40.485 79.4207 39.9748C79.4823 39.5213 79.6803 39.2362 80.2064 39.4642V43.3487H79.6124C79.536 43.1341 79.4734 42.9147 79.4239 42.692C79.416 42.5683 79.3838 42.4474 79.3296 42.3368C79.2753 42.226 79.1995 42.1277 79.1068 42.0478C79.0147 41.9678 78.9072 41.9079 78.7919 41.8715C78.676 41.8351 78.5544 41.8231 78.4343 41.8362H75.5736V46.4718C75.5736 46.8901 75.7126 47.0644 76.1366 47.055C77.2557 47.0361 78.3816 47.0773 79.5013 47.0326C80.6204 46.9884 81.0722 46.1037 81.4151 45.1847C81.582 44.7307 81.7895 44.5151 82.3436 44.7436C82.0866 45.7769 81.8296 46.82 81.561 47.8955H71.8002L71.6396 47.6287ZM22.9468 35.3362H27.9537L28.0778 35.5135C27.9072 35.6596 27.7682 35.8782 27.5642 35.9358C26.3917 36.2686 26.2962 36.2935 26.2221 37.5204C26.1261 39.179 26.1479 40.8436 26.0767 42.5053C26.0176 43.9259 25.7487 45.3079 24.8398 46.4335C23.5069 48.0664 21.6944 48.2601 19.7863 48.1076C19.5373 48.0822 19.2908 48.0345 19.0499 47.965C16.3996 47.2929 15.7688 45.7709 15.6792 43.8083C15.5493 41.0433 15.6452 38.269 15.6486 35.5011C15.6486 35.4599 15.6825 35.4187 15.7164 35.3422H19.2485L19.406 35.4723C19.2573 35.6248 19.1337 35.8623 18.9573 35.9129C17.5716 36.3128 17.5658 36.3034 17.5629 37.7678C17.5629 39.5054 17.5256 41.256 17.5871 42.9777C17.6142 43.6994 17.7615 44.4118 18.0232 45.0829C18.6172 46.5891 20.092 47.2641 21.9666 47.0073C22.6959 46.8975 23.3706 46.5479 23.8893 46.011C24.408 45.4741 24.7426 44.779 24.8427 44.0303C25.1828 41.7368 25.2293 39.408 24.9818 37.1021C24.9202 36.43 24.5427 36.1002 23.8683 35.9894C23.5374 35.9323 22.8233 36.2209 22.9468 35.3362ZM43.2526 35.3392H46.8588L47.0139 35.4758C46.8651 35.6248 46.7411 35.8623 46.5681 35.907C45.3094 36.2239 45.1732 36.2239 45.1456 37.5145C45.0571 39.7106 45.1253 41.9104 45.3496 44.0963C45.6156 46.2687 46.9112 47.0898 49.2276 47.0108C50.0517 47.0038 50.8419 46.6736 51.436 46.088C52.0302 45.5024 52.3831 44.7059 52.4225 43.8619C52.5988 41.6424 52.5707 39.423 52.5678 37.2035C52.5678 36.3859 52.2369 36.1384 51.4171 36.0053C51.1482 35.9606 50.8822 35.9005 50.3967 35.8021C50.6162 35.5801 50.7523 35.3168 50.8914 35.3139C52.4908 35.2668 54.0913 35.3175 55.685 35.4658C55.5491 35.6119 55.4348 35.8593 55.2731 35.8941C53.8196 36.211 53.848 36.4653 53.728 38.0092C53.6253 39.3375 53.749 40.6852 53.6842 42.0199C53.6469 42.904 53.5152 43.7812 53.2919 44.6358C52.6546 46.9854 51.0154 47.959 48.9248 48.1235C48.0834 48.1697 47.24 48.0863 46.4228 47.8761C44.4527 47.3972 43.3302 46.129 43.2715 44.071C43.194 41.1924 43.2526 38.3038 43.2526 35.3392ZM34.3245 36.1543H29.6858V35.3645H40.9333L41.1067 38.1895C40.6242 38.4464 40.4357 38.3102 40.2903 37.8378C39.8727 36.4554 39.4739 36.1797 38.0572 36.1668H36.3009C36.282 36.3823 36.2544 36.5602 36.2544 36.7375V45.3303C36.2544 46.83 36.6778 47.1404 37.8004 47.204C38.0853 47.2199 38.6294 47.1787 38.3697 47.8384H32.3603C32.2615 47.3182 32.2615 47.3182 32.7005 47.204C34.2776 46.833 34.3212 46.7853 34.3241 45.1053C34.327 42.1595 34.3241 39.2073 34.3241 36.1539L34.3245 36.1543Z" fill="#868889"/>
<path fill-rule="evenodd" clip-rule="evenodd" d="M142.68 34.3436C142.253 34.3436 141.835 34.4654 141.471 34.6952L139.626 32.8046C140.104 32.1504 140.361 31.3554 140.361 30.5385C140.361 29.6608 140.065 28.8101 139.523 28.1306C138.981 27.4511 138.227 26.9845 137.388 26.8099L137.655 23.6883C137.971 23.6241 138.262 23.4692 138.496 23.2416C138.73 23.014 138.895 22.7231 138.974 22.4027C139.052 22.0824 139.04 21.7457 138.939 21.432C138.839 21.1183 138.653 20.8404 138.404 20.6307C138.155 20.421 137.853 20.2882 137.533 20.2476C137.213 20.207 136.889 20.2604 136.598 20.4015C136.306 20.5426 136.06 20.7657 135.888 21.0447C135.716 21.3237 135.624 21.6472 135.623 21.9775C135.623 22.7261 136.084 23.3624 136.73 23.6098L136.463 26.7438C135.76 26.7796 135.082 27.0196 134.507 27.4356C133.933 27.8516 133.486 28.4266 133.218 29.0934L132.2 28.8137C132.179 28.4516 132.025 28.1111 131.768 27.8617C131.511 27.6124 131.171 27.4732 130.817 27.4726C130.448 27.4726 130.094 27.6229 129.832 27.8905C129.572 28.1581 129.425 28.521 129.425 28.8995C129.425 29.2779 129.572 29.6408 129.832 29.9084C130.094 30.176 130.448 30.3264 130.817 30.3264C131.282 30.3264 131.693 30.0894 131.946 29.7288L132.979 30.0119C132.955 30.1848 132.939 30.3597 132.939 30.5385C132.939 31.5476 133.33 32.5155 134.026 33.2291C134.722 33.9427 135.666 34.3436 136.65 34.3436C137.501 34.3444 138.326 34.0441 138.985 33.4936L140.792 35.345C140.512 35.7465 140.361 36.2278 140.361 36.7215C140.361 37.1918 140.497 37.6515 140.752 38.0426C141.007 38.4336 141.369 38.7384 141.793 38.9184C142.217 39.0984 142.683 39.1455 143.133 39.0537C143.583 38.962 143.996 38.7355 144.32 38.403C144.645 38.0704 144.866 37.6467 144.955 37.1854C145.045 36.7242 144.999 36.246 144.823 35.8115C144.648 35.377 144.35 35.0056 143.969 34.7443C143.588 34.483 143.139 34.3436 142.68 34.3436Z" fill="#FC9628"/>
</svg>
