<svg width="230" height="109" viewBox="0 0 230 109" fill="none" xmlns="http://www.w3.org/2000/svg">
<g clip-path="url(#clip0_10866_4803)">
<mask id="mask0_10866_4803" style="mask-type:luminance" maskUnits="userSpaceOnUse" x="-1964" y="-25" width="3196" height="1565">
<path d="M-1963.46 1539.05H1231.51V-24.746H-1963.46V1539.05Z" fill="white"/>
</mask>
<g mask="url(#mask0_10866_4803)">
<path d="M69.6158 68.6129C64.4725 69.9262 60.6377 70.0098 57.8486 70.0098C49.746 70.0098 40.3774 65.901 40.3774 54.3586C40.3774 42.8552 48.4394 38.4381 59.5921 38.4381C61.5964 38.4381 65.8236 38.6573 68.7866 39.7941V46.5423C66.2585 45.0545 62.6421 44.4731 60.7247 44.4731C54.1453 44.4731 48.7429 47.2277 48.7429 54.3586C48.7429 60.3471 52.9682 63.9767 58.8962 63.9767C59.9863 63.9767 61.0319 63.8021 61.7723 63.4528V57.4179H57.0195V51.6448H69.6158V68.6129Z" fill="black"/>
</g>
<path d="M76.4976 38.9641H97.9349V44.7372H84.6039V51.0341H97.1946V56.8071H84.6039V63.717H98.4143V69.4863H76.4976V38.9641Z" fill="black"/>
<mask id="mask1_10866_4803" style="mask-type:luminance" maskUnits="userSpaceOnUse" x="-1964" y="-25" width="3196" height="1565">
<path d="M-1963.46 1539.05H1231.51V-24.746H-1963.46V1539.05Z" fill="white"/>
</mask>
<g mask="url(#mask1_10866_4803)">
<path d="M112.618 56.5434H115.103C117.89 56.5434 121.072 56.848 121.072 60.1729C121.072 63.2768 117.977 63.7151 115.016 63.7151H112.618V56.5434ZM104.513 69.4863H117.324C122.771 69.4863 129.175 67.9558 129.175 60.6521C129.175 56.9353 127.085 54.7509 123.032 53.9206V53.8315C126.43 52.6947 128.392 50.553 128.392 46.7024C128.392 41.455 124.165 38.9623 118.499 38.9623H104.513V69.4863ZM112.618 44.7353H114.97C117.672 44.7353 120.285 44.9973 120.285 47.7983C120.285 50.3784 117.543 51.0341 114.883 51.0341H112.618V44.7353Z" fill="black"/>
</g>
<path d="M135.056 38.9641H156.493V44.7372H143.162V51.0341H155.753V56.8071H143.162V63.717H156.974V69.4863H135.056V38.9641Z" fill="black"/>
<mask id="mask2_10866_4803" style="mask-type:luminance" maskUnits="userSpaceOnUse" x="-1964" y="-25" width="3196" height="1565">
<path d="M-1963.46 1539.05H1231.51V-24.746H-1963.46V1539.05Z" fill="white"/>
</mask>
<g mask="url(#mask2_10866_4803)">
<path d="M171.178 44.7353H173.312C176.407 44.7353 179.238 45.2592 179.238 48.103C179.238 51.5579 175.925 51.6452 173.312 51.6452H171.178V44.7353ZM163.072 69.4863H171.178V57.4183H172.877C175.885 57.4183 176.93 58.7296 178.583 63.9752L180.326 69.4863H188.779L185.818 61.1778C184.293 57.461 184.119 55.1428 181.504 54.4426V54.3571C185.423 53.4377 187.341 50.7276 187.341 46.6597C187.341 41.4123 182.94 38.9623 177.539 38.9623H163.072V69.4863Z" fill="black"/>
</g>
<path d="M193.879 38.9629H201.986V69.4851H193.879V38.9629Z" fill="black"/>
<path d="M213.875 44.9973H206.383V38.9623H229.475V44.9973H221.982V69.4863H213.875V44.9973Z" fill="black"/>
<path d="M32.0006 70.0296H0.524658V38.4375H32.0006V70.0296Z" fill="#4A70B3"/>
</g>
<defs>
<clipPath id="clip0_10866_4803">
<rect width="230" height="32.6452" fill="white" transform="translate(0 37.9121)"/>
</clipPath>
</defs>
</svg>
