<svg width="230" height="109" viewBox="0 0 230 109" fill="none" xmlns="http://www.w3.org/2000/svg">
<g clip-path="url(#clip0_10866_4750)">
<path d="M213.304 50.738H203.786V45.6315H214.084V37.8945H192.239V71.6279H214.396V63.8909H203.63V58.6297H213.148V50.738H213.304ZM218.453 71.6279H230V37.8945H218.453V71.6279ZM77.2388 63.5814V37.8945H65.848V71.6279H86.289V63.5814H77.2388ZM143.243 50.738H133.725V45.6315H144.023V37.8945H122.178V71.6279H144.335V63.8909H133.569V58.6297H143.087V50.738H143.243ZM88.7856 71.6279H102.829C107.198 71.6279 113.44 70.5447 116.872 64.974C119.057 61.415 119.213 57.0823 119.213 56.1539C119.213 55.8444 120.149 48.2621 116.092 42.5367C112.972 38.0493 108.134 37.8945 105.17 37.8945C102.049 37.8945 88.6296 37.8945 88.6296 37.8945L88.7856 71.6279ZM106.106 47.4884C106.418 48.1074 106.73 49.0358 107.042 50.5832C107.354 52.9043 107.51 56.6181 106.886 59.2487C106.574 60.4866 106.262 61.415 105.638 62.1887C105.014 62.9624 103.609 63.5814 102.205 63.5814C100.957 63.5814 100.332 63.5814 100.332 63.5814V45.941H102.205C104.545 45.941 105.638 46.8695 106.106 47.4884ZM167.897 54.6065L171.174 71.4731H183.501L190.366 37.8945H182.252L178.195 56.4633L174.763 37.8945H164.62L160.407 56.6181L157.442 37.8945H146.052L151.981 71.6279H164.308L167.897 54.6065ZM54.1452 37.8945H40.7259L30.4274 67.6046L22.9376 49.0358L32.2999 37.8945H21.5332L11.3908 50.8927V37.8945H0V71.6279H11.3908V63.2719L14.3555 59.5581L18.8806 71.7826H38.6974L40.1018 66.9857H50.4003L51.6486 71.7826H63.9756L54.1452 37.8945ZM45.7191 47.6432L48.5278 58.7844H42.4423L45.7191 47.6432Z" fill="black"/>
</g>
<defs>
<clipPath id="clip0_10866_4750">
<rect width="230" height="33.7333" fill="white" transform="translate(0 37.3672)"/>
</clipPath>
</defs>
</svg>
