<svg width="145" height="69" viewBox="0 0 145 69" fill="none" xmlns="http://www.w3.org/2000/svg">
<path d="M60.8088 23.4122C56.52 13.5374 46.7675 6.61914 35.37 6.61914C19.9775 6.61914 7.5813 19.1548 7.5813 34.5878C7.5813 50.0209 20.0363 62.5565 35.37 62.5565C42.3613 62.5565 48.7063 59.9548 53.5826 55.6974C51.2325 56.2887 49.235 56.3478 48.3538 56.407C47.7663 56.4661 32.4325 56.4661 31.6688 56.407C30.4938 56.2296 30.3175 54.5739 30.905 53.8644C31.9038 52.6817 33.3138 53.6278 32.9025 52.2678C32.4325 50.7896 29.7888 48.9565 30.5525 44.5217C31.0225 41.6244 33.4313 40.0278 35.0175 39.2C32.55 39.2 31.845 42.1565 28.4375 42.807C26.675 43.1618 25.0888 42.3339 23.6788 40.8557C21.6225 38.7861 21.3875 36.8348 18.45 36.8348C17.8038 36.8348 17.51 36.1252 17.51 35.4748C17.275 35.5931 17.04 35.7113 16.7463 35.8296C15.4538 36.1844 14.1613 35.5931 13.8088 34.2922C13.3388 32.5774 15.2188 31.3357 15.4538 30.9809C15.8063 31.1583 18.0388 31.2765 18.5088 32.9913C18.6263 33.4052 18.6263 33.76 18.5675 34.1148C18.7438 34.0557 18.9788 33.9965 19.2138 33.9374C21.8575 33.5826 26.205 36.1844 26.205 33.2278C24.56 33.8191 19.86 33.2278 18.8025 31.927C17.9213 30.8035 17.8038 23.4713 22.8563 20.3965C26.1463 18.3861 30.6113 18.5635 32.8438 22.407C34.4888 25.3044 33.6075 28.32 37.6613 29.1478C42.0675 30.0348 52.29 31.3357 53.6413 41.5652C54.4638 47.4191 51.6438 50.7304 51.35 51.7357C52.3488 50.6122 55.1688 46.7687 54.3463 40.3235C53.4063 32.6365 54.9338 25.7183 60.8088 23.4122ZM27.2038 18.4452C26.3813 18.4452 25.1475 17.6174 25.265 15.607C25.3825 13.7148 26.7925 11.7044 27.145 10.8765C27.4388 11.2904 27.7325 11.8817 28.085 12.5322C27.5563 13.5374 26.9688 14.72 26.91 15.9618C26.91 16.08 26.91 16.1391 26.91 16.2574C26.91 17.2626 27.2038 17.9131 27.5563 18.3861C27.4388 18.4452 27.3213 18.4452 27.2038 18.4452ZM29.965 19.2139C29.1425 19.2139 27.7913 18.3861 27.9088 16.2574C28.0263 14.3061 29.4363 12.1183 29.9063 11.2904C29.965 11.4087 31.9038 14.3061 32.0213 16.2574C32.1388 18.327 30.7875 19.2139 29.965 19.2139ZM22.7388 25.0087C22.7388 25.7774 23.385 26.4278 24.1488 26.4278C24.9125 26.4278 25.5588 25.7774 25.5588 25.0087C25.5588 24.24 24.9125 23.5896 24.1488 23.5896C23.385 23.5896 22.7388 24.24 22.7388 25.0087Z" fill="url(#paint0_radial_10866_4970)"/>
<path d="M35.3112 65.336C18.45 65.336 4.76123 51.5586 4.76123 34.5882C4.76123 17.6178 18.45 3.78125 35.3112 3.78125C52.1725 3.78125 65.92 17.6178 65.92 34.5882C65.92 51.5586 52.2312 65.336 35.3112 65.336ZM35.3112 5.14125C19.2137 5.14125 6.05373 18.3273 6.05373 34.5882C6.05373 50.8491 19.155 64.0352 35.3112 64.0352C51.4675 64.0352 64.5687 50.8491 64.5687 34.5882C64.6275 18.3273 51.4675 5.14125 35.3112 5.14125Z" fill="#4F3E3A"/>
<path d="M139.651 42.1581C139.358 42.1581 139.064 42.099 138.829 41.9807C138.594 41.8625 138.359 41.7442 138.183 41.5668C138.006 41.3894 137.889 41.1529 137.771 40.9164C137.654 40.6799 137.654 40.3842 137.654 40.0886C137.654 39.7929 137.713 39.5564 137.771 39.3199C137.889 39.0833 138.006 38.8468 138.183 38.6694C138.359 38.492 138.535 38.3738 138.829 38.2555C139.064 38.1373 139.358 38.0781 139.651 38.0781C139.945 38.0781 140.239 38.1373 140.474 38.2555C140.709 38.3738 140.944 38.492 141.12 38.6694C141.296 38.8468 141.414 39.0833 141.531 39.3199C141.649 39.5564 141.649 39.852 141.649 40.1477C141.649 40.4433 141.59 40.6799 141.531 40.9755C141.414 41.212 141.296 41.4486 141.12 41.626C140.944 41.8033 140.768 41.9216 140.474 42.0399C140.18 42.099 139.945 42.1581 139.651 42.1581ZM139.651 41.8033C139.886 41.8033 140.121 41.7442 140.356 41.6851C140.533 41.626 140.709 41.4486 140.885 41.3303C141.003 41.1529 141.12 40.9755 141.179 40.7981C141.238 40.5616 141.296 40.3842 141.296 40.1477C141.296 39.9112 141.238 39.6746 141.179 39.4973C141.12 39.3199 141.003 39.1425 140.885 38.9651C140.768 38.7877 140.591 38.6694 140.356 38.6103C140.18 38.5512 139.945 38.492 139.651 38.492C139.358 38.492 139.181 38.5512 138.946 38.6103C138.77 38.6694 138.594 38.8468 138.418 38.9651C138.3 39.1425 138.183 39.3199 138.124 39.4973C138.065 39.6746 138.006 39.9112 138.006 40.1477C138.006 40.3842 138.065 40.6207 138.124 40.7981C138.183 40.9755 138.3 41.1529 138.418 41.3303C138.535 41.5077 138.711 41.626 138.946 41.6851C139.123 41.8033 139.358 41.8033 139.651 41.8033ZM139.005 39.0833C139.064 39.0833 139.181 39.0833 139.24 39.0833C139.299 39.0833 139.416 39.0833 139.534 39.0833C139.651 39.0833 139.71 39.0833 139.828 39.1425C139.945 39.1425 140.004 39.2016 140.063 39.2607C140.121 39.3199 140.18 39.379 140.239 39.4381C140.298 39.4973 140.298 39.6155 140.298 39.7338C140.298 39.7929 140.298 39.9112 140.239 39.9703C140.239 40.0294 140.18 40.0886 140.121 40.1477C140.063 40.2068 140.063 40.2659 140.004 40.2659C139.945 40.3251 139.886 40.3251 139.886 40.3251L140.533 41.212C140.474 41.212 140.415 41.212 140.415 41.212C140.356 41.212 140.356 41.212 140.356 41.212C140.298 41.212 140.298 41.212 140.298 41.212H140.239L139.534 40.2659L139.651 40.2068C139.71 40.2068 139.71 40.1477 139.769 40.1477C139.828 40.1477 139.886 40.0886 139.886 40.0294C139.945 39.9703 139.945 39.9703 140.004 39.9112C140.004 39.852 140.063 39.7929 140.063 39.7338C140.063 39.6155 140.004 39.4973 139.945 39.4381C139.828 39.379 139.71 39.3199 139.593 39.3199C139.534 39.3199 139.416 39.3199 139.358 39.3199V41.1529H139.299C139.299 41.1529 139.24 41.1529 139.181 41.1529C139.123 41.1529 139.123 41.1529 139.064 41.1529H139.005V39.0833Z" fill="#4F3E3A"/>
<path d="M73.0288 18.6827C73.2638 18.6236 73.4988 18.6236 73.7338 18.6236C73.9688 18.6236 74.2038 18.6236 74.4388 18.6236C74.6738 18.6236 74.9088 18.6236 75.1438 18.6236C75.3788 18.6236 75.6138 18.6827 75.8488 18.6827V32.7558C75.6138 32.8149 75.3788 32.8149 75.1438 32.8149C74.9088 32.8149 74.6738 32.8149 74.4388 32.8149C74.2038 32.8149 73.9688 32.8149 73.7338 32.8149C73.4988 32.8149 73.2638 32.7558 73.0288 32.7558V18.6827ZM76.2601 25.6601L80.0201 18.6827C80.3138 18.6236 80.6076 18.6236 80.8426 18.5645C81.0776 18.5645 81.3126 18.5645 81.5476 18.5645C81.7826 18.5645 82.0176 18.5645 82.3113 18.6236C82.6051 18.6236 82.8401 18.6827 83.1926 18.6827L79.3738 25.4827L83.5451 32.7558C83.2513 32.7558 82.9576 32.8149 82.6638 32.8149C82.3701 32.8149 82.1351 32.874 81.9001 32.874C81.6651 32.874 81.4888 32.874 81.1951 32.874C80.9601 32.874 80.6663 32.8149 80.3726 32.7558L76.2601 25.6601Z" fill="#4F3E3A"/>
<path d="M90.8301 18.6836H98.7613C98.8201 19.0975 98.8788 19.4523 98.8788 19.8662C98.8788 20.2801 98.8201 20.694 98.7613 21.1079H93.6501V24.1236H97.7038C97.7626 24.5375 97.8213 24.9514 97.8213 25.3653C97.8213 25.7792 97.7626 26.1932 97.7038 26.6071H93.6501V30.3323H98.8788C98.9376 30.7462 98.9963 31.101 98.9963 31.5149C98.9963 31.9288 98.9376 32.3427 98.8788 32.7566H90.8301V18.6836Z" fill="#4F3E3A"/>
<path d="M107.104 18.6838C107.691 18.6247 108.22 18.5655 108.69 18.5064C109.16 18.4473 109.747 18.4473 110.335 18.4473C111.04 18.4473 111.745 18.5064 112.45 18.6247C113.155 18.7429 113.742 18.9794 114.33 19.3342C114.859 19.689 115.329 20.1029 115.681 20.6942C116.034 21.2855 116.21 21.9951 116.21 22.8229C116.21 23.3551 116.151 23.8281 116.034 24.1829C115.916 24.5968 115.74 24.9516 115.564 25.2473C115.387 25.5429 115.152 25.7794 114.917 26.016C114.682 26.2525 114.447 26.4299 114.271 26.5481L113.919 26.7847L117.326 32.6977C117.091 32.6977 116.797 32.7568 116.504 32.7568C116.21 32.7568 115.916 32.816 115.622 32.816C115.152 32.816 114.624 32.7568 114.154 32.6977L110.511 26.1934L110.981 25.9568C111.157 25.8977 111.392 25.7203 111.627 25.602C111.862 25.4838 112.156 25.3064 112.391 25.0699C112.626 24.8334 112.861 24.5968 112.979 24.3012C113.155 24.0055 113.214 23.6507 113.214 23.2368C113.214 22.409 112.979 21.8177 112.509 21.4038C112.039 21.049 111.451 20.8125 110.687 20.8125C110.394 20.8125 110.159 20.8125 109.924 20.8716V32.6977C109.689 32.6977 109.454 32.7568 109.219 32.7568C108.984 32.7568 108.749 32.7568 108.514 32.7568C108.279 32.7568 108.044 32.7568 107.809 32.7568C107.574 32.7568 107.339 32.6977 107.045 32.6977L107.104 18.6838Z" fill="#4F3E3A"/>
<path d="M124.611 18.6827C125.023 18.6236 125.375 18.5645 125.728 18.5645C126.139 18.5645 126.491 18.6236 126.903 18.6827L132.308 27.6114V18.6827C132.778 18.6236 133.248 18.5645 133.659 18.5645C134.07 18.5645 134.423 18.6236 134.834 18.6827V32.7558C134.423 32.8149 134.07 32.874 133.718 32.874C133.365 32.874 132.954 32.8149 132.543 32.7558L127.138 23.8271V32.7558C126.726 32.8149 126.315 32.874 125.904 32.874C125.493 32.874 125.081 32.8149 124.67 32.7558L124.611 18.6827Z" fill="#4F3E3A"/>
<path d="M74.2624 47.0662C74.2624 48.3671 74.5561 49.254 75.1436 49.9045C75.7311 50.4958 76.6124 50.7914 77.7874 50.7914C78.2574 50.7914 78.7274 50.7323 79.0799 50.6732C79.4911 50.6141 79.9024 50.4958 80.2549 50.3184C80.3136 50.4367 80.3724 50.614 80.4311 50.8506C80.4899 51.028 80.4899 51.2054 80.4899 51.3827C80.1374 51.5601 79.7261 51.6784 79.1974 51.7375C78.7274 51.7967 78.1986 51.8558 77.6111 51.8558C76.7886 51.8558 76.0836 51.7375 75.4961 51.501C74.9086 51.2645 74.4386 50.9097 74.0274 50.4958C73.6749 50.0819 73.3811 49.5497 73.2049 48.9584C73.0286 48.3671 72.9111 47.6575 72.9111 46.948C72.9111 46.2384 72.9699 45.588 73.1461 44.9967C73.3224 44.4054 73.5574 43.8732 73.9099 43.4001C74.2624 42.9271 74.6736 42.5723 75.2024 42.3358C75.7311 42.0993 76.3774 41.9219 77.1411 41.9219C77.7874 41.9219 78.3161 42.0401 78.7861 42.2175C79.2561 42.454 79.6674 42.7497 80.0199 43.1045C80.3724 43.4593 80.6074 43.9323 80.7836 44.4645C80.9599 44.9967 81.0186 45.588 81.0186 46.1793C81.0186 46.2975 81.0186 46.4158 81.0186 46.5932C81.0186 46.7706 81.0186 46.948 81.0186 47.0662H74.2624ZM79.9024 46.0019C79.9024 45.588 79.8436 45.2332 79.7261 44.8784C79.6086 44.5236 79.4911 44.1688 79.2561 43.8732C79.0211 43.5775 78.7861 43.341 78.4336 43.1636C78.0811 42.9862 77.6699 42.9271 77.1999 42.9271C76.3186 42.9271 75.6724 43.2227 75.1436 43.7549C74.6736 44.2871 74.3799 45.0558 74.2624 46.0019H79.9024Z" fill="#4F3E3A"/>
<path d="M84.0151 42.0984C84.1326 42.0984 84.1914 42.0984 84.3089 42.0984C84.4264 42.0984 84.4851 42.0984 84.6026 42.0984C84.7201 42.0984 84.7789 42.0984 84.8964 42.0984C84.9551 42.0984 85.0726 42.0984 85.1901 42.0984C85.1901 42.3349 85.2489 42.6306 85.2489 42.9262C85.2489 43.281 85.2489 43.5766 85.2489 43.8132C85.3664 43.5766 85.5426 43.3401 85.7189 43.1036C85.8951 42.8671 86.1301 42.6897 86.4239 42.4532C86.7176 42.2758 87.0114 42.0984 87.3639 41.9801C87.7164 41.8619 88.0689 41.8027 88.4801 41.8027C89.5964 41.8027 90.3601 42.1575 90.8889 42.808C91.3589 43.4584 91.6526 44.4045 91.6526 45.5871V51.6775C91.5939 51.6775 91.4764 51.6775 91.3589 51.6775C91.2414 51.6775 91.1239 51.6775 91.0651 51.6775C91.0064 51.6775 90.8889 51.6775 90.7714 51.6775C90.6539 51.6775 90.5364 51.6775 90.4776 51.6775V46.001C90.4776 44.9366 90.3014 44.168 90.0076 43.6949C89.6551 43.2219 89.1851 42.9853 88.5389 42.9853C88.1276 42.9853 87.7164 43.0445 87.3051 43.2219C86.8939 43.3993 86.6001 43.6358 86.3064 43.9906C86.0126 44.3453 85.7776 44.7593 85.6601 45.2323C85.4839 45.7053 85.4251 46.2966 85.4251 46.888V51.6184C85.3664 51.6184 85.2489 51.6184 85.1314 51.6184C85.0139 51.6184 84.8964 51.6184 84.8376 51.6184C84.7789 51.6184 84.6614 51.6184 84.5439 51.6184C84.4264 51.6184 84.3089 51.6184 84.2501 51.6184L84.0151 42.0984Z" fill="#4F3E3A"/>
<path d="M95.6476 47.0662C95.6476 48.3671 95.9414 49.254 96.5289 49.9045C97.1164 50.4958 97.9976 50.7914 99.1726 50.7914C99.6426 50.7914 100.054 50.7323 100.465 50.6732C100.876 50.6141 101.288 50.4958 101.64 50.3184C101.699 50.4367 101.758 50.614 101.816 50.8506C101.875 51.028 101.875 51.2054 101.875 51.3827C101.523 51.5601 101.111 51.6784 100.583 51.7375C100.113 51.7967 99.5839 51.8558 98.9964 51.8558C98.1739 51.8558 97.4689 51.7375 96.8814 51.501C96.2939 51.2645 95.8239 50.9097 95.4126 50.4958C95.0601 50.0819 94.7664 49.5497 94.5901 48.9584C94.4139 48.3671 94.2964 47.6575 94.2964 46.948C94.2964 46.2384 94.3551 45.588 94.5314 44.9967C94.7076 44.4054 94.9426 43.8732 95.2951 43.4001C95.6476 42.9271 96.0589 42.5723 96.5876 42.3358C97.1164 42.0993 97.7626 41.9219 98.5264 41.9219C99.1726 41.9219 99.7014 42.0401 100.171 42.2175C100.641 42.454 101.053 42.7497 101.405 43.1045C101.758 43.4593 101.993 43.9323 102.169 44.4645C102.345 44.9967 102.404 45.588 102.404 46.1793C102.404 46.2975 102.404 46.4158 102.404 46.5932C102.404 46.7706 102.404 46.948 102.404 47.0662H95.6476ZM101.229 46.0019C101.229 45.588 101.17 45.2332 101.053 44.8784C100.935 44.5236 100.818 44.1688 100.583 43.8732C100.348 43.5775 100.113 43.341 99.7601 43.1636C99.4076 42.9862 98.9964 42.9271 98.5264 42.9271C97.6451 42.9271 96.9989 43.2227 96.4701 43.7549C96.0001 44.2871 95.7064 45.0558 95.5889 46.0019H101.229Z" fill="#4F3E3A"/>
<path d="M105.341 42.0982C105.459 42.0982 105.518 42.0982 105.635 42.0982C105.753 42.0982 105.811 42.0982 105.929 42.0982C106.046 42.0982 106.105 42.0982 106.223 42.0982C106.281 42.0982 106.399 42.0982 106.516 42.0982C106.516 42.3347 106.575 42.5712 106.575 42.8669C106.575 43.1625 106.575 43.4582 106.575 43.6947C106.81 43.2217 107.163 42.8669 107.633 42.5121C108.103 42.2165 108.69 42.0391 109.395 42.0391C109.454 42.0391 109.513 42.0391 109.571 42.0391C109.63 42.0391 109.689 42.0391 109.806 42.0391C109.865 42.2756 109.865 42.453 109.865 42.6304C109.865 42.8078 109.865 43.0443 109.806 43.2217C109.689 43.2217 109.63 43.2217 109.571 43.2217C109.513 43.2217 109.454 43.2217 109.395 43.2217C108.573 43.2217 107.868 43.5173 107.339 44.0495C106.81 44.5817 106.575 45.4686 106.575 46.7104V51.6773C106.516 51.6773 106.399 51.6773 106.281 51.6773C106.164 51.6773 106.046 51.6773 105.988 51.6773C105.929 51.6773 105.811 51.6773 105.694 51.6773C105.576 51.6773 105.459 51.6773 105.4 51.6773L105.341 42.0982Z" fill="#4F3E3A"/>
<path d="M116.798 50.6718C117.914 50.6718 118.678 50.9083 119.148 51.3813C119.618 51.7952 119.853 52.3865 119.853 53.0961C119.853 53.5692 119.735 54.0422 119.5 54.397C119.265 54.8109 118.913 55.1065 118.443 55.4022C117.973 55.6979 117.444 55.8752 116.856 56.0526C116.269 56.23 115.564 56.2892 114.859 56.2892C114.33 56.2892 113.801 56.23 113.331 56.1709C112.861 56.1118 112.45 55.9344 112.098 55.757C111.745 55.5796 111.51 55.2839 111.334 54.9883C111.158 54.6926 111.04 54.2787 111.04 53.8057C111.04 53.3326 111.158 52.8596 111.451 52.4457C111.745 52.0318 112.098 51.677 112.509 51.4996C112.274 51.3222 112.098 51.1448 111.921 50.9083C111.745 50.6718 111.686 50.3761 111.686 50.0805C111.686 49.6074 111.804 49.1935 112.039 48.8387C112.274 48.4839 112.568 48.2474 112.979 47.9518C112.568 47.6561 112.215 47.3013 111.921 46.8283C111.686 46.3552 111.51 45.8231 111.51 45.1726C111.51 44.6996 111.569 44.2857 111.745 43.8718C111.921 43.4579 112.156 43.1031 112.45 42.8074C112.744 42.5118 113.155 42.2752 113.625 42.0979C114.095 41.9205 114.624 41.8613 115.211 41.8613C115.74 41.8613 116.151 41.9205 116.563 42.0387C116.974 42.157 117.326 42.3344 117.62 42.5709C117.738 42.5118 117.914 42.4526 118.09 42.3935C118.266 42.3344 118.501 42.2752 118.736 42.2161C118.971 42.157 119.206 42.157 119.441 42.0979C119.676 42.0387 119.911 42.0387 120.146 42.0387C120.205 42.2161 120.205 42.4526 120.205 42.63C120.205 42.8665 120.205 43.1031 120.146 43.2805H118.384C118.56 43.5761 118.678 43.8718 118.795 44.1674C118.913 44.4631 118.913 44.8178 118.913 45.1726C118.913 45.7048 118.795 46.1778 118.619 46.5918C118.443 47.0057 118.149 47.3605 117.855 47.6561C117.503 47.9518 117.15 48.1292 116.68 48.3065C116.21 48.4839 115.74 48.5431 115.27 48.5431C114.741 48.5431 114.271 48.4839 113.86 48.3065C113.508 48.5431 113.273 48.7205 113.096 48.957C112.979 49.1935 112.861 49.3709 112.861 49.6665C112.861 49.7848 112.861 49.9031 112.92 50.0213C112.979 50.1396 113.038 50.2578 113.155 50.317C113.273 50.4352 113.449 50.4944 113.625 50.5535C113.86 50.6126 114.095 50.6126 114.448 50.6126L116.798 50.6718ZM114.154 51.8544C113.566 51.8544 113.096 52.0318 112.744 52.3274C112.391 52.6822 112.215 53.1552 112.215 53.6874C112.215 53.9831 112.274 54.2196 112.45 54.4561C112.568 54.6335 112.803 54.8109 113.038 54.9292C113.273 55.0474 113.566 55.1065 113.86 55.1657C114.213 55.2248 114.506 55.2248 114.859 55.2248C116.034 55.2248 116.915 55.0474 117.561 54.6335C118.208 54.2196 118.501 53.7465 118.501 53.2144C118.501 52.7413 118.325 52.3865 118.031 52.2092C117.679 52.0318 117.209 51.9135 116.445 51.9135L114.154 51.8544ZM112.744 45.1726C112.744 45.8231 112.92 46.3552 113.331 46.8283C113.684 47.3013 114.33 47.4787 115.094 47.4787C115.916 47.4787 116.504 47.2422 116.856 46.8283C117.268 46.3552 117.444 45.8231 117.444 45.1726C117.444 44.5222 117.268 43.99 116.856 43.517C116.445 43.0439 115.858 42.8665 115.094 42.8665C114.271 42.8665 113.684 43.1031 113.331 43.517C112.979 43.99 112.744 44.5222 112.744 45.1726Z" fill="#4F3E3A"/>
<path d="M122.673 43.1628H121.498C121.498 43.1037 121.498 43.0445 121.498 42.9263C121.498 42.8672 121.498 42.7489 121.498 42.6306C121.498 42.5124 121.498 42.4532 121.498 42.335C121.498 42.2167 121.498 42.1576 121.498 42.0985H123.906V51.6776C123.848 51.6776 123.73 51.6776 123.613 51.6776C123.495 51.6776 123.378 51.6776 123.319 51.6776C123.26 51.6776 123.143 51.6776 123.025 51.6776C122.908 51.6776 122.79 51.6776 122.731 51.6776L122.673 43.1628ZM122.026 39.7332C122.026 39.615 122.026 39.4967 121.968 39.3193C121.968 39.1419 121.968 39.0237 121.968 38.9054C121.968 38.7872 121.968 38.6689 121.968 38.5506C121.968 38.3732 121.968 38.255 122.026 38.1958C122.144 38.1958 122.261 38.1958 122.438 38.1367C122.614 38.1367 122.731 38.1367 122.849 38.1367C122.966 38.1367 123.084 38.1367 123.201 38.1367C123.378 38.1367 123.495 38.1367 123.554 38.1958C123.554 38.3141 123.554 38.4324 123.554 38.5506C123.554 38.728 123.554 38.8463 123.554 38.9054C123.554 39.0237 123.554 39.1419 123.554 39.3193C123.554 39.4967 123.554 39.615 123.554 39.7332C123.436 39.7332 123.319 39.7332 123.201 39.7332C123.025 39.7332 122.908 39.7332 122.849 39.7332C122.731 39.7332 122.614 39.7332 122.438 39.7332C122.32 39.7332 122.144 39.7332 122.026 39.7332Z" fill="#4F3E3A"/>
<path d="M128.136 47.0662C128.136 48.3671 128.43 49.254 129.018 49.9045C129.605 50.4958 130.486 50.7914 131.661 50.7914C132.131 50.7914 132.601 50.7323 132.954 50.6732C133.365 50.6141 133.776 50.4958 134.129 50.3184C134.188 50.4367 134.246 50.614 134.305 50.8506C134.364 51.028 134.364 51.2054 134.364 51.3827C134.011 51.5601 133.6 51.6784 133.071 51.7375C132.601 51.7967 132.073 51.8558 131.485 51.8558C130.663 51.8558 129.958 51.7375 129.37 51.501C128.783 51.2645 128.313 50.9097 127.901 50.4958C127.549 50.0819 127.255 49.5497 127.079 48.9584C126.903 48.3671 126.785 47.6575 126.785 46.948C126.785 46.2384 126.844 45.588 127.02 44.9967C127.196 44.4054 127.431 43.8732 127.784 43.4001C128.136 42.9271 128.548 42.5723 129.076 42.3358C129.605 42.0993 130.251 41.9219 131.015 41.9219C131.661 41.9219 132.19 42.0401 132.66 42.2175C133.13 42.454 133.541 42.7497 133.894 43.1045C134.246 43.4593 134.481 43.9323 134.658 44.4645C134.834 44.9967 134.893 45.588 134.893 46.1793C134.893 46.2975 134.893 46.4158 134.893 46.5932C134.893 46.7706 134.893 46.948 134.893 47.0662H128.136ZM133.718 46.0019C133.718 45.588 133.659 45.2332 133.541 44.8784C133.424 44.5236 133.306 44.1688 133.071 43.8732C132.836 43.5775 132.601 43.341 132.249 43.1636C131.896 42.9862 131.485 42.9271 131.015 42.9271C130.134 42.9271 129.488 43.2227 128.959 43.7549C128.43 44.2871 128.195 45.0558 128.078 46.0019H133.718Z" fill="#4F3E3A"/>
<defs>
<radialGradient id="paint0_radial_10866_4970" cx="0" cy="0" r="1" gradientUnits="userSpaceOnUse" gradientTransform="translate(34.195 34.5879) scale(27.2076 27.3838)">
<stop offset="0.589" stop-color="#AAB224"/>
<stop offset="0.6506" stop-color="#A5AB25"/>
<stop offset="0.7399" stop-color="#959829"/>
<stop offset="0.8461" stop-color="#7D782F"/>
<stop offset="0.9644" stop-color="#5A4D37"/>
<stop offset="1" stop-color="#4F3E3A"/>
</radialGradient>
</defs>
</svg>
