<svg width="230" height="93" viewBox="0 0 230 93" fill="none" xmlns="http://www.w3.org/2000/svg">
<path d="M33.5641 5.78331H47.334L25.6034 29.9047L48.6249 58.082H34.2095L15.9214 34.601V58.082H4.7334V5.78331H15.9214V27.7701L33.5641 5.78331ZM64.9766 49.33H83.6951V58.082H54.0037V5.78331H64.9766V49.33ZM165.454 14.5353V26.0624H184.387V35.0279H165.454V58.082H154.481V5.78331H184.602V14.5353H165.454ZM217.951 17.3104C215.8 14.7488 213.218 13.0411 209.345 13.0411C205.688 13.0411 202.46 15.6027 202.46 19.0181C202.46 27.7701 225.051 24.1412 225.051 41.6453C225.051 52.105 217.951 59.5762 206.333 59.5762C198.372 59.5762 192.778 55.307 188.69 49.33L195.79 42.9261C197.297 46.9819 201.384 50.6108 206.118 50.6108C210.636 50.6108 213.433 46.9819 213.433 42.9261C213.433 37.5895 208.054 35.8817 203.536 34.3875C196.221 31.6125 190.842 28.197 190.842 20.0854C190.842 11.3334 197.942 4.28906 207.624 4.28906C212.788 4.28906 219.673 6.63717 223.115 10.0526L217.951 17.3104ZM150.823 58.082H137.268L118.765 25.6355L99.8316 58.082H86.2769L118.12 4.50253C118.12 4.50253 139.635 39.7241 150.823 58.082Z" fill="#1A1A18"/>
<path d="M130.814 63.2052H106.286L118.12 42.0723L130.814 63.2052Z" fill="#E30018"/>
<path d="M7.31518 75.1582L11.6183 84.9775L15.9214 75.1582L18.2881 87.5391H16.9971L15.491 79.6409L11.6183 87.966L7.96065 79.6409L6.45457 87.5391H4.94849L7.31518 75.1582ZM23.2366 76.0121H24.7427L27.7548 81.1352L30.767 76.0121H32.2731L28.4003 82.6294V87.5391H27.1094V82.6294L23.2366 76.0121ZM52.0673 78.1467C51.637 77.2928 50.9915 76.8659 50.1309 76.8659C49.0551 76.8659 48.1945 77.5063 48.1945 78.5736C48.1945 79.6409 49.2703 80.0679 50.1309 80.4948L50.9915 80.9217C52.4976 81.5621 53.7885 82.416 53.7885 84.1237C53.7885 86.2583 52.0673 87.7526 50.1309 87.7526C48.1945 87.7526 46.9036 86.4718 46.4733 84.7641L47.7642 84.3372C47.9794 85.6179 48.84 86.4718 50.1309 86.4718C51.4218 86.4718 52.4976 85.4045 52.4976 84.1237C52.4976 82.8429 51.4218 82.2025 50.3461 81.7756L49.7006 81.5621C48.4097 80.9217 47.1187 80.2813 47.1187 78.5736C47.1187 76.8659 48.6248 75.5851 50.3461 75.5851C51.637 75.5851 52.7127 76.2255 53.3582 77.2928L52.0673 78.1467ZM64.1159 78.3602L62.1795 83.0564H66.0523L64.1159 78.3602ZM61.5341 84.3372L60.028 87.5391H58.5219L63.9008 75.3717L69.2796 87.5391H67.7736L66.4826 84.3372H61.5341ZM76.1646 82.8429C76.1646 83.6968 76.1646 84.7641 76.5949 85.4045C77.0252 86.0449 78.101 86.4718 78.9616 86.4718C79.8222 86.4718 80.6828 86.0449 81.3283 85.4045C81.9737 84.7641 81.9737 83.6968 81.9737 82.6294V75.7986H83.2647V83.2698C83.2647 84.5506 83.2647 85.6179 82.1889 86.4718C81.3283 87.3256 80.2525 87.7526 78.9616 87.7526C77.8858 87.7526 76.81 87.3256 75.9494 86.4718C74.8736 85.4045 74.8736 84.3372 74.8736 83.0564V75.7986H76.1646V82.8429ZM89.9344 87.5391H91.2254V78.5736L100.477 88.1795V76.0121H99.1861V84.9775L89.9344 75.3717V87.5391ZM111.665 78.3602L109.729 83.0564H113.601L111.665 78.3602ZM109.083 84.3372L107.577 87.5391H106.071L111.45 75.3717L116.829 87.5391H115.323L114.032 84.3372H109.083ZM136.193 78.3602L134.256 83.0564H138.129L136.193 78.3602ZM133.826 84.3372L132.32 87.5391H130.814L136.193 75.3717L141.572 87.5391H140.065L138.774 84.3372H133.826ZM147.381 87.5391H148.672V78.5736L157.923 88.1795V76.0121H156.417V84.9775L147.381 75.3717V87.5391ZM166.96 86.4718C168.466 86.4718 169.542 86.2583 170.617 85.191C171.478 84.3372 172.123 83.0564 172.123 81.7756C172.123 80.4948 171.693 79.214 170.617 78.3602C169.542 77.5063 168.466 77.2928 166.96 77.2928H166.099V86.4718H166.96ZM164.593 76.0121H166.745C168.466 76.0121 169.972 76.2255 171.263 77.5063C172.554 78.5736 173.199 80.2813 173.199 81.9891C173.199 83.6968 172.554 85.191 171.263 86.2583C169.757 87.5391 168.466 87.7526 166.529 87.7526H164.378V76.0121H164.593ZM193.639 78.1467C193.209 77.2928 192.563 76.8659 191.702 76.8659C190.627 76.8659 189.766 77.5063 189.766 78.5736C189.766 79.6409 190.842 80.0679 191.702 80.4948L192.563 80.9217C194.069 81.5621 195.36 82.416 195.36 84.1237C195.36 86.2583 193.639 87.7526 191.702 87.7526C189.766 87.7526 188.475 86.4718 188.045 84.7641L189.336 84.3372C189.551 85.6179 190.412 86.4718 191.702 86.4718C192.993 86.4718 194.069 85.4045 194.069 84.1237C194.069 82.8429 192.993 82.2025 191.918 81.7756L191.272 81.5621C189.981 80.9217 188.69 80.2813 188.69 78.5736C188.69 76.8659 190.196 75.5851 191.918 75.5851C193.209 75.5851 194.284 76.2255 194.93 77.2928L193.639 78.1467ZM202.89 81.3487H203.751C205.257 81.3487 206.333 80.9217 206.333 79.214C206.333 77.2928 204.827 77.0794 203.321 77.0794H202.89V81.3487ZM202.89 87.5391H201.6V75.7986H203.536C204.612 75.7986 205.687 75.7986 206.548 76.439C207.409 77.0794 207.839 78.1467 207.839 79.0006C207.839 79.8544 207.409 80.9217 206.763 81.5621C205.903 82.2025 205.042 82.416 203.966 82.416H203.106V87.5391H202.89ZM216.445 78.3602L214.509 83.0564H218.382L216.445 78.3602ZM213.863 84.3372L212.572 87.5391H211.066L216.445 75.3717L221.824 87.5391H220.318L219.027 84.3372H213.863Z" fill="#1A1A18"/>
</svg>
