<svg width="230" height="109" viewBox="0 0 230 109" fill="none" xmlns="http://www.w3.org/2000/svg">
<g clip-path="url(#clip0_10866_4748)">
<path d="M2.77623 38.7762C2.77623 35.7758 2.88301 35.9366 0 35.5615V34.7578H8.64902V35.6151C5.76602 35.9901 5.87279 35.8294 5.87279 38.8298V45.2057C6.88719 45.0986 7.47447 44.7235 8.2753 43.9198L14.8422 37.276C16.2303 35.8294 14.2549 35.5615 13.1337 35.6151V34.7578H19.0599V35.6151C18.1523 35.9901 16.9243 37.276 15.5896 38.5619L8.96936 45.2057C12.3329 48.7955 17.0311 55.0107 20.1277 56.8324V57.3146H16.7642C15.5362 57.3146 14.7888 56.1894 13.5074 54.5285L6.62024 45.9558H5.87279V53.2426C5.87279 56.243 5.76602 56.0823 8.64902 56.4037V57.261H0V56.4037C2.88301 56.0287 2.77623 56.1894 2.77623 53.2426V38.7762Z" fill="#004494"/>
<path d="M21.5159 50.9929C21.5159 47.4031 24.1319 44.1348 28.3497 44.1348C31.553 44.1348 34.7564 46.3315 34.7564 50.7786C34.7564 54.5291 32.0335 57.6367 27.9226 57.6367C24.6124 57.6367 21.5159 55.3864 21.5159 50.9929ZM32.1937 50.9393C32.1937 48.0996 30.9657 45.0456 27.9759 45.0456C25.787 45.0456 24.0252 46.9209 24.0252 50.8857C24.0252 54.2076 25.4667 56.7258 28.2963 56.7258C30.4318 56.7258 32.1937 54.9041 32.1937 50.9393Z" fill="#004494"/>
<path d="M41.1097 54.1005C41.1097 56.4044 41.0029 56.3508 43.1918 56.6722V57.3688H36.7852V56.6722C38.9741 56.3508 38.8139 56.4579 38.8139 54.1005V46.9745C38.8139 45.7957 38.0131 45.9029 36.7852 45.9029V45.2063C38.1733 45.1528 39.9351 44.8313 41.1097 44.1348L41.1631 44.1883V46.3851C42.2842 45.0992 44.0995 44.1348 46.3418 44.1348C49.4918 44.1348 50.079 46.01 50.079 48.689V54.1005C50.079 56.4044 49.9722 56.3508 52.1612 56.6722V57.3688H45.7545V56.6722C47.9435 56.3508 47.7833 56.4579 47.7833 54.1005V49.3319C47.7833 47.7246 47.6765 45.4207 44.9537 45.4207C41.6436 45.4742 41.1097 48.3139 41.1097 50.9929V54.1005Z" fill="#004494"/>
<path d="M56.539 50.2419C56.539 53.1888 57.8737 56.1892 61.5576 56.1892C62.9457 56.1892 63.7999 55.5462 64.4406 55.2784L64.8677 56.082L61.5042 57.6894H60.7033C60.0627 57.6894 57.9271 58.0109 55.8449 55.707C55.0975 54.8497 54.1365 52.8137 54.1365 50.8849C54.1365 47.8844 55.7381 44.1875 60.116 44.1875C62.9991 44.1875 64.9211 46.2771 64.9211 49.5454V50.2419H56.539ZM61.344 49.3311C61.9313 49.3311 62.6253 48.956 62.6253 47.8309C62.6253 46.1699 61.344 45.0448 59.9025 45.0448C58.194 45.0448 56.4856 46.0628 56.4856 49.3311H61.344Z" fill="#004494"/>
<path d="M71.2745 54.1005C71.2745 56.4044 71.1677 56.3508 73.3566 56.6722V57.3688H66.95V56.6722C69.1389 56.3508 68.9787 56.4579 68.9787 54.1005V46.9745C68.9787 45.7957 68.1779 45.9029 66.95 45.9029V45.2063C68.3381 45.1528 70.0999 44.8313 71.2745 44.1348L71.3279 44.1883V46.3851C72.449 45.0992 74.2643 44.1348 76.5066 44.1348C79.6565 44.1348 80.2438 46.01 80.2438 48.689V54.1005C80.2438 56.4044 80.137 56.3508 82.326 56.6722V57.3688H75.9193V56.6722C78.1083 56.3508 77.9481 56.4579 77.9481 54.1005V49.3319C77.9481 47.7246 77.8413 45.4207 75.1185 45.4207C71.8084 45.4207 71.3279 48.2603 71.3279 50.8857V54.1005H71.2745Z" fill="#004494"/>
<path d="M111.476 41.8293L109.875 42.6866H106.031C106.191 44.669 106.298 48.6339 104.749 51.42C106.351 52.9738 109.554 55.7599 110.836 56.6171V57.2601H106.885C105.55 56.0278 104.482 55.0634 103.308 53.8846C101.706 55.9742 99.0366 57.6887 95.2994 57.6887C89.4266 57.6887 86.8105 54.1525 86.8105 50.7235C86.8105 47.6159 88.8393 44.9905 93.1104 44.4547C91.1351 42.5794 89.3198 41.1328 89.3198 38.561C89.3198 35.6142 91.402 33.2031 95.513 33.2031C97.5417 33.2031 99.1434 33.7925 99.8909 34.5426V37.6502H99.0366C98.3426 35.2927 97.2748 34.114 95.1926 34.114C93.8579 34.114 92.2028 35.1855 92.2028 37.3287C92.2028 38.8289 92.8435 40.3291 95.8333 43.1688L103.842 50.7235C104.963 48.3124 105.123 44.4011 103.895 42.6866H99.8375V41.9901L101.546 41.1328H111.476V41.8293ZM93.6977 45.0441C90.8681 46.1157 90.3876 48.8482 90.3876 50.3484C90.3876 53.4024 92.4164 56.2421 95.9935 56.2421C99.1434 56.2421 101.172 54.474 102.347 53.0274L93.6977 45.0441Z" fill="#808080"/>
<path d="M115.374 56.4573C118.257 56.0823 118.15 56.243 118.15 53.2961V38.8298C118.15 35.8294 118.257 35.9901 115.374 35.6151V34.7578H124.023V35.6151C121.14 35.9901 121.247 35.8294 121.247 38.8298V53.8319C121.247 56.0823 122.475 56.2966 125.358 56.2966C130.002 56.2966 129.842 54.9571 131.284 51.528H132.085L131.124 57.3146H115.374V56.4573Z" fill="#004494"/>
<path d="M133.793 50.9929C133.793 47.4031 136.409 44.1348 140.627 44.1348C143.83 44.1348 147.033 46.3315 147.033 50.7786C147.033 54.5291 144.311 57.6367 140.2 57.6367C136.89 57.6367 133.793 55.3864 133.793 50.9929ZM144.524 50.9393C144.524 48.0996 143.296 45.0456 140.306 45.0456C138.117 45.0456 136.356 46.9209 136.356 50.8857C136.356 54.2076 137.797 56.7258 140.627 56.7258C142.762 56.7258 144.524 54.9041 144.524 50.9393Z" fill="#004494"/>
<path d="M155.629 46.5994C155.362 46.4922 155.042 46.4922 154.668 46.4922C153.6 46.4922 153.44 48.2603 153.44 50.082V54.1005C153.44 54.9577 153.44 55.3328 153.547 55.9221C153.654 56.4579 154.561 56.5115 155.949 56.6187V57.3152H149.062V56.6187C151.251 56.2972 151.091 56.4044 151.091 54.0469V46.9745C151.091 45.7957 150.29 45.9029 149.062 45.9029V45.2063C150.45 45.1528 152.159 44.8313 153.333 44.1348L153.387 44.1883V46.4922L154.721 45.0992C155.362 44.4562 155.682 44.1348 156.11 44.1348C156.323 44.1348 156.643 44.1348 157.071 44.8849L157.818 46.2243C157.871 46.3851 157.765 46.4922 157.605 46.5994L156.857 47.0816C156.697 47.1888 156.59 47.1352 156.483 47.0816L155.629 46.5994Z" fill="#004494"/>
<path d="M161.822 50.2419C161.822 53.1888 163.157 56.1892 166.841 56.1892C168.229 56.1892 169.083 55.5462 169.724 55.2784L170.151 56.082L166.787 57.6894H165.987C165.346 57.6894 163.21 58.0109 161.128 55.707C160.381 54.8497 159.42 52.8137 159.42 50.8849C159.42 47.8844 161.021 44.1875 165.399 44.1875C168.282 44.1875 170.204 46.2771 170.204 49.5454V50.2419H161.822ZM166.627 49.3311C167.214 49.3311 167.909 48.956 167.909 47.8309C167.909 46.1699 166.627 45.0448 165.186 45.0448C163.477 45.0448 161.769 46.0628 161.769 49.3311H166.627Z" fill="#004494"/>
<path d="M176.558 54.1005C176.558 56.4044 176.451 56.3508 178.64 56.6722V57.3688H172.233V56.6722C174.422 56.3508 174.262 56.4579 174.262 54.1005V46.9745C174.262 45.7957 173.461 45.9029 172.233 45.9029V45.2063C173.621 45.1528 175.383 44.8313 176.558 44.1348L176.611 44.1883V46.3851C177.732 45.0992 179.547 44.1348 181.79 44.1348C184.94 44.1348 185.527 46.01 185.527 48.689V54.1005C185.527 56.4044 185.42 56.3508 187.609 56.6722V57.3688H181.203V56.6722C183.391 56.3508 183.231 56.4579 183.231 54.1005V49.3319C183.231 47.7246 183.125 45.4207 180.402 45.4207C177.092 45.4207 176.611 48.2603 176.611 50.8857V54.1005H176.558Z" fill="#004494"/>
<path d="M199.515 45.6893L191.72 56.298H196.792C198.821 56.298 199.248 55.2264 199.248 53.9405H199.942V57.316H189.585L189.157 56.298L197.219 45.475H193.429C191.72 45.475 191.186 46.493 191.186 47.8325H190.492V44.457H199.462V45.6893H199.515Z" fill="#004494"/>
<path d="M204.32 50.2419C204.32 53.1888 205.655 56.1892 209.339 56.1892C210.727 56.1892 211.581 55.5462 212.222 55.2784L212.649 56.082L209.285 57.6894H208.484C207.844 57.6894 205.708 58.0109 203.626 55.707C202.878 54.8497 201.917 52.8137 201.917 50.8849C201.917 47.8844 203.519 44.1875 207.897 44.1875C210.78 44.1875 212.702 46.2771 212.702 49.5454V50.2419H204.32ZM209.125 49.3311C209.712 49.3311 210.406 48.956 210.406 47.8309C210.406 46.1699 209.125 45.0448 207.683 45.0448C205.975 45.0448 204.267 46.0628 204.267 49.3311H209.125Z" fill="#004494"/>
<path d="M219.002 54.1005C219.002 56.4044 218.895 56.3508 221.084 56.6722V57.3688H214.677V56.6722C216.866 56.3508 216.706 56.4579 216.706 54.1005V46.9745C216.706 45.7957 215.905 45.9029 214.677 45.9029V45.2063C216.065 45.1528 217.827 44.8313 219.002 44.1348L219.055 44.1883V46.3851C220.176 45.0992 221.992 44.1348 224.234 44.1348C227.384 44.1348 227.971 46.01 227.971 48.689V54.1005C227.971 56.4044 227.864 56.3508 230.053 56.6722V57.3688H223.647V56.6722C225.836 56.3508 225.675 56.4579 225.675 54.1005V49.3319C225.675 47.7246 225.569 45.4207 222.846 45.4207C219.536 45.4207 219.055 48.2603 219.055 50.8857V54.1005H219.002Z" fill="#004494"/>
<path d="M28.3496 71.2976L30.2716 75.0481H29.1504L27.2818 71.3511H25.253V75.0481H24.292V66.4219H27.7089C29.2038 66.4219 30.3783 67.2256 30.3783 68.8865C30.3783 70.226 29.5775 71.0297 28.3496 71.2976ZM27.6555 67.2791H25.253V70.4939H27.5487C28.8301 70.4939 29.4173 69.9581 29.4173 68.8865C29.4173 67.8149 28.7767 67.2791 27.6555 67.2791Z" fill="#808080"/>
<path d="M32.8877 75.0481V66.4219H38.1198V67.2791H33.8487V70.0117H36.3046V70.8689H33.8487V74.1908H38.28V75.0481H32.8877Z" fill="#808080"/>
<path d="M43.512 75.2094C41.4299 75.2094 40.0417 73.2806 40.0417 70.7624C40.0417 68.1906 41.4833 66.2617 43.5654 66.2617C44.74 66.2617 45.6476 66.6904 46.2883 67.6548L45.5408 68.2441C45.0069 67.494 44.473 67.1726 43.512 67.1726C42.0171 67.1726 40.9494 68.6192 40.9494 70.7624C40.9494 72.8519 42.0705 74.3521 43.512 74.3521C44.473 74.3521 45.1137 73.9235 45.6476 73.227L46.2883 73.8164C45.701 74.62 44.7934 75.2094 43.512 75.2094Z" fill="#808080"/>
<path d="M52.8552 71.2976L54.7772 75.0481H53.656L51.7874 71.4047H49.7586V75.1017H48.7976V66.4219H52.2145C53.7094 66.4219 54.884 67.2256 54.884 68.8865C54.884 70.226 54.0831 71.0297 52.8552 71.2976ZM52.1611 67.2791H49.7586V70.4939H52.0543C53.3357 70.4939 53.923 69.9581 53.923 68.8865C53.923 67.8149 53.2823 67.2791 52.1611 67.2791Z" fill="#808080"/>
<path d="M60.3295 75.2088C58.2473 75.2088 57.2329 73.9765 57.2329 71.5655V66.4219H58.1939V71.5655C58.1939 73.4407 58.888 74.3516 60.3829 74.3516C61.8778 74.3516 62.465 73.4407 62.465 71.5655V66.4219H63.426V71.5655C63.426 73.9229 62.4116 75.2088 60.3295 75.2088Z" fill="#808080"/>
<path d="M66.3625 75.0481V66.4219H67.3235V75.1017H66.3625V75.0481Z" fill="#808080"/>
<path d="M73.1963 67.2791V75.0481H72.2353V67.2791H69.6726V66.4219H75.7056V67.2791H73.1963Z" fill="#808080"/>
<path d="M84.6217 75.0481V69.208V68.2971C84.5149 68.6186 84.3014 69.2616 84.0878 69.7438L81.7921 75.316L79.5497 69.6902C79.3896 69.2616 79.1226 68.565 79.0692 68.2436V69.1544V74.9945H78.1616V66.4219H79.2294L81.2582 71.619C81.4717 72.1548 81.7921 72.9585 81.8989 73.28C82.0056 72.9049 82.326 72.1013 82.5395 71.619L84.6217 66.4219H85.6895V75.1017H84.6217V75.0481Z" fill="#808080"/>
<path d="M88.4656 75.0481V66.4219H93.6977V67.2791H89.4266V70.0117H91.8825V70.8689H89.4266V74.1908H93.8579V75.0481H88.4656Z" fill="#808080"/>
<path d="M101.599 75.0481L97.8088 69.1008C97.6486 68.7794 97.3283 68.2436 97.1681 68.0292V68.6186V75.0481H96.2605V66.4219H97.2215L100.959 72.4763C101.119 72.7978 101.439 73.3336 101.599 73.5479V72.9585V66.4219H102.507V75.1017H101.599V75.0481Z" fill="#808080"/>
<path d="M108.38 67.2791V75.0481H107.419V67.2791H104.856V66.4219H110.889V67.2791H108.38Z" fill="#808080"/>
<path d="M121.086 75.2094C119.004 75.2094 117.616 73.2806 117.616 70.7624C117.616 68.1906 119.057 66.2617 121.14 66.2617C122.314 66.2617 123.222 66.6904 123.862 67.6548L123.115 68.2441C122.581 67.494 122.047 67.1726 121.086 67.1726C119.591 67.1726 118.524 68.6192 118.524 70.7624C118.524 72.8519 119.645 74.3521 121.086 74.3521C122.047 74.3521 122.688 73.9235 123.222 73.227L123.862 73.8164C123.275 74.62 122.368 75.2094 121.086 75.2094Z" fill="#808080"/>
<path d="M129.308 75.2094C127.173 75.2094 125.731 73.3877 125.731 70.7624C125.731 68.137 127.173 66.2617 129.308 66.2617C131.444 66.2617 132.885 68.0834 132.885 70.7088C132.885 73.3341 131.444 75.2094 129.308 75.2094ZM129.308 67.1726C127.813 67.1726 126.746 68.5656 126.746 70.7624C126.746 72.9591 127.867 74.3521 129.362 74.3521C130.857 74.3521 131.978 72.9591 131.978 70.7624C131.924 68.5656 130.803 67.1726 129.308 67.1726Z" fill="#808080"/>
<path d="M140.733 75.0481L136.943 69.1008C136.783 68.7794 136.462 68.2436 136.302 68.0292V68.6186V75.0481H135.395V66.4219H136.356L140.093 72.4763C140.253 72.7978 140.573 73.3336 140.733 73.5479V72.9585V66.4219H141.641V75.1017H140.733V75.0481Z" fill="#808080"/>
<path d="M146.98 75.2086C145.805 75.2086 144.738 74.7264 144.097 74.0298L144.738 73.3333C145.378 73.9762 146.126 74.3513 147.033 74.3513C148.154 74.3513 148.902 73.7619 148.902 72.8511C148.902 72.0474 148.421 71.5652 146.82 71.0294C144.951 70.3865 144.31 69.7435 144.31 68.5112C144.31 67.1181 145.378 66.3145 147.033 66.3145C148.208 66.3145 148.955 66.6359 149.649 67.2253L149.009 67.9754C148.368 67.4396 147.781 67.1717 146.927 67.1717C145.752 67.1717 145.271 67.7611 145.271 68.4576C145.271 69.1541 145.592 69.5828 147.3 70.2257C149.222 70.9222 149.81 71.5652 149.81 72.8511C149.81 74.137 148.742 75.2086 146.98 75.2086Z" fill="#808080"/>
<path d="M155.469 75.2088C153.387 75.2088 152.372 73.9765 152.372 71.5655V66.4219H153.333V71.5655C153.333 73.4407 154.027 74.3516 155.522 74.3516C157.017 74.3516 157.604 73.4407 157.604 71.5655V66.4219H158.565V71.5655C158.565 73.9229 157.551 75.2088 155.469 75.2088Z" fill="#808080"/>
<path d="M161.395 75.0481V66.4219H162.356V74.1908H166.627V75.0481H161.395Z" fill="#808080"/>
<path d="M170.792 67.2791V75.0481H169.831V67.2791H167.268V66.4219H173.301V67.2791H170.792Z" fill="#808080"/>
<path d="M180.295 75.0489L179.547 72.8522H175.97L175.223 75.0489H174.262L177.252 66.3691H178.319L181.309 75.0489H180.295ZM178.319 69.1552C178.106 68.5659 177.892 67.8158 177.785 67.4407C177.679 67.7622 177.465 68.5659 177.252 69.1552L176.291 71.9949H179.28L178.319 69.1552Z" fill="#808080"/>
<path d="M189.051 75.0481L185.26 69.1544C185.1 68.8329 184.779 68.2971 184.619 68.0828V68.6722V75.1017H183.712V66.4219H184.673L188.41 72.4763C188.57 72.7978 188.89 73.3336 189.051 73.5479V72.9585V66.4219H189.958V75.1017H189.051V75.0481Z" fill="#808080"/>
<path d="M195.778 67.2791V75.0481H194.817V67.2791H192.254V66.4219H198.287V67.2791H195.778Z" fill="#808080"/>
<path d="M202.878 75.2086C201.704 75.2086 200.636 74.7264 199.995 74.0298L200.636 73.3333C201.277 73.9762 202.024 74.3513 202.932 74.3513C204.053 74.3513 204.8 73.7619 204.8 72.8511C204.8 72.0474 204.32 71.5652 202.718 71.0294C200.85 70.3865 200.209 69.7435 200.209 68.5112C200.209 67.1181 201.277 66.3145 202.932 66.3145C204.106 66.3145 204.854 66.6359 205.548 67.2253L204.907 67.9754C204.266 67.4396 203.679 67.1717 202.825 67.1717C201.65 67.1717 201.17 67.7611 201.17 68.4576C201.17 69.1541 201.49 69.5828 203.199 70.2257C205.121 70.9222 205.708 71.5652 205.708 72.8511C205.708 74.137 204.64 75.2086 202.878 75.2086Z" fill="#808080"/>
</g>
<defs>
<clipPath id="clip0_10866_4748">
<rect width="230" height="42.1667" fill="white" transform="translate(0 33.1504)"/>
</clipPath>
</defs>
</svg>
