<svg width="230" height="109" viewBox="0 0 230 109" fill="none" xmlns="http://www.w3.org/2000/svg">
<path d="M7.21631 33.373V60.9918H17.0984V57.7856H10.8934V33.373H7.21631Z" fill="black"/>
<path fill-rule="evenodd" clip-rule="evenodd" d="M24.5903 33.373L18.5691 60.9918H22.1542L23.1654 55.5871H28.681L29.6922 60.9918H33.4152L27.5319 33.373H24.5903ZM28.1754 52.7474H23.7629L25.9692 38.7319H26.0611L27.44 48.7626L28.1754 52.7474Z" fill="black"/>
<path fill-rule="evenodd" clip-rule="evenodd" d="M48.1236 48.442C51.5249 48.3504 52.1224 50.2741 52.1224 53.297C52.1224 56.32 51.295 57.9688 48.1236 57.8314V48.442ZM49.0428 60.9918C54.1448 60.9918 56.0293 58.5185 56.0293 53.4344C56.0293 50.3657 55.2938 47.9382 52.1224 46.9763V46.8847C55.064 46.1061 55.6156 43.4953 55.6156 40.7472C55.6156 36.1212 54.2367 33.373 49.2267 33.373H44.6304V60.9918H49.0428ZM51.9845 40.6098C51.9845 43.5411 51.5249 45.648 48.0776 45.5106V36.4876H48.7211C51.2491 36.4418 51.9845 38.4571 51.9845 40.6098Z" fill="black"/>
<path d="M63.1075 33.373H59.4304V60.9918H63.1075V33.373Z" fill="black"/>
<path fill-rule="evenodd" clip-rule="evenodd" d="M74.0009 33.0059C66.8766 33.0059 66.7847 42.2121 66.7847 47.2045C66.7847 52.197 66.8766 61.4032 74.0009 61.4032C81.1252 61.4032 81.2171 52.197 81.2171 47.2045C81.2171 42.2121 81.1252 33.0059 74.0009 33.0059ZM74.0009 36.441C76.8966 36.441 77.3102 41.2961 77.3102 47.1587C77.3102 53.0214 76.8966 57.8765 74.0009 57.8765C71.1052 57.8765 70.6915 53.0214 70.6915 47.1587C70.6915 41.2961 71.1052 36.441 74.0009 36.441Z" fill="black"/>
<path d="M93.9029 33.9223C92.7079 33.2811 91.3749 32.9605 89.9961 33.0063C85.8594 33.0063 83.791 36.2124 83.791 40.0598C83.791 47.2965 91.5588 48.3958 91.5588 53.8921C91.5588 55.9532 90.5936 57.7395 88.3414 57.7395C86.9165 57.7395 85.8134 57.0982 84.7103 56.3196V60.0296C85.8594 60.8998 87.2842 61.3578 88.755 61.3578C92.8458 61.3578 95.2818 58.0143 95.2818 54.1211C95.2818 50.4111 93.857 48.579 91.329 46.0141L88.5252 42.9911C87.8358 42.1667 87.4681 41.0674 87.514 39.9682C87.514 38.0903 88.755 36.3956 90.7774 36.3956C91.9265 36.4414 93.0296 36.8536 93.9029 37.5865V33.9223Z" fill="black"/>
<path d="M97.2583 33.373V36.5334H101.579V60.9918H105.256V36.5334H109.439V33.373H97.2583Z" fill="black"/>
<path d="M112.794 33.373V60.9918H116.471V47.2969H122.032V60.9918H125.709V33.373H122.032V44.1366H116.471V33.373H112.794Z" fill="black"/>
<path d="M130.076 33.373V60.9918H139.958V57.7856H133.753V48.3962H139.315V45.2358H133.753V36.5334H139.958V33.373H130.076Z" fill="black"/>
<path d="M143.129 33.373V36.5334H147.45V60.9918H151.127V36.5334H155.264V33.373H143.129Z" fill="black"/>
<path d="M162.342 33.373H158.665V60.9918H162.342V33.373Z" fill="black"/>
<path fill-rule="evenodd" clip-rule="evenodd" d="M178.797 57.9681C179.716 56.0902 180.13 53.6627 180.314 51.3725C180.452 49.8611 180.452 48.3954 180.452 47.1587C180.452 42.1663 180.36 33.0059 173.236 33.0059C166.111 33.0059 166.019 42.2121 166.019 47.2045C166.019 48.3954 166.019 49.9069 166.111 51.4184C166.479 56.1818 167.812 61.4032 173.19 61.4032C174.66 61.4032 175.855 61.1284 176.913 60.2582L178.843 63.1437L181.233 61.449L178.797 57.9681ZM176.085 54.2123L174.706 52.2428L172.454 53.9833L174.752 57.3268C174.385 57.7391 173.787 57.9681 173.236 57.9223C171.075 57.9223 170.294 55.2199 170.018 51.4184C169.926 50.1359 169.926 48.716 169.926 47.2045C169.926 41.3419 170.34 36.4868 173.236 36.4868C176.131 36.4868 176.545 41.3419 176.545 47.2045C176.545 48.6244 176.499 50.0443 176.407 51.4184C176.315 52.3802 176.269 53.342 176.177 54.2581H176.085V54.2123Z" fill="black"/>
<path d="M184.267 33.373V52.4268C184.267 57.4192 184.772 61.3582 190.61 61.3582C196.998 61.3582 196.952 56.5948 196.952 52.9764V33.373H193.275V54.0298C193.229 56.32 193 57.923 190.472 57.923C188.955 57.923 187.898 57.1902 187.898 53.6176V33.373H184.267Z" fill="black"/>
<path d="M201.319 33.373V60.9918H211.201V57.7856H204.996V48.3962H210.511V45.2358H204.996V36.5334H211.201V33.373H201.319Z" fill="black"/>
<path d="M87.7439 75.1447H86.5488V65.4805H87.9277C90.9153 65.4805 91.8346 66.4881 91.8346 68.2744C91.8346 70.3355 90.2718 71.1141 88.4333 71.1141H87.7439V75.1447ZM87.7439 70.0149H88.1116C89.3526 70.0149 90.6855 69.7859 90.6855 68.2286C90.6855 66.6713 89.2607 66.5339 88.0656 66.5339H87.7439V70.0149Z" fill="#31281C"/>
<path d="M97.0744 72.7173L95.9713 75.1448H94.6843L99.3266 65.0684L103.969 75.1448H102.682L101.579 72.7173H97.0744ZM99.3266 67.6791L97.58 71.5723H101.027L99.3266 67.6791Z" fill="#31281C"/>
<path d="M114.678 75.1435H113.207L110.358 71.0671H109.852V75.1435H108.657V65.4792H110.128C111.001 65.4334 111.874 65.5708 112.702 65.9372C113.483 66.4411 113.989 67.3113 113.989 68.2273C114.035 69.6014 113.023 70.7923 111.645 70.9297L114.678 75.1435ZM109.852 70.0594H110.22C111.461 70.0594 112.794 69.8304 112.794 68.2731C112.794 66.7159 111.369 66.5327 110.174 66.5327H109.852V70.0594Z" fill="#31281C"/>
<path d="M120.654 75.1447H119.458V65.4805H120.654V75.1447Z" fill="#31281C"/>
<path d="M130.627 67.3116C130.352 66.7162 129.708 66.3498 129.065 66.3956C128.283 66.3956 127.456 66.8994 127.456 67.7696C127.456 68.5025 128.191 68.9147 128.789 69.1437L129.478 69.4185C130.857 69.9681 131.868 70.701 131.868 72.3499C131.868 73.9987 130.581 75.327 128.927 75.3728C128.881 75.3728 128.835 75.3728 128.789 75.3728C127.226 75.3728 125.939 74.182 125.801 72.6705L127.042 72.3957C127.042 73.4033 127.916 74.2278 128.927 74.1819C129.938 74.1361 130.765 73.3117 130.719 72.3041C130.719 71.2506 129.892 70.8384 129.065 70.472L128.375 70.1972C127.272 69.7391 126.261 69.0979 126.261 67.7696C126.261 66.2124 127.64 65.2505 129.111 65.2505C130.168 65.2047 131.133 65.8001 131.593 66.7162L130.627 67.3116Z" fill="#31281C"/>
<path d="M213.683 37.6788C213.683 35.1138 215.751 33.0527 218.325 33.0527C220.899 33.0527 222.968 35.1138 222.968 37.6788C222.968 40.2437 220.899 42.3048 218.325 42.3048C218.325 42.3048 218.325 42.3048 218.279 42.3048C215.751 42.259 213.683 40.2437 213.683 37.6788ZM222.186 37.6788C222.186 35.5261 220.44 33.8314 218.325 33.7856C216.165 33.7856 214.464 35.5261 214.419 37.633C214.419 39.7857 216.165 41.4803 218.279 41.5261C220.394 41.5261 222.094 39.8315 222.14 37.7704C222.14 37.7246 222.14 37.6788 222.186 37.6788ZM220.486 40.2437H219.612L218.142 37.9078H217.13V40.2437H216.395V35.068H218.693C219.153 35.0222 219.566 35.1138 219.934 35.3428C220.302 35.5719 220.532 35.9841 220.532 36.4421C220.532 37.4955 219.796 37.862 218.877 37.9078L220.486 40.2437ZM218.05 37.3123C218.785 37.3123 219.796 37.4039 219.796 36.3963C219.796 35.6635 219.199 35.5719 218.555 35.5719H217.176V37.3123H218.05Z" fill="#31281C"/>
</svg>
