<svg width="230" height="109" viewBox="0 0 230 109" fill="none" xmlns="http://www.w3.org/2000/svg">
<g clip-path="url(#clip0_10866_4781)">
<path d="M2.96412 70.8192V30.8047H0V73.7981H20.3483L21.7903 70.8192H2.96412Z" fill="black"/>
<path d="M77.2273 70.8192V30.8047H74.2632V73.7981H99.979V70.8192H77.2273Z" fill="black"/>
<path d="M38.1331 52.2213L47.3459 34.9112L56.4786 52.2213H38.1331ZM67.9346 73.7985H71.2992L47.3459 28.5508L23.3926 73.7985H26.7573L36.6911 54.9587H58.0007L67.9346 73.7985Z" fill="black"/>
<path d="M168.795 65.3443C168.074 63.251 168.074 61.8018 168.074 61.8018V30.8047H165.11V61.6408C165.11 61.6408 165.19 64.1367 166.151 66.4715C167.754 69.7725 171.359 74.7643 180.171 74.7643C188.743 74.7643 192.748 69.692 194.351 66.4715C195.312 64.1367 195.392 61.6408 195.392 61.6408V30.8047H192.428V61.8823C192.428 61.8823 192.428 63.3315 191.707 65.4249C190.665 67.8402 186.82 72.1074 180.171 72.1074C173.441 72.0268 170.077 68.1623 168.795 65.3443Z" fill="black"/>
<path d="M205.085 70.8196V51.8188H225.674V48.8398H205.085V33.7036H228.878V30.7246H202.121V73.7985H230V70.8196H205.085Z" fill="black"/>
<path d="M136.67 32.4965C125.935 32.4965 117.123 41.2723 117.123 52.1415C117.123 63.0106 125.855 71.7864 136.67 71.7864C147.485 71.7864 156.217 63.0106 156.217 52.1415C156.217 41.2723 147.485 32.4965 136.67 32.4965ZM159.181 52.1415C159.181 64.6208 149.087 74.7653 136.67 74.7653C124.253 74.7653 114.239 64.7013 114.239 52.1415C114.239 39.6621 124.333 29.5176 136.67 29.5176C149.087 29.5176 159.181 39.6621 159.181 52.1415Z" fill="black"/>
<path d="M108.231 30.8047H105.267V73.7981H108.231V30.8047Z" fill="black"/>
<path d="M158.461 76.9395H131.143V79.9184H158.461V76.9395Z" fill="black"/>
</g>
<defs>
<clipPath id="clip0_10866_4781">
<rect width="230" height="51.3667" fill="white" transform="translate(0 28.5508)"/>
</clipPath>
</defs>
</svg>
