<svg width="230" height="109" viewBox="0 0 230 109" fill="none" xmlns="http://www.w3.org/2000/svg">
<g clip-path="url(#clip0_10866_4703)">
<path d="M0 63.4835H2.31217V44.5805H0V44.0938H9.24868V44.5805H6.73369V63.4835H9.97884C14.9683 63.4835 16.1041 61.0497 16.1041 57.7639V57.196H16.5908V63.9703H0L0 63.4835ZM32.3704 55.249V61.7798C32.3704 62.6722 32.5326 63.1996 33.0194 63.1996C33.709 63.1996 33.9929 62.3477 33.9929 61.6176H34.4797C34.4797 63.2807 33.3034 64.3759 31.478 64.3759C30.2205 64.3759 29.1658 63.808 28.6384 62.5911C27.9083 63.9297 25.9612 64.3759 24.866 64.3759C22.7161 64.3759 20.485 63.4024 20.485 60.928C20.485 57.9668 23.284 57.2772 25.8395 57.1149L28.5979 56.9121V54.5188C28.5979 52.8151 28.3139 51.7604 26.2046 51.7604C25.231 51.7604 23.6085 51.9632 23.649 52.6123C23.6896 53.099 25.0688 53.0179 25.0688 54.3565C25.0688 55.3706 24.4198 56.0602 23.3245 56.0602C22.067 56.0602 21.4991 55.2084 21.4991 54.2348C21.4991 52.6528 23.5679 51.2736 26.4074 51.2736C29.2469 51.2736 32.3298 52.0038 32.3704 55.249ZM28.5979 57.3583L26.3668 57.5611C24.5414 57.7639 24.3386 58.7375 24.3386 60.2384C24.3386 61.7393 24.4198 63.4835 26.3668 63.4835C27.7055 63.4835 28.5573 62.1449 28.5979 60.644V57.3583ZM44.8642 51.5576V52.0444H46.8113V59.3865C46.8113 61.1714 45.351 63.2807 43.769 63.2807C42.3898 63.2807 42.1058 62.2666 42.1058 60.6035V50.8274C41.5379 51.5576 39.4286 51.5576 38.2928 51.5576H36.3051V52.0444H38.2522V59.9139C38.2522 62.9562 39.5503 64.2948 42.2275 64.2948C44.134 64.2948 46 63.2807 46.7707 61.577H46.8113V63.9297H52.6526V63.443H50.7055V50.8274C50.097 51.5576 48.0282 51.5576 46.8924 51.5576H44.8642ZM55.6138 63.4835V63.9703H64.0511V63.4835H61.455V56.2631C61.455 54.1132 62.1446 52.5717 63.9295 51.801H64.0511C63.6049 52.2878 63.4021 52.7745 63.4021 53.4641C63.4021 54.5594 64.2134 55.2895 65.3086 55.2895C66.6473 55.2895 67.4586 54.316 67.4586 53.2207C67.4586 51.8415 66.5661 51.0303 65.2275 51.0303C63.4427 51.0303 62.0229 52.2878 61.4956 53.7075H61.455V50.8274C60.8466 51.5576 58.7778 51.5576 57.642 51.5576H55.6949V52.0444H57.642V63.443L55.6138 63.4835ZM82.2646 57.1555H74.4762V59.5488C74.4762 61.4959 74.7601 63.6863 77.3968 63.6863C79.5873 63.6863 81.2099 62.0232 81.8589 59.4271H82.3457C81.7372 62.226 79.993 64.3759 76.5044 64.3759C73.0159 64.3759 70.1764 61.6581 70.1764 57.9668C70.1764 54.2754 73.0564 51.2736 76.3827 51.2736C79.425 51.152 82.224 54.1132 82.2646 57.1555ZM78.0459 56.6687V54.2348C78.0459 52.6528 77.5997 51.7199 76.261 51.7199C75.2875 51.7199 74.4762 52.3283 74.4762 54.2348V56.6687H78.0459ZM85.5908 63.4835V63.9703H93.0952V63.4835H91.4321V55.7357C91.4321 54.2754 92.8519 52.2472 94.4339 52.2472C95.2857 52.2472 96.097 52.5717 96.097 54.5594V63.4835H94.4744V63.9703H101.938V63.4835H99.9912V55.614C99.9912 52.5717 98.6931 51.2331 96.0159 51.2331C94.1094 51.2331 92.2434 52.2472 91.4727 53.8698H91.4321V50.868C90.8236 51.5982 88.7549 51.5982 87.619 51.5982H85.5908V52.0849H87.5379V63.4835H85.5908ZM105.062 52.0849H106.563V61.1308C106.563 63.808 108.875 64.3354 109.646 64.3354C111.349 64.3354 112.526 63.6458 113.377 62.1855L113.012 61.9826C112.688 62.4694 112.242 63.159 111.511 63.159C110.781 63.159 110.416 62.6317 110.416 61.6987V52.0849H113.012V51.5982H110.416V45.5135H109.929C109.929 48.5153 107.901 51.5982 105.062 51.5982V52.0849ZM128.792 64.0109V63.5241H131.064V44.5805H128.792V44.0938H138.892C143.801 44.0938 146.113 45.9191 146.113 49.4077C146.113 52.8962 142.787 55.0461 138.527 55.0461C137.351 55.0461 136.337 55.0056 135.485 54.9244V63.4835H138.284V63.9703L128.792 64.0109ZM135.485 54.3971C135.81 54.4782 136.296 54.5594 136.661 54.5594C140.028 54.5594 141.367 52.9368 141.367 49.6105C141.367 46.0003 140.799 44.6211 137.757 44.6211H135.485V54.3971ZM159.256 57.1555H151.467V59.5488C151.467 61.4959 151.751 63.6863 154.388 63.6863C156.578 63.6863 158.242 62.0232 158.85 59.4271H159.377C158.769 62.226 157.025 64.3759 153.536 64.3759C150.048 64.3759 147.208 61.6581 147.208 57.9668C147.208 54.2754 150.088 51.2736 153.455 51.2736C156.376 51.1925 159.215 54.1132 159.256 57.1555ZM154.996 56.6687V54.2348C154.996 52.6528 154.591 51.7199 153.212 51.7199C152.238 51.7199 151.427 52.3283 151.427 54.2348V56.6687H154.996ZM161.933 63.4835V63.9703H170.37V63.4835H167.774V56.3036C167.774 54.1537 168.464 52.6123 170.208 51.8415H170.289C169.843 52.3283 169.64 52.8151 169.64 53.5047C169.64 54.5999 170.452 55.3301 171.547 55.3301C172.885 55.3301 173.697 54.3565 173.697 53.2613C173.697 51.8821 172.804 51.0708 171.466 51.0708C169.681 51.0708 168.261 52.3283 167.734 53.7481H167.653V50.868C167.044 51.5982 164.975 51.5982 163.84 51.5982H161.892V52.0849H163.84V63.5241H161.933M176.82 63.4835V63.9703H185.258V63.4835H182.661V56.3036C182.661 54.1537 183.351 52.6123 185.136 51.8415H185.258C184.811 52.3283 184.608 52.8151 184.608 53.5047C184.608 54.5999 185.42 55.3301 186.556 55.3301C187.894 55.3301 188.705 54.3565 188.705 53.2613C188.705 51.8821 187.813 51.0708 186.474 51.0708C184.69 51.0708 183.27 52.3283 182.743 53.7481H182.661V50.868C182.053 51.5982 179.984 51.5982 178.848 51.5982H176.901V52.0849H178.848V63.5241H176.82M195.683 44.2154C194.425 44.2154 193.411 45.2296 193.411 46.487C193.411 47.7445 194.425 48.7992 195.683 48.7992C196.94 48.7992 197.995 47.7851 197.995 46.487C197.995 45.189 196.94 44.2154 195.683 44.2154ZM191.788 64.0109H199.577V63.5241H197.63V50.8274C197.062 51.5576 194.952 51.5576 193.817 51.5576H191.788V52.0444H193.735V63.443H191.788V64.0109ZM214.829 57.1555H207V59.5488C207 61.4959 207.284 63.6863 209.921 63.6863C212.152 63.6863 213.774 62.0232 214.383 59.4271H214.91C214.302 62.226 212.557 64.3759 209.109 64.3759C205.661 64.3759 202.822 61.6581 202.822 57.9668C202.822 54.2754 205.702 51.2736 209.028 51.2736C211.989 51.152 214.788 54.1132 214.829 57.1555ZM210.57 56.6687V54.2348C210.57 52.6528 210.164 51.7199 208.785 51.7199C207.811 51.7199 207 52.3283 207 54.2348V56.6687H210.57ZM218.155 63.4835V63.9703H226.593V63.4835H223.996V56.3036C223.996 54.1537 224.686 52.6123 226.43 51.8415H226.552C226.106 52.3283 225.903 52.8151 225.903 53.5047C225.903 54.5999 226.714 55.3301 227.81 55.3301C229.148 55.3301 229.959 54.3565 229.959 53.2613C229.959 51.8821 229.067 51.0708 227.728 51.0708C225.944 51.0708 224.524 52.3283 223.996 53.7481H223.915V50.868C223.347 51.5982 221.238 51.5982 220.102 51.5982H218.155V52.0849H220.102V63.4835H218.155ZM118.245 55.898L117.434 58.3724H124.573L125.384 55.898H118.245Z" fill="black"/>
</g>
<defs>
<clipPath id="clip0_10866_4703">
<rect width="230" height="20.2822" fill="white" transform="translate(0 44.0938)"/>
</clipPath>
</defs>
</svg>
