<svg width="145" height="69" viewBox="0 0 145 69" fill="none" xmlns="http://www.w3.org/2000/svg">
<path d="M2.21727 38.484C2.36347 38.4353 2.53403 38.4109 2.72895 38.3866C2.92388 38.3622 3.1188 38.3379 3.38683 38.3379C3.67921 38.3379 3.9716 38.3866 4.23962 38.484C4.50765 38.5814 4.72694 38.7275 4.8975 38.9711C5.06806 39.1903 5.16552 39.5069 5.16552 39.9209C5.14115 40.3349 4.99496 40.7002 4.72694 40.9681C4.43455 41.236 4.09343 41.4309 3.67921 41.5039C3.50865 41.5283 3.3381 41.5526 3.16754 41.5526C2.99698 41.5526 2.82642 41.5526 2.68022 41.5526L2.63149 41.6744C2.72895 41.7962 2.82642 41.918 2.92388 42.0154C3.02134 42.1372 3.1188 42.2589 3.21627 42.3807L5.31171 45.1815C5.38481 45.2789 5.45791 45.3763 5.55537 45.4737C5.62847 45.5711 5.70156 45.6685 5.79903 45.7903C5.92085 45.7903 6.06705 45.766 6.18888 45.766C6.3107 45.766 6.43253 45.766 6.57873 45.766C6.70056 45.766 6.84675 45.766 6.96858 45.766C7.11477 45.766 7.2366 45.7903 7.38279 45.7903V45.4494C7.2366 45.4494 7.11477 45.425 6.99294 45.3763C6.87112 45.3276 6.77365 45.2545 6.67619 45.1571L4.09343 41.7962C4.45892 41.7231 4.8244 41.6014 5.16552 41.4065C5.50664 41.2117 5.77466 40.9681 5.99395 40.6759C6.21324 40.3836 6.3107 40.0183 6.3107 39.6043C6.3107 39.3364 6.26197 39.0441 6.11578 38.8006C5.99395 38.5327 5.7503 38.3135 5.40918 38.1674C5.06806 37.9969 4.60511 37.9238 4.02033 37.9238C3.67921 37.9238 3.36246 37.9482 3.02134 37.9482C2.68022 37.9482 2.36347 37.9482 2.02235 37.9482C1.68123 37.9482 1.36448 37.9482 1.02336 37.9482C0.706604 37.9482 0.389851 37.9238 0.073097 37.9238V38.2648L0.536044 38.2891C0.682238 38.2891 0.779701 38.3135 0.852798 38.3379C0.925895 38.3622 0.974626 38.4109 1.02336 38.4596C1.07209 38.5327 1.09645 38.6301 1.09645 38.7762C1.12082 38.9224 1.12082 39.0928 1.12082 39.312V44.4021C1.12082 44.6213 1.12082 44.7918 1.09645 44.9379C1.07209 45.084 1.04772 45.1815 1.02336 45.2545C0.998992 45.3032 0.925895 45.3519 0.852798 45.3763C0.779701 45.4007 0.682238 45.425 0.536044 45.425L0 45.4494V45.7903C0.292388 45.7903 0.584776 45.766 0.852798 45.766C1.12082 45.766 1.41321 45.766 1.68123 45.766C1.94925 45.766 2.21727 45.766 2.4853 45.766C2.75332 45.766 3.04571 45.7903 3.33809 45.7903V45.4494L2.80205 45.425C2.65586 45.425 2.55839 45.4007 2.4853 45.3763C2.4122 45.3519 2.36347 45.3032 2.31474 45.2545C2.26601 45.1815 2.24164 45.084 2.24164 44.9379C2.24164 44.7918 2.21727 44.6213 2.21727 44.4021V38.484Z" fill="#9F0555"/>
<path d="M12.0368 41.333L12.9871 43.5492C12.7922 43.5492 12.6216 43.5492 12.4754 43.5736C12.3048 43.5736 12.1343 43.5736 11.9637 43.5736C11.7932 43.5736 11.647 43.5736 11.5008 43.5736C11.3546 43.5736 11.2084 43.5736 11.0622 43.5492L12.0368 41.333ZM12.1099 40.1152L10.2338 44.2555C10.0632 44.6452 9.91701 44.9131 9.81954 45.0835C9.69772 45.254 9.57589 45.3758 9.47842 45.4245C9.3566 45.4732 9.2104 45.4976 9.06421 45.4732V45.7898C9.30787 45.7898 9.52716 45.7655 9.67335 45.7655C9.84391 45.7655 9.9901 45.7655 10.1607 45.7655C10.3556 45.7655 10.5749 45.7655 10.7698 45.7655C10.9647 45.7655 11.1597 45.7898 11.3546 45.7898V45.4732C11.0622 45.4732 10.8429 45.4489 10.7211 45.3758C10.5749 45.3271 10.5261 45.2053 10.5261 45.0592C10.5261 44.84 10.5992 44.6452 10.6723 44.4747C10.7698 44.3042 10.8429 44.1581 10.8916 44.0363C11.0866 44.0363 11.2815 44.0363 11.4764 44.012C11.6713 44.012 11.8663 44.012 12.0368 44.012C12.2317 44.012 12.4267 44.012 12.6216 44.012C12.8165 44.012 13.0114 44.0119 13.2064 44.0363C13.2795 44.2068 13.3769 44.4016 13.4988 44.6208C13.5962 44.84 13.6693 45.0348 13.6693 45.1566C13.6693 45.254 13.6206 45.3514 13.4988 45.4002C13.3769 45.4489 13.1576 45.4732 12.8165 45.4732V45.7898C13.0602 45.7898 13.3038 45.7655 13.5231 45.7655C13.7424 45.7655 13.9861 45.7655 14.2054 45.7655C14.4734 45.7655 14.717 45.7655 14.9851 45.7655C15.2531 45.7655 15.448 45.7898 15.5455 45.7898V45.4732C15.3262 45.4976 15.1556 45.4489 15.0094 45.3514C14.8632 45.254 14.6927 44.9861 14.5221 44.5965L12.5485 40.1152H12.1099Z" fill="black"/>
<path d="M19.0052 44.4759C19.0052 44.8412 18.9565 45.0848 18.8834 45.2309C18.8103 45.377 18.6641 45.4744 18.4692 45.5475V45.7667C18.6398 45.7667 18.8103 45.7667 18.9809 45.7423C19.1514 45.7423 19.3464 45.7423 19.5169 45.7423C19.7606 45.7423 19.9799 45.7423 20.2235 45.7423C20.4672 45.7423 20.7108 45.7423 20.9545 45.7423C21.7586 45.718 22.3921 45.5475 22.855 45.2065C23.318 44.8656 23.6347 44.4515 23.8296 43.9888C24.0246 43.5261 24.122 43.0633 24.0977 42.6737C24.0977 41.9187 23.854 41.3342 23.3423 40.8958C22.8306 40.4574 22.0997 40.2382 21.1007 40.2382C20.8083 40.2382 20.5403 40.2382 20.2723 40.2382C20.0042 40.2382 19.7606 40.2382 19.4926 40.2382C19.2489 40.2382 19.0052 40.2382 18.786 40.2382C18.5667 40.2382 18.323 40.2382 18.0793 40.2139V40.5305C18.4448 40.5305 18.6885 40.5792 18.8103 40.6766C18.9321 40.774 19.0052 40.9445 18.9809 41.188V44.4759H19.0052ZM20.0286 41.4803C20.0286 41.3342 20.0286 41.2124 20.0286 41.0906C20.0286 40.9689 20.0286 40.8471 20.053 40.701C20.1504 40.6766 20.2723 40.6766 20.4184 40.6522C20.5646 40.6279 20.7352 40.6279 20.9058 40.6279C21.4905 40.6279 22.0022 40.7984 22.3921 41.1637C22.7819 41.529 22.9768 42.0892 23.0012 42.8685C23.0012 43.3069 22.9281 43.6966 22.7819 44.0619C22.6357 44.4272 22.3921 44.7194 22.0753 44.9386C21.7586 45.1578 21.32 45.2796 20.7839 45.2796C20.6865 45.2796 20.589 45.2796 20.4672 45.2552C20.3454 45.2552 20.1992 45.2309 20.053 45.2309V41.4803H20.0286Z" fill="black"/>
<path d="M28.0936 44.5235C28.118 44.9132 28.0693 45.1811 27.9474 45.3029C27.8256 45.4246 27.5576 45.4733 27.119 45.4733V45.7899C27.387 45.7899 27.6307 45.7656 27.8743 45.7656C28.0936 45.7656 28.3373 45.7656 28.5809 45.7412C28.849 45.7412 29.1413 45.7412 29.4094 45.7656C29.7018 45.7656 29.9941 45.7899 30.3353 45.7899C30.6033 45.7899 30.8713 45.7899 31.1393 45.7899C31.4074 45.7899 31.651 45.7656 31.8703 45.7412C31.8947 45.522 31.919 45.2785 31.919 45.0106C31.9434 44.7427 31.9434 44.4748 31.9434 44.1826H31.651C31.6266 44.3774 31.5779 44.5479 31.5535 44.7183C31.5048 44.8888 31.4561 45.0593 31.4074 45.2054C31.2612 45.2541 31.0906 45.2785 30.8469 45.3029C30.6277 45.3272 30.384 45.3516 30.116 45.3516C29.921 45.3516 29.7505 45.3516 29.5799 45.3272C29.4094 45.3272 29.2632 45.3029 29.117 45.3029C29.0926 45.035 29.0926 44.7183 29.0926 44.353C29.0926 43.9877 29.0926 43.5737 29.0926 43.111C29.1901 43.111 29.2875 43.111 29.385 43.0866C29.4825 43.0866 29.6043 43.0866 29.7505 43.0866C30.2378 43.0866 30.5302 43.1353 30.652 43.2327C30.7738 43.3545 30.8469 43.5737 30.8226 43.9146H31.1637C31.1637 43.7442 31.1393 43.5737 31.1393 43.4032C31.1393 43.2084 31.1393 43.0379 31.1393 42.8674C31.1393 42.7213 31.1393 42.5508 31.1393 42.3803C31.1393 42.2098 31.1393 42.0637 31.1637 41.8932H30.8226C30.8226 42.2098 30.7982 42.4047 30.7007 42.5021C30.6277 42.5995 30.4327 42.6482 30.1891 42.6482C29.9454 42.6482 29.7261 42.6482 29.5556 42.6482C29.385 42.6482 29.2388 42.6482 29.117 42.6239C29.117 42.2829 29.117 41.9419 29.117 41.601C29.117 41.26 29.117 40.9434 29.1413 40.6268C29.2388 40.6024 29.3606 40.6024 29.4825 40.5781C29.6043 40.5537 29.7261 40.5537 29.8723 40.5537C30.1403 40.5537 30.4084 40.5537 30.6764 40.5781C30.9444 40.6024 31.1881 40.6268 31.4074 40.6755C31.4317 40.7973 31.4561 40.9191 31.4804 41.0652C31.5048 41.2113 31.5048 41.3818 31.5292 41.601H31.8459C31.8459 41.3331 31.8703 41.0895 31.8947 40.8703C31.919 40.6512 31.9434 40.432 31.9678 40.2615C31.7728 40.2371 31.5535 40.2128 31.3099 40.1884C31.0662 40.1641 30.8226 40.1641 30.5789 40.1641C30.384 40.1641 30.1647 40.1641 29.9698 40.1884C29.7505 40.1884 29.5556 40.2128 29.3606 40.2128C29.1657 40.2371 28.9464 40.2371 28.7515 40.2371C28.5566 40.2371 28.3373 40.2615 28.118 40.2615C27.9231 40.2615 27.7281 40.2615 27.5576 40.2371C27.387 40.2371 27.2165 40.2128 27.0459 40.2128V40.505C27.4601 40.4807 27.7525 40.5294 27.8987 40.6268C28.0449 40.7242 28.118 40.9434 28.118 41.3087V44.5235H28.0936Z" fill="black"/>
<path d="M36.6216 44.5489C36.6216 44.8899 36.5973 45.1091 36.5242 45.2552C36.4511 45.377 36.3049 45.4987 36.0612 45.5718V45.791C36.2074 45.791 36.378 45.7666 36.5485 45.7666C36.7191 45.7666 36.8653 45.7666 37.0115 45.7666C37.2308 45.7666 37.4744 45.7666 37.7181 45.7666C37.9618 45.7666 38.2054 45.7666 38.4491 45.7666C39.0826 45.7666 39.6186 45.6205 40.0328 45.3039C40.4471 44.9873 40.6663 44.5246 40.6663 43.8913C40.6663 43.526 40.5202 43.2338 40.2278 42.9902C39.9354 42.7467 39.5455 42.6249 39.0338 42.6005V42.5762C39.4481 42.5275 39.7892 42.4057 40.0085 42.1622C40.2521 41.9186 40.3496 41.6507 40.3496 41.3098C40.3496 40.9444 40.2278 40.6765 39.9597 40.4817C39.6917 40.3112 39.3019 40.2138 38.7658 40.2138C38.4491 40.2138 38.1567 40.2138 37.8643 40.2138C37.5963 40.2138 37.3039 40.2138 37.0115 40.2138C36.7435 40.2138 36.4998 40.2138 36.2805 40.2138C36.0612 40.2138 35.8419 40.2138 35.6714 40.1895V40.5061C36.0125 40.5061 36.2562 40.5304 36.378 40.6035C36.5242 40.6765 36.5729 40.7983 36.5729 41.0175V44.5489H36.6216ZM37.645 40.6522C37.7425 40.6522 37.8399 40.6278 37.913 40.6278C37.9861 40.6278 38.0836 40.6035 38.181 40.6035C38.5465 40.6035 38.8146 40.6765 39.0338 40.8227C39.2288 40.9688 39.3262 41.2123 39.3262 41.5533C39.3262 41.8699 39.2288 42.0891 39.0582 42.2352C38.8877 42.3814 38.6684 42.4544 38.4003 42.4788C38.1323 42.5031 37.8887 42.5275 37.645 42.5031V40.6522ZM37.645 42.9172C37.7181 42.8928 37.7668 42.8928 37.8399 42.8928C37.913 42.8928 37.9861 42.8684 38.0592 42.8684C38.5709 42.8684 38.9364 42.9659 39.18 43.1851C39.4237 43.3799 39.5455 43.6965 39.5455 44.0862C39.5455 44.281 39.4968 44.4758 39.4237 44.6707C39.3506 44.8655 39.2044 45.036 38.9851 45.1821C38.7902 45.3282 38.4978 45.377 38.1567 45.4013C38.0349 45.4013 37.9374 45.4013 37.8643 45.377C37.7912 45.377 37.7181 45.3526 37.645 45.3526V42.9172Z" fill="black"/>
<path d="M45.3444 44.5235C45.3688 44.9132 45.32 45.1811 45.1982 45.3029C45.0764 45.4246 44.8084 45.4733 44.3698 45.4733V45.7899C44.6378 45.7899 44.8815 45.7656 45.1251 45.7656C45.3444 45.7656 45.5881 45.7656 45.8317 45.7412C46.0997 45.7412 46.3921 45.7412 46.6601 45.7656C46.9525 45.7656 47.2449 45.7899 47.586 45.7899C47.8541 45.7899 48.1221 45.7899 48.3901 45.7899C48.6581 45.7899 48.9018 45.7656 49.1211 45.7412C49.1454 45.522 49.1698 45.2785 49.1698 45.0106C49.1942 44.7427 49.1942 44.4748 49.1942 44.1826H48.9262C48.9018 44.3774 48.8531 44.5479 48.8287 44.7183C48.78 44.8888 48.7312 45.0593 48.6825 45.2054C48.5363 45.2541 48.3657 45.2785 48.1221 45.3029C47.9028 45.3272 47.6591 45.3516 47.3911 45.3516C47.1962 45.3516 47.0256 45.3516 46.8551 45.3272C46.6845 45.3272 46.5383 45.3029 46.3921 45.3029C46.3678 45.035 46.3678 44.7183 46.3678 44.353C46.3678 43.9877 46.3678 43.5737 46.3678 43.111C46.4652 43.111 46.5627 43.111 46.6601 43.0866C46.7576 43.0866 46.8794 43.0866 47.0256 43.0866C47.5129 43.0866 47.8053 43.1353 47.9272 43.2327C48.049 43.3545 48.1221 43.5737 48.0977 43.9146H48.4388C48.4388 43.7442 48.4388 43.5737 48.4145 43.4032C48.4145 43.2084 48.4145 43.0379 48.4145 42.8674C48.4145 42.7213 48.4145 42.5508 48.4145 42.3803C48.4145 42.2098 48.4145 42.0637 48.4388 41.8932H48.0977C48.0977 42.2098 48.0734 42.4047 47.9759 42.5021C47.9028 42.5995 47.7322 42.6482 47.4642 42.6482C47.1962 42.6482 47.0013 42.6482 46.8307 42.6482C46.6601 42.6482 46.514 42.6482 46.3921 42.6239C46.3921 42.2829 46.3921 41.9419 46.3921 41.601C46.3921 41.26 46.3921 40.9434 46.4165 40.6268C46.514 40.6024 46.6358 40.6024 46.7576 40.5781C46.8794 40.5537 47.0013 40.5537 47.1475 40.5537C47.4155 40.5537 47.6835 40.5537 47.9515 40.5781C48.2195 40.6024 48.4632 40.6268 48.6825 40.6755C48.7069 40.7973 48.7312 40.9191 48.7556 41.0652C48.78 41.2113 48.78 41.3818 48.8043 41.601H49.1211C49.1454 41.3331 49.1454 41.0895 49.1698 40.8703C49.1942 40.6512 49.2185 40.432 49.2429 40.2615C49.048 40.2371 48.8287 40.2128 48.585 40.1884C48.3414 40.1641 48.0977 40.1641 47.8541 40.1641C47.6591 40.1641 47.4398 40.1641 47.2449 40.1884C47.05 40.1884 46.8307 40.2128 46.6358 40.2128C46.4409 40.2371 46.2216 40.2371 46.0266 40.2371C45.8317 40.2371 45.6124 40.2615 45.3931 40.2615C45.1982 40.2615 45.0033 40.2615 44.8327 40.2371C44.6622 40.2371 44.4916 40.2128 44.321 40.2128V40.505C44.7353 40.4807 45.0276 40.5294 45.1738 40.6268C45.32 40.7242 45.3931 40.9434 45.3688 41.3087V44.5235H45.3444Z" fill="black"/>
<path d="M52.9222 45.791C53.1902 45.791 53.4339 45.7667 53.7019 45.7667C53.9456 45.7667 54.2136 45.7667 54.4573 45.7423C54.8715 45.7423 55.1882 45.7423 55.4075 45.7667C55.6268 45.7667 55.8217 45.791 55.9436 45.791V45.4744C55.5293 45.4744 55.2613 45.4501 55.1151 45.4014C54.9933 45.3283 54.9202 45.1822 54.9446 44.9143V40.7253C55.042 40.6766 55.1639 40.6522 55.2857 40.6279C55.4075 40.6035 55.5293 40.6035 55.6755 40.6035C56.0898 40.6035 56.3821 40.6766 56.5771 40.8714C56.772 41.0419 56.8695 41.3098 56.8695 41.6751C56.8695 42.0161 56.7476 42.3084 56.5283 42.5275C56.309 42.7467 56.0167 42.8442 55.6755 42.8685C55.6024 42.8685 55.5293 42.8685 55.4562 42.8685C55.3831 42.8685 55.3344 42.8685 55.2613 42.8442L55.2126 43.0146L57.4786 45.7667H58.8918V45.4744C58.7212 45.4744 58.5994 45.4501 58.502 45.4014C58.4045 45.3527 58.307 45.2552 58.2096 45.1091L56.4796 42.9903C56.6745 42.9172 56.8695 42.8442 57.1131 42.7467C57.3568 42.6493 57.5517 42.4788 57.7223 42.284C57.8928 42.0892 57.9903 41.8213 57.9903 41.4559C57.9903 40.9932 57.8197 40.6766 57.4786 40.4818C57.1618 40.3113 56.7476 40.2139 56.2116 40.2139C55.9192 40.2139 55.6024 40.2139 55.2857 40.2382C54.9689 40.2382 54.6522 40.2626 54.3598 40.2626C54.0918 40.2626 53.8237 40.2626 53.5801 40.2382C53.3364 40.2382 53.0928 40.2139 52.8491 40.2139V40.5305C53.3121 40.5305 53.5801 40.5548 53.7019 40.6522C53.8237 40.7497 53.8725 40.9201 53.8725 41.2124V44.7682C53.8725 45.0848 53.8237 45.2796 53.6776 45.377C53.5314 45.4501 53.2633 45.4744 52.8491 45.4744V45.791H52.9222Z" fill="black"/>
<path d="M66.9813 41.7958L67.1762 40.505C66.8838 40.4075 66.5427 40.3345 66.2016 40.2614C65.8605 40.1884 65.4706 40.1396 65.0564 40.1396C64.3742 40.1396 63.7894 40.2858 63.3021 40.578C62.8148 40.8459 62.4249 41.2112 62.1569 41.674C61.8889 42.1124 61.767 42.5994 61.7427 43.1109C61.7427 43.6223 61.8889 44.0851 62.1569 44.5235C62.4249 44.9618 62.7904 45.3028 63.2533 45.5463C63.7163 45.8142 64.2523 45.936 64.8371 45.936C65.1782 45.936 65.5437 45.9117 65.9336 45.8386C66.3234 45.7655 66.7376 45.6681 67.1518 45.4976C67.1518 45.3515 67.1275 45.1323 67.1275 44.8644C67.1275 44.5965 67.1275 44.3043 67.1275 43.9877L67.4442 43.8172V43.5493C67.3711 43.5493 67.2737 43.5493 67.1518 43.5736C67.03 43.5736 66.9082 43.5736 66.7376 43.5736C66.5427 43.5736 66.3234 43.5736 66.1041 43.5736C65.8605 43.5736 65.5925 43.5736 65.3001 43.5736V43.8415C65.6412 43.8415 65.8848 43.8659 66.0067 43.9389C66.1285 43.9877 66.2016 44.1094 66.1772 44.3043C66.1772 44.4504 66.1772 44.6209 66.1772 44.7914C66.1772 44.9618 66.1772 45.1323 66.1529 45.2784C66.0554 45.3515 65.9092 45.4002 65.7386 45.4489C65.5681 45.4976 65.3488 45.522 65.0564 45.522C64.8371 45.522 64.5691 45.4733 64.2523 45.3515C63.9356 45.2297 63.6188 44.9862 63.3752 44.6209C63.1071 44.2556 62.9853 43.7198 62.961 43.0135C62.961 42.3072 63.1315 41.747 63.4726 41.2843C63.8138 40.8216 64.3254 40.6024 65.032 40.6024C65.2757 40.6024 65.5194 40.6267 65.763 40.6754C66.0067 40.7242 66.2016 40.7972 66.3722 40.8946C66.5427 40.9921 66.6402 41.1138 66.6402 41.2843L66.6645 41.8201L66.9813 41.7958Z" fill="black"/>
<path d="M71.6838 44.5235C71.7081 44.9132 71.6594 45.1811 71.5376 45.3029C71.4157 45.4246 71.1477 45.4733 70.7091 45.4733V45.7899C70.9771 45.7899 71.2208 45.7656 71.4645 45.7656C71.6838 45.7656 71.9274 45.7656 72.1711 45.7412C72.4391 45.7412 72.7315 45.7412 72.9995 45.7656C73.2919 45.7656 73.5843 45.7899 73.9254 45.7899C74.1934 45.7899 74.4614 45.7899 74.7295 45.7899C74.9975 45.7899 75.2411 45.7656 75.4604 45.7412C75.4848 45.522 75.5092 45.2785 75.5092 45.0106C75.5335 44.7427 75.5335 44.4748 75.5335 44.1826H75.2411C75.2168 44.3774 75.168 44.5479 75.1437 44.7183C75.0949 44.8888 75.0462 45.0593 74.9975 45.2054C74.8513 45.2541 74.6807 45.2785 74.4371 45.3029C74.2178 45.3272 73.9741 45.3516 73.7061 45.3516C73.5112 45.3516 73.3406 45.3516 73.1701 45.3272C72.9995 45.3272 72.8533 45.3029 72.7071 45.3029C72.6827 45.035 72.6827 44.7183 72.6827 44.353C72.6827 43.9877 72.6827 43.5737 72.6827 43.111C72.7802 43.111 72.8777 43.111 72.9751 43.0866C73.0726 43.0866 73.1944 43.0866 73.3406 43.0866C73.8279 43.0866 74.1203 43.1353 74.2421 43.2327C74.364 43.3545 74.4371 43.5737 74.4127 43.9146H74.7538C74.7538 43.7442 74.7295 43.5737 74.7295 43.4032C74.7295 43.2084 74.7295 43.0379 74.7295 42.8674C74.7295 42.7213 74.7295 42.5508 74.7295 42.3803C74.7295 42.2098 74.7295 42.0637 74.7538 41.8932H74.4127C74.4127 42.2098 74.3883 42.4047 74.2909 42.5021C74.2178 42.5995 74.0229 42.6482 73.7792 42.6482C73.5112 42.6482 73.3163 42.6482 73.1457 42.6482C72.9751 42.6482 72.8289 42.6482 72.7071 42.6239C72.7071 42.2829 72.7071 41.9419 72.7071 41.601C72.7071 41.26 72.7071 40.9434 72.7315 40.6268C72.8289 40.6024 72.9508 40.6024 73.0726 40.5781C73.1944 40.5537 73.3163 40.5537 73.4625 40.5537C73.7305 40.5537 73.9985 40.5537 74.2665 40.5781C74.5345 40.6024 74.7782 40.6268 74.9975 40.6755C75.0219 40.7973 75.0462 40.9191 75.0706 41.0652C75.0949 41.2113 75.0949 41.3818 75.1193 41.601H75.4361C75.4361 41.3331 75.4604 41.0895 75.4848 40.8703C75.5092 40.6512 75.5335 40.432 75.5823 40.2615C75.3873 40.2371 75.168 40.2128 74.9244 40.1884C74.6807 40.1641 74.4371 40.1641 74.1934 40.1641C73.9985 40.1641 73.7792 40.1641 73.5843 40.1884C73.365 40.1884 73.1701 40.2128 72.9751 40.2128C72.7802 40.2371 72.5609 40.2371 72.366 40.2371C72.1711 40.2371 71.9518 40.2615 71.7325 40.2615C71.5376 40.2615 71.3426 40.2615 71.1721 40.2371C71.0015 40.2371 70.831 40.2128 70.6604 40.2128V40.505C71.0746 40.4807 71.367 40.5294 71.5132 40.6268C71.6594 40.7242 71.7325 40.9434 71.7325 41.3087V44.5235H71.6838Z" fill="black"/>
<path d="M79.1639 45.791C79.4319 45.791 79.6756 45.7667 79.9436 45.7667C80.1873 45.7667 80.4553 45.7667 80.699 45.7423C81.1132 45.7423 81.4299 45.7423 81.6492 45.7667C81.8685 45.7667 82.0634 45.791 82.1853 45.791V45.4744C81.771 45.4744 81.503 45.4501 81.3568 45.4014C81.235 45.3283 81.1619 45.1822 81.1863 44.9143V40.7253C81.2837 40.6766 81.4056 40.6522 81.5274 40.6279C81.6492 40.6035 81.771 40.6035 81.9172 40.6035C82.3315 40.6035 82.6238 40.6766 82.8188 40.8714C83.0137 41.0419 83.1112 41.3098 83.1112 41.6751C83.1112 42.0161 82.9893 42.3084 82.77 42.5275C82.5507 42.7467 82.2584 42.8442 81.9172 42.8685C81.8441 42.8685 81.771 42.8685 81.6979 42.8685C81.6249 42.8685 81.5761 42.8685 81.503 42.8442L81.4543 43.0146L83.7203 45.7667H85.1335V45.4744C84.9629 45.4744 84.8411 45.4501 84.7437 45.4014C84.6462 45.3527 84.5487 45.2552 84.4513 45.1091L82.7213 42.9903C82.9162 42.9172 83.1355 42.8442 83.3548 42.7467C83.5985 42.6493 83.7934 42.4788 83.964 42.284C84.1345 42.0892 84.232 41.8213 84.232 41.4559C84.232 40.9932 84.0614 40.6766 83.7203 40.4818C83.4035 40.3113 82.9893 40.2139 82.4533 40.2139C82.1609 40.2139 81.8441 40.2139 81.5274 40.2382C81.2106 40.2382 80.8939 40.2626 80.6015 40.2626C80.3335 40.2626 80.0654 40.2626 79.8218 40.2382C79.5781 40.2382 79.3345 40.2139 79.0908 40.2139V40.5305C79.5294 40.5305 79.8218 40.5548 79.9436 40.6522C80.0654 40.7497 80.1142 40.9201 80.1142 41.2124V44.7682C80.1142 45.0848 80.0655 45.2796 79.9193 45.377C79.7731 45.4501 79.505 45.4744 79.0908 45.4744V45.791H79.1639Z" fill="black"/>
<path d="M100.24 44.646C100.24 44.7922 100.24 44.8896 100.24 44.9383C100.24 44.987 100.216 45.0601 100.192 45.1088C100.143 45.2062 99.9966 45.3036 99.7043 45.3767C99.4119 45.4497 99.0464 45.4984 98.6078 45.4984C97.8281 45.4984 97.1702 45.328 96.6342 44.987C96.0981 44.646 95.6839 44.2077 95.3915 43.6232C95.0991 43.0386 94.9773 42.3811 94.9529 41.6261C94.9529 40.6032 95.221 39.7751 95.7814 39.1419C96.3418 38.5087 97.1459 38.1921 98.2423 38.1678C98.6078 38.1678 98.9246 38.1921 99.1682 38.2165C99.4362 38.2408 99.6312 38.3139 99.8261 38.3626C100.094 38.46 100.313 38.5574 100.508 38.6792C100.703 38.801 100.776 38.9958 100.776 39.2637V39.8726H101.117C101.117 39.5803 101.142 39.2881 101.191 38.9958C101.239 38.7036 101.288 38.4113 101.361 38.1434C101.093 38.0703 100.752 37.9729 100.289 37.8511C99.8261 37.7537 99.2413 37.6807 98.5591 37.6807C97.6332 37.6807 96.8291 37.8511 96.0981 38.1921C95.3915 38.5331 94.8068 38.9958 94.3925 39.6047C93.9783 40.2135 93.759 40.9442 93.759 41.7722C93.759 42.722 93.9783 43.5014 94.3925 44.1102C94.8068 44.7191 95.3428 45.1818 96.025 45.4741C96.7073 45.7664 97.487 45.9125 98.3398 45.9125C98.754 45.9125 99.2169 45.8394 99.753 45.742C100.289 45.6202 100.825 45.4985 101.312 45.3523V43.4527C101.312 43.2822 101.312 43.1848 101.337 43.1361C101.361 43.0874 101.385 43.0387 101.434 43.0387L101.775 42.9169L101.727 42.6246C101.264 42.649 100.801 42.649 100.338 42.649C100.118 42.649 99.8748 42.649 99.6555 42.649C99.4119 42.649 99.1926 42.649 98.9489 42.6246V42.9656L99.8992 43.0387C100.045 43.0387 100.143 43.0874 100.216 43.1361C100.265 43.2091 100.289 43.3065 100.289 43.4283V44.646H100.24Z" fill="#9F0555"/>
<path d="M104.699 45.791C104.967 45.791 105.211 45.7667 105.479 45.7667C105.722 45.7667 105.99 45.7667 106.234 45.7423C106.648 45.7423 106.965 45.7423 107.184 45.7667C107.404 45.7667 107.599 45.791 107.72 45.791V45.4744C107.306 45.4744 107.038 45.4501 106.892 45.4014C106.77 45.3283 106.697 45.1822 106.721 44.9143V40.7253C106.819 40.6766 106.941 40.6522 107.063 40.6279C107.184 40.6035 107.306 40.6035 107.452 40.6035C107.867 40.6035 108.159 40.6766 108.354 40.8714C108.549 41.0663 108.646 41.3098 108.646 41.6751C108.646 42.0161 108.524 42.3084 108.305 42.5275C108.086 42.7467 107.794 42.8442 107.452 42.8685C107.379 42.8685 107.306 42.8685 107.233 42.8685C107.16 42.8685 107.111 42.8685 107.038 42.8442L106.989 43.0146L109.255 45.7667H110.669V45.4744C110.498 45.4744 110.376 45.4501 110.279 45.4014C110.181 45.3527 110.084 45.2552 109.986 45.1091L108.256 42.9903C108.451 42.9172 108.671 42.8442 108.89 42.7467C109.134 42.6493 109.329 42.4788 109.499 42.284C109.67 42.0892 109.767 41.8213 109.767 41.4559C109.767 40.9932 109.597 40.6766 109.255 40.4818C108.939 40.3113 108.524 40.2139 107.988 40.2139C107.696 40.2139 107.379 40.2139 107.063 40.2382C106.746 40.2382 106.429 40.2626 106.137 40.2626C105.869 40.2626 105.601 40.2626 105.357 40.2382C105.113 40.2382 104.87 40.2139 104.626 40.2139V40.5305C105.065 40.5305 105.357 40.5548 105.479 40.6522C105.601 40.7497 105.649 40.9201 105.649 41.2124V44.7682C105.649 45.0848 105.601 45.2796 105.454 45.377C105.308 45.4501 105.04 45.4744 104.626 45.4744V45.791H104.699Z" fill="black"/>
<path d="M115.542 41.0177C115.542 40.8472 115.591 40.7254 115.713 40.6767C115.834 40.6037 116.054 40.555 116.419 40.555V40.2627C116.102 40.2627 115.834 40.2871 115.615 40.2871C115.396 40.2871 115.201 40.3114 115.03 40.3114C114.787 40.3114 114.543 40.3114 114.299 40.2871C114.056 40.2871 113.812 40.2627 113.568 40.2627V40.5793C113.885 40.5793 114.129 40.6037 114.299 40.6767C114.446 40.7498 114.543 40.8959 114.519 41.1395V43.7941C114.519 44.2568 114.567 44.6465 114.714 44.9631C114.835 45.2797 115.079 45.5233 115.396 45.6937C115.737 45.8642 116.2 45.9373 116.833 45.9373C117.467 45.9373 117.93 45.8155 118.271 45.6207C118.588 45.4015 118.807 45.1336 118.929 44.7926C119.051 44.4517 119.099 44.0863 119.075 43.6967V41.2612C119.075 40.969 119.124 40.7741 119.246 40.7011C119.367 40.6037 119.635 40.5793 120.025 40.5793V40.2627C119.879 40.2627 119.709 40.2871 119.514 40.2871C119.319 40.2871 119.099 40.3114 118.856 40.3114C118.661 40.3114 118.466 40.3114 118.247 40.2871C118.052 40.2871 117.832 40.2627 117.637 40.2627V40.5793C118.052 40.5793 118.344 40.6037 118.441 40.7011C118.563 40.7985 118.612 40.9933 118.588 41.3099V43.7697C118.588 44.3542 118.441 44.7439 118.173 45.0118C117.905 45.2554 117.54 45.3771 117.028 45.3771C116.444 45.3771 116.054 45.231 115.834 44.9631C115.615 44.6952 115.493 44.3055 115.518 43.8184V41.0177H115.542Z" fill="black"/>
<path d="M124.289 44.7914C124.289 45.0593 124.241 45.2297 124.094 45.3272C123.948 45.4246 123.68 45.4733 123.266 45.4733V45.7899C123.534 45.7899 123.778 45.7655 124.046 45.7655C124.289 45.7655 124.557 45.7655 124.801 45.7655C125.215 45.7655 125.532 45.7655 125.751 45.7655C125.995 45.7655 126.165 45.7899 126.287 45.7899V45.4733C125.873 45.4489 125.605 45.4002 125.459 45.3028C125.337 45.2054 125.264 45.0349 125.288 44.767V40.6998C125.386 40.6754 125.483 40.6267 125.605 40.6024C125.727 40.578 125.849 40.5537 125.995 40.5537C126.336 40.5537 126.628 40.6511 126.872 40.8459C127.091 41.0408 127.213 41.3087 127.237 41.6496C127.237 42.0149 127.14 42.2828 126.969 42.502C126.799 42.7212 126.507 42.8186 126.117 42.8186C126.044 42.8186 125.97 42.8186 125.922 42.7943C125.849 42.7699 125.8 42.7456 125.751 42.7212L125.824 43.0622C125.873 43.0865 125.946 43.1109 126.044 43.1352C126.141 43.1596 126.238 43.1596 126.336 43.1596C126.799 43.1596 127.164 43.0622 127.457 42.8917C127.749 42.7212 127.968 42.5264 128.115 42.2585C128.261 42.0149 128.334 41.747 128.334 41.5035C128.358 41.1138 128.212 40.7972 127.944 40.5293C127.676 40.2858 127.164 40.1396 126.409 40.1396C126.263 40.1396 126.117 40.1396 125.97 40.164C125.824 40.164 125.678 40.1884 125.532 40.1884C125.386 40.1884 125.239 40.2127 125.118 40.2127C124.971 40.2127 124.825 40.2371 124.679 40.2371C124.435 40.2371 124.192 40.2371 123.924 40.2127C123.656 40.2127 123.461 40.1884 123.29 40.1884V40.505C123.753 40.505 124.021 40.5293 124.143 40.6267C124.265 40.7242 124.314 40.8946 124.314 41.1869V44.7914H124.289Z" fill="black"/>
<path d="M132.695 44.7914C132.695 45.0593 132.647 45.2297 132.5 45.3272C132.354 45.4246 132.086 45.4733 131.672 45.4733V45.7899C131.94 45.7899 132.184 45.7655 132.452 45.7655C132.695 45.7655 132.963 45.7655 133.207 45.7655C133.621 45.7655 133.938 45.7655 134.157 45.7655C134.376 45.7655 134.571 45.7899 134.693 45.7899V45.4733C134.279 45.4489 133.987 45.4002 133.865 45.3028C133.743 45.2054 133.67 45.0349 133.694 44.767V40.6998C133.792 40.6754 133.889 40.6267 134.011 40.6024C134.133 40.578 134.255 40.5537 134.401 40.5537C134.742 40.5537 135.034 40.6511 135.278 40.8459C135.497 41.0408 135.619 41.3087 135.643 41.6496C135.643 42.0149 135.546 42.2828 135.375 42.502C135.205 42.7212 134.913 42.8186 134.498 42.8186C134.425 42.8186 134.376 42.8186 134.303 42.7943C134.23 42.7699 134.182 42.7456 134.133 42.7212L134.206 43.0622C134.255 43.0865 134.328 43.1109 134.425 43.1352C134.523 43.1596 134.62 43.1596 134.718 43.1596C135.181 43.1596 135.546 43.0622 135.838 42.8917C136.131 42.7212 136.35 42.5264 136.496 42.2585C136.642 42.0149 136.716 41.747 136.716 41.5035C136.74 41.1138 136.594 40.7972 136.326 40.5293C136.058 40.2858 135.546 40.1396 134.791 40.1396C134.644 40.1396 134.498 40.1396 134.352 40.164C134.206 40.164 134.06 40.1884 133.914 40.1884C133.767 40.1884 133.621 40.2127 133.499 40.2127C133.353 40.2127 133.207 40.2371 133.061 40.2371C132.817 40.2371 132.573 40.2371 132.305 40.2127C132.037 40.2127 131.842 40.1884 131.672 40.1884V40.505C132.11 40.505 132.403 40.5293 132.525 40.6267C132.647 40.7242 132.695 40.8946 132.695 41.1869V44.7914Z" fill="black"/>
<path d="M141.101 44.5235C141.126 44.9132 141.077 45.1811 140.955 45.3029C140.833 45.4246 140.565 45.4733 140.127 45.4733V45.7899C140.395 45.7899 140.639 45.7656 140.882 45.7656C141.101 45.7656 141.345 45.7656 141.589 45.7412C141.857 45.7412 142.149 45.7412 142.417 45.7656C142.71 45.7656 143.002 45.7899 143.343 45.7899C143.611 45.7899 143.879 45.7899 144.147 45.7899C144.415 45.7899 144.659 45.7656 144.878 45.7412C144.903 45.522 144.927 45.2785 144.927 45.0106C144.951 44.7427 144.951 44.4748 144.951 44.1826H144.683C144.659 44.3774 144.61 44.5479 144.586 44.7183C144.537 44.8888 144.488 45.0593 144.44 45.2054C144.293 45.2541 144.123 45.2785 143.879 45.3029C143.66 45.3272 143.416 45.3516 143.148 45.3516C142.953 45.3516 142.783 45.3516 142.612 45.3272C142.442 45.3272 142.295 45.3029 142.149 45.3029C142.125 45.035 142.125 44.7183 142.125 44.353C142.125 43.9877 142.125 43.5737 142.125 43.111C142.222 43.111 142.32 43.111 142.417 43.0866C142.515 43.0866 142.637 43.0866 142.783 43.0866C143.27 43.0866 143.562 43.1353 143.684 43.2327C143.806 43.3545 143.879 43.5737 143.855 43.9146H144.196C144.196 43.7442 144.172 43.5737 144.172 43.4032C144.172 43.2084 144.172 43.0379 144.172 42.8674C144.172 42.7213 144.172 42.5508 144.172 42.3803C144.172 42.2098 144.172 42.0637 144.196 41.8932H143.855C143.855 42.2098 143.83 42.4047 143.733 42.5021C143.66 42.5995 143.465 42.6482 143.221 42.6482C142.953 42.6482 142.758 42.6482 142.588 42.6482C142.417 42.6482 142.271 42.6482 142.149 42.6239C142.149 42.2829 142.149 41.9419 142.149 41.601C142.149 41.26 142.149 40.9434 142.174 40.6268C142.271 40.6024 142.393 40.6024 142.515 40.5781C142.637 40.5537 142.758 40.5537 142.905 40.5537C143.173 40.5537 143.441 40.5537 143.709 40.5781C143.977 40.6024 144.22 40.6268 144.44 40.6755C144.464 40.7973 144.488 40.9191 144.513 41.0652C144.537 41.2113 144.537 41.3818 144.561 41.601H144.878C144.878 41.3331 144.903 41.0895 144.927 40.8703C144.951 40.6512 144.976 40.432 145 40.2615C144.805 40.2371 144.586 40.2128 144.342 40.1884C144.098 40.1641 143.855 40.1641 143.611 40.1641C143.416 40.1641 143.197 40.1641 143.002 40.1884C142.783 40.1884 142.588 40.2128 142.393 40.2128C142.198 40.2371 141.979 40.2371 141.784 40.2371C141.589 40.2371 141.37 40.2615 141.15 40.2615C140.955 40.2615 140.76 40.2615 140.59 40.2371C140.419 40.2371 140.249 40.2128 140.078 40.2128V40.505C140.492 40.4807 140.785 40.5294 140.931 40.6268C141.077 40.7242 141.15 40.9434 141.15 41.3087V44.5235H141.101Z" fill="black"/>
<path d="M4.60522 33.37C4.60522 33.37 6.0428 31.9574 6.0428 31.9818C6.57884 32.2497 7.84586 32.7855 9.84384 32.9559C12.987 33.4187 58.2828 33.0777 58.2828 33.0777V33.37C58.2828 33.37 4.62959 33.37 4.60522 33.37Z" fill="#87888A"/>
<path d="M140.395 33.37C140.395 33.37 138.957 31.9574 138.957 31.9818C138.421 32.2497 137.154 32.7855 135.156 32.9559C132.013 33.4187 86.7173 33.0777 86.7173 33.0777V33.37C86.7173 33.37 140.37 33.37 140.395 33.37Z" fill="#87888A"/>
<path d="M79.0178 18.6592C79.5782 18.6592 80.4066 18.854 80.8939 19.0732C82.4046 19.7064 83.1355 20.9241 83.1355 22.0688C83.1355 23.9685 81.5274 25.5515 79.2614 26.0142C79.2127 26.0142 79.1396 26.0386 79.0908 26.0629C79.7487 26.9153 80.4066 27.7678 81.0645 28.6445C81.9904 29.8379 82.8919 31.0556 83.8178 32.2246C83.8665 32.2977 83.964 32.3951 84.0371 32.4438C84.3295 32.6874 84.7437 32.7361 85.0604 32.7604C85.0848 32.7848 85.0848 32.8091 85.0604 33.3449H83.1112L82.1853 33.3693C81.7467 32.8091 81.3081 32.2246 80.8939 31.6401C80.5284 31.1287 80.1142 30.6172 79.7244 30.1058C79.4807 29.7892 79.2127 29.4239 78.969 29.0829C78.6523 28.6445 78.3112 28.2061 77.97 27.7434C77.702 27.3781 77.0198 26.4039 76.9223 26.4039C76.6299 26.4039 76.167 27.0128 76.1182 27.232C76.0695 27.4268 75.9964 27.7678 75.9964 27.9626C75.9964 28.5227 76.2157 29.229 76.8736 29.6674C75.6066 29.4482 75.2654 28.6445 75.2654 27.7678C75.2654 27.2076 75.436 26.5744 76.0939 26.1116C76.0695 26.1116 76.0939 26.1116 76.0451 26.1116C75.9964 26.1116 75.8502 26.136 75.7528 26.1604C75.6797 26.1604 75.6066 26.2091 75.5335 26.2091C75.0218 26.2821 74.5832 27.0615 74.4857 27.4511C74.4614 27.305 74.437 27.0615 74.437 27.0371C74.437 26.136 74.9731 25.5515 76.0939 25.4054C75.8259 25.0644 75.6797 24.6991 75.6797 24.3581C75.6797 23.7006 76.2157 23.2622 76.8005 23.2622C76.8492 23.2622 76.971 23.2865 77.0441 23.2865C77.2147 23.2622 77.7995 23.7249 77.7995 23.9685V24.0415C77.5071 23.7493 77.2878 23.6518 77.0441 23.6518C76.5568 23.6518 76.4594 24.1146 76.4594 24.3581C76.4594 24.8452 76.8492 25.4054 77.4584 25.4784C77.5802 25.4784 77.8238 25.5028 77.8482 25.5028C79.6756 25.5028 81.0645 24.1389 81.0645 22.5559C81.0645 22.5072 81.0645 22.4098 81.0401 22.2149C81.0157 22.0445 80.9914 21.874 80.9426 21.6791C80.9183 21.5574 80.8452 21.3869 80.7964 21.2408C80.4066 20.2666 79.2858 19.8282 78.5548 19.7551C78.4573 19.7551 78.2868 19.7064 78.238 19.7064H77.3853C77.3365 19.7064 77.2634 19.7308 77.2147 19.7308C76.5081 19.8282 75.7528 19.9987 75.0462 20.5832C75.0462 20.5345 75.0705 20.4858 75.0705 20.4614C75.3873 19.9743 75.8015 19.3168 76.3132 19.1706C76.3619 19.1463 76.4106 19.1219 76.4594 19.0976C76.6543 18.9758 77.7751 18.6592 78.1406 18.6592H79.0178Z" fill="#C9AB37"/>
<path d="M79.0178 18.6592C79.5782 18.6592 80.4066 18.854 80.8939 19.0732C82.4046 19.7064 83.1355 20.9241 83.1355 22.0688C83.1355 23.9685 81.5274 25.5515 79.2614 26.0142C79.2127 26.0142 79.1396 26.0386 79.0908 26.0629C79.7487 26.9153 80.4066 27.7678 81.0645 28.6445C81.9904 29.8379 82.8919 31.0556 83.8178 32.2246C83.8665 32.2977 83.964 32.3951 84.0371 32.4438C84.3295 32.6874 84.7437 32.7361 85.0604 32.7604C85.0848 32.7848 85.0848 32.8091 85.0604 33.3449H83.1112L82.1853 33.3693C81.7467 32.8091 81.3081 32.2246 80.8939 31.6401C80.5284 31.1287 80.1142 30.6172 79.7244 30.1058C79.4807 29.7892 79.2127 29.4239 78.969 29.0829C78.6523 28.6445 78.3112 28.2061 77.97 27.7434C77.702 27.3781 77.0198 26.4039 76.9223 26.4039C76.6299 26.4039 76.167 27.0128 76.1182 27.232C76.0695 27.4268 75.9964 27.7678 75.9964 27.9626C75.9964 28.5227 76.2157 29.229 76.8736 29.6674C75.6066 29.4482 75.2654 28.6445 75.2654 27.7678C75.2654 27.2076 75.436 26.5744 76.0939 26.1116C76.0695 26.1116 76.0939 26.1116 76.0451 26.1116C75.9964 26.1116 75.8502 26.136 75.7528 26.1604C75.6797 26.1604 75.6066 26.2091 75.5335 26.2091C75.0218 26.2821 74.5832 27.0615 74.4857 27.4511C74.4614 27.305 74.437 27.0615 74.437 27.0371C74.437 26.136 74.9731 25.5515 76.0939 25.4054C75.8259 25.0644 75.6797 24.6991 75.6797 24.3581C75.6797 23.7006 76.2157 23.2622 76.8005 23.2622C76.8492 23.2622 76.971 23.2865 77.0441 23.2865C77.2147 23.2622 77.7995 23.7249 77.7995 23.9685V24.0415C77.5071 23.7493 77.2878 23.6518 77.0441 23.6518C76.5568 23.6518 76.4594 24.1146 76.4594 24.3581C76.4594 24.8452 76.8492 25.4054 77.4584 25.4784C77.5802 25.4784 77.8238 25.5028 77.8482 25.5028C79.6756 25.5028 81.0645 24.1389 81.0645 22.5559C81.0645 22.5072 81.0645 22.4098 81.0401 22.2149C81.0157 22.0445 80.9914 21.874 80.9426 21.6791C80.9183 21.5574 80.8452 21.3869 80.7964 21.2408C80.4066 20.2666 79.2858 19.8282 78.5548 19.7551C78.4573 19.7551 78.2868 19.7064 78.238 19.7064H77.3852C77.3365 19.7064 77.2634 19.7308 77.2147 19.7308C76.5081 19.8282 75.7528 19.9987 75.0462 20.5832C75.0462 20.5345 75.0705 20.4858 75.0705 20.4614C75.3873 19.9743 75.8015 19.3168 76.3132 19.1706C76.3619 19.1463 76.4106 19.1219 76.4594 19.0976C76.6543 18.9758 77.7751 18.6592 78.1406 18.6592H79.0178Z" stroke="#C9AB37" stroke-width="0.3894" stroke-miterlimit="3.864"/>
<path d="M79.2126 19.5605H79.4076C79.4563 19.5605 79.8218 19.6093 79.9924 19.658C81.4299 20.0476 82.0147 21.241 82.0147 22.2639C82.0147 23.165 81.5761 24.1148 80.4797 24.8698C81.0401 24.1879 81.3568 23.4329 81.4056 22.751C81.4299 22.5805 81.4299 22.4831 81.4299 22.4344C81.4543 21.3141 80.772 20.0233 79.2126 19.5605Z" fill="white"/>
<path d="M79.2126 19.5605H79.4076C79.4563 19.5605 79.8218 19.6093 79.9924 19.658C81.4299 20.0476 82.0147 21.241 82.0147 22.2639C82.0147 23.165 81.5761 24.1148 80.4797 24.8698C81.0401 24.1879 81.3568 23.4329 81.4056 22.751C81.4299 22.5805 81.4299 22.4831 81.4299 22.4344C81.4543 21.3141 80.772 20.0233 79.2126 19.5605Z" stroke="#C9AB37" stroke-width="0.3894" stroke-miterlimit="3.864"/>
<path d="M78.1163 26.3076L82.892 32.859H82.4534L77.6777 26.3563C77.8239 26.332 77.9701 26.3076 78.1163 26.3076Z" fill="white"/>
<path d="M78.1163 26.3076L82.892 32.859H82.4534L77.6777 26.3563C77.8239 26.332 77.9701 26.3076 78.1163 26.3076Z" stroke="white" stroke-width="0.3894" stroke-miterlimit="3.864"/>
<path d="M72.7316 14.8359C72.9996 14.8359 73.292 15.0064 73.4139 15.3961C73.4382 15.4692 73.5357 15.4692 73.5844 15.5422C73.6575 15.6153 73.7062 15.7127 73.7306 15.7858C73.7306 15.8345 73.755 15.8832 73.755 15.9319C73.755 16.1024 73.5601 16.3216 73.4139 16.3946C73.4382 16.4677 73.4626 16.6138 73.4626 16.6625C73.4626 16.7356 73.487 16.8574 73.3651 16.9548C73.4626 17.0765 73.4626 17.174 73.4626 17.2714C73.4626 17.3688 73.4626 17.5149 73.3164 17.6123C73.3408 17.6123 73.3651 17.6611 73.3651 17.6854C73.4139 17.7585 73.4139 17.8802 73.4139 17.929C73.4139 17.9777 73.3651 18.0994 73.3164 18.1725C73.4382 18.2943 73.4626 18.4648 73.4139 18.6352H74.6078V18.6596C73.9255 19.1467 73.4626 19.926 73.4626 20.5349C73.4626 20.6079 73.4382 20.7054 73.4382 20.7784L73.1458 33.7107C73.1458 33.9786 72.8047 34.8066 72.7316 34.9771C72.6098 34.6118 72.3661 34.1977 72.3418 33.8324L72.0494 20.681C72.0494 19.9991 71.6352 19.171 70.8555 18.6352H72.025C72.0494 18.5622 72.025 18.5135 72.025 18.4891C72.025 18.3673 72.1225 18.2699 72.1225 18.2456C72.1225 18.1969 72.025 18.0264 72.025 17.929C72.025 17.8315 72.0737 17.6611 72.1468 17.6123C72.1225 17.588 72.0738 17.5393 72.0494 17.4906C72.025 17.4175 72.0007 17.2957 72.0007 17.247C72.0007 17.1009 72.025 17.0765 72.1712 16.9304C72.025 16.7599 72.025 16.7599 72.025 16.5895C72.025 16.5408 72.0494 16.419 72.0494 16.3703C72.0494 16.3216 71.8545 16.2241 71.7814 16.1267C71.7083 16.005 71.7083 15.9319 71.7083 15.8588C71.7083 15.7371 71.7326 15.6153 71.8057 15.4935C71.9032 15.3717 72.0494 15.2987 72.1956 15.2987C72.1956 15.2987 72.1956 15.2987 72.2199 15.2743C72.2687 14.9577 72.488 14.8359 72.7316 14.8359Z" fill="#C9AB37"/>
<path d="M72.7316 14.8359C72.9996 14.8359 73.292 15.0064 73.4139 15.3961C73.4382 15.4692 73.5357 15.4692 73.5844 15.5422C73.6575 15.6153 73.7062 15.7127 73.7306 15.7858C73.7306 15.8345 73.755 15.8832 73.755 15.9319C73.755 16.1024 73.5601 16.3216 73.4139 16.3946C73.4382 16.4677 73.4626 16.6138 73.4626 16.6625C73.4626 16.7356 73.487 16.8574 73.3651 16.9548C73.4626 17.0765 73.4626 17.174 73.4626 17.2714C73.4626 17.3688 73.4626 17.5149 73.3164 17.6123C73.3408 17.6123 73.3651 17.6611 73.3651 17.6854C73.4139 17.7585 73.4139 17.8802 73.4139 17.929C73.4139 17.9777 73.3651 18.0994 73.3164 18.1725C73.4382 18.2943 73.4626 18.4648 73.4139 18.6352H74.6078V18.6596C73.9255 19.1467 73.4626 19.926 73.4626 20.5349C73.4626 20.6079 73.4382 20.7054 73.4382 20.7784L73.1458 33.7107C73.1458 33.9786 72.8047 34.8066 72.7316 34.9771C72.6098 34.6118 72.3661 34.1977 72.3418 33.8324L72.0494 20.681C72.0494 19.9991 71.6352 19.171 70.8555 18.6352H72.025C72.0494 18.5622 72.025 18.5135 72.025 18.4891C72.025 18.3673 72.1225 18.2699 72.1225 18.2456C72.1225 18.1969 72.025 18.0264 72.025 17.929C72.025 17.8315 72.0737 17.6611 72.1468 17.6123C72.1225 17.588 72.0738 17.5393 72.0494 17.4906C72.025 17.4175 72.0007 17.2957 72.0007 17.247C72.0007 17.1009 72.025 17.0765 72.1712 16.9304C72.025 16.7599 72.025 16.7599 72.025 16.5895C72.025 16.5408 72.0494 16.419 72.0494 16.3703C72.0494 16.3216 71.8545 16.2241 71.7814 16.1267C71.7083 16.005 71.7083 15.9319 71.7083 15.8588C71.7083 15.7371 71.7326 15.6153 71.8057 15.4935C71.9032 15.3717 72.0494 15.2987 72.1956 15.2987C72.1956 15.2987 72.1956 15.2987 72.2199 15.2743C72.2687 14.9577 72.488 14.8359 72.7316 14.8359Z" stroke="#C9AB37" stroke-width="0.401946" stroke-miterlimit="3.864"/>
<path d="M72.6826 15.0303C72.7557 15.0303 72.8288 15.0546 72.8288 15.1277V15.2495H72.439C72.4633 15.1277 72.5852 15.0303 72.6826 15.0303Z" fill="white"/>
<path d="M72.6826 15.0303C72.7557 15.0303 72.8288 15.0546 72.8288 15.1277V15.2495H72.439C72.4633 15.1277 72.5852 15.0303 72.6826 15.0303Z" stroke="#C9AB37" stroke-width="0.401946" stroke-miterlimit="3.864"/>
<path d="M72.5366 15.5908C72.7802 15.5908 72.9021 15.5908 72.9021 15.8831C72.9021 15.9318 72.9021 15.9805 72.9021 16.0292C72.7315 16.0048 72.5122 15.9561 72.4879 15.9561C72.4148 15.9561 72.1711 16.0536 72.1467 16.0536C72.0493 16.0536 72.0249 15.9561 72.0249 15.9318C72.0249 15.6152 72.366 15.5908 72.5366 15.5908Z" fill="white"/>
<path d="M72.5366 15.5908C72.7802 15.5908 72.9021 15.5908 72.9021 15.8831C72.9021 15.9318 72.9021 15.9805 72.9021 16.0292C72.7315 16.0048 72.5122 15.9561 72.4879 15.9561C72.4148 15.9561 72.1711 16.0536 72.1467 16.0536C72.0493 16.0536 72.0249 15.9561 72.0249 15.9318C72.0249 15.6152 72.366 15.5908 72.5366 15.5908Z" stroke="#C9AB37" stroke-width="0.401946" stroke-miterlimit="3.864"/>
<path d="M72.3171 16.2725H72.5364C72.6339 16.2725 72.9263 16.3699 72.9506 16.4917C72.9506 16.6378 72.9263 16.6621 72.9263 16.6865C72.707 16.5404 72.4877 16.4186 72.3171 16.2725Z" fill="white"/>
<path d="M72.3171 16.2725H72.5364C72.6339 16.2725 72.9263 16.3699 72.9506 16.4917C72.9506 16.6378 72.9263 16.6621 72.9263 16.6865C72.707 16.5404 72.4877 16.4186 72.3171 16.2725Z" stroke="#C9AB37" stroke-width="0.401946" stroke-miterlimit="3.864"/>
<path d="M72.2929 16.5645C72.4878 16.7106 72.8533 16.8567 72.9264 17.0759L72.9021 17.2464C72.8533 17.222 72.2686 16.9054 72.2686 16.7106C72.2686 16.6619 72.2686 16.6132 72.2929 16.5645Z" fill="white"/>
<path d="M72.2929 16.5645C72.4878 16.7106 72.8533 16.8567 72.9264 17.0759L72.9021 17.2464C72.8533 17.222 72.2686 16.9054 72.2686 16.7106C72.2686 16.6619 72.2686 16.6132 72.2929 16.5645Z" stroke="#C9AB37" stroke-width="0.401946" stroke-miterlimit="3.864"/>
<path d="M72.2929 17.125C72.5366 17.2955 72.8533 17.3685 72.9752 17.6364L72.9508 17.8069C72.8046 17.6852 72.2686 17.4416 72.2686 17.2711C72.2686 17.2224 72.2686 17.1737 72.2929 17.125Z" fill="white"/>
<path d="M72.2929 17.125C72.5366 17.2955 72.8533 17.3685 72.9752 17.6364L72.9508 17.8069C72.8046 17.6852 72.2686 17.4416 72.2686 17.2711C72.2686 17.2224 72.2686 17.1737 72.2929 17.125Z" stroke="#C9AB37" stroke-width="0.401946" stroke-miterlimit="3.864"/>
<path d="M72.2929 17.71C72.5366 17.9048 72.9995 18.0753 72.9752 18.3188V18.4406C72.7071 18.2701 72.2686 18.0996 72.2686 17.8561C72.2686 17.783 72.2686 17.7587 72.2929 17.71Z" fill="white"/>
<path d="M72.2929 17.71C72.5366 17.9048 72.9995 18.0753 72.9752 18.3188V18.4406C72.7071 18.2701 72.2686 18.0996 72.2686 17.8561C72.2686 17.783 72.2686 17.7587 72.2929 17.71Z" stroke="#C9AB37" stroke-width="0.401946" stroke-miterlimit="3.864"/>
<path d="M72.3174 18.3428L72.756 18.635C72.6829 18.6594 72.6098 18.6594 72.3905 18.635C72.2686 18.635 72.293 18.5133 72.293 18.4645C72.293 18.4158 72.293 18.3915 72.3174 18.3428Z" fill="white"/>
<path d="M72.3174 18.3428L72.756 18.635C72.6829 18.6594 72.6098 18.6594 72.3905 18.635C72.2686 18.635 72.293 18.5133 72.293 18.4645C72.293 18.4158 72.293 18.3915 72.3174 18.3428Z" stroke="#C9AB37" stroke-width="0.401946" stroke-miterlimit="3.864"/>
<path d="M72.0249 19.1465H72.9264V28.6447L72.8533 34.7333C72.8046 34.5629 72.7315 34.3924 72.7071 34.2219C72.6828 34.0758 72.7071 33.9053 72.6828 33.7592L72.5366 26.9399V20.7782C72.5853 20.2911 72.3173 19.5849 72.0249 19.1465Z" fill="white"/>
<path d="M72.0249 19.1465H72.9264V28.6447L72.8533 34.7333C72.8046 34.5629 72.7315 34.3924 72.7071 34.2219C72.6828 34.0758 72.7071 33.9053 72.6828 33.7592L72.5366 26.9399V20.7782C72.5853 20.2911 72.3173 19.5849 72.0249 19.1465Z" stroke="#C9AB37" stroke-width="0.401946" stroke-miterlimit="3.864"/>
<path d="M69.5882 19.0742C69.7101 19.0742 69.7344 19.0742 69.7832 19.2447C69.8319 19.4152 69.8319 19.5857 69.905 19.7561C70.0025 19.951 70.4167 20.2919 70.4167 20.5355C70.4167 20.5842 70.3923 20.706 70.3192 20.706C70.2705 20.706 69.8806 20.4868 69.6613 20.365C69.637 20.2919 69.6126 19.5126 69.3202 19.5126C69.0766 19.5126 68.8085 19.7318 68.5649 19.7318C68.4674 19.7318 68.443 19.6587 68.2725 19.6587C68.2238 19.6587 67.6634 19.7805 67.3466 19.8536C67.3222 19.8536 67.2735 19.8779 67.2735 19.9266C67.2735 20.4137 68.0045 20.4137 68.0045 20.5842C68.0045 20.7303 67.2979 20.8034 67.2735 20.8034C66.8593 20.8034 66.9811 20.365 66.9324 20.1215C66.908 20.0971 66.8836 20.0728 66.8349 20.0728C66.7862 20.0728 66.372 20.2189 66.1283 20.2919C65.909 20.365 65.641 20.4137 65.4461 20.5355C65.2999 20.6329 65.3486 20.6816 65.3486 20.779C65.3486 20.9252 65.373 21.1443 65.6166 21.1687C65.6166 21.2174 65.5923 21.2905 65.5923 21.3392C65.5923 21.4122 65.6166 21.5584 65.7385 21.5584C65.9334 21.5584 66.0309 21.3879 66.372 21.3879C66.9567 21.3879 67.1273 21.8993 67.1273 22.3377C67.1273 22.7761 66.9811 23.2875 66.4207 23.2875C66.2014 23.2875 66.0552 23.2388 65.8116 23.0927C65.7872 23.1171 65.8116 23.1414 65.8116 23.6529C65.8359 23.6772 65.8359 23.7016 65.8847 23.7016C65.9334 23.7016 66.177 23.6285 66.2258 23.6285C66.5669 23.6285 66.6887 23.872 66.6887 24.1399C66.6887 24.5053 66.4451 24.7488 66.0552 25.1872C65.8847 25.3577 65.7141 25.6012 65.5679 25.7961C65.5435 25.8204 65.5192 25.8691 65.4948 25.8935C65.4704 25.9178 65.4217 25.9909 65.3973 26.0396C65.2268 26.3562 65.105 26.6972 65.0562 27.0381C65.5923 26.6728 65.9578 26.0883 66.3232 25.6256C66.3476 25.8204 66.2501 26.064 66.177 26.2831C66.1039 26.4536 65.9578 26.6241 65.8359 26.7946C65.3486 27.5252 64.5689 27.9149 63.9598 28.2071C64.0085 28.2315 64.0572 28.2559 64.1303 28.2559C64.4714 28.2559 64.5202 28.2559 64.6907 28.2315C65.3486 28.1828 66.0308 27.8905 66.6887 27.4765C66.4694 27.8662 66.3232 28.2315 66.2989 28.5968C66.2989 28.6212 66.2745 28.6942 66.2745 28.7429V29.3518C66.2745 29.5223 66.3963 29.9607 66.3963 29.985C66.7618 29.571 67.0298 29.1326 67.2004 28.7186C67.2979 29.1813 67.3466 29.6441 67.639 30.1068C67.7608 29.8876 67.8095 29.4249 67.8095 29.1813C67.8095 28.5481 67.639 27.8418 67.4684 27.2086C68.0776 27.6713 68.2725 28.5725 68.2725 29.1326C68.2725 29.6441 68.0532 30.6182 67.6877 31.0079C67.3222 30.7644 67.2004 30.3503 67.0786 30.0337C66.8106 30.4478 66.3963 31.1053 65.909 31.5194C65.909 31.3976 65.8847 31.0323 65.8847 30.9348C65.6166 31.1053 65.3242 31.2758 65.0562 31.4463C64.7638 31.6411 64.4227 31.9334 64.106 32.2013C63.8379 32.4448 63.5699 32.7127 63.3019 32.9806C63.2044 33.078 63.0582 33.1755 62.9364 33.1755C62.8633 33.1755 62.8633 33.1024 62.8633 33.0537C62.8633 33.005 62.8877 32.9076 62.8877 32.6884C62.8633 32.664 62.8633 32.6397 62.8146 32.6397C62.644 32.6397 62.1323 33.4434 61.8156 33.4434H59.647L59.5983 33.3946C59.6958 33.2485 59.7932 33.0293 59.9638 32.8589C59.9394 32.8345 59.9638 32.8589 59.9394 32.8589C59.7445 32.8589 59.1841 33.1024 59.0866 33.1511C59.0379 32.8345 59.2085 32.5422 59.2572 32.2743C59.111 32.3718 58.9892 32.4692 58.843 32.5666C58.7699 32.1769 59.2085 31.5437 59.6714 31.3002C59.7201 31.2758 59.7932 31.2271 59.8663 31.2027C60.1831 31.0566 60.5242 30.9348 60.841 30.8861C60.9872 30.8618 61.1577 30.8374 61.3283 30.8131C61.4745 30.7887 61.645 30.7644 61.7912 30.74C62.2785 30.6913 62.839 30.4965 63.3506 30.1068C63.8623 29.7171 64.3496 29.2057 64.8613 28.6942H63.7892C63.3506 28.6942 62.7659 28.402 62.3273 28.2071C62.9364 27.988 63.4968 27.9392 64.106 27.5983C64.0329 27.3791 63.911 27.0868 63.7648 26.8676C63.4725 26.4293 62.9851 25.8691 62.5466 25.5282C62.2542 25.309 61.9374 25.0654 61.6207 24.8706C61.4745 24.7732 61.3039 24.6514 61.1577 24.5783C60.9384 24.4809 60.7679 24.3348 60.7679 24.1643C60.7679 24.1156 60.8166 23.9695 60.9141 23.9451C60.7922 23.5798 60.378 23.4093 60.378 23.2875C60.378 23.2388 60.4024 23.1901 60.4268 23.1414C60.4511 22.9953 60.4755 22.7517 60.4755 22.703C60.4755 22.289 60.4024 21.9968 60.0125 21.5827C60.11 21.5584 60.2318 21.534 60.2806 21.534C60.378 21.534 60.6948 21.6558 60.7435 21.7289C60.7435 21.7045 60.7435 21.7045 60.7435 21.6558C60.7435 21.3635 60.5242 20.9739 60.2562 20.6816C60.5486 20.5842 60.5973 20.5842 60.8166 20.5842C60.8653 20.5842 61.109 20.6086 61.2308 20.6086C61.0846 20.4381 60.8653 20.2432 60.6948 20.0728C60.7679 20.0728 60.8653 20.0484 60.9141 20.0484C61.1577 20.0484 61.4014 20.1458 61.645 20.2676C62.4491 20.6329 62.9851 21.5584 62.9851 22.1916C62.9851 22.2403 62.839 23.0684 62.839 23.1171C62.839 23.2388 62.8146 23.3363 62.9364 23.5067C63.0826 23.7259 63.375 23.799 63.5456 23.9208C63.8867 24.1156 64.2522 24.2861 64.5933 24.4566C64.8126 24.554 65.1781 24.6757 65.4217 24.6757C65.7141 24.6757 66.2258 24.5296 66.2258 24.213C66.2258 24.0669 66.1527 24.0669 66.0796 24.0669C66.0308 24.0669 65.7141 24.1643 65.6654 24.1643C65.373 24.1643 65.4217 23.7016 65.4217 23.6041V22.8005C65.3973 22.7761 65.4217 22.8005 65.373 22.8005C65.3242 22.8005 64.4471 22.9466 64.3984 22.9466C63.9598 22.9466 63.5456 22.63 63.5456 22.1672C63.5456 21.6314 63.9841 21.3635 64.4227 21.3635C64.4714 21.3635 64.6907 21.4122 64.8126 21.461C64.7882 21.534 64.7638 21.6071 64.7638 21.6558C64.7638 21.948 65.0075 22.289 65.3973 22.3377C65.5192 22.3377 65.7141 22.3621 65.7628 22.3621C65.8359 22.3621 66.6887 22.3621 66.6887 22.1429C66.6887 21.948 66.3232 21.9237 66.2989 21.9237C66.1039 21.9237 65.7872 22.1429 65.6654 22.1429C65.2755 22.1429 65.105 21.3635 65.0806 21.2661C65.0562 21.1687 64.91 21.1443 64.8369 21.0469C64.7882 20.9982 64.7395 20.7303 64.7395 20.6573C64.7395 20.2676 65.0319 20.2676 65.3973 20.1458C66.3963 19.8049 68.4187 19.196 68.4674 19.196C68.5162 19.196 68.8329 19.3421 68.8573 19.3421C68.8816 19.2203 69.5395 19.0742 69.5882 19.0742Z" fill="#C9AB37"/>
<path d="M69.5882 19.0742C69.7101 19.0742 69.7344 19.0742 69.7832 19.2447C69.8319 19.4152 69.8319 19.5857 69.905 19.7561C70.0025 19.951 70.4167 20.2919 70.4167 20.5355C70.4167 20.5842 70.3923 20.706 70.3192 20.706C70.2705 20.706 69.8806 20.4868 69.6613 20.365C69.637 20.2919 69.6126 19.5126 69.3202 19.5126C69.0766 19.5126 68.8085 19.7318 68.5649 19.7318C68.4674 19.7318 68.443 19.6587 68.2725 19.6587C68.2238 19.6587 67.6634 19.7805 67.3466 19.8536C67.3222 19.8536 67.2735 19.8779 67.2735 19.9266C67.2735 20.4137 68.0045 20.4137 68.0045 20.5842C68.0045 20.7303 67.2979 20.8034 67.2735 20.8034C66.8593 20.8034 66.9811 20.365 66.9324 20.1215C66.908 20.0971 66.8836 20.0728 66.8349 20.0728C66.7862 20.0728 66.372 20.2189 66.1283 20.2919C65.909 20.365 65.641 20.4137 65.4461 20.5355C65.2999 20.6329 65.3486 20.6816 65.3486 20.779C65.3486 20.9252 65.373 21.1443 65.6166 21.1687C65.6166 21.2174 65.5923 21.2905 65.5923 21.3392C65.5923 21.4122 65.6166 21.5584 65.7385 21.5584C65.9334 21.5584 66.0309 21.3879 66.372 21.3879C66.9567 21.3879 67.1273 21.8993 67.1273 22.3377C67.1273 22.7761 66.9811 23.2875 66.4207 23.2875C66.2014 23.2875 66.0552 23.2388 65.8116 23.0927C65.7872 23.1171 65.8116 23.1414 65.8116 23.6529C65.8359 23.6772 65.8359 23.7016 65.8847 23.7016C65.9334 23.7016 66.177 23.6285 66.2258 23.6285C66.5669 23.6285 66.6887 23.872 66.6887 24.1399C66.6887 24.5053 66.4451 24.7488 66.0552 25.1872C65.8847 25.3577 65.7141 25.6012 65.5679 25.7961C65.5435 25.8204 65.5192 25.8691 65.4948 25.8935C65.4704 25.9178 65.4217 25.9909 65.3973 26.0396C65.2268 26.3562 65.105 26.6972 65.0562 27.0381C65.5923 26.6728 65.9578 26.0883 66.3232 25.6256C66.3476 25.8204 66.2501 26.064 66.177 26.2831C66.1039 26.4536 65.9578 26.6241 65.8359 26.7946C65.3486 27.5252 64.5689 27.9149 63.9598 28.2071C64.0085 28.2315 64.0572 28.2559 64.1303 28.2559C64.4714 28.2559 64.5202 28.2559 64.6907 28.2315C65.3486 28.1828 66.0308 27.8905 66.6887 27.4765C66.4694 27.8662 66.3232 28.2315 66.2989 28.5968C66.2989 28.6212 66.2745 28.6942 66.2745 28.7429V29.3518C66.2745 29.5223 66.3963 29.9607 66.3963 29.985C66.7618 29.571 67.0298 29.1326 67.2004 28.7186C67.2979 29.1813 67.3466 29.6441 67.639 30.1068C67.7608 29.8876 67.8095 29.4249 67.8095 29.1813C67.8095 28.5481 67.639 27.8418 67.4684 27.2086C68.0776 27.6713 68.2725 28.5725 68.2725 29.1326C68.2725 29.6441 68.0532 30.6182 67.6877 31.0079C67.3222 30.7644 67.2004 30.3503 67.0786 30.0337C66.8106 30.4478 66.3963 31.1053 65.909 31.5194C65.909 31.3976 65.8847 31.0323 65.8847 30.9348C65.6166 31.1053 65.3242 31.2758 65.0562 31.4463C64.7638 31.6411 64.4227 31.9334 64.106 32.2013C63.8379 32.4448 63.5699 32.7127 63.3019 32.9806C63.2044 33.078 63.0582 33.1755 62.9364 33.1755C62.8633 33.1755 62.8633 33.1024 62.8633 33.0537C62.8633 33.005 62.8877 32.9076 62.8877 32.6884C62.8633 32.664 62.8633 32.6397 62.8146 32.6397C62.644 32.6397 62.1323 33.4434 61.8156 33.4434H59.647L59.5983 33.3946C59.6958 33.2485 59.7932 33.0293 59.9638 32.8589C59.9394 32.8345 59.9638 32.8589 59.9394 32.8589C59.7445 32.8589 59.1841 33.1024 59.0866 33.1511C59.0379 32.8345 59.2085 32.5422 59.2572 32.2743C59.111 32.3718 58.9892 32.4692 58.843 32.5666C58.7699 32.1769 59.2085 31.5437 59.6714 31.3002C59.7201 31.2758 59.7932 31.2271 59.8663 31.2027C60.1831 31.0566 60.5242 30.9348 60.841 30.8861C60.9872 30.8618 61.1577 30.8374 61.3283 30.8131C61.4745 30.7887 61.645 30.7644 61.7912 30.74C62.2785 30.6913 62.839 30.4965 63.3506 30.1068C63.8623 29.7171 64.3496 29.2057 64.8613 28.6942H63.7892C63.3506 28.6942 62.7659 28.402 62.3273 28.2071C62.9364 27.988 63.4968 27.9392 64.106 27.5983C64.0329 27.3791 63.911 27.0868 63.7648 26.8676C63.4725 26.4293 62.9851 25.8691 62.5466 25.5282C62.2542 25.309 61.9374 25.0654 61.6207 24.8706C61.4745 24.7732 61.3039 24.6514 61.1577 24.5783C60.9384 24.4809 60.7679 24.3348 60.7679 24.1643C60.7679 24.1156 60.8166 23.9695 60.9141 23.9451C60.7922 23.5798 60.378 23.4093 60.378 23.2875C60.378 23.2388 60.4024 23.1901 60.4268 23.1414C60.4511 22.9953 60.4755 22.7517 60.4755 22.703C60.4755 22.289 60.4024 21.9968 60.0125 21.5827C60.11 21.5584 60.2318 21.534 60.2806 21.534C60.378 21.534 60.6948 21.6558 60.7435 21.7289C60.7435 21.7045 60.7435 21.7045 60.7435 21.6558C60.7435 21.3635 60.5242 20.9739 60.2562 20.6816C60.5486 20.5842 60.5973 20.5842 60.8166 20.5842C60.8653 20.5842 61.109 20.6086 61.2308 20.6086C61.0846 20.4381 60.8653 20.2432 60.6948 20.0728C60.7679 20.0728 60.8653 20.0484 60.9141 20.0484C61.1577 20.0484 61.4014 20.1458 61.645 20.2676C62.4491 20.6329 62.9851 21.5584 62.9851 22.1916C62.9851 22.2403 62.839 23.0684 62.839 23.1171C62.839 23.2388 62.8146 23.3363 62.9364 23.5067C63.0826 23.7259 63.375 23.799 63.5456 23.9208C63.8867 24.1156 64.2522 24.2861 64.5933 24.4566C64.8126 24.554 65.1781 24.6757 65.4217 24.6757C65.7141 24.6757 66.2258 24.5296 66.2258 24.213C66.2258 24.0669 66.1527 24.0669 66.0796 24.0669C66.0308 24.0669 65.7141 24.1643 65.6654 24.1643C65.373 24.1643 65.4217 23.7016 65.4217 23.6042V22.8005C65.3973 22.7761 65.4217 22.8005 65.373 22.8005C65.3242 22.8005 64.4471 22.9466 64.3984 22.9466C63.9598 22.9466 63.5456 22.63 63.5456 22.1672C63.5456 21.6314 63.9841 21.3635 64.4227 21.3635C64.4714 21.3635 64.6907 21.4122 64.8126 21.461C64.7882 21.534 64.7638 21.6071 64.7638 21.6558C64.7638 21.948 65.0075 22.289 65.3973 22.3377C65.5192 22.3377 65.7141 22.3621 65.7628 22.3621C65.8359 22.3621 66.6887 22.3621 66.6887 22.1429C66.6887 21.948 66.3232 21.9237 66.2989 21.9237C66.1039 21.9237 65.7872 22.1429 65.6654 22.1429C65.2755 22.1429 65.105 21.3635 65.0806 21.2661C65.0562 21.1687 64.91 21.1443 64.8369 21.0469C64.7882 20.9982 64.7395 20.7303 64.7395 20.6573C64.7395 20.2676 65.0319 20.2676 65.3973 20.1458C66.3963 19.8049 68.4187 19.196 68.4674 19.196C68.5162 19.196 68.8329 19.3421 68.8573 19.3421C68.8816 19.2203 69.5395 19.0742 69.5882 19.0742Z" stroke="#C9AB37" stroke-width="0.401946" stroke-miterlimit="3.864"/>
<path d="M61.5965 20.6562C61.6696 20.6806 61.7671 20.7293 61.8158 20.778C62.425 21.3625 62.6199 21.7766 62.6199 22.3367C62.6199 22.3854 62.4981 23.1161 62.4981 23.1648C62.4981 23.6762 62.9367 23.8954 63.4727 24.1633C63.7651 24.3094 64.0575 24.5043 64.3255 24.6504C64.5935 24.7965 64.9103 24.9913 65.2027 25.2592C65.0565 25.4541 64.9103 25.6976 64.7884 25.9168C64.5204 25.6733 64.228 25.4297 63.96 25.2592C63.9113 25.2105 62.7661 24.4312 62.4981 24.4312C62.4493 24.4312 62.4493 24.4555 62.425 24.4555C62.7905 24.6504 63.2778 24.9913 63.6433 25.2349C63.8626 25.381 64.6423 26.1117 64.6423 26.2334C64.6423 26.2821 64.4961 26.6474 64.4473 26.8423C64.0087 26.3065 63.4483 25.6002 62.8148 25.1131C62.5955 24.9426 62.4006 24.7965 62.157 24.6747C61.9133 24.5286 61.5478 24.3581 61.3042 24.1146C61.3773 24.0659 61.426 23.9685 61.426 23.9197C61.426 23.6275 60.7437 23.2378 60.7437 23.1404C60.7437 23.0917 60.8168 22.702 60.8168 22.6533C60.8168 22.4828 60.7438 22.0932 60.6707 21.947C60.8656 22.0688 61.0118 22.2393 61.1092 22.4341C61.1336 22.3367 61.158 22.1175 61.158 21.9957C61.158 21.7035 60.9874 21.119 60.8412 20.8754C61.2311 20.8754 61.5234 21.3869 61.5722 21.6791C61.5965 21.6304 61.5965 21.5817 61.5965 21.533C61.694 21.2164 61.6209 20.9485 61.5965 20.6562Z" fill="white"/>
<path d="M61.5965 20.6562C61.6696 20.6806 61.7671 20.7293 61.8158 20.778C62.425 21.3625 62.6199 21.7766 62.6199 22.3367C62.6199 22.3854 62.4981 23.1161 62.4981 23.1648C62.4981 23.6762 62.9367 23.8954 63.4727 24.1633C63.7651 24.3094 64.0575 24.5043 64.3255 24.6504C64.5935 24.7965 64.9103 24.9913 65.2027 25.2592C65.0565 25.4541 64.9103 25.6976 64.7884 25.9168C64.5204 25.6733 64.228 25.4297 63.96 25.2592C63.9113 25.2105 62.7661 24.4312 62.4981 24.4312C62.4493 24.4312 62.4493 24.4555 62.425 24.4555C62.7905 24.6504 63.2778 24.9913 63.6433 25.2349C63.8626 25.381 64.6423 26.1117 64.6423 26.2334C64.6423 26.2821 64.4961 26.6474 64.4473 26.8423C64.0087 26.3065 63.4483 25.6002 62.8148 25.1131C62.5955 24.9426 62.4006 24.7965 62.157 24.6747C61.9133 24.5286 61.5478 24.3581 61.3042 24.1146C61.3773 24.0659 61.426 23.9685 61.426 23.9197C61.426 23.6275 60.7437 23.2378 60.7437 23.1404C60.7437 23.0917 60.8168 22.702 60.8168 22.6533C60.8168 22.4828 60.7438 22.0932 60.6707 21.947C60.8656 22.0688 61.0118 22.2393 61.1092 22.4341C61.1336 22.3367 61.158 22.1175 61.158 21.9957C61.158 21.7035 60.9874 21.119 60.8412 20.8754C61.2311 20.8754 61.5234 21.3869 61.5722 21.6791C61.5965 21.6304 61.5965 21.5817 61.5965 21.533C61.694 21.2164 61.6209 20.9485 61.5965 20.6562Z" stroke="#C9AB37" stroke-width="0.401946" stroke-miterlimit="3.864"/>
<path d="M64.3011 21.6064C64.3011 21.6552 64.3011 21.6795 64.3011 21.7039C64.3011 21.8743 64.5691 22.2153 64.7884 22.3127C64.5935 22.3858 64.6422 22.3858 64.496 22.3858C64.2767 22.3858 64.0818 22.2884 64.0818 22.0205C64.0818 21.8743 64.1062 21.7282 64.3011 21.6064Z" fill="white"/>
<path d="M64.3011 21.6064C64.3011 21.6552 64.3011 21.6795 64.3011 21.7039C64.3011 21.8743 64.5691 22.2153 64.7884 22.3127C64.5935 22.3858 64.6422 22.3858 64.496 22.3858C64.2767 22.3858 64.0818 22.2884 64.0818 22.0205C64.0818 21.8743 64.1062 21.7282 64.3011 21.6064Z" stroke="#C9AB37" stroke-width="0.401946" stroke-miterlimit="3.864"/>
<path d="M66.6645 22.5312V22.6043C66.6645 22.7261 66.4452 22.8479 66.3477 22.8479C66.2502 22.8479 66.031 22.7261 66.0066 22.6043L66.6645 22.5312Z" fill="white"/>
<path d="M66.6645 22.5312V22.6043C66.6645 22.7261 66.4452 22.8479 66.3477 22.8479C66.2502 22.8479 66.031 22.7261 66.0066 22.6043L66.6645 22.5312Z" stroke="#C9AB37" stroke-width="0.401946" stroke-miterlimit="3.864"/>
<path d="M65.8359 28.5479C65.8115 28.6696 65.8603 28.7914 65.7872 29.4246C65.7872 29.522 65.6653 29.5707 65.5922 29.6438C65.4704 29.7412 65.3486 29.863 65.2268 29.9604C64.7638 30.3257 64.1303 30.8859 63.7648 31.373C63.7892 31.373 63.7648 31.4217 63.8135 31.4217C63.8623 31.4217 64.179 31.0807 64.3983 30.9102C64.8613 30.5449 65.3486 30.1552 65.8115 29.9117C65.8115 29.9604 65.8359 30.0091 65.8359 30.2283C65.2024 30.5693 64.5201 31.1294 63.9841 31.7626C63.8135 31.9818 63.3993 32.3228 63.3506 32.3228C63.2288 32.3228 63.3262 32.0305 63.0826 32.0305C62.9364 32.0305 62.4491 32.4446 62.3516 32.5176C62.2054 32.6394 62.0349 32.7855 61.8643 32.9073C61.7668 32.956 61.5719 33.0047 61.5232 33.0047H60.4755C60.6947 32.6638 61.0359 32.4933 61.3039 32.3471C61.2064 32.2741 61.0115 32.2497 60.8409 32.2497C60.7922 32.2497 60.6947 32.2254 60.4511 32.2741C60.2074 32.2984 59.915 32.3228 59.6714 32.4689C59.8663 31.9575 60.4755 31.7626 60.8409 31.7383H61.0602C60.7922 31.6409 60.7191 31.6652 60.4755 31.6652C60.4267 31.6652 60.11 31.6896 59.8663 31.7139C59.915 31.6165 60.11 31.4704 60.2318 31.4217C60.9384 31.1294 61.645 31.1781 62.3516 31.0564C62.5465 31.032 62.7658 30.9346 62.9851 30.8615C63.4481 30.7641 63.9841 30.1552 64.4714 29.7656C64.8856 29.3272 65.3729 28.9132 65.8359 28.5479Z" fill="white"/>
<path d="M65.8359 28.5479C65.8115 28.6696 65.8603 28.7914 65.7872 29.4246C65.7872 29.522 65.6653 29.5707 65.5922 29.6438C65.4704 29.7412 65.3486 29.863 65.2268 29.9604C64.7638 30.3257 64.1303 30.8859 63.7648 31.373C63.7892 31.373 63.7648 31.4217 63.8135 31.4217C63.8623 31.4217 64.179 31.0807 64.3983 30.9102C64.8613 30.5449 65.3486 30.1552 65.8115 29.9117C65.8115 29.9604 65.8359 30.0091 65.8359 30.2283C65.2024 30.5693 64.5201 31.1294 63.9841 31.7626C63.8135 31.9818 63.3993 32.3228 63.3506 32.3228C63.2288 32.3228 63.3262 32.0305 63.0826 32.0305C62.9364 32.0305 62.4491 32.4446 62.3516 32.5176C62.2054 32.6394 62.0349 32.7855 61.8643 32.9073C61.7668 32.956 61.5719 33.0047 61.5232 33.0047H60.4755C60.6947 32.6638 61.0359 32.4933 61.3039 32.3471C61.2064 32.2741 61.0115 32.2497 60.8409 32.2497C60.7922 32.2497 60.6947 32.2254 60.4511 32.2741C60.2074 32.2984 59.915 32.3228 59.6714 32.4689C59.8663 31.9575 60.4755 31.7626 60.8409 31.7383H61.0602C60.7922 31.6409 60.7191 31.6652 60.4755 31.6652C60.4267 31.6652 60.11 31.6896 59.8663 31.7139C59.915 31.6165 60.11 31.4704 60.2318 31.4217C60.9384 31.1294 61.645 31.1781 62.3516 31.0564C62.5465 31.032 62.7658 30.9346 62.9851 30.8615C63.4481 30.7641 63.9841 30.1552 64.4714 29.7656C64.8856 29.3272 65.3729 28.9132 65.8359 28.5479Z" stroke="#C9AB37" stroke-width="0.401946" stroke-miterlimit="3.864"/>
<path d="M68.1264 24.1641C68.2726 24.8216 68.3701 25.4061 68.4675 26.0394C68.5893 27.0622 69.5396 28.353 70.3924 28.4017C70.2706 28.4992 70.0025 28.5722 69.8564 28.5722C69.8076 28.5722 69.564 28.5479 69.4178 28.4748C69.4178 28.4992 69.4178 28.5235 69.4178 28.9132C69.2959 29.5464 69.1985 30.2527 68.7112 30.8615L68.9548 29.3029C68.9548 28.9862 68.9548 28.9132 68.9548 28.6696C68.9061 27.8172 68.1995 26.8674 68.0533 26.015C68.0289 25.9176 68.0289 25.8202 68.0046 25.7227C67.834 26.2342 67.1761 26.6482 66.7863 26.7213C66.7619 26.7213 66.7132 26.7456 66.6644 26.7456H66.6157C67.3711 25.8932 67.9802 25.0165 68.1264 24.1641Z" fill="#C9AB37"/>
<path d="M68.1264 24.1641C68.2726 24.8216 68.3701 25.4061 68.4675 26.0394C68.5893 27.0622 69.5396 28.353 70.3924 28.4017C70.2706 28.4992 70.0025 28.5722 69.8564 28.5722C69.8076 28.5722 69.564 28.5479 69.4178 28.4748C69.4178 28.4992 69.4178 28.5235 69.4178 28.9132C69.2959 29.5464 69.1985 30.2527 68.7112 30.8615L68.9548 29.3029C68.9548 28.9862 68.9548 28.9132 68.9548 28.6696C68.9061 27.8172 68.1995 26.8674 68.0533 26.015C68.0289 25.9176 68.0289 25.8202 68.0046 25.7227C67.834 26.2342 67.1761 26.6482 66.7863 26.7213C66.7619 26.7213 66.7132 26.7456 66.6644 26.7456H66.6157C67.3711 25.8932 67.9802 25.0165 68.1264 24.1641Z" stroke="#C9AB37" stroke-width="0.401946" stroke-miterlimit="3.864"/>
<path d="M73.2433 22.7031C73.3895 22.898 73.4383 23.1659 73.4383 23.3851C73.4383 23.8965 73.0971 24.3105 73.0971 24.3349C73.0971 24.3836 73.1215 24.5297 73.1215 24.5784C73.1215 25.0655 72.9997 25.5282 72.3418 25.991C72.5124 25.577 72.6342 25.1629 72.6342 24.7733C72.6342 24.5784 72.6098 24.2618 72.488 24.0913C73.024 23.726 73.219 23.1659 73.2433 22.7031Z" fill="#C9AB37"/>
<path d="M73.2433 22.7031C73.3895 22.898 73.4383 23.1659 73.4383 23.3851C73.4383 23.8965 73.0971 24.3105 73.0971 24.3349C73.0971 24.3836 73.1215 24.5297 73.1215 24.5784C73.1215 25.0655 72.9997 25.5282 72.3418 25.991C72.5124 25.577 72.6342 25.1629 72.6342 24.7733C72.6342 24.5784 72.6098 24.2618 72.488 24.0913C73.024 23.726 73.219 23.1659 73.2433 22.7031Z" stroke="#C9AB37" stroke-width="0.401946" stroke-miterlimit="3.864"/>
<path d="M68.9792 19.8779C69.0523 19.8779 69.2472 19.9023 69.2472 19.9997C69.2472 20.0728 69.1741 20.0484 69.0767 20.0971C68.9305 20.1458 68.9548 20.3163 68.9548 20.4137C68.9305 20.4381 68.8574 20.4868 68.833 20.4868C68.7112 20.4868 68.5894 20.3407 68.5894 20.2432C68.5894 19.9997 68.8086 19.8779 68.9792 19.8779Z" fill="#C9AB37"/>
<path d="M68.9792 19.8779C69.0523 19.8779 69.2472 19.9023 69.2472 19.9997C69.2472 20.0728 69.1741 20.0484 69.0767 20.0971C68.9305 20.1458 68.9548 20.3163 68.9548 20.4137C68.9305 20.4381 68.8574 20.4868 68.833 20.4868C68.7112 20.4868 68.5894 20.3407 68.5894 20.2432C68.5894 19.9997 68.8086 19.8779 68.9792 19.8779Z" stroke="#C9AB37" stroke-width="0.401946" stroke-miterlimit="3.864"/>
<path d="M68.6379 20.9238C68.9791 21.2404 69.1009 21.7762 69.1009 22.1659C69.1009 22.5312 68.9303 23.1401 68.5161 23.408C68.6867 22.9452 68.711 22.7261 68.711 22.3364C68.711 22.2877 68.711 21.9467 68.6623 21.7519C68.6379 21.6301 68.5405 21.4353 68.5405 21.3866C68.5648 21.2648 68.6379 21.143 68.6379 20.9238Z" fill="#C9AB37"/>
<path d="M68.6379 20.9238C68.9791 21.2404 69.1009 21.7762 69.1009 22.1659C69.1009 22.5312 68.9303 23.1401 68.5161 23.408C68.6867 22.9452 68.711 22.7261 68.711 22.3364C68.711 22.2877 68.711 21.9467 68.6623 21.7519C68.6379 21.6301 68.5405 21.4353 68.5405 21.3866C68.5648 21.2648 68.6379 21.143 68.6379 20.9238Z" stroke="#C9AB37" stroke-width="0.401946" stroke-miterlimit="3.864"/>
<path d="M69.5154 20.7295H69.6128C69.954 20.7295 70.7824 21.3384 70.8799 21.7524C70.9042 21.8742 70.9773 22.0933 70.953 22.2395L70.7337 23.7738C70.7093 24.0173 70.8068 24.3096 70.9773 24.6019C70.4413 24.3583 70.2951 23.8712 70.2951 23.4572L70.3682 22.483C70.3194 21.8498 70.0758 21.3871 69.5154 20.7295Z" fill="#C9AB37"/>
<path d="M69.5154 20.7295H69.6128C69.954 20.7295 70.7824 21.3384 70.8799 21.7524C70.9042 21.8742 70.9773 22.0933 70.953 22.2395L70.7337 23.7738C70.7093 24.0173 70.8068 24.3096 70.9773 24.6019C70.4413 24.3583 70.2951 23.8712 70.2951 23.4572L70.3682 22.483C70.3194 21.8498 70.0758 21.3871 69.5154 20.7295Z" stroke="#C9AB37" stroke-width="0.401946" stroke-miterlimit="3.864"/>
<path d="M69.5639 22.2881C69.7345 22.5316 69.7832 22.7021 69.7832 22.9457C69.7832 23.7006 69.4421 24.4069 69.4421 25.2106C69.4421 25.8925 69.6614 26.5988 70.4655 27.1346C70.5629 27.2077 70.6604 27.232 70.7335 27.3051H70.368C70.1974 27.3051 69.7832 27.0859 69.6614 26.9885C69.0766 26.5258 68.9304 25.8195 68.9304 25.2837C68.9304 24.1634 69.2715 23.7737 69.5639 22.6778C69.5639 22.556 69.5639 22.4099 69.5639 22.2881Z" fill="#C9AB37"/>
<path d="M69.5639 22.2881C69.7345 22.5316 69.7832 22.7021 69.7832 22.9457C69.7832 23.7006 69.4421 24.4069 69.4421 25.2106C69.4421 25.8925 69.6614 26.5988 70.4655 27.1346C70.5629 27.2077 70.6604 27.232 70.7335 27.3051H70.368C70.1974 27.3051 69.7832 27.0859 69.6614 26.9885C69.0766 26.5258 68.9304 25.8195 68.9304 25.2837C68.9304 24.1634 69.2715 23.7737 69.5639 22.6778C69.5639 22.556 69.5639 22.4099 69.5639 22.2881Z" stroke="#C9AB37" stroke-width="0.401946" stroke-miterlimit="3.864"/>
<path d="M70.0512 23.9932C70.2949 24.2854 70.6604 24.7238 70.7335 25.0404C70.8066 25.357 70.8066 25.6736 70.9771 25.9902C70.8797 25.9902 70.7822 25.9415 70.6847 25.8928C70.4898 25.7467 70.3192 25.5518 70.2461 25.357C70.1974 25.2109 70.0269 24.529 70.0269 24.2611V23.9932H70.0512Z" fill="#C9AB37"/>
<path d="M70.0512 23.9932C70.2949 24.2854 70.6604 24.7238 70.7335 25.0404C70.8066 25.357 70.8066 25.6736 70.9771 25.9902C70.8797 25.9902 70.7822 25.9415 70.6847 25.8928C70.4898 25.7467 70.3192 25.5518 70.2461 25.357C70.1974 25.2109 70.0269 24.529 70.0269 24.2611V23.9932H70.0512Z" stroke="#C9AB37" stroke-width="0.401946" stroke-miterlimit="3.864"/>
<path d="M57.5271 26.2096C57.9413 25.8199 58.1119 25.4546 58.185 24.8701C58.2581 25.4546 58.453 25.8199 58.8672 26.2096C58.453 26.5993 58.2824 26.989 58.185 27.5735C58.1119 26.989 57.9413 26.5993 57.5271 26.2096Z" fill="#9F0555"/>
<path d="M86.0107 26.2096C86.425 25.8199 86.5955 25.4546 86.6686 24.8701C86.7417 25.4546 86.9366 25.8199 87.3509 26.2096C86.9366 26.5993 86.7661 26.989 86.6686 27.5735C86.5711 26.989 86.4006 26.5993 86.0107 26.2096Z" fill="#9F0555"/>
<path d="M5.60392 51.3674H6.26179C6.676 51.3674 6.99276 51.4648 7.26078 51.6109C7.5288 51.7814 7.65063 52.0006 7.675 52.3172C7.675 52.6582 7.55317 52.9017 7.28515 53.0478C7.04149 53.2183 6.676 53.2914 6.18869 53.2914H5.60392V51.3674ZM5.06787 53.6324H6.21306C6.84656 53.6324 7.35824 53.5106 7.72373 53.2914C8.08921 53.0722 8.25977 52.7556 8.28414 52.3172C8.28414 52.0493 8.18667 51.8301 8.01612 51.6353C7.84556 51.4405 7.6019 51.2943 7.28515 51.1969C6.96839 51.0995 6.62727 51.0508 6.23742 51.0508H5.06787V53.6324Z" fill="#C9AB37"/>
</svg>
