<svg width="145" height="69" viewBox="0 0 145 69" fill="none" xmlns="http://www.w3.org/2000/svg">
<path d="M84.9274 34.219C84.9274 28.63 80.4217 24.082 74.8772 24.082C72.5552 24.082 70.424 24.9063 68.7134 26.254L72.0958 30.9784C72.8466 30.3213 73.8076 29.9062 74.8772 29.9062C77.2369 29.9062 79.1555 31.8407 79.1555 34.219H76.8975L82.0398 41.361L87.1843 34.219H84.9274Z" fill="#E30613"/>
<path d="M64.7835 34.2435C64.7835 39.8336 69.2892 44.3816 74.8325 44.3816C77.1545 44.3816 79.2834 43.5562 80.9964 42.2085L77.6139 37.4841C76.8632 38.1401 75.901 38.5563 74.8325 38.5563C72.474 38.5563 70.5553 36.6218 70.5553 34.2435H72.8134L67.67 27.1016L62.5266 34.2435H64.7835Z" fill="#0E3D75"/>
<path d="M140.816 45.4961C140.816 47.7949 139.361 49.1437 137.083 49.1437H7.91799C5.63827 49.1437 4.18359 47.7949 4.18359 45.4961V22.9717C4.18359 20.6718 5.63827 19.3241 7.91799 19.3241H137.083C139.361 19.3241 140.816 20.6718 140.816 22.9717V45.4961ZM137.083 16.3105H7.91799C3.75164 16.3105 1.11768 19.2042 1.11768 22.9717V45.4961C1.11768 49.2625 3.75164 52.1596 7.91799 52.1596H137.083C141.248 52.1596 143.882 49.2625 143.882 45.4961V22.9717C143.882 19.2042 141.248 16.3105 137.083 16.3105Z" fill="#0E3D75"/>
<path d="M63.8527 35.4653V43.2747H58.1917V25.1934H63.8527V30.1956L60.0795 35.4653H63.8527ZM136.335 38.6771V43.2747H123.129V25.1934H128.789V38.6771H136.335ZM56.8559 29.7932H52.0599V43.2747H46.4V29.7932H41.604V25.1934H56.8559V29.7932ZM116.33 41.2122H110.589L111.926 36.7737H114.952L112.751 29.6341L108.662 43.2747H103.002L108.662 25.1934H116.996L122.656 43.2747H116.996L116.33 41.2122ZM102.533 25.1934V43.2747H98.1297L91.2094 34.7101V43.2747H85.8638V38.2517L89.637 33.0051H85.8638V25.1934H90.5821L97.1847 33.4409V25.1934H102.533ZM38.3427 41.2122H32.6028L33.9398 36.7737H36.9657L34.7648 29.6341L30.6762 43.2747H20.4568L17.9406 38.6771H16.8401V34.5522H18.0594C19.6707 34.5522 20.4568 33.4801 20.4568 32.1727C20.4568 30.8642 19.5918 29.7932 18.0594 29.7932H15.5831V43.2747H9.92212V25.1934H18.2548C23.6405 25.1934 26.1167 28.0882 26.1167 32.0136C26.1167 34.234 25.0163 36.1385 23.1297 37.2464L25.6459 41.2941L30.6762 25.1934H39.01L44.6711 43.2747H39.01L38.3427 41.2122Z" fill="#E30613"/>
</svg>
