<svg width="230" height="109" viewBox="0 0 230 109" fill="none" xmlns="http://www.w3.org/2000/svg">
<g clip-path="url(#clip0_10866_3905)">
<path d="M141.459 100.786L140.758 83.1859C138.639 82.7316 136.68 81.6453 135.186 80.0497L115.003 58.5089L94.8192 80.0497C93.325 81.6453 91.3663 82.7316 89.2442 83.1859L88.5437 100.786C78.1382 101.952 65.8363 103.994 53.8845 107.562C75.9175 106.54 115 106.554 115 106.554C115 106.554 154.083 106.538 176.116 107.562C164.167 103.994 151.865 101.952 141.456 100.786H141.459ZM115 99.2423C115 99.2423 112.847 99.211 109.15 99.3176V87.6626C109.15 87.6626 109.15 87.6313 109.15 87.5769C109.15 86.7743 109.344 80.5019 115 80.5019C120.655 80.5019 120.847 86.7743 120.85 87.5769C120.85 87.6313 120.85 87.6626 120.85 87.6626V99.3176C117.153 99.211 115 99.2423 115 99.2423ZM138.151 33.798C138.608 36.0376 138.906 38.3032 139.059 40.5194L139.567 53.3126L129.715 42.7979L138.148 33.7954L138.151 33.798ZM81.0697 18.1053L137.271 78.0855C139.648 80.6217 143.342 81.2168 146.336 79.8191L147.322 84.4951L154.316 77.1142L149.885 76.5059C151.493 73.5962 151.14 69.8471 148.754 67.2983L92.5467 7.31782C90.1704 4.78203 86.4787 4.18445 83.485 5.58485L82.4992 0.908203L75.505 8.29212L79.9386 8.89748C78.3302 11.8073 78.683 15.5591 81.0723 18.1053H81.0697ZM110.847 42.5095C110.992 40.2232 112.958 38.4902 115.241 38.6331C117.524 38.7786 119.255 40.748 119.109 43.0343C118.964 45.3207 117 47.0537 114.717 46.9082C112.434 46.7627 110.704 44.7933 110.849 42.5095H110.847ZM115.008 27.0948L103.191 14.4809C106.382 12.3634 110.284 11.1033 115.01 11.1033C119.737 11.1033 123.639 12.3634 126.827 14.4809L115.01 27.0922L115.008 27.0948ZM116.969 29.1889L137.458 7.31782C139.835 4.78203 143.526 4.18445 146.52 5.58485L147.506 0.908203L154.502 8.29212L150.069 8.89748C151.678 11.8073 151.325 15.5591 148.938 18.1053L127.759 40.7064L116.966 29.1889H116.969ZM82.6859 84.4951L83.6718 79.8191C86.6655 81.2168 90.3598 80.6217 92.7335 78.0855L113.041 56.4148L102.247 44.8946L81.2539 67.2983C78.8672 69.8471 78.5144 73.5962 80.1228 76.5059L75.6918 77.1142L82.6859 84.4951ZM100.031 52.1408L103.339 58.3478L104.299 57.3241L102.784 55.9003L103.489 55.1468L105.004 56.5706L105.44 56.1056L106.117 56.7421L105.681 57.2072L106.768 58.2283L106.063 58.9817L104.976 57.9606L103.292 59.7586L102.612 59.122L99.3488 52.8683L100.029 52.1434L100.031 52.1408ZM93.9217 58.5114C94.2874 58.1217 94.7051 57.9191 95.1202 57.9061C95.6417 57.8905 96.1371 58.1451 96.8532 58.818C97.4006 59.3324 97.6548 59.6235 97.7845 60.008C97.8546 60.2314 97.8623 60.4834 97.8079 60.7302C98.0595 60.6679 98.3008 60.6497 98.529 60.6887C98.983 60.7822 99.2969 61.0082 100.031 61.6967C100.895 62.51 101.224 62.9412 101.237 63.583C101.243 64.0247 101.04 64.5001 100.693 64.8717C100.353 65.2354 99.891 65.4848 99.45 65.49C99.0012 65.5212 98.5732 65.3809 98.0698 64.9107L97.6496 64.5157L98.3552 63.7622L98.8015 64.1806C99.2477 64.5989 99.7146 64.5495 100.013 64.2326C100.161 64.0741 100.244 63.8896 100.21 63.6662C100.184 63.3778 100.003 63.0841 99.3255 62.4476C98.516 61.689 98.2956 61.5668 97.9791 61.5512C97.7793 61.5383 97.5847 61.6188 97.4187 61.7955L97.0867 62.1489L96.4355 61.5383L96.7676 61.1849C96.9154 61.0264 96.9906 60.8524 96.9673 60.6913C96.9414 60.3847 96.752 60.1379 96.1942 59.613C95.6365 59.0882 95.3796 58.9349 95.1176 58.9167C94.9282 58.9142 94.7596 58.9817 94.6014 59.1506C94.3134 59.4572 94.3186 59.8832 94.7544 60.2912L95.2188 60.7277L94.5131 61.4811L94.0851 61.0784C93.6026 60.6237 93.4184 60.2054 93.4028 59.7534C93.3976 59.3117 93.5818 58.8726 93.9217 58.5089V58.5114ZM88.8733 63.9C89.2131 63.5362 89.6385 63.3076 90.0796 63.3024C90.6555 63.2842 91.1251 63.5492 91.841 64.2221C92.3884 64.7365 92.6168 65.038 92.7439 65.4224C92.8139 65.6459 92.8217 65.8979 92.7828 66.1422C93.0344 66.0798 93.2757 66.0642 93.5118 66.111C93.9398 66.1967 94.2511 66.4046 94.9853 67.0957C95.8025 67.8647 96.1397 68.2856 96.1708 68.9637C96.1942 69.4054 95.9841 69.8913 95.6442 70.2523C95.294 70.6237 94.8322 70.8578 94.3835 70.8711C93.7063 70.8836 93.2653 70.5722 92.4481 69.8029C91.7139 69.1119 91.4882 68.813 91.3741 68.3922C91.3144 68.1609 91.3144 67.9167 91.3611 67.6621C91.1199 67.714 90.8682 67.7218 90.6399 67.6672C90.2482 67.5634 89.9369 67.3555 89.3869 66.8411C88.6709 66.1681 88.3777 65.7161 88.3596 65.1393C88.3466 64.6872 88.5308 64.2663 88.8706 63.9052L88.8733 63.9ZM84.1491 69.0937L84.8547 68.3402L91.4727 74.5598L90.767 75.3137L85.0337 69.9249L84.917 71.6348L84.0427 70.8139L84.1491 69.0937ZM91.8488 33.8032L100.285 42.8057L90.4324 53.3204L90.9408 40.5245C91.0939 38.3083 91.3923 36.0428 91.8488 33.8032ZM92.1861 67.7738C92.1601 67.5581 92.2354 67.3659 92.3936 67.197C92.5519 67.0307 92.7283 66.9502 92.9462 66.9632C93.2809 66.9788 93.5377 67.1528 94.2537 67.8258C94.9049 68.4389 95.1306 68.7377 95.1669 69.0521C95.1928 69.2677 95.1254 69.4522 94.9698 69.6185C94.8141 69.7873 94.6169 69.8835 94.4094 69.8627C94.0928 69.8445 93.7816 69.6393 93.1304 69.0287C92.4144 68.3558 92.2276 68.1089 92.1887 67.7764L92.1861 67.7738ZM89.361 65.0302C89.3532 64.8509 89.4232 64.6846 89.5607 64.5365C89.6904 64.3962 89.8513 64.3183 90.0329 64.313C90.3131 64.313 90.5491 64.4326 91.1718 65.0172C91.7943 65.6017 91.9371 65.8408 91.9552 66.1214C91.9604 66.3007 91.8852 66.4565 91.7529 66.5969C91.6128 66.7449 91.4623 66.8307 91.2833 66.8384C91.0031 66.8384 90.7567 66.7111 90.134 66.1266C89.5114 65.542 89.3791 65.3108 89.361 65.0302Z" fill="#E30613"/>
</g>
<defs>
<clipPath id="clip0_10866_3905">
<rect width="123" height="108" fill="white" transform="translate(53.5 0.234375)"/>
</clipPath>
</defs>
</svg>
