<svg width="230" height="109" viewBox="0 0 230 109" fill="none" xmlns="http://www.w3.org/2000/svg">
<g clip-path="url(#clip0_10866_4257)">
<path d="M150.293 73.3971H159.96V35.0273H150.293V73.3971Z" fill="#172554"/>
<path d="M124.632 73.3971H134.299V35.0273H124.632V73.3971Z" fill="#172554"/>
<path d="M110.932 34.509C108.367 34.509 105.409 35.3187 102.197 36.0102V22.3145H92.5332V73.3977H102.085V43.2281C105.305 42.3698 108.27 42.203 109.945 42.203C111.414 42.203 111.749 43.4495 111.749 44.7596V73.3977H121.413V43.8377C121.413 37.6449 118.056 34.509 110.881 34.509" fill="#172554"/>
<path d="M64.9926 34.3952C64.9926 31.135 67.1161 29.7278 70.3183 29.7278C76.4208 29.7278 87.6998 30.765 87.6998 30.765V22.9133C82.886 22.6161 79.0258 22.2461 69.7973 22.2461C60.5687 22.2461 54 26.3221 54 35.8781C54 50.696 78.6266 51.3632 78.6266 60.5493C78.6266 64.2522 77.3348 65.8079 73.9835 65.8079C67.4329 65.8079 57.2112 64.9194 57.2112 64.9194V72.6255C62.0251 72.9956 67.6889 73.3655 74.4648 73.3655C83.3947 73.3655 89.939 69.2167 89.939 59.7334C89.939 43.8784 64.9986 42.6927 64.9986 34.3952" fill="#172554"/>
<path d="M137.519 35.0273V76.1934C137.519 78.3435 137.519 80.1358 132.571 80.7728V85.8253C134.183 86.1588 136.456 86.1649 136.928 86.1649C142.732 86.1649 147.07 84.318 147.07 75.426V35.0273H137.519Z" fill="#172554"/>
<path d="M129.44 23.0312C127.222 23.0312 125.427 24.8206 125.427 27.0253C125.427 29.2301 127.225 31.0194 129.44 31.0194C131.655 31.0194 133.453 29.2301 133.453 27.0253C133.453 24.8206 131.655 23.0312 129.44 23.0312Z" fill="#172554"/>
<path d="M118.203 23.832C116.43 23.832 114.991 25.2635 114.991 27.0285C114.991 28.7936 116.43 30.225 118.203 30.225C119.976 30.225 121.414 28.7936 121.414 27.0285C121.414 25.2635 119.976 23.832 118.203 23.832Z" fill="#172554"/>
<path d="M110.174 25.4336C109.288 25.4336 108.569 26.1493 108.569 27.0318C108.569 27.9144 109.288 28.6301 110.174 28.6301C111.061 28.6301 111.78 27.9144 111.78 27.0318C111.78 26.1493 111.061 25.4336 110.174 25.4336Z" fill="#172554"/>
<path d="M142.284 22.2344C139.624 22.2344 137.467 24.3815 137.467 27.0291C137.467 29.6767 139.624 31.8238 142.284 31.8238C144.944 31.8238 147.101 29.6767 147.101 27.0291C147.101 24.3815 144.944 22.2344 142.284 22.2344Z" fill="#172554"/>
<path d="M155.127 31.0233C157.345 31.0233 159.14 29.234 159.14 27.0292C159.14 24.8245 157.342 23.0352 155.127 23.0352C152.912 23.0352 151.115 24.8245 151.115 27.0292C151.115 29.234 152.912 31.0233 155.127 31.0233Z" fill="#172554"/>
<path d="M166.366 30.225C168.139 30.225 169.577 28.7936 169.577 27.0285C169.577 25.2635 168.139 23.832 166.366 23.832C164.593 23.832 163.155 25.2635 163.155 27.0285C163.155 28.7936 164.593 30.225 166.366 30.225Z" fill="#172554"/>
<path d="M174.394 28.6301C175.281 28.6301 176 27.9144 176 27.0318C176 26.1493 175.281 25.4336 174.394 25.4336C173.508 25.4336 172.789 26.1493 172.789 27.0318C172.789 27.9144 173.508 28.6301 174.394 28.6301Z" fill="#172554"/>
</g>
<defs>
<clipPath id="clip0_10866_4257">
<rect width="122" height="64" fill="white" transform="translate(54 22.2344)"/>
</clipPath>
</defs>
</svg>
