<svg width="232" height="109" viewBox="0 0 232 109" fill="none" xmlns="http://www.w3.org/2000/svg">
<g clip-path="url(#clip0_10866_4745)">
<path d="M23.4393 47.4755H16.6989V67.408H8.83436V47.4755H2.05786V41.0605H23.4401V47.4755H23.4393Z" fill="#AC1410"/>
<path d="M52.2875 67.408H43.9159L42.7194 62.9145H35.0003L33.8037 67.408H25.4321L33.2244 41.0605H44.6769L52.2875 67.408ZM41.3059 57.0066L38.8783 47.0769L36.4861 57.0066H41.3059Z" fill="#AC1410"/>
<path d="M78.2717 60.4853C78.2717 63.3845 77.2938 65.3421 75.3363 66.357C73.9589 67.058 71.6398 67.408 68.3781 67.408H55.8022V41.0605H68.5589C71.482 41.0605 73.608 41.3991 74.9377 42.0755C76.8221 43.0181 77.7647 44.7824 77.7647 47.367V49.0336C77.7647 51.5705 76.6774 53.1647 74.503 53.8172C77.0152 54.759 78.2717 56.4749 78.2717 58.9633V60.4853ZM69.9001 49.8669V48.8528C69.9001 47.911 69.3232 47.4393 68.1702 47.4393H63.5575V51.2804H68.1694C69.3224 51.2804 69.9001 50.8095 69.9001 49.8669ZM70.3348 59.4712V58.4201C70.3348 57.4052 69.7062 56.8981 68.4505 56.8981H63.5575V60.9931H68.4496C69.7062 60.9931 70.3348 60.4853 70.3348 59.4712Z" fill="#AC1410"/>
<path d="M102.843 67.408H83.2002V41.0605H91.0647V60.74H102.843V67.408Z" fill="#AC1410"/>
<path d="M127.233 67.408H106.431V41.0605H126.943V47.4755H114.223V51.2072H126.581V56.8612H114.223V60.9923H127.234V67.408H127.233Z" fill="#AC1410"/>
<path d="M164.416 67.408H156.479V62.4428C156.479 61.4763 156.28 60.8123 155.881 60.4491C155.483 60.0867 154.788 59.9059 153.797 59.9059H150.245V67.408H142.453V41.0605H153.434C157.01 41.0605 159.546 41.4115 161.045 42.1116C163.291 43.175 164.415 45.2772 164.415 48.4181V50.5194C164.415 53.6126 163.134 55.557 160.573 56.3549C163.134 57.1282 164.415 58.928 164.415 61.7549V67.408H164.416ZM156.479 50.9541V49.9762C156.479 48.9859 156.287 48.3219 155.903 47.9833C155.518 47.6456 154.822 47.4763 153.813 47.4763H150.246V53.4195H153.813C154.797 53.4195 155.488 53.251 155.885 52.9124C156.281 52.5739 156.479 51.9205 156.479 50.9541Z" fill="#AC1410"/>
<path d="M193.083 56.8982C193.083 60.8362 192.309 63.6271 190.763 65.2698C189.216 66.9126 186.498 67.7336 182.608 67.7336H179.129C175.214 67.7336 172.484 66.9003 170.939 65.2337C169.44 63.6386 168.691 60.8601 168.691 56.8982V51.5336C168.691 47.5955 169.458 44.8113 170.992 43.18C172.527 41.5504 175.238 40.7344 179.13 40.7344H182.609C186.523 40.7344 189.246 41.5504 190.781 43.1809C192.315 44.8121 193.083 47.5963 193.083 51.5344V56.8982ZM185.145 56.355V52.1146C185.145 50.2055 184.965 48.986 184.602 48.4543C184.142 47.8018 183.116 47.4764 181.522 47.4764H180.217C178.598 47.4764 177.559 47.8503 177.1 48.5998C176.786 49.1315 176.629 50.3025 176.629 52.1154V56.3558C176.629 58.2402 176.81 59.4482 177.173 59.9791C177.631 60.6324 178.646 60.9587 180.217 60.9587H181.522C183.165 60.9587 184.203 60.584 184.638 59.8345C184.976 59.3258 185.145 58.1662 185.145 56.355Z" fill="#AC1410"/>
<path d="M219.973 57.9131C219.973 61.4173 219.181 63.9286 217.599 65.4514C216.016 66.9734 213.461 67.7344 209.934 67.7344H207.542C203.627 67.7344 200.897 66.9011 199.352 65.2345C197.853 63.6394 197.104 60.8609 197.104 56.899V51.5344C197.104 47.5963 197.873 44.8121 199.412 43.1809C200.952 41.5504 203.673 40.7344 207.576 40.7344H209.539C213.247 40.7344 215.866 41.3869 217.392 42.6919C219.041 44.1177 219.864 46.6414 219.864 50.2655V51.135H212.108V50.3017C212.108 49.1914 211.834 48.442 211.284 48.0549C210.734 47.6678 209.873 47.4755 208.702 47.4755C207.14 47.4755 206.125 47.8741 205.661 48.6712C205.368 49.2029 205.222 50.351 205.222 52.1146V56.355C205.222 58.2155 205.392 59.4113 205.732 59.9421C206.169 60.6185 207.153 60.9579 208.683 60.9579C209.945 60.9579 210.833 60.7343 211.342 60.2873C211.852 59.8411 212.107 59.0004 212.107 57.7685V56.8267H219.972V57.9131H219.973Z" fill="#AC1410"/>
<path d="M229.985 45.9188C229.985 47.0858 229.577 48.0818 228.758 48.9077C227.939 49.7336 226.946 50.1461 225.779 50.1461C224.605 50.1461 223.607 49.7361 222.785 48.9134C221.962 48.0908 221.551 47.0932 221.551 45.9188C221.551 44.7445 221.962 43.7501 222.785 42.9349C223.607 42.1197 224.605 41.7129 225.779 41.7129C226.946 41.7129 227.939 42.1213 228.758 42.9398C229.577 43.7592 229.985 44.7519 229.985 45.9188ZM229.192 45.9188C229.192 44.9647 228.862 44.1569 228.201 43.4962C227.54 42.8355 226.733 42.5051 225.779 42.5051C224.817 42.5051 224.005 42.8338 223.341 43.4913C222.677 44.1479 222.344 44.9573 222.344 45.9188C222.344 46.8877 222.675 47.7029 223.335 48.3637C223.996 49.0244 224.81 49.3547 225.78 49.3547C226.742 49.3547 227.551 49.0227 228.208 48.3579C228.864 47.6939 229.192 46.8803 229.192 45.9188ZM228.004 45.0601C228.004 45.8818 227.593 46.2927 226.77 46.2927L227.871 48.2092H226.836L225.823 46.2927H224.92V48.2092H224.04V43.6729H226.24C226.792 43.6729 227.203 43.7468 227.474 43.8939C227.827 44.1347 228.004 44.5242 228.004 45.0601ZM227.123 44.9277C227.123 44.6705 226.995 44.4979 226.737 44.41C226.59 44.3582 226.352 44.3328 226.022 44.3328H224.92V45.6098H226.263C226.549 45.6098 226.755 45.5696 226.88 45.4882C227.042 45.3863 227.123 45.1998 227.123 44.9277Z" fill="#AC1410"/>
</g>
<defs>
<clipPath id="clip0_10866_4745">
<rect width="231.429" height="27" fill="white" transform="translate(0.285645 40.7344)"/>
</clipPath>
</defs>
</svg>
