<svg width="230" height="109" viewBox="0 0 230 109" fill="none" xmlns="http://www.w3.org/2000/svg">
<g clip-path="url(#clip0_10866_4792)">
<path d="M25.3541 70.7072V74.2114H29.6304V70.7072H31.2213V79.0312H29.6304V75.5153H25.3541V79.0312H23.7617V70.7072H25.3541ZM41.0864 74.8721C41.0864 75.4244 41.2095 75.9225 41.4571 76.3635C41.7046 76.8044 42.0504 77.1443 42.4928 77.3875C42.9352 77.6307 43.4362 77.7508 43.9944 77.7508C44.8397 77.7508 45.5341 77.4812 46.079 76.9465C46.624 76.4104 46.8965 75.7174 46.8965 74.8721C46.8965 74.3198 46.7734 73.8218 46.5273 73.3793C46.2884 72.9434 45.9281 72.5861 45.4901 72.3509C45.0263 72.1048 44.5077 71.9798 43.9827 71.9876C43.426 71.9876 42.922 72.1107 42.4767 72.3539C42.0299 72.6 41.6871 72.9398 41.4468 73.3793C41.2066 73.8188 41.0864 74.3169 41.0864 74.8721ZM43.9944 70.6003C44.794 70.5883 45.5844 70.7714 46.2973 71.1335C46.9785 71.4895 47.522 72.0023 47.9278 72.6718C48.3322 73.3398 48.5358 74.0737 48.5358 74.8721C48.5398 75.6353 48.3349 76.385 47.9435 77.0401C47.552 77.6952 46.9888 78.2307 46.3149 78.5888C45.5945 78.9623 44.7926 79.1511 43.9812 79.1381C43.1714 79.149 42.372 78.9561 41.6563 78.577C40.9575 78.2049 40.414 77.6907 40.0258 77.0374C39.6376 76.384 39.4413 75.6632 39.4413 74.8707C39.4413 74.1074 39.6361 73.3911 40.0258 72.7186C40.4063 72.0581 40.964 71.5171 41.6358 71.157C42.3185 70.7863 43.1052 70.6003 43.9944 70.6003ZM63.1108 70.7072V71.9656H60.1852V79.0312H58.5928V71.9656H55.6687V70.7072H63.1108ZM76.3775 70.7072V71.9656H72.6448V74.1514H76.2178V75.4068H72.6448V77.7728H76.461V79.0312H71.0523V70.7072H76.3775ZM86.2719 70.7072V77.7728H90.2698V79.0312H84.678V70.7072H86.2719ZM112.505 70.6003C112.972 70.6003 113.431 70.6545 113.879 70.7614C114.328 70.8684 114.811 71.0515 115.33 71.3093V72.8226C114.886 72.5571 114.415 72.3428 113.923 72.1839C113.494 72.0521 113.044 71.9861 112.575 71.9861C111.989 71.9861 111.461 72.1092 110.989 72.3524C110.53 72.585 110.148 72.9445 109.889 73.3881C109.625 73.8374 109.49 74.35 109.496 74.8707C109.496 75.4274 109.625 75.9269 109.884 76.3664C110.145 76.8074 110.51 77.1472 110.983 77.3875C111.455 77.6277 111.985 77.7479 112.574 77.7479C113.027 77.7479 113.459 77.6819 113.869 77.5501C114.279 77.4182 114.798 77.1824 115.423 76.8411V78.3544C114.889 78.6371 114.396 78.8378 113.95 78.9565C113.437 79.0856 112.909 79.1466 112.381 79.1381C111.51 79.1381 110.734 78.9638 110.051 78.6151C109.367 78.265 108.829 77.7625 108.438 77.1047C108.047 76.447 107.852 75.7262 107.852 74.9439C107.852 74.106 108.053 73.353 108.456 72.6864C108.859 72.0198 109.414 71.5042 110.119 71.1423C110.859 70.7728 111.678 70.5869 112.505 70.6003ZM124.868 74.8721C124.868 75.4244 124.991 75.9225 125.24 76.3635C125.488 76.8044 125.832 77.1443 126.276 77.3875C126.717 77.6307 127.218 77.7508 127.774 77.7508C128.621 77.7508 129.316 77.4812 129.861 76.9465C130.404 76.4104 130.677 75.7174 130.677 74.8721C130.677 74.3198 130.553 73.8218 130.309 73.3793C130.07 72.9434 129.71 72.5861 129.272 72.3509C128.825 72.1092 128.322 71.9876 127.764 71.9876C127.206 71.9876 126.704 72.1107 126.26 72.3539C125.813 72.6 125.47 72.9398 125.23 73.3793C124.99 73.8188 124.868 74.3169 124.868 74.8721ZM127.776 70.6003C128.629 70.6003 129.398 70.779 130.079 71.1335C130.76 71.4895 131.305 72.0023 131.709 72.6718C132.114 73.3398 132.316 74.0737 132.316 74.8721C132.316 75.65 132.118 76.3723 131.724 77.0388C131.336 77.6969 130.773 78.2337 130.096 78.5888C129.377 78.9633 128.575 79.1526 127.764 79.1396C126.954 79.1503 126.154 78.9574 125.438 78.5785C124.739 78.2064 124.196 77.6922 123.807 77.0388C123.419 76.3854 123.224 75.6647 123.224 74.8721C123.224 74.1089 123.419 73.3925 123.807 72.7201C124.197 72.0506 124.735 71.5305 125.419 71.1584C126.103 70.7863 126.888 70.6003 127.776 70.6003ZM141.939 70.7072L146.834 76.5173V70.7072H148.391V79.0312H147.023L142.099 73.1259V79.0312H140.543V70.7072H141.939ZM161.258 70.6003C161.724 70.6003 162.182 70.6545 162.632 70.7614C163.082 70.8684 163.565 71.0515 164.082 71.3093V72.8226C163.575 72.5282 163.107 72.3158 162.676 72.1839C162.245 72.0521 161.795 71.9861 161.33 71.9861C160.778 71.9782 160.234 72.1039 159.742 72.3524C159.283 72.585 158.901 72.9445 158.641 73.3881C158.378 73.8374 158.242 74.35 158.249 74.8707C158.249 75.4274 158.379 75.9269 158.638 76.3664C158.898 76.8059 159.264 77.1472 159.736 77.3875C160.207 77.6277 160.738 77.7479 161.33 77.7479C161.781 77.7479 162.211 77.6819 162.623 77.5501C163.032 77.4182 163.552 77.1824 164.177 76.8411V78.3544C163.643 78.6371 163.151 78.8378 162.704 78.9565C162.19 79.0829 161.663 79.1429 161.135 79.1352C160.266 79.1352 159.49 78.9609 158.804 78.6122C158.132 78.2739 157.572 77.7496 157.19 77.1018C156.801 76.4484 156.599 75.7011 156.605 74.941C156.605 74.103 156.807 73.35 157.21 72.6835C157.613 72.0169 158.167 71.5012 158.873 71.1394C159.613 70.7722 160.431 70.5873 161.258 70.6003ZM177.75 70.7072V71.9656H174.016V74.1514H177.591V75.4068H174.016V77.7728H177.834V79.0312H172.425V70.7072H177.75ZM188.84 74.2832C189.265 74.2832 189.598 74.1865 189.835 73.9888C190.072 73.791 190.191 73.5009 190.191 73.1156C190.191 72.3495 189.705 71.9656 188.729 71.9656H187.645V74.2832H188.84ZM189.237 70.7072C190.008 70.7072 190.635 70.9328 191.114 71.384C191.596 71.8353 191.836 72.4154 191.836 73.1259C191.836 73.8437 191.593 74.4268 191.105 74.8707C190.617 75.3146 189.976 75.5372 189.179 75.5372H187.645V79.0297H186.052V70.7058H189.237V70.7072ZM206.672 70.7072V71.9656H203.748V79.0312H202.154V71.9656H199.23V70.7072H206.672Z" fill="#808184"/>
<path d="M18.5187 30.795L11.8238 46.5815L4.95452 30.795H0L11.0766 55.6995H12.7115L23.4395 30.795H18.5187ZM32.7845 42.443C32.7845 44.1043 33.1566 45.5985 33.9038 46.9258C34.6256 48.2299 35.7059 49.3 37.0168 50.0095C38.3485 50.7391 39.8545 51.1024 41.5333 51.1024C44.078 51.1024 46.1685 50.2967 47.8078 48.6823C49.4456 47.0694 50.2645 44.9891 50.2645 42.443C50.2645 40.7817 49.8954 39.2845 49.1555 37.9529C48.4367 36.6407 47.3515 35.5661 46.0322 34.8603C44.6889 34.1308 43.177 33.766 41.4982 33.766C39.8178 33.766 38.306 34.1337 36.9641 34.8691C35.6525 35.5721 34.5758 36.6443 33.8671 37.9529C33.1464 39.2728 32.7845 40.77 32.7845 42.443ZM41.5348 29.5879C44.1014 29.5879 46.4131 30.1226 48.4655 31.192C50.5008 32.2452 52.2003 33.8474 53.3717 35.8169C54.5854 37.8121 55.2186 40.1063 55.2 42.4415C55.213 44.7358 54.5963 46.9896 53.4171 48.9577C52.2506 50.9381 50.5538 52.5532 48.5183 53.6207C46.4424 54.7253 44.1014 55.2776 41.4996 55.2776C38.9315 55.2776 36.5978 54.7165 34.4985 53.5929C32.3992 52.4692 30.7629 50.9237 29.5924 48.9577C28.4204 46.9932 27.8344 44.8206 27.8344 42.4415C27.8344 40.1474 28.4204 37.9895 29.5924 35.9708C30.7343 33.9788 32.413 32.3478 34.437 31.2638C36.4953 30.1475 38.8597 29.5879 41.5348 29.5879ZM75.6055 29.5879C78.6571 29.5879 81.6866 30.275 84.6913 31.6491V36.0777C81.6866 34.5351 78.7289 33.7645 75.818 33.7645C74.0073 33.7645 72.3987 34.1293 70.9909 34.8588C69.6117 35.5601 68.4721 36.6554 67.7167 38.0056C66.9417 39.3739 66.555 40.9018 66.555 42.5866C66.555 45.1444 67.3973 47.2027 69.0835 48.7629C70.7697 50.323 72.9906 51.1024 75.7477 51.1024C76.505 51.1024 77.2302 51.0365 77.9217 50.9046C78.6146 50.7728 79.4394 50.5223 80.3975 50.1516V45.9926H76.2985V42.2101H85.1894V52.5366C83.9705 53.3966 82.507 54.069 80.7959 54.5539C79.0863 55.0373 77.3093 55.279 75.4634 55.279C72.8485 55.279 70.4796 54.7355 68.3554 53.6485C66.2312 52.5615 64.5758 51.0365 63.3862 49.0764C62.1967 47.1162 61.6034 44.9276 61.6034 42.5148C61.6034 40.0639 62.204 37.8474 63.4038 35.8623C64.6036 33.8788 66.2781 32.3362 68.4257 31.236C70.5734 30.1373 72.9671 29.5879 75.6055 29.5879ZM97.999 29.9102V51.1742H110.031V54.9567H93.2071V29.9102H97.999ZM123.993 45.1854H131.997L127.81 35.2705L123.993 45.1854ZM130.239 29.9102L141.189 54.9567H136.132L133.558 48.861H122.539L120.142 54.9567H115.12L125.343 29.9102H130.239ZM152.72 29.9102V44.4852C152.72 45.9794 152.943 47.169 153.387 48.0538C153.83 48.9387 154.554 49.6682 155.559 50.241C156.564 50.8138 157.735 51.1009 159.072 51.1009C160.539 51.1009 161.785 50.8285 162.808 50.285C163.832 49.7415 164.579 49.0002 165.054 48.0611C165.525 47.1236 165.763 45.8241 165.763 44.1614V29.9087H170.555V44.7884C170.555 48.1593 169.554 50.7494 167.554 52.5615C165.556 54.3722 162.727 55.2776 159.072 55.2776C156.777 55.2776 154.787 54.8659 153.101 54.0411C151.415 53.2164 150.13 52.0239 149.241 50.4637C148.354 48.9035 147.911 47.0723 147.911 44.9686V29.9087L152.72 29.9102ZM198.412 29.9102V33.6942H187.179V40.2734H197.932V44.0559H187.179V51.1742H198.66V54.9567H182.386V29.9102H198.412ZM217.517 40.5957C218.771 40.5957 219.755 40.2792 220.472 39.6449C221.188 39.012 221.546 38.1448 221.546 37.046C221.546 35.899 221.19 35.0405 220.481 34.4736C219.77 33.9052 218.759 33.6224 217.447 33.6224H214.465V40.5957H217.517ZM218.601 29.9102C220.932 29.9102 222.83 30.5621 224.298 31.8645C225.765 33.1668 226.499 34.8647 226.499 36.9567C226.499 38.3792 226.135 39.6185 225.407 40.6777C224.679 41.7354 223.601 42.569 222.17 43.1784C222.961 43.6076 223.665 44.1936 224.281 44.9349C224.896 45.6762 225.658 46.9243 226.569 48.6823C228.082 51.7177 229.207 53.8097 229.94 54.9567H224.599C224.232 54.4074 223.736 53.5284 223.109 52.3213C221.736 49.6565 220.73 47.8604 220.091 46.9331C219.451 46.0073 218.838 45.3495 218.245 44.9613C217.652 44.573 216.974 44.3782 216.203 44.3782H214.464V54.9567H209.672V29.9102H218.601Z" fill="#651B28"/>
</g>
<defs>
<clipPath id="clip0_10866_4792">
<rect width="230" height="49.8089" fill="white" transform="translate(0 29.3301)"/>
</clipPath>
</defs>
</svg>
