<svg width="145" height="69" viewBox="0 0 145 69" fill="none" xmlns="http://www.w3.org/2000/svg">
<g clip-path="url(#clip0_10866_4807)">
<path d="M145 41.9482V40.8024C145 37.3377 142.938 35.4941 139.83 35.4941C136.525 35.4941 133.981 38.2036 133.981 41.8638C133.981 45.8316 136.694 48.2346 140.253 48.2346C141.697 48.2346 143.186 47.9043 144.276 47.1834C144.313 47.164 144.347 47.1419 144.379 47.1167C144.409 47.092 144.438 47.0673 144.464 47.0389C144.579 46.9138 144.651 46.7485 144.651 46.5658V46.565C144.651 46.3819 144.579 46.2166 144.464 46.0915C144.333 45.9493 144.147 45.8594 143.937 45.8594C143.93 45.8594 143.924 45.8618 143.915 45.8618C143.862 45.8634 143.81 45.8726 143.759 45.8852C143.743 45.8891 143.727 45.8941 143.711 45.9004C143.661 45.9165 143.616 45.9364 143.573 45.9619C143.568 45.9656 143.563 45.9664 143.558 45.9695C143.55 45.9735 143.542 45.9793 143.533 45.9843C142.583 46.5009 141.57 46.7537 140.253 46.7537C137.851 46.7537 135.676 44.993 135.676 42.0037V41.9479H144.999L145 41.9482ZM139.744 36.974C141.807 36.974 143.191 38.0081 143.305 40.5512H135.789C136.269 38.2596 137.823 36.974 139.744 36.974Z" fill="black"/>
<path d="M124.916 35.4941C123.248 35.4941 121.384 35.8289 119.746 36.4157V47.3957C119.746 47.6123 119.83 47.807 119.966 47.9549C120.121 48.1258 120.344 48.2343 120.594 48.2343C120.843 48.2343 121.066 48.1255 121.222 47.9549C121.354 47.8091 121.438 47.6186 121.44 47.407C121.44 47.4031 121.441 47.3997 121.441 47.3957C121.441 47.391 121.44 47.3873 121.44 47.3841V37.5053C122.316 37.2822 123.475 37.058 124.774 37.058C126.441 37.058 128.222 37.5894 128.222 40.0763V47.381C128.222 47.3868 128.22 47.3915 128.22 47.3957C128.22 47.4012 128.222 47.4062 128.222 47.411C128.224 47.5371 128.255 47.6559 128.308 47.762C128.446 48.0411 128.733 48.2348 129.068 48.2348C129.403 48.2348 129.689 48.0411 129.828 47.762C129.882 47.6509 129.916 47.5282 129.916 47.3957V39.7407C129.916 36.6956 128.023 35.4941 124.916 35.4941Z" fill="black"/>
<path d="M110.799 35.4944C109.429 35.4944 108.165 35.8489 107.146 36.364C107.139 36.3672 107.132 36.37 107.126 36.374C107.075 36.3963 107.029 36.4258 106.985 36.4589C106.811 36.5905 106.697 36.7953 106.697 37.0289C106.697 37.2625 106.811 37.4683 106.985 37.5994C107.107 37.6922 107.259 37.7497 107.425 37.7497C107.515 37.7497 107.601 37.7316 107.68 37.7022C107.706 37.6909 107.731 37.6785 107.758 37.6672C108.625 37.2917 109.512 37.0578 110.601 37.0578C112.183 37.0578 113.201 37.8685 113.201 39.4332V40.9144H111.815C108.058 40.9144 105.827 42.1716 105.827 44.5738C105.827 47.1448 108.058 48.1786 111.392 48.1786C112.437 48.1786 113.765 48.0383 114.895 47.7316V39.3218C114.895 36.5834 113.285 35.4944 110.799 35.4944ZM113.201 46.6142C112.607 46.7261 111.985 46.7829 111.477 46.7829C109.217 46.7829 107.522 46.1958 107.522 44.5738C107.522 42.9518 109.387 42.2833 111.929 42.2833H113.201V46.6142Z" fill="black"/>
<path d="M100.875 30.7344C100.407 30.7344 100.027 31.1104 100.027 31.5727V47.3953C100.027 47.6118 100.112 47.8065 100.247 47.9545C100.402 48.1253 100.625 48.2338 100.874 48.2338C101.123 48.2338 101.347 48.125 101.503 47.9545C101.638 47.8065 101.723 47.6118 101.723 47.3953V31.5727C101.723 31.1104 101.344 30.7344 100.875 30.7344Z" fill="black"/>
<path d="M95.6162 41.9482V40.8024C95.6162 37.3377 93.5537 35.4941 90.4463 35.4941C87.1413 35.4941 84.5972 38.2036 84.5972 41.8638C84.5972 45.8316 87.3101 48.2346 90.8692 48.2346C92.3131 48.2346 93.8016 47.9043 94.8922 47.1837C94.9292 47.164 94.9632 47.1419 94.9956 47.1167C95.0255 47.092 95.0544 47.0678 95.0798 47.0389C95.1948 46.9146 95.2673 46.7485 95.2673 46.5658V46.565C95.2673 46.3819 95.1943 46.2166 95.0798 46.0915C94.949 45.9493 94.7629 45.8594 94.553 45.8594C94.5464 45.8594 94.5398 45.8618 94.5327 45.8618C94.4785 45.8634 94.4262 45.8728 94.375 45.8852C94.3588 45.8891 94.3431 45.8941 94.3274 45.9004C94.2792 45.9167 94.2326 45.9364 94.189 45.9619C94.1849 45.9656 94.1793 45.9664 94.1743 45.9695C94.1662 45.9735 94.1586 45.9793 94.1504 45.9843C93.2003 46.5009 92.1869 46.7537 90.8697 46.7537C88.4681 46.7537 86.2926 44.993 86.2926 42.0037V41.9479L95.6162 41.9482ZM90.3607 36.974C92.4236 36.974 93.8077 38.0081 93.9218 40.5512H86.4061C86.8857 38.2596 88.4402 36.974 90.3607 36.974Z" fill="black"/>
<path d="M82.7636 35.7543C82.7226 35.7373 82.6784 35.7246 82.6338 35.7144C82.6237 35.7123 82.613 35.7102 82.6024 35.7081C81.954 35.5641 81.3268 35.4902 80.7012 35.4902C79.0063 35.4902 77.424 35.993 76.1235 36.8029V47.395C76.1235 47.6115 76.2087 47.8063 76.3446 47.9542C76.4997 48.1237 76.7213 48.232 76.9707 48.232C77.2196 48.232 77.4427 48.1237 77.5974 47.9542C77.7332 47.8063 77.8184 47.6115 77.8184 47.395V37.6972C78.4694 37.334 79.3729 37.0828 80.5871 37.0828C81.0333 37.0828 81.67 37.1185 82.281 37.257C82.2876 37.2589 82.2941 37.2604 82.3017 37.262C82.3519 37.2715 82.4037 37.277 82.4554 37.277C82.5644 37.277 82.6683 37.2544 82.7631 37.2152C83.0531 37.0972 83.2574 36.8153 83.2574 36.4852C83.2574 36.1551 83.0531 35.8729 82.7631 35.7541L82.7636 35.7543Z" fill="black"/>
<path d="M69.2847 30.7344C68.6063 30.7344 68.0137 31.2939 68.0137 31.9921C68.0137 32.6636 68.6063 33.2496 69.2847 33.2496C69.9915 33.2496 70.5557 32.6636 70.5557 31.9921C70.5557 31.2939 69.9915 30.7344 69.2847 30.7344Z" fill="black"/>
<path d="M69.9123 35.7715C69.7572 35.6012 69.5341 35.4922 69.2847 35.4922C69.0352 35.4922 68.8127 35.6012 68.657 35.7715C68.5424 35.8984 68.4684 36.0574 68.4471 36.2351C68.441 36.2608 68.438 36.2905 68.438 36.331V47.3909L68.4375 47.3948L68.438 47.3977C68.4385 47.6129 68.5237 47.8069 68.658 47.954C68.8132 48.1236 69.0352 48.2318 69.2847 48.2318C69.5346 48.2318 69.7562 48.1236 69.9108 47.954C70.0467 47.8061 70.1314 47.6114 70.1314 47.3948V47.3927L70.1324 47.3909V36.331C70.1324 36.2905 70.1288 36.2608 70.1227 36.2351C70.102 36.0574 70.0269 35.8984 69.9123 35.7715Z" fill="black"/>
<path d="M64.1596 31.5483C64.1596 31.4802 64.149 31.4142 64.1317 31.3512C64.043 30.9966 63.7221 30.7344 63.3373 30.7344C62.9525 30.7344 62.631 30.9969 62.5418 31.3512H62.5403L62.5357 31.3703L62.5301 31.3885L58.7769 45.6293C58.7206 45.6214 58.6648 45.6119 58.607 45.6119C58.565 45.6119 58.5259 45.6201 58.4848 45.6237L55.0028 31.6174L55.0003 31.604C54.9805 31.5141 54.9471 31.4303 54.907 31.3512C54.7265 30.9885 54.3529 30.7357 53.9153 30.7357C53.4778 30.7357 53.1041 30.9885 52.9226 31.3512C52.8897 31.4153 52.8653 31.4836 52.8461 31.5543L52.8248 31.6379L49.3201 45.6295C49.2619 45.6211 49.2041 45.6116 49.144 45.6116C49.1042 45.6116 49.0676 45.6193 49.0288 45.6227L45.3196 31.4484L45.2942 31.3509H45.2929C45.1862 30.9977 44.8599 30.7394 44.4683 30.7394C44.0768 30.7394 43.7499 30.9977 43.6422 31.3509C43.6186 31.4292 43.6016 31.5107 43.6016 31.5969C43.6016 31.6539 43.6074 31.7104 43.6186 31.7659L43.6248 31.7856L47.845 47.1853L47.8467 47.1916C47.8929 47.411 47.9985 47.6068 48.1407 47.7708C48.3841 48.0523 48.7399 48.2341 49.1438 48.2341C49.5476 48.2341 49.9038 48.0523 50.1465 47.7708C50.2893 47.6058 50.3954 47.4084 50.4419 47.1879V47.1861L53.8748 33.3143L57.3071 47.1819L57.3107 47.1963C57.3578 47.4142 57.4622 47.6089 57.6032 47.7708C57.8465 48.0523 58.203 48.2341 58.6065 48.2341C59.0101 48.2341 59.3655 48.0523 59.6089 47.7708C59.7503 47.6079 59.8563 47.4121 59.9019 47.1934C59.9024 47.1913 59.9039 47.1882 59.9049 47.1848L64.1373 31.7343V31.7293C64.1373 31.7317 64.1358 31.7338 64.1358 31.7359C64.1358 31.7338 64.1368 31.7317 64.1373 31.7293C64.151 31.6705 64.1596 31.6105 64.1596 31.5483Z" fill="black"/>
<path d="M9.99276 48.2343C9.33484 48.2343 8.66834 48.0707 8.05696 47.7267C6.19168 46.6763 5.5478 44.3422 6.61903 42.5132L18.5425 22.1523C19.6138 20.3233 21.9941 19.6918 23.8594 20.7423C25.7247 21.7924 26.3685 24.1267 25.2973 25.9558L13.3737 46.3166C12.6537 47.5462 11.3419 48.2343 9.99276 48.2343Z" fill="#FFEC2D"/>
<path d="M3.89143 37.8044C3.23352 37.8044 2.56701 37.6408 1.95565 37.2965C0.0906464 36.2463 -0.553267 33.9123 0.517948 32.0832L6.33335 22.1523C7.40457 20.3233 9.78485 19.6918 11.6501 20.7423C13.5154 21.7927 14.1593 24.1267 13.0881 25.9558L7.27245 35.8865C6.55237 37.116 5.24062 37.8044 3.89143 37.8044Z" fill="#FFEC2D"/>
<path d="M22.2022 48.2344C21.5443 48.2344 20.8778 48.0708 20.2665 47.7267C18.4012 46.6763 17.7573 44.3423 18.8285 42.5132L24.6442 32.582C25.7151 30.7529 28.0954 30.1215 29.9609 31.1719C31.8262 32.2224 32.4701 34.5564 31.3989 36.3855L25.5833 46.3167C24.8632 47.5462 23.5514 48.2344 22.2022 48.2344Z" fill="#FFEC2D"/>
<path d="M34.1303 27.8719C36.2811 27.8719 38.0247 26.1622 38.0247 24.0531C38.0247 21.9441 36.2811 20.2344 34.1303 20.2344C31.9794 20.2344 30.2358 21.9441 30.2358 24.0531C30.2358 26.1622 31.9794 27.8719 34.1303 27.8719Z" fill="#FFEC2D"/>
<path d="M22.2022 48.2344C21.5443 48.2344 20.8778 48.0708 20.2665 47.7267C18.4012 46.6763 17.7573 44.3423 18.8285 42.5132L24.6442 32.582C25.7151 30.7529 28.0954 30.1215 29.9609 31.1719C31.8262 32.2224 32.4701 34.5564 31.3989 36.3855L25.5833 46.3167C24.8632 47.5462 23.5514 48.2344 22.2022 48.2344Z" fill="#FFEC2D"/>
</g>
<defs>
<clipPath id="clip0_10866_4807">
<rect width="145" height="28" fill="white" transform="translate(0 20.2344)"/>
</clipPath>
</defs>
</svg>
