<svg width="65" height="64" viewBox="0 0 65 64" fill="none" xmlns="http://www.w3.org/2000/svg">
<path d="M10.917 39C11.4693 39 11.917 38.5523 11.917 38C11.917 37.4477 11.4693 37 10.917 37C10.3647 37 9.91699 37.4477 9.91699 38C9.91699 38.5523 10.3647 39 10.917 39Z" fill="black"/>
<path d="M18.0919 32.9863C17.5396 32.9863 17.0919 33.434 17.0919 33.9863C17.0919 34.5386 17.5396 34.9863 18.0919 34.9863H47.4564C48.0087 34.9863 48.4564 34.5386 48.4564 33.9863C48.4564 33.434 48.0087 32.9863 47.4564 32.9863H18.0919Z" fill="black"/>
<path d="M55.9554 37.9629C55.9554 38.5152 55.5077 38.9629 54.9554 38.9629C54.4032 38.9629 53.9554 38.5152 53.9554 37.9629C53.9554 37.4106 54.4032 36.9629 54.9554 36.9629C55.5077 36.9629 55.9554 37.4106 55.9554 37.9629Z" fill="black"/>
<path fill-rule="evenodd" clip-rule="evenodd" d="M15.5009 40C14.7294 41.7659 12.9673 43 10.917 43C8.86667 43 7.10459 41.7659 6.33304 40H5.7391C3.7407 40 1.91699 38.5336 1.91699 36.4877V32.5123C1.91699 30.4664 3.7407 29 5.7391 29H9.41341L12.2665 25.1507C12.803 24.4269 13.6506 24 14.5516 24L47.6508 24C48.4641 24 49.2384 24.3481 49.7782 24.9564L53.3665 29H60.0949C62.0933 29 63.917 30.4664 63.917 32.5123V36.4877C63.917 38.5336 62.0933 40 60.0949 40H59.5009C58.7294 41.7659 56.9673 43 54.917 43C52.8667 43 51.1046 41.7659 50.333 40H15.5009ZM7.91699 38C7.91699 36.3431 9.26014 35 10.917 35C12.5738 35 13.917 36.3431 13.917 38C13.917 39.6569 12.5738 41 10.917 41C9.26014 41 7.91699 39.6569 7.91699 38ZM10.917 33C8.15557 33 5.91699 35.2386 5.91699 38H5.7391C4.62028 38 3.91699 37.2168 3.91699 36.4877V32.5123C3.91699 31.7832 4.62028 31 5.7391 31H60.0949C61.2137 31 61.917 31.7832 61.917 32.5123V36.4877C61.917 37.2168 61.2137 38 60.0949 38H59.917C59.917 35.2386 57.6784 33 54.917 33C52.1556 33 49.917 35.2386 49.917 38H15.917C15.917 35.2386 13.6784 33 10.917 33ZM50.6926 29H41.917V26L47.6508 26C47.8922 26 48.1221 26.1033 48.2823 26.2839L50.6926 29ZM39.917 29H31.917V26L39.917 26V29ZM29.917 29H21.917V26L29.917 26V29ZM19.917 29H11.9029L13.8732 26.3416C14.0325 26.1268 14.2841 26 14.5516 26L19.917 26V29ZM54.917 35C53.2601 35 51.917 36.3431 51.917 38C51.917 39.6569 53.2601 41 54.917 41C56.5738 41 57.917 39.6569 57.917 38C57.917 36.3431 56.5738 35 54.917 35Z" fill="black"/>
</svg>
