<svg width="65" height="64" viewBox="0 0 65 64" fill="none" xmlns="http://www.w3.org/2000/svg">
<path d="M37.917 17C37.3647 17 36.917 17.4477 36.917 18C36.917 18.5523 37.3647 19 37.917 19H38.917C39.4693 19 39.917 18.5523 39.917 18C39.917 17.4477 39.4693 17 38.917 17H37.917Z" fill="black"/>
<path d="M47.917 18C47.917 17.4477 48.3647 17 48.917 17H49.917C50.4693 17 50.917 17.4477 50.917 18C50.917 18.5523 50.4693 19 49.917 19H48.917C48.3647 19 47.917 18.5523 47.917 18Z" fill="black"/>
<path d="M25.917 18C25.917 17.4477 26.3647 17 26.917 17H27.917C28.4693 17 28.917 17.4477 28.917 18C28.917 18.5523 28.4693 19 27.917 19H26.917C26.3647 19 25.917 18.5523 25.917 18Z" fill="black"/>
<path fill-rule="evenodd" clip-rule="evenodd" d="M20.917 55C20.3647 55 19.917 54.5523 19.917 54V11C19.917 10.4477 20.3647 10 20.917 10H54.917C55.4693 10 55.917 10.4477 55.917 11V54C55.917 54.5523 55.4693 55 54.917 55H20.917ZM21.917 24V53H24.917V40C24.917 37.9497 26.1511 36.1876 27.917 35.416V27C27.917 25.8954 28.8124 25 29.917 25H31.917C33.0216 25 33.917 25.8954 33.917 27V35.416C35.6829 36.1876 36.917 37.9497 36.917 40V53H38.917V40C38.917 37.9497 40.1511 36.1876 41.917 35.416V27C41.917 25.8954 42.8124 25 43.917 25H45.917C47.0216 25 47.917 25.8954 47.917 27V35.416C49.6829 36.1876 50.917 37.9497 50.917 40V53H53.917V24H21.917ZM21.917 18V12H53.917V18V22H51.9175C53.1316 21.0878 53.917 19.6356 53.917 18C53.917 15.2386 51.6784 13 48.917 13C46.1556 13 43.917 15.2386 43.917 18C43.917 19.6356 44.7023 21.0878 45.9165 22H40.9175C42.1316 21.0878 42.917 19.6356 42.917 18C42.917 15.2386 40.6784 13 37.917 13C35.1556 13 32.917 15.2386 32.917 18C32.917 19.6356 33.7023 21.0878 34.9165 22H29.9175C31.1316 21.0878 31.917 19.6356 31.917 18C31.917 15.2386 29.6784 13 26.917 13C24.1556 13 21.917 15.2386 21.917 18ZM21.917 18C21.917 19.6356 22.7023 21.0878 23.9165 22H21.917V18ZM26.917 40V53H34.917V40C34.917 38.7729 34.18 37.7135 33.1162 37.2487L31.917 36.7248V31H29.917V36.7248L28.7177 37.2487C27.654 37.7135 26.917 38.7729 26.917 40ZM48.917 53H40.917V40C40.917 38.7729 41.654 37.7135 42.7177 37.2487L43.917 36.7248V31H45.917V36.7248L47.1162 37.2487C48.18 37.7135 48.917 38.7729 48.917 40V53ZM45.917 27V29H43.917V27H45.917ZM31.917 29V27H29.917V29H31.917ZM40.917 18C40.917 19.6569 39.5738 21 37.917 21C36.2601 21 34.917 19.6569 34.917 18C34.917 16.3431 36.2601 15 37.917 15C39.5738 15 40.917 16.3431 40.917 18ZM48.917 21C50.5738 21 51.917 19.6569 51.917 18C51.917 16.3431 50.5738 15 48.917 15C47.2601 15 45.917 16.3431 45.917 18C45.917 19.6569 47.2601 21 48.917 21ZM29.917 18C29.917 19.6569 28.5738 21 26.917 21C25.2601 21 23.917 19.6569 23.917 18C23.917 16.3431 25.2601 15 26.917 15C28.5738 15 29.917 16.3431 29.917 18Z" fill="black"/>
<path fill-rule="evenodd" clip-rule="evenodd" d="M9.91699 23V8.5C9.91699 6.56701 11.484 5 13.417 5C14.4709 5 15.416 5.46582 16.0577 6.2028C16.7838 5.46061 17.7966 5 18.917 5H56.917C59.1261 5 60.917 6.79086 60.917 9V56C60.917 58.2091 59.1261 60 56.917 60H18.917C17.7966 60 16.7838 59.5394 16.0577 58.7972C15.416 59.5342 14.4709 60 13.417 60C11.484 60 9.91699 58.433 9.91699 56.5V41H8.91699C6.70785 41 4.91699 39.2091 4.91699 37V27C4.91699 24.7909 6.70785 23 8.91699 23H9.91699ZM11.917 8.5C11.917 7.67157 12.5886 7 13.417 7C14.2454 7 14.917 7.67157 14.917 8.5V56.5C14.917 57.3284 14.2454 58 13.417 58C12.5886 58 11.917 57.3284 11.917 56.5V8.5ZM9.91699 25V39H8.91699C7.81242 39 6.91699 38.1046 6.91699 37V27C6.91699 25.8954 7.81242 25 8.91699 25H9.91699ZM18.917 7C17.8124 7 16.917 7.89543 16.917 9V56C16.917 57.1046 17.8124 58 18.917 58H56.917C58.0216 58 58.917 57.1046 58.917 56V9C58.917 7.89543 58.0216 7 56.917 7H18.917Z" fill="black"/>
</svg>
