<svg width="57" height="55" viewBox="0 0 57 55" fill="none" xmlns="http://www.w3.org/2000/svg">
<path d="M33.917 12C33.3647 12 32.917 12.4477 32.917 13C32.917 13.5523 33.3647 14 33.917 14H34.917C35.4693 14 35.917 13.5523 35.917 13C35.917 12.4477 35.4693 12 34.917 12H33.917Z" fill="black"/>
<path d="M43.917 13C43.917 12.4477 44.3647 12 44.917 12H45.917C46.4693 12 46.917 12.4477 46.917 13C46.917 13.5523 46.4693 14 45.917 14H44.917C44.3647 14 43.917 13.5523 43.917 13Z" fill="black"/>
<path d="M21.917 13C21.917 12.4477 22.3647 12 22.917 12H23.917C24.4693 12 24.917 12.4477 24.917 13C24.917 13.5523 24.4693 14 23.917 14H22.917C22.3647 14 21.917 13.5523 21.917 13Z" fill="black"/>
<path fill-rule="evenodd" clip-rule="evenodd" d="M16.917 50C16.3647 50 15.917 49.5523 15.917 49V6C15.917 5.44772 16.3647 5 16.917 5H50.917C51.4693 5 51.917 5.44772 51.917 6V49C51.917 49.5523 51.4693 50 50.917 50H16.917ZM17.917 19V48H20.917V35C20.917 32.9497 22.1511 31.1876 23.917 30.416V22C23.917 20.8954 24.8124 20 25.917 20H27.917C29.0216 20 29.917 20.8954 29.917 22V30.416C31.6829 31.1876 32.917 32.9497 32.917 35V48H34.917V35C34.917 32.9497 36.1511 31.1876 37.917 30.416V22C37.917 20.8954 38.8124 20 39.917 20H41.917C43.0216 20 43.917 20.8954 43.917 22V30.416C45.6829 31.1876 46.917 32.9497 46.917 35V48H49.917V19H17.917ZM17.917 13V7H49.917V13V17H47.9175C49.1316 16.0878 49.917 14.6356 49.917 13C49.917 10.2386 47.6784 8 44.917 8C42.1556 8 39.917 10.2386 39.917 13C39.917 14.6356 40.7023 16.0878 41.9165 17H36.9175C38.1316 16.0878 38.917 14.6356 38.917 13C38.917 10.2386 36.6784 8 33.917 8C31.1556 8 28.917 10.2386 28.917 13C28.917 14.6356 29.7023 16.0878 30.9165 17H25.9175C27.1316 16.0878 27.917 14.6356 27.917 13C27.917 10.2386 25.6784 8 22.917 8C20.1556 8 17.917 10.2386 17.917 13ZM17.917 13C17.917 14.6356 18.7023 16.0878 19.9165 17H17.917V13ZM22.917 35V48H30.917V35C30.917 33.7729 30.18 32.7135 29.1162 32.2487L27.917 31.7248V26H25.917V31.7248L24.7177 32.2487C23.654 32.7135 22.917 33.7729 22.917 35ZM44.917 48H36.917V35C36.917 33.7729 37.654 32.7135 38.7177 32.2487L39.917 31.7248V26H41.917V31.7248L43.1162 32.2487C44.18 32.7135 44.917 33.7729 44.917 35V48ZM41.917 22V24H39.917V22H41.917ZM27.917 24V22H25.917V24H27.917ZM36.917 13C36.917 14.6569 35.5738 16 33.917 16C32.2601 16 30.917 14.6569 30.917 13C30.917 11.3431 32.2601 10 33.917 10C35.5738 10 36.917 11.3431 36.917 13ZM44.917 16C46.5738 16 47.917 14.6569 47.917 13C47.917 11.3431 46.5738 10 44.917 10C43.2601 10 41.917 11.3431 41.917 13C41.917 14.6569 43.2601 16 44.917 16ZM25.917 13C25.917 14.6569 24.5738 16 22.917 16C21.2601 16 19.917 14.6569 19.917 13C19.917 11.3431 21.2601 10 22.917 10C24.5738 10 25.917 11.3431 25.917 13Z" fill="black"/>
<path fill-rule="evenodd" clip-rule="evenodd" d="M5.91699 18V3.5C5.91699 1.56701 7.484 0 9.41699 0C10.4709 0 11.416 0.46582 12.0577 1.2028C12.7838 0.460613 13.7966 0 14.917 0H52.917C55.1261 0 56.917 1.79086 56.917 4V51C56.917 53.2091 55.1261 55 52.917 55H14.917C13.7966 55 12.7838 54.5394 12.0577 53.7972C11.416 54.5342 10.4709 55 9.41699 55C7.484 55 5.91699 53.433 5.91699 51.5V36H4.91699C2.70785 36 0.916992 34.2091 0.916992 32V22C0.916992 19.7909 2.70785 18 4.91699 18H5.91699ZM7.91699 3.5C7.91699 2.67157 8.58856 2 9.41699 2C10.2454 2 10.917 2.67157 10.917 3.5V51.5C10.917 52.3284 10.2454 53 9.41699 53C8.58856 53 7.91699 52.3284 7.91699 51.5V3.5ZM5.91699 20V34H4.91699C3.81242 34 2.91699 33.1046 2.91699 32V22C2.91699 20.8954 3.81242 20 4.91699 20H5.91699ZM14.917 2C13.8124 2 12.917 2.89543 12.917 4V51C12.917 52.1046 13.8124 53 14.917 53H52.917C54.0216 53 54.917 52.1046 54.917 51V4C54.917 2.89543 54.0216 2 52.917 2H14.917Z" fill="black"/>
</svg>
